M48
;Layer_Color=9474304
;FILE_FORMAT=2:4
INCH,TZ
;TYPE=PLATED
T1F00S00C0.0197
%
T01
X47238Y28258
Y28799
X47920
Y28258
X47921Y30236
Y30778
X48602
Y30236
X47239
Y30778
X46557
Y30236
X45866Y30266
Y30807
X45184
Y30266
X44503
Y30807
X43821
Y30266
X43150Y30295
Y30837
X42478
Y30295
X41796
Y30837
X41114
Y30295
X40432
Y30837
X39750
Y30295
X39069
Y30837
X38387
Y30295
X38397Y28809
Y28268
X37715
Y28809
X37033
Y28268
X36351
Y28809
X35669
Y28268
X39078
Y28809
X39760
Y28268
X40442
Y28809
X41124
Y28268
X41806
Y28809
X42487
Y28268
X43169
Y28809
X43829Y28799
Y28258
X44511
Y28799
X45192
Y28258
X45874
Y28799
X46556
Y28258
M30
