G04*
G04 #@! TF.GenerationSoftware,Altium Limited,Altium Designer,22.5.1 (42)*
G04*
G04 Layer_Physical_Order=4*
G04 Layer_Color=16711680*
%FSLAX25Y25*%
%MOIN*%
G70*
G04*
G04 #@! TF.SameCoordinates,407AD2AB-4410-4D32-8071-BEDB4B14A2C6*
G04*
G04*
G04 #@! TF.FilePolarity,Positive*
G04*
G01*
G75*
%ADD10C,0.01000*%
%ADD13C,0.01181*%
%ADD50R,0.04724X0.11811*%
%ADD66R,0.19685X0.11811*%
%ADD67R,0.07874X0.11811*%
%ADD68C,0.02362*%
%ADD69C,0.03937*%
G36*
X464865Y367746D02*
X464884Y367518D01*
X464900Y367416D01*
X464921Y367323D01*
X464947Y367238D01*
X464978Y367162D01*
X465013Y367095D01*
X465054Y367036D01*
X465098Y366985D01*
X463445D01*
X463490Y367036D01*
X463530Y367095D01*
X463565Y367162D01*
X463596Y367238D01*
X463622Y367323D01*
X463643Y367416D01*
X463660Y367518D01*
X463672Y367628D01*
X463681Y367873D01*
X464862D01*
X464865Y367746D01*
D02*
G37*
G36*
X416545Y361933D02*
X416545D01*
X416674Y361803D01*
X416878Y361499D01*
X417018Y361160D01*
X417090Y360801D01*
X417090Y360618D01*
X417090Y360099D01*
X417090Y359624D01*
D01*
X417085Y359147D01*
X416913Y358282D01*
X416566Y357445D01*
X416063Y356692D01*
X414190Y354819D01*
X412553Y353725D01*
X410733Y352971D01*
X408801Y352587D01*
X407816Y352587D01*
X377575D01*
Y352587D01*
X377423Y352580D01*
X377126Y352520D01*
X376846Y352404D01*
X376594Y352236D01*
X376482Y352134D01*
X376482D01*
X376289Y351921D01*
X375969Y351443D01*
X375749Y350912D01*
X375637Y350348D01*
X375623Y350061D01*
Y349115D01*
X375623D01*
Y348971D01*
X375566Y348686D01*
X375455Y348419D01*
X375294Y348178D01*
X375192Y348075D01*
Y348075D01*
X375070Y347953D01*
X374783Y347761D01*
X374464Y347629D01*
X374125Y347562D01*
X373952Y347562D01*
X373426D01*
X373311Y347585D01*
X373203Y347629D01*
X373106Y347694D01*
X372401Y348399D01*
X372312Y348862D01*
Y349136D01*
X372310Y349290D01*
X372310Y351793D01*
X372320Y351994D01*
X372315Y352291D01*
X372310Y352606D01*
X372310Y352606D01*
X372345Y353092D01*
X372431Y353520D01*
X372667Y354091D01*
X373010Y354605D01*
X373603Y355197D01*
X374483Y355786D01*
X375462Y356191D01*
X376501Y356398D01*
X377030Y356398D01*
X405534Y356398D01*
X406004Y356398D01*
X406004Y356398D01*
X406004Y356398D01*
X406700Y356432D01*
X408066Y356703D01*
X409352Y357236D01*
X410509Y358010D01*
X411026Y358478D01*
X411471Y358923D01*
X411535Y358994D01*
X411642Y359153D01*
X411642Y359153D01*
X411715Y359331D01*
X411753Y359519D01*
X411757Y359615D01*
X411757Y361021D01*
X411771Y361088D01*
X411797Y361151D01*
X411835Y361207D01*
X411859Y361231D01*
X412251Y361624D01*
X412604Y361860D01*
X412996Y362022D01*
X413412Y362105D01*
X413624Y362105D01*
X416116Y362105D01*
X416545Y361933D01*
D02*
G37*
G36*
X552146Y361151D02*
X551646Y360999D01*
X551529Y361175D01*
X551529Y361175D01*
X528342Y384361D01*
X528534Y384823D01*
X552146D01*
Y361151D01*
D02*
G37*
G36*
X509425Y357776D02*
X509524Y357776D01*
X509719Y357737D01*
X509902Y357661D01*
X510068Y357551D01*
X510212Y357406D01*
X510328Y357232D01*
X510348Y357184D01*
X510449Y356728D01*
X510449Y356728D01*
X510449D01*
X510449Y356728D01*
X510447Y355966D01*
X510446Y355579D01*
X510449Y355503D01*
X510449Y355503D01*
X510449Y354621D01*
X510449Y354491D01*
X510399Y354235D01*
X510299Y353995D01*
X510154Y353779D01*
X509991Y353615D01*
X509824Y353503D01*
X509796Y353492D01*
X509339Y353387D01*
X509339Y353387D01*
X475501Y353387D01*
X475275Y353376D01*
X474833Y353288D01*
X474416Y353115D01*
X474041Y352864D01*
X473873Y352713D01*
X473873Y352713D01*
Y352713D01*
X472701Y351540D01*
X472563Y351448D01*
X472409Y351384D01*
X472246Y351352D01*
X472163Y351352D01*
X468532D01*
X468309Y351396D01*
X468100Y351483D01*
X467911Y351609D01*
X467831Y351689D01*
X467623Y351897D01*
X467554Y352001D01*
X467506Y352116D01*
X467482Y352238D01*
Y352301D01*
X467474Y352537D01*
X467474Y352694D01*
X467497Y353006D01*
X467543Y353316D01*
X467612Y353622D01*
X467657Y353771D01*
X467657Y353771D01*
Y354218D01*
X467832Y355094D01*
X468173Y355919D01*
X468646Y356627D01*
X468985Y356977D01*
X468985Y356977D01*
X468985Y356978D01*
X469348Y357310D01*
X469644Y357508D01*
X470072Y357685D01*
X470526Y357776D01*
X470758D01*
X470758Y357776D01*
X509425Y357776D01*
D02*
G37*
G36*
X484163Y350886D02*
X484395D01*
X484850Y350795D01*
X485278Y350618D01*
X485663Y350361D01*
X486037Y349986D01*
X486368Y349491D01*
X486596Y348940D01*
X486713Y348356D01*
X486713Y348058D01*
X486713Y339177D01*
X486740Y338617D01*
X486959Y337519D01*
X487387Y336484D01*
X488009Y335553D01*
X488386Y335138D01*
X488557Y334983D01*
X488940Y334727D01*
X489366Y334550D01*
X489819Y334460D01*
X490049Y334449D01*
X500091D01*
Y334449D01*
X500257D01*
X500582Y334384D01*
X500887Y334258D01*
X501162Y334074D01*
X501326Y333910D01*
X501400Y333800D01*
X501450Y333678D01*
X501476Y333548D01*
X501476Y333481D01*
X501476Y293748D01*
X501476Y293748D01*
Y293550D01*
X501399Y293160D01*
X501247Y292793D01*
X501026Y292463D01*
X500886Y292323D01*
X500554Y291956D01*
X500005Y291135D01*
X499626Y290222D01*
X499434Y289253D01*
X499409Y288758D01*
Y288742D01*
X499409Y288742D01*
Y288603D01*
X499382Y288468D01*
X499382Y287971D01*
X499382Y287971D01*
X499382Y287500D01*
Y276962D01*
X499358Y276838D01*
X499257Y276594D01*
X476397D01*
Y288386D01*
X476321Y288770D01*
X476103Y289095D01*
X475778Y289313D01*
X475394Y289389D01*
X472619D01*
X472413Y289595D01*
X472041Y290152D01*
X471784Y290771D01*
X471654Y291428D01*
Y291763D01*
Y333468D01*
X471654Y333468D01*
X471654Y333468D01*
X471634Y333863D01*
X471616Y333952D01*
X471480Y334638D01*
X471177Y335368D01*
X470738Y336026D01*
X470472Y336319D01*
X470375Y336407D01*
X470156Y336554D01*
X469912Y336655D01*
X469654Y336706D01*
X469522Y336713D01*
X462811Y336713D01*
X462681Y336738D01*
X462558Y336789D01*
X462448Y336863D01*
X462331Y336980D01*
X462221Y337145D01*
X462145Y337328D01*
X462106Y337523D01*
Y346569D01*
X462248Y347283D01*
X462527Y347956D01*
X462931Y348562D01*
X463517Y349147D01*
X464287Y349661D01*
X465143Y350016D01*
X466052Y350197D01*
X466516Y350197D01*
X467545D01*
X467562Y350185D01*
X467772Y350098D01*
X467907Y350071D01*
X468035Y350018D01*
X468258Y349974D01*
X468396D01*
X468532Y349947D01*
X472163D01*
X472246Y349947D01*
X472382Y349974D01*
X472520Y349974D01*
X472683Y350007D01*
X472769Y350042D01*
X472827Y350063D01*
X472947Y350086D01*
X472948Y350087D01*
X473100Y350150D01*
X473204Y350197D01*
X473303Y350202D01*
X473497Y350240D01*
X473497Y350240D01*
X473680Y350316D01*
X473844Y350426D01*
X473917Y350492D01*
X474011Y350586D01*
X474231Y350733D01*
X474476Y350834D01*
X474735Y350886D01*
X474868Y350886D01*
X484163Y350886D01*
Y350886D01*
D02*
G37*
G36*
X388878Y341603D02*
X388818Y341578D01*
X388209Y340969D01*
X387879Y340173D01*
Y339312D01*
X388209Y338516D01*
X388452Y338272D01*
X388342Y338008D01*
X387828Y337237D01*
X387500Y336910D01*
X387125Y336535D01*
X386245Y335947D01*
X385266Y335541D01*
X384228Y335335D01*
X383698Y335335D01*
Y335335D01*
X383698Y335335D01*
Y335335D01*
X377172Y335335D01*
X377008Y335327D01*
X376685Y335262D01*
X376380Y335136D01*
X376106Y334953D01*
X375984Y334842D01*
X375984Y334842D01*
X375984Y334842D01*
X375782Y334641D01*
X375674Y334521D01*
X375673Y334520D01*
X375653Y334490D01*
X375492Y334249D01*
X375367Y333947D01*
X375303Y333628D01*
X375295Y333465D01*
Y318701D01*
X374766D01*
X373970Y318371D01*
X373361Y317762D01*
X373031Y316966D01*
Y316105D01*
X373361Y315309D01*
X373970Y314700D01*
X374766Y314370D01*
X375295D01*
Y300000D01*
X375320Y299488D01*
X375520Y298482D01*
X375912Y297536D01*
X376482Y296684D01*
X376826Y296304D01*
X376826Y296304D01*
X376826Y296304D01*
X377596Y295534D01*
X378125Y295005D01*
X378957Y293759D01*
X379531Y292375D01*
X379823Y290906D01*
X379823Y290158D01*
X379823D01*
X379823Y290158D01*
Y276594D01*
X359271D01*
Y344670D01*
X359663Y344931D01*
X360213Y345159D01*
X360797Y345276D01*
X361095Y345276D01*
X361095Y345276D01*
X376160D01*
X376654Y345300D01*
X377623Y345493D01*
X378536Y345871D01*
X379358Y346420D01*
X379724Y346752D01*
X379813Y346850D01*
X379959Y347069D01*
X380060Y347312D01*
X380112Y347571D01*
X380118Y347702D01*
X380118Y347702D01*
Y349197D01*
X380144Y349327D01*
X380195Y349449D01*
X380268Y349559D01*
X380362Y349653D01*
X380472Y349727D01*
X380594Y349777D01*
X380724Y349803D01*
X380790Y349803D01*
X380790Y349803D01*
X388878D01*
X388878Y341603D01*
D02*
G37*
G36*
X401476Y350886D02*
X401547Y350816D01*
X401657Y350651D01*
X401666Y350629D01*
X401772Y350173D01*
X401772Y350173D01*
X401772D01*
X401772Y350173D01*
Y349006D01*
X401783Y348775D01*
X401873Y348323D01*
X402049Y347897D01*
X402306Y347514D01*
X402461Y347342D01*
X402680Y347143D01*
X403173Y346814D01*
X403721Y346587D01*
X404303Y346471D01*
X404599Y346457D01*
X413772Y346457D01*
X413938Y346457D01*
X414263Y346392D01*
X414568Y346266D01*
X414844Y346082D01*
X414961Y345965D01*
X415382Y345543D01*
X416044Y344553D01*
X416500Y343452D01*
X416732Y342283D01*
X416732Y341687D01*
X416732D01*
X416732Y341687D01*
X416732Y337901D01*
X416732Y337735D01*
X416668Y337411D01*
X416541Y337105D01*
X416357Y336830D01*
X416030Y336502D01*
X415534Y336171D01*
X414984Y335943D01*
X414399Y335827D01*
X408332Y335827D01*
X408201Y335820D01*
X407942Y335769D01*
X407699Y335668D01*
X407480Y335522D01*
X407382Y335433D01*
X407116Y335140D01*
X406677Y334483D01*
X406374Y333752D01*
X406238Y333066D01*
X406220Y332977D01*
X406201Y332582D01*
X406201Y332582D01*
X406201Y332582D01*
X406201Y294003D01*
X406201Y293407D01*
X405968Y292239D01*
X405512Y291138D01*
X404850Y290147D01*
X404429Y289726D01*
X404429Y289726D01*
X404194Y289323D01*
X404144Y289313D01*
X403818Y289095D01*
X403601Y288770D01*
X403524Y288386D01*
Y276594D01*
X381228D01*
Y290158D01*
X381228Y290158D01*
X381228Y290906D01*
X381201Y291042D01*
Y291180D01*
X381102Y291675D01*
Y291687D01*
X381073Y292280D01*
X380842Y293443D01*
X380388Y294539D01*
X379729Y295525D01*
X379331Y295965D01*
X379331Y295965D01*
X378722Y296573D01*
X377766Y298004D01*
X377107Y299594D01*
X376772Y301282D01*
Y302143D01*
Y314491D01*
X377245Y314964D01*
X377582Y315548D01*
X377756Y316198D01*
Y316872D01*
X377582Y317523D01*
X377245Y318107D01*
X376772Y318580D01*
Y333635D01*
X376783Y333653D01*
X376800Y333672D01*
X376953Y333824D01*
X376973Y333843D01*
X377046Y333891D01*
X377094Y333911D01*
X377180Y333928D01*
X377207Y333930D01*
X383698Y333930D01*
X384228Y333930D01*
X384363Y333957D01*
X384502D01*
X385541Y334163D01*
X385668Y334216D01*
X385804Y334243D01*
X386776Y334646D01*
X391831D01*
X392096Y334939D01*
X392536Y335596D01*
X392838Y336327D01*
X392992Y337102D01*
X393012Y337497D01*
X393012Y337497D01*
Y346752D01*
X393012Y346799D01*
X393030Y346891D01*
X393066Y346977D01*
X393118Y347055D01*
X393151Y347088D01*
X393209Y347146D01*
X393326Y347263D01*
X393601Y347447D01*
X393907Y347573D01*
X394231Y347638D01*
X394397Y347638D01*
X394397Y347638D01*
X395801D01*
X395933Y347644D01*
X396192Y347696D01*
X396435Y347797D01*
X396654Y347943D01*
X396752Y348031D01*
X396863Y348154D01*
X397046Y348428D01*
X397172Y348732D01*
X397236Y349055D01*
X397244Y349220D01*
X397244Y349220D01*
Y350511D01*
X397363Y350644D01*
X397485Y350766D01*
X397619Y350886D01*
X401476Y350886D01*
D02*
G37*
G36*
X539978Y338165D02*
X539938Y338106D01*
X539903Y338038D01*
X539872Y337962D01*
X539846Y337877D01*
X539825Y337784D01*
X539808Y337683D01*
X539797Y337573D01*
X539787Y337327D01*
X538606D01*
X538604Y337454D01*
X538585Y337683D01*
X538568Y337784D01*
X538547Y337877D01*
X538521Y337962D01*
X538490Y338038D01*
X538455Y338106D01*
X538415Y338165D01*
X538370Y338215D01*
X540023D01*
X539978Y338165D01*
D02*
G37*
G36*
X455759Y345177D02*
X455958Y345177D01*
X456347Y345100D01*
X456714Y344948D01*
X457045Y344727D01*
X457302Y344470D01*
X457486Y344194D01*
X457613Y343889D01*
X457619Y343857D01*
X457677Y343399D01*
Y343398D01*
X457677D01*
X457677Y343398D01*
X457659Y337500D01*
X457659Y337381D01*
X457677Y337008D01*
X457677D01*
X457682Y336915D01*
X457718Y336732D01*
X457789Y336560D01*
X457893Y336405D01*
X457956Y336336D01*
X457956D01*
X458957Y335335D01*
X459128Y335180D01*
X459511Y334923D01*
X459937Y334747D01*
X460390Y334657D01*
X460620Y334646D01*
X468538Y334646D01*
X468670Y334646D01*
X468930Y334594D01*
X469174Y334493D01*
X469395Y334346D01*
X469488Y334252D01*
X469558Y334182D01*
X469669Y334017D01*
X469678Y333995D01*
X469783Y333539D01*
X469783Y333539D01*
X469783D01*
X469783Y333539D01*
X469783Y296167D01*
X469775Y295703D01*
X469775Y295703D01*
X469775Y295703D01*
X469775Y295703D01*
X469783Y294675D01*
X469783Y294443D01*
X469693Y293989D01*
X469516Y293561D01*
X469258Y293176D01*
X468790Y292708D01*
X468075Y292230D01*
X467280Y291900D01*
X466436Y291732D01*
X453099Y291732D01*
X452901Y291722D01*
X452514Y291645D01*
X452148Y291494D01*
X451820Y291275D01*
X451673Y291142D01*
X451474Y290922D01*
X451145Y290429D01*
X450951Y289961D01*
X450405D01*
Y276594D01*
X429539D01*
Y289961D01*
X429232D01*
X429061Y290116D01*
X428678Y290372D01*
X428252Y290548D01*
X427800Y290638D01*
X427569Y290650D01*
X427569Y290650D01*
X427569Y290650D01*
X427569Y290650D01*
X409176D01*
X408982Y290688D01*
X408798Y290764D01*
X408633Y290875D01*
X408516Y290992D01*
X408443Y291102D01*
X408392Y291224D01*
X408366Y291354D01*
X408366Y291420D01*
Y332842D01*
X408366Y333042D01*
X408444Y333435D01*
X408597Y333805D01*
X408820Y334138D01*
X408961Y334279D01*
X409033Y334351D01*
X409103Y334421D01*
X409104Y334422D01*
X414399Y334422D01*
X414535Y334449D01*
X414674D01*
X415258Y334565D01*
X415386Y334618D01*
X415521Y334645D01*
X415523Y334646D01*
X423241D01*
X423378Y334652D01*
X423645Y334705D01*
X423897Y334810D01*
X424123Y334961D01*
X424224Y335053D01*
X424670Y335498D01*
X424811Y335654D01*
X425043Y336002D01*
X425203Y336388D01*
X425285Y336799D01*
X425295Y337008D01*
X425295Y337008D01*
Y342042D01*
X425437Y342756D01*
X425716Y343428D01*
X426121Y344034D01*
X426378Y344291D01*
X426589Y344502D01*
X427084Y344833D01*
X427634Y345061D01*
X428219Y345177D01*
X428516D01*
X428516Y345177D01*
X455759Y345177D01*
D02*
G37*
G36*
X542867Y333775D02*
X542827Y333716D01*
X542792Y333649D01*
X542761Y333573D01*
X542735Y333488D01*
X542714Y333395D01*
X542697Y333293D01*
X542685Y333183D01*
X542676Y332938D01*
X541495D01*
X541492Y333065D01*
X541473Y333293D01*
X541457Y333395D01*
X541436Y333488D01*
X541410Y333573D01*
X541379Y333649D01*
X541343Y333716D01*
X541303Y333775D01*
X541258Y333826D01*
X542912D01*
X542867Y333775D01*
D02*
G37*
G36*
X466933Y384361D02*
X463136Y380564D01*
X462788Y380044D01*
X462666Y379429D01*
X462666Y379429D01*
Y367662D01*
X462665Y367652D01*
X462658Y367609D01*
X462652Y367585D01*
X462436Y367368D01*
X462106Y366572D01*
Y365711D01*
X462436Y364915D01*
X463045Y364306D01*
X463841Y363976D01*
X464702D01*
X465498Y364306D01*
X466107Y364915D01*
X466437Y365711D01*
Y366572D01*
X466107Y367368D01*
X465891Y367585D01*
X465885Y367609D01*
X465880Y367640D01*
X465877Y367676D01*
Y378764D01*
X469464Y382351D01*
X525811D01*
X548788Y359374D01*
Y297417D01*
X547892Y296521D01*
X547544Y296000D01*
X547422Y295386D01*
X547422Y295386D01*
Y289567D01*
X544530D01*
Y301255D01*
X544738Y301462D01*
X544738Y301462D01*
X545086Y301983D01*
X545208Y302598D01*
X545208Y302598D01*
Y328045D01*
X545208Y328045D01*
X545086Y328659D01*
X544738Y329180D01*
X544738Y329180D01*
X543691Y330227D01*
Y333149D01*
X543692Y333159D01*
X543699Y333202D01*
X543704Y333226D01*
X543921Y333443D01*
X544251Y334239D01*
Y335100D01*
X543921Y335896D01*
X543312Y336505D01*
X542516Y336835D01*
X541655D01*
X541302Y336689D01*
X540802Y337023D01*
Y337539D01*
X540803Y337548D01*
X540810Y337592D01*
X540816Y337615D01*
X541032Y337832D01*
X541362Y338628D01*
Y339489D01*
X541032Y340285D01*
X540423Y340894D01*
X539627Y341224D01*
X538766D01*
X537970Y340894D01*
X537361Y340285D01*
X537031Y339489D01*
Y338628D01*
X537361Y337832D01*
X537577Y337615D01*
X537583Y337592D01*
X537588Y337561D01*
X537591Y337524D01*
Y329129D01*
X537591Y329129D01*
X537713Y328514D01*
X538061Y327993D01*
X539635Y326420D01*
Y319576D01*
X539135Y319476D01*
X538926Y319979D01*
X538871Y320061D01*
X538834Y320152D01*
X538166Y321152D01*
X538096Y321222D01*
X538041Y321304D01*
X537191Y322154D01*
X537109Y322209D01*
X537039Y322279D01*
X536039Y322946D01*
X535948Y322984D01*
X535866Y323039D01*
X534755Y323499D01*
X534658Y323518D01*
X534567Y323556D01*
X533388Y323791D01*
X533289D01*
X533192Y323810D01*
X531990D01*
X531893Y323791D01*
X531795D01*
X530616Y323556D01*
X530524Y323518D01*
X530427Y323499D01*
X529317Y323039D01*
X529235Y322984D01*
X529143Y322946D01*
X528144Y322279D01*
X528074Y322209D01*
X527992Y322154D01*
X527142Y321304D01*
X527087Y321222D01*
X527017Y321152D01*
X526349Y320152D01*
X526311Y320061D01*
X526256Y319979D01*
X525796Y318868D01*
X525777Y318771D01*
X525739Y318680D01*
X525505Y317501D01*
Y317402D01*
X525485Y317305D01*
Y316103D01*
X525505Y316006D01*
Y315907D01*
X525739Y314728D01*
X525777Y314637D01*
X525796Y314540D01*
X526256Y313430D01*
X526311Y313347D01*
X526349Y313256D01*
X527017Y312257D01*
X527087Y312187D01*
X527142Y312105D01*
X527992Y311255D01*
X528074Y311200D01*
X528144Y311130D01*
X529143Y310462D01*
X529235Y310424D01*
X529317Y310369D01*
X530427Y309909D01*
X530524Y309890D01*
X530616Y309852D01*
X531795Y309617D01*
X531893D01*
X531990Y309598D01*
X533192D01*
X533289Y309617D01*
X533388D01*
X534567Y309852D01*
X534658Y309890D01*
X534755Y309909D01*
X535866Y310369D01*
X535948Y310424D01*
X536039Y310462D01*
X537039Y311130D01*
X537109Y311200D01*
X537191Y311255D01*
X538041Y312105D01*
X538096Y312187D01*
X538166Y312257D01*
X538834Y313256D01*
X538871Y313347D01*
X538926Y313430D01*
X539135Y313932D01*
X539635Y313833D01*
Y308145D01*
X535687Y304198D01*
X535339Y303677D01*
X535217Y303063D01*
X535217Y303063D01*
Y289567D01*
X527374D01*
Y276594D01*
X522218D01*
Y353284D01*
X522186Y353934D01*
X521932Y355208D01*
X521435Y356409D01*
X520713Y357490D01*
X520276Y357972D01*
X520276Y357972D01*
X519762Y358437D01*
X518612Y359206D01*
X517334Y359735D01*
X515977Y360005D01*
X515286Y360039D01*
X444008D01*
X442963Y360472D01*
X442866Y360491D01*
X442775Y360529D01*
X441596Y360764D01*
X441497D01*
X441400Y360783D01*
X440198D01*
X440101Y360764D01*
X440002D01*
X438824Y360529D01*
X438732Y360491D01*
X438635Y360472D01*
X437590Y360039D01*
X418576D01*
X418093Y360099D01*
X418093Y360618D01*
X418093Y360801D01*
X418074Y360898D01*
Y360997D01*
X418002Y361356D01*
X417965Y361447D01*
X417945Y361544D01*
X417805Y361883D01*
X417750Y361965D01*
X417712Y362056D01*
X417509Y362361D01*
X417439Y362431D01*
X417384Y362513D01*
X417254Y362642D01*
X417250Y362646D01*
X417247Y362650D01*
X417088Y362754D01*
X416929Y362860D01*
X416923Y362861D01*
X416919Y362864D01*
X416490Y363036D01*
X416302Y363071D01*
X416116Y363108D01*
X413624Y363108D01*
X413412Y363108D01*
X413315Y363089D01*
X413216D01*
X412800Y363006D01*
X412709Y362968D01*
X412612Y362949D01*
X412220Y362787D01*
X412138Y362732D01*
X412046Y362694D01*
X411694Y362458D01*
X411624Y362389D01*
X411542Y362334D01*
X411149Y361941D01*
X411149Y361941D01*
X411149Y361941D01*
X411125Y361917D01*
X411070Y361835D01*
X411000Y361765D01*
X410962Y361708D01*
X410924Y361617D01*
X410870Y361535D01*
X410844Y361472D01*
X410824Y361375D01*
X410813Y361347D01*
Y361347D01*
X410786Y361283D01*
X410773Y361217D01*
Y361118D01*
X410754Y361021D01*
X410754Y360039D01*
X359271D01*
Y384823D01*
X466742D01*
X466933Y384361D01*
D02*
G37*
G36*
X541997Y305313D02*
Y303263D01*
X541789Y303056D01*
X541441Y302535D01*
X541319Y301920D01*
X541319Y301920D01*
Y289567D01*
X538428D01*
Y302398D01*
X541535Y305504D01*
X541997Y305313D01*
D02*
G37*
G36*
X549624Y289527D02*
X549641Y289327D01*
X549671Y289149D01*
X549712Y288996D01*
X549765Y288866D01*
X549830Y288760D01*
X549907Y288677D01*
X549996Y288618D01*
X550096Y288582D01*
X550208Y288571D01*
X547846D01*
X547958Y288582D01*
X548059Y288618D01*
X548147Y288677D01*
X548224Y288760D01*
X548289Y288866D01*
X548342Y288996D01*
X548384Y289149D01*
X548413Y289327D01*
X548431Y289527D01*
X548437Y289752D01*
X549618D01*
X549624Y289527D01*
D02*
G37*
G36*
X543521D02*
X543539Y289327D01*
X543569Y289149D01*
X543610Y288996D01*
X543663Y288866D01*
X543728Y288760D01*
X543805Y288677D01*
X543893Y288618D01*
X543994Y288582D01*
X544106Y288571D01*
X541744D01*
X541856Y288582D01*
X541956Y288618D01*
X542045Y288677D01*
X542122Y288760D01*
X542187Y288866D01*
X542240Y288996D01*
X542281Y289149D01*
X542311Y289327D01*
X542328Y289527D01*
X542334Y289752D01*
X543515D01*
X543521Y289527D01*
D02*
G37*
G36*
X537419D02*
X537437Y289327D01*
X537466Y289149D01*
X537507Y288996D01*
X537561Y288866D01*
X537626Y288760D01*
X537702Y288677D01*
X537791Y288618D01*
X537891Y288582D01*
X538004Y288571D01*
X535641D01*
X535754Y288582D01*
X535854Y288618D01*
X535943Y288677D01*
X536019Y288760D01*
X536084Y288866D01*
X536137Y288996D01*
X536179Y289149D01*
X536208Y289327D01*
X536226Y289527D01*
X536232Y289752D01*
X537413D01*
X537419Y289527D01*
D02*
G37*
G36*
X495711Y352367D02*
X495711Y352367D01*
X495853Y352155D01*
X495951Y351919D01*
X496001Y351668D01*
X496000Y351540D01*
X496001Y348699D01*
X496006Y348588D01*
X496049Y348370D01*
X496135Y348164D01*
X496258Y347979D01*
X496333Y347896D01*
X496599Y347656D01*
X497193Y347258D01*
X497855Y346984D01*
X498557Y346845D01*
X498914Y346827D01*
X515551D01*
X517424Y346850D01*
X517424Y346850D01*
X517424Y346850D01*
X517425D01*
X517886Y346837D01*
X518600Y346695D01*
X519334Y346391D01*
X519995Y345950D01*
X520510Y345435D01*
X520877Y344885D01*
X521131Y344273D01*
X521260Y343624D01*
Y343293D01*
X521260Y276594D01*
X500787D01*
Y287500D01*
X500787Y287971D01*
X500787Y287971D01*
X500787Y287971D01*
X500787Y288468D01*
X500981Y289441D01*
X501361Y290359D01*
X501913Y291184D01*
X502264Y291535D01*
X502529Y291828D01*
X502967Y292484D01*
X503269Y293213D01*
X503423Y293986D01*
X503442Y294381D01*
X503442Y335298D01*
X503442Y335298D01*
X503442Y335298D01*
X503440Y335351D01*
X503419Y335455D01*
X503419Y335455D01*
X503379Y335553D01*
X503379Y335553D01*
X503320Y335641D01*
X503320Y335641D01*
X503284Y335680D01*
X503284Y335680D01*
X503237Y335723D01*
X503119Y335829D01*
X502750Y336076D01*
X502339Y336246D01*
X501903Y336333D01*
X501681Y336344D01*
X493558Y336344D01*
X493239Y336344D01*
X492613Y336469D01*
X492024Y336713D01*
X491493Y337067D01*
X491268Y337293D01*
X490879Y337681D01*
X490268Y338595D01*
X489848Y339611D01*
X489633Y340689D01*
Y351354D01*
X489675Y351564D01*
X489757Y351762D01*
X489877Y351941D01*
X490319Y352383D01*
X495695D01*
X495711Y352367D01*
D02*
G37*
G36*
X460302Y290243D02*
X460505Y289941D01*
X460644Y289604D01*
X460715Y289247D01*
Y289066D01*
Y288811D01*
X460687Y288770D01*
X460611Y288386D01*
Y276594D01*
X451810D01*
Y288878D01*
X451944Y288967D01*
Y288967D01*
X451944D01*
X452005Y289058D01*
X452249Y289423D01*
X452390Y289763D01*
X452585Y290055D01*
X452668Y290147D01*
X452687Y290164D01*
X452814Y290249D01*
X452923Y290295D01*
X453074Y290324D01*
X453133Y290327D01*
X460218Y290327D01*
X460302Y290243D01*
D02*
G37*
G36*
X427627Y289240D02*
X427842Y289197D01*
X428012Y289127D01*
X428134Y289045D01*
Y276594D01*
X419311D01*
Y288386D01*
X419239Y288745D01*
X419238Y288776D01*
X419518Y289245D01*
X427534D01*
X427627Y289240D01*
D02*
G37*
%LPC*%
G36*
X465844Y341820D02*
X464983D01*
X464187Y341491D01*
X463578Y340882D01*
X463248Y340086D01*
Y339224D01*
X463578Y338428D01*
X464187Y337819D01*
X464983Y337490D01*
X465844D01*
X466640Y337819D01*
X467249Y338428D01*
X467579Y339224D01*
Y340086D01*
X467249Y340882D01*
X466640Y341491D01*
X465844Y341820D01*
D02*
G37*
G36*
X483727Y341738D02*
X482865D01*
X482069Y341408D01*
X481460Y340799D01*
X481130Y340003D01*
Y339142D01*
X481460Y338346D01*
X482069Y337737D01*
X482865Y337407D01*
X483727D01*
X484522Y337737D01*
X485132Y338346D01*
X485461Y339142D01*
Y340003D01*
X485132Y340799D01*
X484522Y341408D01*
X483727Y341738D01*
D02*
G37*
G36*
X476693Y333676D02*
X475832D01*
X475036Y333347D01*
X474427Y332738D01*
X474097Y331942D01*
Y331080D01*
X474427Y330284D01*
X475036Y329675D01*
X475832Y329346D01*
X476693D01*
X477489Y329675D01*
X478098Y330284D01*
X478428Y331080D01*
Y331942D01*
X478098Y332738D01*
X477489Y333347D01*
X476693Y333676D01*
D02*
G37*
G36*
X476830Y312401D02*
X475969D01*
X475173Y312071D01*
X474564Y311462D01*
X474234Y310666D01*
Y309805D01*
X474564Y309009D01*
X475173Y308400D01*
X475969Y308070D01*
X476830D01*
X477626Y308400D01*
X478235Y309009D01*
X478565Y309805D01*
Y310666D01*
X478235Y311462D01*
X477626Y312071D01*
X476830Y312401D01*
D02*
G37*
G36*
X372476Y341756D02*
X371615D01*
X370819Y341427D01*
X370210Y340818D01*
X369880Y340022D01*
Y339160D01*
X370210Y338365D01*
X370819Y337755D01*
X371615Y337426D01*
X372476D01*
X373272Y337755D01*
X373881Y338365D01*
X374211Y339160D01*
Y340022D01*
X373881Y340818D01*
X373272Y341427D01*
X372476Y341756D01*
D02*
G37*
G36*
X368049Y315021D02*
X367187D01*
X366391Y314691D01*
X365782Y314082D01*
X365453Y313286D01*
Y312425D01*
X365782Y311629D01*
X366391Y311020D01*
X367187Y310690D01*
X368049D01*
X368845Y311020D01*
X369454Y311629D01*
X369783Y312425D01*
Y313286D01*
X369454Y314082D01*
X368845Y314691D01*
X368049Y315021D01*
D02*
G37*
G36*
X401547Y342028D02*
X400685D01*
X399889Y341698D01*
X399280Y341089D01*
X398951Y340293D01*
Y339432D01*
X399280Y338636D01*
X399889Y338026D01*
X400685Y337697D01*
X401547D01*
X402343Y338026D01*
X402952Y338636D01*
X403281Y339432D01*
Y340293D01*
X402952Y341089D01*
X402343Y341698D01*
X401547Y342028D01*
D02*
G37*
G36*
X401021Y318799D02*
X400160D01*
X399364Y318470D01*
X398755Y317860D01*
X398425Y317065D01*
Y316203D01*
X398723Y315483D01*
X398577Y315248D01*
X398391Y315080D01*
X398167Y315173D01*
X397305D01*
X396510Y314843D01*
X395901Y314234D01*
X395571Y313438D01*
Y312576D01*
X395901Y311781D01*
X396510Y311171D01*
X397305Y310842D01*
X398167D01*
X398963Y311171D01*
X399572Y311781D01*
X399902Y312576D01*
Y313438D01*
X399603Y314158D01*
X399749Y314393D01*
X399936Y314561D01*
X400160Y314469D01*
X401021D01*
X401817Y314798D01*
X402426Y315407D01*
X402756Y316203D01*
Y317065D01*
X402426Y317860D01*
X401817Y318470D01*
X401021Y318799D01*
D02*
G37*
G36*
X438354Y340058D02*
X437680D01*
X437030Y339884D01*
X436574Y339621D01*
X436118Y339884D01*
X435467Y340058D01*
X434793D01*
X434142Y339884D01*
X433559Y339547D01*
X433082Y339070D01*
X432746Y338487D01*
X432571Y337836D01*
Y337162D01*
X432746Y336511D01*
X432991Y336087D01*
X432746Y335663D01*
X432571Y335012D01*
Y334338D01*
X432746Y333687D01*
X432991Y333263D01*
X432746Y332839D01*
X432571Y332188D01*
Y331514D01*
X432746Y330863D01*
X432991Y330439D01*
X432746Y330015D01*
X432571Y329364D01*
Y328690D01*
X432746Y328039D01*
X433082Y327456D01*
X433559Y326979D01*
X434142Y326642D01*
X434793Y326468D01*
X435467D01*
X436118Y326642D01*
X436574Y326906D01*
X437030Y326642D01*
X437680Y326468D01*
X438354D01*
X439005Y326642D01*
X439589Y326979D01*
X440065Y327456D01*
X440402Y328039D01*
X440577Y328690D01*
Y329364D01*
X440402Y330015D01*
X440157Y330439D01*
X440402Y330863D01*
X440577Y331514D01*
Y332188D01*
X440402Y332839D01*
X440157Y333263D01*
X440402Y333687D01*
X440577Y334338D01*
Y335012D01*
X440402Y335663D01*
X440157Y336087D01*
X440402Y336511D01*
X440577Y337162D01*
Y337836D01*
X440402Y338487D01*
X440065Y339070D01*
X439589Y339547D01*
X439005Y339884D01*
X438354Y340058D01*
D02*
G37*
G36*
X438289Y318602D02*
X437616D01*
X436965Y318428D01*
X436496Y318157D01*
X436027Y318428D01*
X435376Y318602D01*
X434702D01*
X434052Y318428D01*
X433468Y318091D01*
X432992Y317615D01*
X432655Y317031D01*
X432480Y316380D01*
Y315706D01*
X432655Y315055D01*
X432902Y314628D01*
X432655Y314200D01*
X432480Y313549D01*
Y312875D01*
X432655Y312224D01*
X432902Y311796D01*
X432655Y311369D01*
X432480Y310718D01*
Y310044D01*
X432655Y309393D01*
X432902Y308965D01*
X432655Y308538D01*
X432480Y307887D01*
Y307213D01*
X432655Y306562D01*
X432992Y305978D01*
X433468Y305502D01*
X434052Y305165D01*
X434702Y304991D01*
X435376D01*
X436027Y305165D01*
X436496Y305436D01*
X436965Y305165D01*
X437616Y304991D01*
X438289D01*
X438940Y305165D01*
X439524Y305502D01*
X440000Y305978D01*
X440337Y306562D01*
X440512Y307213D01*
Y307887D01*
X440337Y308538D01*
X440090Y308965D01*
X440337Y309393D01*
X440512Y310044D01*
Y310718D01*
X440337Y311369D01*
X440090Y311796D01*
X440337Y312224D01*
X440512Y312875D01*
Y313549D01*
X440337Y314200D01*
X440090Y314628D01*
X440337Y315055D01*
X440512Y315706D01*
Y316380D01*
X440337Y317031D01*
X440000Y317615D01*
X439524Y318091D01*
X438940Y318428D01*
X438289Y318602D01*
D02*
G37*
%LPD*%
G36*
X438463Y338575D02*
X438726Y338423D01*
X438941Y338208D01*
X439093Y337945D01*
X439172Y337651D01*
Y337347D01*
X439093Y337054D01*
X438940Y336790D01*
X438881Y336616D01*
X438800Y336451D01*
X438794Y336358D01*
X438764Y336270D01*
X438776Y336087D01*
X438764Y335904D01*
X438794Y335816D01*
X438800Y335723D01*
X438881Y335559D01*
X438940Y335385D01*
X439093Y335121D01*
X439172Y334827D01*
Y334523D01*
X439093Y334230D01*
X438940Y333966D01*
X438881Y333792D01*
X438800Y333627D01*
X438794Y333534D01*
X438764Y333447D01*
X438776Y333263D01*
X438764Y333080D01*
X438794Y332992D01*
X438800Y332899D01*
X438881Y332735D01*
X438940Y332561D01*
X439093Y332297D01*
X439172Y332003D01*
Y331699D01*
X439093Y331406D01*
X438940Y331142D01*
X438881Y330968D01*
X438800Y330803D01*
X438794Y330710D01*
X438764Y330623D01*
X438776Y330439D01*
X438764Y330256D01*
X438794Y330168D01*
X438800Y330076D01*
X438881Y329911D01*
X438940Y329737D01*
X439093Y329473D01*
X439172Y329179D01*
Y328875D01*
X439093Y328582D01*
X438941Y328319D01*
X438726Y328104D01*
X438463Y327952D01*
X438169Y327873D01*
X437865D01*
X437572Y327952D01*
X437276Y328122D01*
X437102Y328182D01*
X436938Y328263D01*
X436845Y328269D01*
X436757Y328299D01*
X436574Y328287D01*
X436390Y328299D01*
X436303Y328269D01*
X436210Y328263D01*
X436045Y328182D01*
X435871Y328122D01*
X435576Y327952D01*
X435282Y327873D01*
X434978D01*
X434685Y327952D01*
X434422Y328104D01*
X434207Y328319D01*
X434055Y328582D01*
X433976Y328875D01*
Y329179D01*
X434055Y329473D01*
X434207Y329737D01*
X434266Y329911D01*
X434348Y330076D01*
X434354Y330168D01*
X434383Y330256D01*
X434372Y330439D01*
X434383Y330623D01*
X434354Y330710D01*
X434348Y330803D01*
X434266Y330968D01*
X434207Y331142D01*
X434055Y331406D01*
X433976Y331699D01*
Y332003D01*
X434055Y332297D01*
X434207Y332561D01*
X434266Y332735D01*
X434348Y332899D01*
X434354Y332992D01*
X434383Y333080D01*
X434372Y333263D01*
X434383Y333447D01*
X434354Y333534D01*
X434348Y333627D01*
X434266Y333792D01*
X434207Y333966D01*
X434055Y334230D01*
X433976Y334523D01*
Y334827D01*
X434055Y335121D01*
X434207Y335385D01*
X434266Y335559D01*
X434348Y335723D01*
X434354Y335816D01*
X434383Y335904D01*
X434372Y336087D01*
X434383Y336270D01*
X434354Y336358D01*
X434348Y336451D01*
X434266Y336616D01*
X434207Y336790D01*
X434055Y337054D01*
X433976Y337347D01*
Y337651D01*
X434055Y337945D01*
X434207Y338208D01*
X434422Y338423D01*
X434685Y338575D01*
X434978Y338653D01*
X435282D01*
X435576Y338575D01*
X435871Y338404D01*
X436045Y338345D01*
X436210Y338264D01*
X436303Y338258D01*
X436390Y338228D01*
X436574Y338240D01*
X436757Y338228D01*
X436845Y338258D01*
X436938Y338264D01*
X437102Y338345D01*
X437276Y338404D01*
X437572Y338575D01*
X437865Y338653D01*
X438169D01*
X438463Y338575D01*
D02*
G37*
G36*
X438398Y317119D02*
X438661Y316967D01*
X438876Y316752D01*
X439028Y316489D01*
X439107Y316195D01*
Y315891D01*
X439028Y315598D01*
X438873Y315330D01*
X438814Y315156D01*
X438733Y314991D01*
X438727Y314899D01*
X438697Y314811D01*
X438709Y314628D01*
X438697Y314444D01*
X438727Y314357D01*
X438733Y314264D01*
X438814Y314099D01*
X438873Y313925D01*
X439028Y313658D01*
X439107Y313364D01*
Y313060D01*
X439028Y312767D01*
X438873Y312499D01*
X438814Y312325D01*
X438733Y312160D01*
X438727Y312068D01*
X438697Y311980D01*
X438709Y311796D01*
X438697Y311613D01*
X438727Y311525D01*
X438733Y311433D01*
X438814Y311268D01*
X438873Y311094D01*
X439028Y310826D01*
X439107Y310533D01*
Y310229D01*
X439028Y309935D01*
X438873Y309668D01*
X438814Y309494D01*
X438733Y309329D01*
X438727Y309237D01*
X438697Y309149D01*
X438709Y308965D01*
X438697Y308782D01*
X438727Y308694D01*
X438733Y308602D01*
X438814Y308437D01*
X438873Y308263D01*
X439028Y307995D01*
X439107Y307702D01*
Y307398D01*
X439028Y307104D01*
X438876Y306841D01*
X438661Y306626D01*
X438398Y306474D01*
X438104Y306396D01*
X437801D01*
X437507Y306474D01*
X437198Y306652D01*
X437024Y306712D01*
X436860Y306793D01*
X436767Y306799D01*
X436679Y306829D01*
X436496Y306817D01*
X436313Y306829D01*
X436225Y306799D01*
X436132Y306793D01*
X435967Y306712D01*
X435793Y306652D01*
X435485Y306474D01*
X435191Y306396D01*
X434887D01*
X434594Y306474D01*
X434331Y306626D01*
X434116Y306841D01*
X433964Y307104D01*
X433885Y307398D01*
Y307702D01*
X433964Y307995D01*
X434119Y308263D01*
X434177Y308437D01*
X434259Y308602D01*
X434265Y308694D01*
X434295Y308782D01*
X434283Y308965D01*
X434295Y309149D01*
X434265Y309237D01*
X434259Y309329D01*
X434177Y309494D01*
X434119Y309668D01*
X433964Y309935D01*
X433885Y310229D01*
Y310533D01*
X433964Y310826D01*
X434119Y311094D01*
X434177Y311268D01*
X434259Y311433D01*
X434265Y311525D01*
X434295Y311613D01*
X434283Y311796D01*
X434295Y311980D01*
X434265Y312068D01*
X434259Y312160D01*
X434177Y312325D01*
X434119Y312499D01*
X433964Y312767D01*
X433885Y313060D01*
Y313364D01*
X433964Y313658D01*
X434119Y313925D01*
X434177Y314099D01*
X434259Y314264D01*
X434265Y314357D01*
X434295Y314444D01*
X434283Y314628D01*
X434295Y314811D01*
X434265Y314899D01*
X434259Y314991D01*
X434177Y315156D01*
X434119Y315330D01*
X433964Y315598D01*
X433885Y315891D01*
Y316195D01*
X433964Y316489D01*
X434116Y316752D01*
X434331Y316967D01*
X434594Y317119D01*
X434887Y317197D01*
X435191D01*
X435485Y317119D01*
X435793Y316941D01*
X435967Y316881D01*
X436132Y316800D01*
X436225Y316794D01*
X436313Y316764D01*
X436496Y316776D01*
X436679Y316764D01*
X436767Y316794D01*
X436860Y316800D01*
X437024Y316881D01*
X437198Y316941D01*
X437507Y317119D01*
X437801Y317197D01*
X438104D01*
X438398Y317119D01*
D02*
G37*
%LPC*%
G36*
X471128Y371051D02*
X470266D01*
X469470Y370721D01*
X468861Y370112D01*
X468532Y369316D01*
Y368455D01*
X468861Y367659D01*
X469470Y367050D01*
X470266Y366720D01*
X471128D01*
X471923Y367050D01*
X471932Y367058D01*
X471949Y367040D01*
X472745Y366711D01*
X473606D01*
X474402Y367040D01*
X475011Y367650D01*
X475341Y368445D01*
Y369307D01*
X475011Y370103D01*
X474402Y370712D01*
X473606Y371041D01*
X472745D01*
X471949Y370712D01*
X471941Y370704D01*
X471923Y370721D01*
X471128Y371051D01*
D02*
G37*
G36*
X376630Y369390D02*
X375769D01*
X374973Y369060D01*
X374364Y368451D01*
X374035Y367655D01*
Y366794D01*
X374364Y365998D01*
X374973Y365389D01*
X375769Y365059D01*
X376630D01*
X377293Y365334D01*
X377295Y365331D01*
X378091Y365002D01*
X378953D01*
X379749Y365331D01*
X380358Y365940D01*
X380687Y366736D01*
Y367598D01*
X380358Y368394D01*
X379749Y369003D01*
X378953Y369332D01*
X378091D01*
X377429Y369058D01*
X377426Y369060D01*
X376630Y369390D01*
D02*
G37*
G36*
X512992Y366836D02*
X512130D01*
X511335Y366507D01*
X510725Y365897D01*
X510396Y365102D01*
Y364240D01*
X510725Y363444D01*
X511335Y362835D01*
X512130Y362506D01*
X512992D01*
X513788Y362835D01*
X513796Y362843D01*
X513814Y362826D01*
X514609Y362496D01*
X515471D01*
X516267Y362826D01*
X516876Y363435D01*
X517205Y364231D01*
Y365092D01*
X516876Y365888D01*
X516267Y366497D01*
X515471Y366827D01*
X514609D01*
X513814Y366497D01*
X513805Y366489D01*
X513788Y366507D01*
X512992Y366836D01*
D02*
G37*
%LPD*%
G36*
X471516Y369804D02*
X471557Y369777D01*
X471941Y369700D01*
X472325Y369777D01*
X472344Y369789D01*
X472945Y370038D01*
X473407D01*
X473834Y369861D01*
X474161Y369534D01*
X474338Y369107D01*
Y368645D01*
X474161Y368218D01*
X473834Y367891D01*
X473407Y367714D01*
X472945D01*
X472356Y367958D01*
X472316Y367985D01*
X471932Y368062D01*
X471548Y367985D01*
X471529Y367973D01*
X470928Y367724D01*
X470466D01*
X470039Y367901D01*
X469712Y368228D01*
X469535Y368655D01*
Y369117D01*
X469712Y369544D01*
X470039Y369871D01*
X470466Y370047D01*
X470928D01*
X471516Y369804D01*
D02*
G37*
G36*
X377040Y368134D02*
X377045Y368131D01*
X377429Y368054D01*
X377813Y368131D01*
X377813Y368131D01*
X378291Y368329D01*
X378753D01*
X379180Y368152D01*
X379507Y367825D01*
X379684Y367398D01*
Y366936D01*
X379507Y366509D01*
X379180Y366182D01*
X378753Y366005D01*
X378291D01*
X377682Y366257D01*
X377677Y366261D01*
X377293Y366337D01*
X376909Y366261D01*
X376909Y366261D01*
X376431Y366063D01*
X375969D01*
X375542Y366240D01*
X375215Y366566D01*
X375038Y366993D01*
Y367456D01*
X375215Y367882D01*
X375542Y368209D01*
X375969Y368386D01*
X376431D01*
X377040Y368134D01*
D02*
G37*
G36*
X513381Y365589D02*
X513421Y365562D01*
X513805Y365485D01*
X514189Y365562D01*
X514208Y365574D01*
X514809Y365823D01*
X515271D01*
X515698Y365646D01*
X516025Y365319D01*
X516202Y364893D01*
Y364430D01*
X516025Y364003D01*
X515698Y363677D01*
X515271Y363500D01*
X514809D01*
X514221Y363743D01*
X514180Y363771D01*
X513796Y363847D01*
X513412Y363771D01*
X513393Y363758D01*
X512792Y363509D01*
X512330D01*
X511903Y363686D01*
X511576Y364013D01*
X511399Y364440D01*
Y364902D01*
X511576Y365329D01*
X511903Y365656D01*
X512330Y365833D01*
X512792D01*
X513381Y365589D01*
D02*
G37*
%LPC*%
G36*
X513833Y341903D02*
X512972D01*
X512176Y341573D01*
X511567Y340964D01*
X511237Y340168D01*
Y339307D01*
X511567Y338511D01*
X512176Y337902D01*
X512972Y337572D01*
X513833D01*
X514629Y337902D01*
X515238Y338511D01*
X515568Y339307D01*
Y340168D01*
X515238Y340964D01*
X514629Y341573D01*
X513833Y341903D01*
D02*
G37*
G36*
X495868Y341779D02*
X495007D01*
X494211Y341449D01*
X493602Y340840D01*
X493272Y340044D01*
Y339183D01*
X493602Y338387D01*
X494211Y337778D01*
X495007Y337448D01*
X495868D01*
X496664Y337778D01*
X497273Y338387D01*
X497603Y339183D01*
Y340044D01*
X497273Y340840D01*
X496664Y341449D01*
X495868Y341779D01*
D02*
G37*
G36*
X508855Y333642D02*
X507994D01*
X507198Y333313D01*
X506589Y332703D01*
X506259Y331908D01*
Y331046D01*
X506589Y330250D01*
X507198Y329641D01*
X507994Y329311D01*
X508855D01*
X509651Y329641D01*
X510260Y330250D01*
X510590Y331046D01*
Y331908D01*
X510260Y332703D01*
X509651Y333313D01*
X508855Y333642D01*
D02*
G37*
G36*
X509001Y312292D02*
X508140D01*
X507344Y311963D01*
X506735Y311353D01*
X506405Y310558D01*
Y309696D01*
X506735Y308900D01*
X507344Y308291D01*
X508140Y307962D01*
X509001D01*
X509797Y308291D01*
X510406Y308900D01*
X510736Y309696D01*
Y310558D01*
X510406Y311353D01*
X509797Y311963D01*
X509001Y312292D01*
D02*
G37*
%LPD*%
D10*
X489687Y355161D02*
X506958D01*
X489280Y355567D02*
X489687Y355161D01*
X472043Y355567D02*
X489280D01*
X469341Y352865D02*
X472043Y355567D01*
D13*
X464272Y379429D02*
X468799Y383957D01*
X464272Y366142D02*
Y379429D01*
X468799Y383957D02*
X526476D01*
X550394Y360039D01*
Y296752D02*
Y360039D01*
X549027Y282677D02*
Y295386D01*
X550394Y296752D01*
X542925Y282677D02*
Y301920D01*
X536823Y282677D02*
Y303063D01*
X543602Y302598D02*
Y328045D01*
X542085Y329562D02*
X543602Y328045D01*
X542085Y329562D02*
Y334669D01*
X541240Y307480D02*
Y327085D01*
X539197Y329129D02*
Y339059D01*
Y329129D02*
X541240Y327085D01*
X542925Y301920D02*
X543602Y302598D01*
X536823Y303063D02*
X541240Y307480D01*
D50*
X524618Y282677D02*
D03*
X530720D02*
D03*
X536823D02*
D03*
X542925D02*
D03*
X549027D02*
D03*
D66*
X439972D02*
D03*
X392728D02*
D03*
X369106D02*
D03*
X487216D02*
D03*
X510838D02*
D03*
D67*
X424224D02*
D03*
X455720D02*
D03*
D68*
X413272Y360637D02*
D03*
X527953Y331988D02*
D03*
X426772Y363779D02*
D03*
X362992Y381004D02*
D03*
X539764Y354134D02*
D03*
X544193Y377461D02*
D03*
X546850Y299311D02*
D03*
X540059Y295177D02*
D03*
X464272Y366142D02*
D03*
X455315Y362205D02*
D03*
X372045Y339591D02*
D03*
X367618Y312856D02*
D03*
X375197Y316535D02*
D03*
X364534Y331004D02*
D03*
X361647Y328215D02*
D03*
X367421Y331004D02*
D03*
X364534Y325427D02*
D03*
X361647Y322638D02*
D03*
X364534D02*
D03*
X367421Y328215D02*
D03*
X361647Y325427D02*
D03*
X367421D02*
D03*
X361647Y331004D02*
D03*
X367421Y322638D02*
D03*
X364534Y328215D02*
D03*
X364586Y308665D02*
D03*
X367473D02*
D03*
X397736Y313007D02*
D03*
X530721Y285466D02*
D03*
X530721Y279889D02*
D03*
X530721Y282677D02*
D03*
X524618Y279889D02*
D03*
X524618Y285466D02*
D03*
Y282677D02*
D03*
X368480Y357236D02*
D03*
X371688Y357218D02*
D03*
X371660Y361848D02*
D03*
X368483Y361820D02*
D03*
X515040Y364661D02*
D03*
X512561Y364671D02*
D03*
X403451Y363485D02*
D03*
X470697Y368886D02*
D03*
X473176Y368876D02*
D03*
X376200Y367224D02*
D03*
X378522Y367167D02*
D03*
X542085Y334669D02*
D03*
X539197Y339059D02*
D03*
X382868Y375591D02*
D03*
X507373Y368725D02*
D03*
X475961Y375350D02*
D03*
X437953Y307550D02*
D03*
X435039D02*
D03*
Y313212D02*
D03*
Y310381D02*
D03*
X437953D02*
D03*
Y313212D02*
D03*
Y316043D02*
D03*
X435039D02*
D03*
X385433Y347933D02*
D03*
X382579D02*
D03*
X476083Y349410D02*
D03*
X478937D02*
D03*
X491142Y345571D02*
D03*
X491043Y347835D02*
D03*
X438017Y329027D02*
D03*
X435130D02*
D03*
Y337499D02*
D03*
Y334675D02*
D03*
Y331851D02*
D03*
X438017D02*
D03*
Y334675D02*
D03*
Y337499D02*
D03*
X361699Y305877D02*
D03*
Y308665D02*
D03*
Y303088D02*
D03*
Y300299D02*
D03*
X364586Y305877D02*
D03*
Y303088D02*
D03*
Y300299D02*
D03*
X367473D02*
D03*
Y303088D02*
D03*
Y305877D02*
D03*
X510868Y317053D02*
D03*
Y319842D02*
D03*
Y322630D02*
D03*
Y325419D02*
D03*
X513755D02*
D03*
Y322630D02*
D03*
Y319842D02*
D03*
X513755Y317053D02*
D03*
X516642Y325419D02*
D03*
Y322630D02*
D03*
Y317053D02*
D03*
Y319842D02*
D03*
X516741Y298779D02*
D03*
X516741Y295990D02*
D03*
Y301567D02*
D03*
Y304356D02*
D03*
X513854Y295990D02*
D03*
Y298779D02*
D03*
Y301567D02*
D03*
Y304356D02*
D03*
X510966D02*
D03*
Y301567D02*
D03*
Y298779D02*
D03*
Y295990D02*
D03*
X490793Y305177D02*
D03*
X496567D02*
D03*
Y299600D02*
D03*
Y302389D02*
D03*
X487906Y305177D02*
D03*
X490793Y299600D02*
D03*
X493680Y305177D02*
D03*
Y302389D02*
D03*
X490793D02*
D03*
X487906Y299600D02*
D03*
Y302389D02*
D03*
X493680Y299600D02*
D03*
X450219Y305177D02*
D03*
X459602Y302487D02*
D03*
X456715Y299698D02*
D03*
X453528Y305149D02*
D03*
X450219Y299600D02*
D03*
Y302389D02*
D03*
X453528Y299572D02*
D03*
X459602Y305276D02*
D03*
Y299698D02*
D03*
X456715Y305276D02*
D03*
Y302487D02*
D03*
X453528Y302361D02*
D03*
X415418Y305177D02*
D03*
X418306D02*
D03*
Y299600D02*
D03*
X415418Y302389D02*
D03*
X424080Y305177D02*
D03*
X418306Y302389D02*
D03*
X424080Y299600D02*
D03*
X421193Y305177D02*
D03*
X424080Y302389D02*
D03*
X421193D02*
D03*
Y299600D02*
D03*
X415418D02*
D03*
X391294Y302389D02*
D03*
X385520Y305177D02*
D03*
Y302389D02*
D03*
X388407D02*
D03*
X391294Y299600D02*
D03*
X382633Y305177D02*
D03*
X385520Y299600D02*
D03*
X391294Y305177D02*
D03*
X388407Y299600D02*
D03*
X382633D02*
D03*
Y302389D02*
D03*
X388407Y305177D02*
D03*
X421095Y321232D02*
D03*
X423982D02*
D03*
X421095Y324021D02*
D03*
X415321Y321232D02*
D03*
X418208D02*
D03*
X421095Y326810D02*
D03*
X418208Y324021D02*
D03*
X415321Y326810D02*
D03*
X423982Y324021D02*
D03*
Y326810D02*
D03*
X418208D02*
D03*
X415321Y324021D02*
D03*
X387944D02*
D03*
Y321232D02*
D03*
Y326810D02*
D03*
X382170D02*
D03*
X385057Y321232D02*
D03*
Y326810D02*
D03*
X390831D02*
D03*
X385057Y324021D02*
D03*
X382170D02*
D03*
Y321232D02*
D03*
X390831D02*
D03*
Y324021D02*
D03*
X453561Y323993D02*
D03*
X450252Y324021D02*
D03*
X453561Y326782D02*
D03*
X459635Y326908D02*
D03*
Y321331D02*
D03*
X450252Y321232D02*
D03*
Y326810D02*
D03*
X456748Y326908D02*
D03*
Y324119D02*
D03*
X453561Y321204D02*
D03*
X459635Y324119D02*
D03*
X456748Y321331D02*
D03*
X493695Y321232D02*
D03*
X490808Y324021D02*
D03*
X487921D02*
D03*
X490808Y321232D02*
D03*
X496582Y324021D02*
D03*
X493695Y326810D02*
D03*
X487921D02*
D03*
X493695Y324021D02*
D03*
X496582Y326810D02*
D03*
X490808D02*
D03*
X487921Y321232D02*
D03*
X496582D02*
D03*
X374174Y351555D02*
D03*
X374116Y349233D02*
D03*
X415666Y360657D02*
D03*
X506958Y355161D02*
D03*
X508991Y355185D02*
D03*
X471708Y352793D02*
D03*
X469341Y352865D02*
D03*
X508425Y331477D02*
D03*
X476262Y331511D02*
D03*
X476399Y310235D02*
D03*
X508570Y310127D02*
D03*
X513402Y339738D02*
D03*
X495438Y339614D02*
D03*
X483296Y339572D02*
D03*
X465414Y339655D02*
D03*
X390045Y339742D02*
D03*
X397539Y346063D02*
D03*
X395079Y345965D02*
D03*
X400591Y316634D02*
D03*
X401116Y339862D02*
D03*
X422303D02*
D03*
D69*
X394795Y278740D02*
D03*
X390661Y286516D02*
D03*
X398929Y278740D02*
D03*
X390661D02*
D03*
X394795Y286516D02*
D03*
X398929D02*
D03*
Y282628D02*
D03*
X386527Y278740D02*
D03*
Y282628D02*
D03*
Y286516D02*
D03*
X371173Y278740D02*
D03*
X367039Y286516D02*
D03*
X375307Y278740D02*
D03*
X367039D02*
D03*
X371173Y286516D02*
D03*
X375307D02*
D03*
Y282628D02*
D03*
X362906Y278740D02*
D03*
Y282628D02*
D03*
Y286516D02*
D03*
X442039Y278740D02*
D03*
X437905Y286516D02*
D03*
X446173Y278740D02*
D03*
X437905D02*
D03*
X442039Y286516D02*
D03*
X446173D02*
D03*
Y282628D02*
D03*
X433771Y278740D02*
D03*
Y282628D02*
D03*
Y286516D02*
D03*
X489283Y278740D02*
D03*
X485149Y286516D02*
D03*
X493417Y278740D02*
D03*
X485149D02*
D03*
X489283Y286516D02*
D03*
X493417D02*
D03*
Y282628D02*
D03*
X481015Y278740D02*
D03*
Y282628D02*
D03*
Y286516D02*
D03*
X512905Y278740D02*
D03*
X508771Y286516D02*
D03*
X517039Y278740D02*
D03*
X508771D02*
D03*
X512905Y286516D02*
D03*
X517039D02*
D03*
Y282628D02*
D03*
X504637Y278740D02*
D03*
Y282628D02*
D03*
Y286516D02*
D03*
X455721Y278740D02*
D03*
Y286614D02*
D03*
X424224Y278740D02*
D03*
Y286614D02*
D03*
M02*
