G04*
G04 #@! TF.GenerationSoftware,Altium Limited,Altium Designer,22.5.1 (42)*
G04*
G04 Layer_Color=65535*
%FSLAX25Y25*%
%MOIN*%
G70*
G04*
G04 #@! TF.SameCoordinates,407AD2AB-4410-4D32-8071-BEDB4B14A2C6*
G04*
G04*
G04 #@! TF.FilePolarity,Positive*
G04*
G01*
G75*
%ADD10C,0.01000*%
%ADD11C,0.00591*%
%ADD12C,0.00394*%
%ADD13C,0.01181*%
D10*
X544193Y316634D02*
X544149Y317629D01*
X544020Y318617D01*
X543804Y319589D01*
X543504Y320539D01*
X543123Y321459D01*
X542663Y322342D01*
X542128Y323183D01*
X541522Y323973D01*
X540849Y324707D01*
X540114Y325380D01*
X539324Y325986D01*
X538484Y326521D01*
X537601Y326981D01*
X536681Y327363D01*
X535731Y327662D01*
X534758Y327878D01*
X533771Y328008D01*
X532776Y328051D01*
X531780Y328008D01*
X530793Y327878D01*
X529821Y327662D01*
X528871Y327363D01*
X527950Y326981D01*
X527067Y326521D01*
X526227Y325986D01*
X525437Y325380D01*
X524702Y324707D01*
X524029Y323973D01*
X523423Y323183D01*
X522888Y322342D01*
X522428Y321459D01*
X522047Y320539D01*
X521747Y319589D01*
X521532Y318617D01*
X521402Y317629D01*
X521358Y316634D01*
X521402Y315639D01*
X521532Y314651D01*
X521747Y313679D01*
X522047Y312729D01*
X522428Y311809D01*
X522888Y310925D01*
X523423Y310085D01*
X524029Y309295D01*
X524702Y308561D01*
X525437Y307888D01*
X526227Y307281D01*
X527067Y306746D01*
X527950Y306286D01*
X528871Y305905D01*
X529821Y305606D01*
X530793Y305390D01*
X531780Y305260D01*
X532776Y305217D01*
X533771Y305260D01*
X534758Y305390D01*
X535731Y305606D01*
X536681Y305905D01*
X537601Y306286D01*
X538484Y306746D01*
X539324Y307281D01*
X540114Y307888D01*
X540849Y308561D01*
X541522Y309295D01*
X542128Y310085D01*
X542663Y310925D01*
X543123Y311809D01*
X543504Y312729D01*
X543804Y313679D01*
X544020Y314651D01*
X544149Y315639D01*
X544193Y316634D01*
X452245Y353611D02*
X452201Y354606D01*
X452071Y355594D01*
X451855Y356566D01*
X451556Y357516D01*
X451175Y358436D01*
X450715Y359320D01*
X450180Y360160D01*
X449573Y360950D01*
X448900Y361685D01*
X448166Y362357D01*
X447376Y362964D01*
X446536Y363499D01*
X445652Y363959D01*
X444732Y364340D01*
X443782Y364640D01*
X442810Y364855D01*
X441822Y364985D01*
X440827Y365029D01*
X439832Y364985D01*
X438845Y364855D01*
X437872Y364640D01*
X436922Y364340D01*
X436002Y363959D01*
X435118Y363499D01*
X434278Y362964D01*
X433488Y362357D01*
X432754Y361685D01*
X432081Y360950D01*
X431475Y360160D01*
X430939Y359320D01*
X430480Y358436D01*
X430098Y357516D01*
X429799Y356566D01*
X429583Y355594D01*
X429453Y354606D01*
X429410Y353611D01*
X429453Y352616D01*
X429583Y351629D01*
X429799Y350656D01*
X430098Y349706D01*
X430480Y348786D01*
X430939Y347903D01*
X431475Y347063D01*
X432081Y346272D01*
X432754Y345538D01*
X433488Y344865D01*
X434278Y344259D01*
X435118Y343724D01*
X436002Y343264D01*
X436922Y342882D01*
X437872Y342583D01*
X438845Y342367D01*
X439832Y342237D01*
X440827Y342194D01*
X441822Y342237D01*
X442810Y342367D01*
X443782Y342583D01*
X444732Y342882D01*
X445652Y343264D01*
X446536Y343724D01*
X447376Y344259D01*
X448166Y344865D01*
X448900Y345538D01*
X449573Y346272D01*
X450180Y347063D01*
X450715Y347903D01*
X451175Y348786D01*
X451556Y349706D01*
X451855Y350656D01*
X452071Y351629D01*
X452201Y352616D01*
X452245Y353611D01*
X480445Y353839D02*
X498654D01*
Y365059D01*
X480445Y353839D02*
X480445Y365059D01*
X498654D01*
X441535Y302953D02*
X447835D01*
X429724D02*
X436024D01*
X441535Y292717D02*
X447835D01*
X429724D02*
X436024D01*
X429724D02*
Y302953D01*
X447835Y292717D02*
Y302953D01*
X386516Y353543D02*
X404724Y353543D01*
Y364764D01*
X386516Y353543D02*
Y364764D01*
X404724Y364764D01*
X441535Y313189D02*
X447835D01*
X429724D02*
X436024D01*
X441535Y302953D02*
X447835D01*
X429724D02*
X436024D01*
X429724D02*
Y313189D01*
X447835Y302953D02*
Y313189D01*
X441535Y323425D02*
X447835D01*
X429724D02*
X436024D01*
X441535Y313189D02*
X447835D01*
X429724D02*
X436024D01*
X429724D02*
Y323425D01*
X447835Y313189D02*
Y323425D01*
X441535Y333661D02*
X447835D01*
X429724D02*
X436024D01*
X441535Y323425D02*
X447835D01*
X429724D02*
X436024D01*
X429724D02*
Y333661D01*
X447835Y323425D02*
Y333661D01*
D11*
X542717Y292100D02*
X551772Y292152D01*
X360039Y292028D02*
X369094Y292080D01*
X497539Y372638D02*
X497933D01*
Y372244D01*
X497539D01*
Y372638D01*
X403150Y371654D02*
X403543D01*
Y371260D01*
X403150D01*
Y371654D01*
X456102Y365552D02*
X453741D01*
Y366733D01*
X454134Y367126D01*
X454921D01*
X455315Y366733D01*
Y365552D01*
Y366339D02*
X456102Y367126D01*
X454134Y367913D02*
X453741Y368307D01*
Y369094D01*
X454134Y369488D01*
X454528D01*
X454921Y369094D01*
X455315Y369488D01*
X455708D01*
X456102Y369094D01*
Y368307D01*
X455708Y367913D01*
X455315D01*
X454921Y368307D01*
X454528Y367913D01*
X454134D01*
X454921Y368307D02*
Y369094D01*
X360981Y373301D02*
Y375662D01*
X362162D01*
X362555Y375269D01*
Y374482D01*
X362162Y374088D01*
X360981D01*
X361768D02*
X362555Y373301D01*
X363342Y375662D02*
X364917D01*
Y375269D01*
X363342Y373694D01*
Y373301D01*
X360040Y293111D02*
Y295472D01*
X361221D01*
X361614Y295078D01*
Y294291D01*
X361221Y293898D01*
X360040D01*
X362401Y293111D02*
X363189D01*
X362795D01*
Y295472D01*
X362401Y295078D01*
X402067Y373524D02*
X404035D01*
X404429Y373918D01*
Y374705D01*
X404035Y375098D01*
X402067D01*
Y377460D02*
X402461Y376673D01*
X403248Y375886D01*
X404035D01*
X404429Y376279D01*
Y377066D01*
X404035Y377460D01*
X403642D01*
X403248Y377066D01*
Y375886D01*
X511123Y369882D02*
Y367914D01*
X511516Y367520D01*
X512303D01*
X512697Y367914D01*
Y369882D01*
X515058D02*
X513484D01*
Y368701D01*
X514271Y369094D01*
X514665D01*
X515058Y368701D01*
Y367914D01*
X514665Y367520D01*
X513878D01*
X513484Y367914D01*
X393800Y379823D02*
Y382185D01*
X394981D01*
X395374Y381791D01*
Y381004D01*
X394981Y380610D01*
X393800D01*
X394587D02*
X395374Y379823D01*
X397736D02*
X396162D01*
X397736Y381398D01*
Y381791D01*
X397342Y382185D01*
X396555D01*
X396162Y381791D01*
X398523D02*
X398917Y382185D01*
X399704D01*
X400097Y381791D01*
Y380217D01*
X399704Y379823D01*
X398917D01*
X398523Y380217D01*
Y381791D01*
X419783Y368210D02*
X417422D01*
Y369390D01*
X417815Y369784D01*
X418602D01*
X418996Y369390D01*
Y368210D01*
Y368997D02*
X419783Y369784D01*
Y370571D02*
Y371358D01*
Y370965D01*
X417422D01*
X417815Y370571D01*
X419389Y372539D02*
X419783Y372933D01*
Y373720D01*
X419389Y374113D01*
X417815D01*
X417422Y373720D01*
Y372933D01*
X417815Y372539D01*
X418209D01*
X418602Y372933D01*
Y374113D01*
X506103Y374803D02*
Y377165D01*
X507284D01*
X507678Y376771D01*
Y375984D01*
X507284Y375591D01*
X506103D01*
X506890D02*
X507678Y374803D01*
X508465D02*
X509252D01*
X508858D01*
Y377165D01*
X508465Y376771D01*
X510433D02*
X510826Y377165D01*
X511613D01*
X512007Y376771D01*
Y376378D01*
X511613Y375984D01*
X512007Y375591D01*
Y375197D01*
X511613Y374803D01*
X510826D01*
X510433Y375197D01*
Y375591D01*
X510826Y375984D01*
X510433Y376378D01*
Y376771D01*
X510826Y375984D02*
X511613D01*
X488387Y380512D02*
Y382874D01*
X489568D01*
X489961Y382480D01*
Y381693D01*
X489568Y381299D01*
X488387D01*
X489174D02*
X489961Y380512D01*
X490748D02*
X491535D01*
X491142D01*
Y382874D01*
X490748Y382480D01*
X492716Y382874D02*
X494290D01*
Y382480D01*
X492716Y380906D01*
Y380512D01*
X384745Y379725D02*
Y382086D01*
X385926D01*
X386319Y381693D01*
Y380906D01*
X385926Y380512D01*
X384745D01*
X385532D02*
X386319Y379725D01*
X387106D02*
X387894D01*
X387500D01*
Y382086D01*
X387106Y381693D01*
X390649Y382086D02*
X389861Y381693D01*
X389074Y380906D01*
Y380118D01*
X389468Y379725D01*
X390255D01*
X390649Y380118D01*
Y380512D01*
X390255Y380906D01*
X389074D01*
X480611Y380611D02*
Y382972D01*
X481792D01*
X482186Y382578D01*
Y381791D01*
X481792Y381398D01*
X480611D01*
X481398D02*
X482186Y380611D01*
X482973D02*
X483760D01*
X483366D01*
Y382972D01*
X482973Y382578D01*
X486515Y382972D02*
X484940D01*
Y381791D01*
X485728Y382185D01*
X486121D01*
X486515Y381791D01*
Y381004D01*
X486121Y380611D01*
X485334D01*
X484940Y381004D01*
X366732Y350001D02*
X364370D01*
Y351182D01*
X364764Y351575D01*
X365551D01*
X365945Y351182D01*
Y350001D01*
Y350788D02*
X366732Y351575D01*
Y352362D02*
Y353150D01*
Y352756D01*
X364370D01*
X364764Y352362D01*
X366732Y355511D02*
X364370D01*
X365551Y354330D01*
Y355905D01*
X509547Y360631D02*
X507185D01*
Y361812D01*
X507579Y362205D01*
X508366D01*
X508760Y361812D01*
Y360631D01*
Y361418D02*
X509547Y362205D01*
Y362992D02*
Y363779D01*
Y363386D01*
X507185D01*
X507579Y362992D01*
Y364960D02*
X507185Y365354D01*
Y366141D01*
X507579Y366534D01*
X507973D01*
X508366Y366141D01*
Y365747D01*
Y366141D01*
X508760Y366534D01*
X509153D01*
X509547Y366141D01*
Y365354D01*
X509153Y364960D01*
X362893Y337305D02*
X360532D01*
Y338485D01*
X360926Y338879D01*
X361713D01*
X362106Y338485D01*
Y337305D01*
Y338092D02*
X362893Y338879D01*
Y340847D02*
X360532D01*
X361713Y339666D01*
Y341240D01*
X363287Y342027D02*
Y343602D01*
X362893Y345963D02*
Y344389D01*
X361319Y345963D01*
X360926D01*
X360532Y345570D01*
Y344782D01*
X360926Y344389D01*
X521948Y336222D02*
X519587D01*
Y337403D01*
X519981Y337796D01*
X520768D01*
X521161Y337403D01*
Y336222D01*
Y337009D02*
X521948Y337796D01*
Y339764D02*
X519587D01*
X520768Y338583D01*
Y340158D01*
X522342Y340945D02*
Y342519D01*
X521948Y343306D02*
Y344093D01*
Y343700D01*
X519587D01*
X519981Y343306D01*
X366732Y337305D02*
X364370D01*
Y338485D01*
X364764Y338879D01*
X365551D01*
X365945Y338485D01*
Y337305D01*
Y338092D02*
X366732Y338879D01*
X364764Y339666D02*
X364370Y340060D01*
Y340847D01*
X364764Y341240D01*
X365158D01*
X365551Y340847D01*
Y340453D01*
Y340847D01*
X365945Y341240D01*
X366338D01*
X366732Y340847D01*
Y340060D01*
X366338Y339666D01*
X367126Y342027D02*
Y343602D01*
X366732Y345963D02*
Y344389D01*
X365158Y345963D01*
X364764D01*
X364370Y345570D01*
Y344782D01*
X364764Y344389D01*
X526181Y336123D02*
X523819D01*
Y337304D01*
X524213Y337698D01*
X525000D01*
X525394Y337304D01*
Y336123D01*
Y336911D02*
X526181Y337698D01*
X524213Y338485D02*
X523819Y338878D01*
Y339666D01*
X524213Y340059D01*
X524607D01*
X525000Y339666D01*
Y339272D01*
Y339666D01*
X525394Y340059D01*
X525787D01*
X526181Y339666D01*
Y338878D01*
X525787Y338485D01*
X526574Y340846D02*
Y342421D01*
X526181Y343208D02*
Y343995D01*
Y343601D01*
X523819D01*
X524213Y343208D01*
X431397Y336419D02*
X429036D01*
Y337599D01*
X429429Y337993D01*
X430217D01*
X430610Y337599D01*
Y336419D01*
Y337206D02*
X431397Y337993D01*
Y340354D02*
Y338780D01*
X429823Y340354D01*
X429429D01*
X429036Y339961D01*
Y339174D01*
X429429Y338780D01*
X431791Y341142D02*
Y342716D01*
X431397Y345077D02*
Y343503D01*
X429823Y345077D01*
X429429D01*
X429036Y344684D01*
Y343897D01*
X429429Y343503D01*
X454724Y336419D02*
X452363D01*
Y337599D01*
X452756Y337993D01*
X453543D01*
X453937Y337599D01*
Y336419D01*
Y337206D02*
X454724Y337993D01*
Y340354D02*
Y338780D01*
X453150Y340354D01*
X452756D01*
X452363Y339961D01*
Y339174D01*
X452756Y338780D01*
X455118Y341142D02*
Y342716D01*
X454724Y343503D02*
Y344290D01*
Y343897D01*
X452363D01*
X452756Y343503D01*
X427460Y336517D02*
X425099D01*
Y337698D01*
X425492Y338091D01*
X426280D01*
X426673Y337698D01*
Y336517D01*
Y337304D02*
X427460Y338091D01*
Y338878D02*
Y339666D01*
Y339272D01*
X425099D01*
X425492Y338878D01*
X427854Y340846D02*
Y342421D01*
X427460Y344782D02*
Y343208D01*
X425886Y344782D01*
X425492D01*
X425099Y344389D01*
Y343601D01*
X425492Y343208D01*
X459252Y336419D02*
X456890D01*
Y337599D01*
X457284Y337993D01*
X458071D01*
X458464Y337599D01*
Y336419D01*
Y337206D02*
X459252Y337993D01*
Y338780D02*
Y339567D01*
Y339174D01*
X456890D01*
X457284Y338780D01*
X459645Y340748D02*
Y342322D01*
X459252Y343109D02*
Y343896D01*
Y343503D01*
X456890D01*
X457284Y343109D01*
X369390Y366732D02*
Y364370D01*
X370965D01*
X373326D02*
X371752D01*
X373326Y365945D01*
Y366338D01*
X372933Y366732D01*
X372145D01*
X371752Y366338D01*
X519193Y358366D02*
Y356004D01*
X520768D01*
X521555D02*
X522342D01*
X521948D01*
Y358366D01*
X521555Y357972D01*
X420670Y362106D02*
Y359745D01*
X421851D01*
X422244Y360138D01*
Y361712D01*
X421851Y362106D01*
X420670D01*
X424606D02*
X423818Y361712D01*
X423031Y360925D01*
Y360138D01*
X423425Y359745D01*
X424212D01*
X424606Y360138D01*
Y360532D01*
X424212Y360925D01*
X423031D01*
X460926Y353248D02*
Y350886D01*
X462107D01*
X462500Y351280D01*
Y352854D01*
X462107Y353248D01*
X460926D01*
X464862D02*
X463287D01*
Y352067D01*
X464074Y352461D01*
X464468D01*
X464862Y352067D01*
Y351280D01*
X464468Y350886D01*
X463681D01*
X463287Y351280D01*
X403249Y381890D02*
X402855Y382283D01*
X402068D01*
X401674Y381890D01*
Y380315D01*
X402068Y379922D01*
X402855D01*
X403249Y380315D01*
X404036Y379922D02*
X404823D01*
X404429D01*
Y382283D01*
X404036Y381890D01*
X407578Y382283D02*
X406004D01*
Y381102D01*
X406791Y381496D01*
X407184D01*
X407578Y381102D01*
Y380315D01*
X407184Y379922D01*
X406397D01*
X406004Y380315D01*
X413977Y369587D02*
X413583Y369194D01*
Y368406D01*
X413977Y368013D01*
X415551D01*
X415944Y368406D01*
Y369194D01*
X415551Y369587D01*
X415944Y370374D02*
Y371161D01*
Y370768D01*
X413583D01*
X413977Y370374D01*
X415944Y373523D02*
X413583D01*
X414764Y372342D01*
Y373916D01*
X500296Y376771D02*
X499902Y377165D01*
X499115D01*
X498721Y376771D01*
Y375197D01*
X499115Y374803D01*
X499902D01*
X500296Y375197D01*
X501083Y374803D02*
X501870D01*
X501476D01*
Y377165D01*
X501083Y376771D01*
X503051D02*
X503444Y377165D01*
X504232D01*
X504625Y376771D01*
Y376378D01*
X504232Y375984D01*
X503838D01*
X504232D01*
X504625Y375591D01*
Y375197D01*
X504232Y374803D01*
X503444D01*
X503051Y375197D01*
X497540Y382382D02*
X497146Y382775D01*
X496359D01*
X495965Y382382D01*
Y380807D01*
X496359Y380414D01*
X497146D01*
X497540Y380807D01*
X498327Y380414D02*
X499114D01*
X498721D01*
Y382775D01*
X498327Y382382D01*
X501869Y380414D02*
X500295D01*
X501869Y381988D01*
Y382382D01*
X501476Y382775D01*
X500688D01*
X500295Y382382D01*
X379626Y381791D02*
X379233Y382185D01*
X378446D01*
X378052Y381791D01*
Y380217D01*
X378446Y379823D01*
X379233D01*
X379626Y380217D01*
X380414Y379823D02*
X381201D01*
X380807D01*
Y382185D01*
X380414Y381791D01*
X382381Y379823D02*
X383169D01*
X382775D01*
Y382185D01*
X382381Y381791D01*
X375886Y372834D02*
X375493Y373228D01*
X374706D01*
X374312Y372834D01*
Y371260D01*
X374706Y370866D01*
X375493D01*
X375886Y371260D01*
X376673Y370866D02*
X377461D01*
X377067D01*
Y373228D01*
X376673Y372834D01*
X378641D02*
X379035Y373228D01*
X379822D01*
X380216Y372834D01*
Y371260D01*
X379822Y370866D01*
X379035D01*
X378641Y371260D01*
Y372834D01*
X476280Y382480D02*
X475886Y382874D01*
X475099D01*
X474705Y382480D01*
Y380906D01*
X475099Y380512D01*
X475886D01*
X476280Y380906D01*
X477067D02*
X477460Y380512D01*
X478247D01*
X478641Y380906D01*
Y382480D01*
X478247Y382874D01*
X477460D01*
X477067Y382480D01*
Y382086D01*
X477460Y381693D01*
X478641D01*
X471654Y373326D02*
X471260Y373720D01*
X470473D01*
X470079Y373326D01*
Y371752D01*
X470473Y371359D01*
X471260D01*
X471654Y371752D01*
X472441Y373326D02*
X472834Y373720D01*
X473622D01*
X474015Y373326D01*
Y372933D01*
X473622Y372539D01*
X474015Y372146D01*
Y371752D01*
X473622Y371359D01*
X472834D01*
X472441Y371752D01*
Y372146D01*
X472834Y372539D01*
X472441Y372933D01*
Y373326D01*
X472834Y372539D02*
X473622D01*
X369095Y351378D02*
X368701Y350985D01*
Y350197D01*
X369095Y349804D01*
X370669D01*
X371063Y350197D01*
Y350985D01*
X370669Y351378D01*
X368701Y352165D02*
Y353740D01*
X369095D01*
X370669Y352165D01*
X371063D01*
X476374Y365037D02*
X475981Y365430D01*
X475194D01*
X474800Y365037D01*
Y363462D01*
X475194Y363069D01*
X475981D01*
X476374Y363462D01*
X478736Y365430D02*
X477949Y365037D01*
X477161Y364249D01*
Y363462D01*
X477555Y363069D01*
X478342D01*
X478736Y363462D01*
Y363856D01*
X478342Y364249D01*
X477161D01*
X406890Y360729D02*
X406496Y360335D01*
Y359548D01*
X406890Y359154D01*
X408464D01*
X408858Y359548D01*
Y360335D01*
X408464Y360729D01*
X406496Y363090D02*
Y361516D01*
X407677D01*
X407284Y362303D01*
Y362696D01*
X407677Y363090D01*
X408464D01*
X408858Y362696D01*
Y361909D01*
X408464Y361516D01*
X502756Y365649D02*
X502362Y366043D01*
X501575D01*
X501182Y365649D01*
Y364075D01*
X501575Y363682D01*
X502362D01*
X502756Y364075D01*
X504724Y363682D02*
Y366043D01*
X503543Y364862D01*
X505118D01*
D12*
X517803Y348345D02*
Y352270D01*
X511727Y348345D02*
X517803D01*
X511727D02*
Y352270D01*
X517803Y355271D02*
Y359241D01*
X511727D02*
X517803D01*
X511727Y355271D02*
Y359241D01*
X374639Y358857D02*
X378563D01*
X374639D02*
Y364933D01*
X378563D01*
X381564Y358857D02*
X385534D01*
Y364933D01*
X381564D02*
X385534D01*
D13*
X365945Y335531D02*
X366470D01*
Y335007D01*
X365945D01*
Y335531D01*
X400000Y313681D02*
X400525D01*
Y313156D01*
X400000D01*
Y313681D01*
X398130Y332579D02*
X398655D01*
Y332054D01*
X398130D01*
Y332579D01*
X364567Y312106D02*
X365092D01*
Y311581D01*
X364567D01*
Y312106D01*
X510728Y312795D02*
X510204D01*
Y313320D01*
X510728D01*
Y312795D01*
X510138Y292323D02*
X509613D01*
Y292848D01*
X510138D01*
Y292323D01*
X479035Y313287D02*
X478511D01*
Y313812D01*
X479035D01*
Y313287D01*
X476083Y291535D02*
X475558D01*
Y292060D01*
X476083D01*
Y291535D01*
M02*
