G04*
G04 #@! TF.GenerationSoftware,Altium Limited,Altium Designer,22.5.1 (42)*
G04*
G04 Layer_Color=16711935*
%FSLAX25Y25*%
%MOIN*%
G70*
G04*
G04 #@! TF.SameCoordinates,407AD2AB-4410-4D32-8071-BEDB4B14A2C6*
G04*
G04*
G04 #@! TF.FilePolarity,Negative*
G04*
G01*
G75*
%ADD34R,0.05524X0.12611*%
%ADD40R,0.20485X0.12611*%
%ADD41R,0.08674X0.12611*%
%ADD42C,0.03162*%
%ADD43C,0.04737*%
%ADD70R,1.94882X0.77854*%
D34*
X524618Y282677D02*
D03*
X530720D02*
D03*
X536823D02*
D03*
X542925D02*
D03*
X549027D02*
D03*
D40*
X439972D02*
D03*
X392728D02*
D03*
X369106D02*
D03*
X487216D02*
D03*
X510838D02*
D03*
D41*
X424224D02*
D03*
X455720D02*
D03*
D42*
X413272Y360637D02*
D03*
X527953Y331988D02*
D03*
X426772Y363779D02*
D03*
X362992Y381004D02*
D03*
X539764Y354134D02*
D03*
X544193Y377461D02*
D03*
X546850Y299311D02*
D03*
X540059Y295177D02*
D03*
X464272Y366142D02*
D03*
X455315Y362205D02*
D03*
X372045Y339591D02*
D03*
X367618Y312856D02*
D03*
X375197Y316535D02*
D03*
X364534Y331004D02*
D03*
X361647Y328215D02*
D03*
X367421Y331004D02*
D03*
X364534Y325427D02*
D03*
X361647Y322638D02*
D03*
X364534D02*
D03*
X367421Y328215D02*
D03*
X361647Y325427D02*
D03*
X367421D02*
D03*
X361647Y331004D02*
D03*
X367421Y322638D02*
D03*
X364534Y328215D02*
D03*
X364586Y308665D02*
D03*
X367473D02*
D03*
X530721Y285466D02*
D03*
X530721Y279889D02*
D03*
X530721Y282677D02*
D03*
X524618Y279889D02*
D03*
X524618Y285466D02*
D03*
Y282677D02*
D03*
X368480Y357236D02*
D03*
X371688Y357218D02*
D03*
X371660Y361848D02*
D03*
X368483Y361820D02*
D03*
X515040Y364661D02*
D03*
X512561Y364671D02*
D03*
X403451Y363485D02*
D03*
X470697Y368886D02*
D03*
X473176Y368876D02*
D03*
X376200Y367224D02*
D03*
X378522Y367167D02*
D03*
X542085Y334669D02*
D03*
X539197Y339059D02*
D03*
X382868Y375591D02*
D03*
X507373Y368725D02*
D03*
X475961Y375350D02*
D03*
X437953Y307550D02*
D03*
X435039D02*
D03*
Y313212D02*
D03*
Y310381D02*
D03*
X437953D02*
D03*
Y313212D02*
D03*
Y316043D02*
D03*
X435039D02*
D03*
X385433Y347933D02*
D03*
X382579D02*
D03*
X476083Y349410D02*
D03*
X478937D02*
D03*
X491142Y345571D02*
D03*
X491043Y347835D02*
D03*
X438017Y329027D02*
D03*
X435130D02*
D03*
Y337499D02*
D03*
Y334675D02*
D03*
Y331851D02*
D03*
X438017D02*
D03*
Y334675D02*
D03*
Y337499D02*
D03*
X361699Y305877D02*
D03*
Y308665D02*
D03*
Y303088D02*
D03*
Y300299D02*
D03*
X364586Y305877D02*
D03*
Y303088D02*
D03*
Y300299D02*
D03*
X367473D02*
D03*
Y303088D02*
D03*
Y305877D02*
D03*
X510868Y317053D02*
D03*
Y319842D02*
D03*
Y322630D02*
D03*
Y325419D02*
D03*
X513755D02*
D03*
Y322630D02*
D03*
Y319842D02*
D03*
X513755Y317053D02*
D03*
X516642Y325419D02*
D03*
Y322630D02*
D03*
Y317053D02*
D03*
Y319842D02*
D03*
X516741Y298779D02*
D03*
X516741Y295990D02*
D03*
Y301567D02*
D03*
Y304356D02*
D03*
X513854Y295990D02*
D03*
Y298779D02*
D03*
Y301567D02*
D03*
Y304356D02*
D03*
X510966D02*
D03*
Y301567D02*
D03*
Y298779D02*
D03*
Y295990D02*
D03*
X490793Y305177D02*
D03*
X496567D02*
D03*
Y299600D02*
D03*
Y302389D02*
D03*
X487906Y305177D02*
D03*
X490793Y299600D02*
D03*
X493680Y305177D02*
D03*
Y302389D02*
D03*
X490793D02*
D03*
X487906Y299600D02*
D03*
Y302389D02*
D03*
X493680Y299600D02*
D03*
X450219Y305177D02*
D03*
X459602Y302487D02*
D03*
X456715Y299698D02*
D03*
X453528Y305149D02*
D03*
X450219Y299600D02*
D03*
Y302389D02*
D03*
X453528Y299572D02*
D03*
X459602Y305276D02*
D03*
Y299698D02*
D03*
X456715Y305276D02*
D03*
Y302487D02*
D03*
X453528Y302361D02*
D03*
X415418Y305177D02*
D03*
X418306D02*
D03*
Y299600D02*
D03*
X415418Y302389D02*
D03*
X424080Y305177D02*
D03*
X418306Y302389D02*
D03*
X424080Y299600D02*
D03*
X421193Y305177D02*
D03*
X424080Y302389D02*
D03*
X421193D02*
D03*
Y299600D02*
D03*
X415418D02*
D03*
X391294Y302389D02*
D03*
X385520Y305177D02*
D03*
Y302389D02*
D03*
X388407D02*
D03*
X391294Y299600D02*
D03*
X382633Y305177D02*
D03*
X385520Y299600D02*
D03*
X391294Y305177D02*
D03*
X388407Y299600D02*
D03*
X382633D02*
D03*
Y302389D02*
D03*
X388407Y305177D02*
D03*
X421095Y321232D02*
D03*
X423982D02*
D03*
X421095Y324021D02*
D03*
X415321Y321232D02*
D03*
X418208D02*
D03*
X421095Y326810D02*
D03*
X418208Y324021D02*
D03*
X415321Y326810D02*
D03*
X423982Y324021D02*
D03*
Y326810D02*
D03*
X418208D02*
D03*
X415321Y324021D02*
D03*
X387944D02*
D03*
Y321232D02*
D03*
Y326810D02*
D03*
X382170D02*
D03*
X385057Y321232D02*
D03*
Y326810D02*
D03*
X390831D02*
D03*
X385057Y324021D02*
D03*
X382170D02*
D03*
Y321232D02*
D03*
X390831D02*
D03*
Y324021D02*
D03*
X453561Y323993D02*
D03*
X450252Y324021D02*
D03*
X453561Y326782D02*
D03*
X459635Y326908D02*
D03*
Y321331D02*
D03*
X450252Y321232D02*
D03*
Y326810D02*
D03*
X456748Y326908D02*
D03*
Y324119D02*
D03*
X453561Y321204D02*
D03*
X459635Y324119D02*
D03*
X456748Y321331D02*
D03*
X493695Y321232D02*
D03*
X490808Y324021D02*
D03*
X487921D02*
D03*
X490808Y321232D02*
D03*
X496582Y324021D02*
D03*
X493695Y326810D02*
D03*
X487921D02*
D03*
X493695Y324021D02*
D03*
X496582Y326810D02*
D03*
X490808D02*
D03*
X487921Y321232D02*
D03*
X496582D02*
D03*
X374174Y351555D02*
D03*
X374116Y349233D02*
D03*
X415666Y360657D02*
D03*
X506958Y355161D02*
D03*
X508991Y355185D02*
D03*
X471708Y352793D02*
D03*
X469341Y352865D02*
D03*
X508425Y331477D02*
D03*
X476262Y331511D02*
D03*
X476399Y310235D02*
D03*
X508570Y310127D02*
D03*
X513402Y339738D02*
D03*
X495438Y339614D02*
D03*
X483296Y339572D02*
D03*
X465414Y339655D02*
D03*
X390045Y339742D02*
D03*
X397539Y346063D02*
D03*
X395079Y345965D02*
D03*
X400591Y316634D02*
D03*
X401116Y339862D02*
D03*
X422303D02*
D03*
D43*
X394795Y278740D02*
D03*
X390661Y286516D02*
D03*
X398929Y278740D02*
D03*
X390661D02*
D03*
X394795Y286516D02*
D03*
X398929D02*
D03*
Y282628D02*
D03*
X386527Y278740D02*
D03*
Y282628D02*
D03*
Y286516D02*
D03*
X371173Y278740D02*
D03*
X367039Y286516D02*
D03*
X375307Y278740D02*
D03*
X367039D02*
D03*
X371173Y286516D02*
D03*
X375307D02*
D03*
Y282628D02*
D03*
X362906Y278740D02*
D03*
Y282628D02*
D03*
Y286516D02*
D03*
X442039Y278740D02*
D03*
X437905Y286516D02*
D03*
X446173Y278740D02*
D03*
X437905D02*
D03*
X442039Y286516D02*
D03*
X446173D02*
D03*
Y282628D02*
D03*
X433771Y278740D02*
D03*
Y282628D02*
D03*
Y286516D02*
D03*
X489283Y278740D02*
D03*
X485149Y286516D02*
D03*
X493417Y278740D02*
D03*
X485149D02*
D03*
X489283Y286516D02*
D03*
X493417D02*
D03*
Y282628D02*
D03*
X481015Y278740D02*
D03*
Y282628D02*
D03*
Y286516D02*
D03*
X512905Y278740D02*
D03*
X508771Y286516D02*
D03*
X517039Y278740D02*
D03*
X508771D02*
D03*
X512905Y286516D02*
D03*
X517039D02*
D03*
Y282628D02*
D03*
X504637Y278740D02*
D03*
Y282628D02*
D03*
Y286516D02*
D03*
X455721Y278740D02*
D03*
Y286614D02*
D03*
X424224Y278740D02*
D03*
Y286614D02*
D03*
D70*
X455709Y330463D02*
D03*
M02*
