G04*
G04 #@! TF.GenerationSoftware,Altium Limited,Altium Designer,22.5.1 (42)*
G04*
G04 Layer_Physical_Order=1*
G04 Layer_Color=255*
%FSLAX25Y25*%
%MOIN*%
G70*
G04*
G04 #@! TF.SameCoordinates,407AD2AB-4410-4D32-8071-BEDB4B14A2C6*
G04*
G04*
G04 #@! TF.FilePolarity,Positive*
G04*
G01*
G75*
%ADD10C,0.01000*%
%ADD13C,0.01181*%
%ADD44R,0.03543X0.02362*%
%ADD45R,0.03150X0.05906*%
%ADD46R,0.04803X0.03583*%
%ADD47R,0.03937X0.02756*%
%ADD48R,0.02362X0.01575*%
%ADD49R,0.01181X0.03937*%
%ADD50R,0.04724X0.11811*%
%ADD51R,0.02756X0.03937*%
%ADD52R,0.01575X0.01575*%
%ADD53R,0.03937X0.07874*%
%ADD54R,0.02756X0.02362*%
%ADD55R,0.15158X0.17126*%
%ADD56R,0.03150X0.02362*%
%ADD57C,0.00984*%
%ADD58R,0.07975X0.03148*%
%ADD59R,0.10397X0.02761*%
%ADD60R,0.07647X0.02794*%
%ADD61R,0.07833X0.02826*%
%ADD62R,0.07665X0.02585*%
%ADD63R,0.07665X0.02555*%
%ADD64R,0.07425X0.02465*%
%ADD65R,0.07064X0.02405*%
%ADD66R,0.19685X0.11811*%
%ADD67R,0.07874X0.11811*%
%ADD68C,0.02362*%
%ADD69C,0.03937*%
G36*
X370772Y384361D02*
X361561Y375151D01*
X361213Y374630D01*
X361091Y374016D01*
X361091Y374016D01*
Y370905D01*
X361088Y370866D01*
X361087Y370866D01*
X361037Y370850D01*
X360926Y370758D01*
X360806Y370678D01*
X360777Y370634D01*
X360736Y370600D01*
X360669Y370472D01*
X359941D01*
Y366142D01*
X365453D01*
Y370472D01*
X364725D01*
X364658Y370600D01*
X364617Y370634D01*
X364588Y370678D01*
X364468Y370758D01*
X364357Y370850D01*
X364306Y370866D01*
X364306Y370866D01*
X364302Y370905D01*
Y373351D01*
X373401Y382450D01*
X472014D01*
X472205Y381988D01*
X467020Y376802D01*
X402067D01*
X402067Y376802D01*
X401452Y376680D01*
X400932Y376332D01*
X399827Y375228D01*
X398524D01*
X398524Y375228D01*
X398369Y375197D01*
X397686D01*
X397650Y375204D01*
X397613Y375197D01*
X396678D01*
X396642Y375204D01*
X396605Y375197D01*
X393307D01*
Y371654D01*
X396369D01*
X396642Y371169D01*
X396482Y370866D01*
X394193D01*
Y367969D01*
X394164Y367823D01*
X394164Y367823D01*
Y365202D01*
X394058Y365096D01*
X392224D01*
Y369833D01*
X392232Y369870D01*
X392224Y369907D01*
Y370866D01*
X392224D01*
X392126Y371325D01*
X392048Y371719D01*
X391929Y371896D01*
Y375197D01*
X388631D01*
X388595Y375204D01*
X388558Y375197D01*
X384154D01*
Y371654D01*
X386287D01*
X386294Y371645D01*
X386452Y371335D01*
X386467Y371154D01*
X386448Y371135D01*
X386393Y371053D01*
X386323Y370983D01*
X386250Y370873D01*
X386212Y370782D01*
X386157Y370700D01*
X386107Y370577D01*
X386087Y370480D01*
X386049Y370389D01*
X386024Y370259D01*
X385549Y370098D01*
X381799D01*
X381702Y370079D01*
X381603Y370079D01*
X381538Y370066D01*
X381523Y370059D01*
X375378Y370059D01*
X375265Y370059D01*
X375168Y370040D01*
X375069D01*
X374848Y369996D01*
X374757Y369958D01*
X374659Y369939D01*
X374451Y369852D01*
X374369Y369798D01*
X374328Y369781D01*
X374306Y369774D01*
X374300Y369769D01*
X374277Y369760D01*
X374229Y369727D01*
X374159Y369657D01*
X374125Y369635D01*
X374108Y369608D01*
X374005Y369523D01*
X373703Y369148D01*
X373636Y369021D01*
X373556Y368902D01*
X373546Y368849D01*
X373521Y368801D01*
X373508Y368659D01*
X373480Y368518D01*
Y366353D01*
X373480Y366274D01*
X373499Y366177D01*
Y366078D01*
X373530Y365922D01*
X373568Y365831D01*
X373587Y365734D01*
X373648Y365587D01*
X373703Y365505D01*
X373741Y365414D01*
X373829Y365282D01*
X373899Y365212D01*
X373954Y365130D01*
X374010Y365074D01*
X374010Y365074D01*
X374010Y365074D01*
X374099Y364985D01*
X374121Y364874D01*
X373974Y364656D01*
X373898Y364272D01*
Y361426D01*
X373524D01*
Y360816D01*
Y360749D01*
X373498Y360618D01*
X373447Y360495D01*
X373373Y360384D01*
X373326Y360337D01*
X373286Y360297D01*
X373192Y360234D01*
X373087Y360191D01*
X372976Y360169D01*
X372464D01*
Y360474D01*
X367951D01*
Y360169D01*
X367244D01*
X367222Y360166D01*
X367194D01*
X367138Y360177D01*
X367086Y360199D01*
X367038Y360230D01*
X367018Y360250D01*
X367010Y360259D01*
X366981Y360288D01*
X366935Y360357D01*
X366903Y360433D01*
X366887Y360513D01*
Y360555D01*
Y361426D01*
X359271D01*
Y384823D01*
X370580D01*
X370772Y384361D01*
D02*
G37*
G36*
X514018Y377204D02*
X513811Y376704D01*
X495669D01*
X495055Y376582D01*
X494534Y376234D01*
X494534Y376234D01*
X493526Y375226D01*
X492543D01*
X492397Y375197D01*
X491764D01*
Y375197D01*
X491677Y375204D01*
X491641Y375197D01*
X490804D01*
X490768Y375204D01*
X490731Y375197D01*
X487433D01*
Y371654D01*
X488103D01*
X488122Y371162D01*
X488122D01*
Y368264D01*
X488093Y368118D01*
X488093Y368118D01*
Y365989D01*
X487692Y365588D01*
X486154D01*
Y370129D01*
X486161Y370165D01*
X486154Y370202D01*
Y370250D01*
X486155Y370269D01*
X486154Y370275D01*
Y371162D01*
X485993D01*
X485886Y371698D01*
X485858Y371740D01*
Y375197D01*
X482560D01*
X482524Y375204D01*
X482487Y375197D01*
X481552D01*
X481516Y375204D01*
X481479Y375197D01*
X478181D01*
Y371654D01*
X480426D01*
X480445Y371162D01*
X480445D01*
Y370653D01*
X480088Y370414D01*
X479607Y370215D01*
X479072Y370109D01*
X478811Y370096D01*
X476508D01*
X476414Y370100D01*
X476206Y370142D01*
X476034Y370213D01*
X475858Y370331D01*
X475788Y370394D01*
X475702Y370480D01*
X475620Y370534D01*
X475550Y370604D01*
X475308Y370766D01*
X475217Y370804D01*
X475134Y370859D01*
X474865Y370971D01*
X474768Y370990D01*
X474677Y371028D01*
X474391Y371085D01*
X474292D01*
X474195Y371104D01*
X470749D01*
X470746Y371104D01*
X470743Y371104D01*
X470685Y371104D01*
X469887D01*
X469790Y371084D01*
X469742D01*
X469646Y371203D01*
X469509Y371558D01*
X476069Y378119D01*
X513103D01*
X514018Y377204D01*
D02*
G37*
G36*
X397650Y372650D02*
X399327D01*
X399232Y372640D01*
X399147Y372610D01*
X399072Y372560D01*
X399007Y372490D01*
X398952Y372400D01*
X398907Y372290D01*
X398872Y372160D01*
X398847Y372010D01*
X398832Y371840D01*
X398827Y371650D01*
X397827D01*
X397825Y371840D01*
X397782Y372400D01*
X397763Y372490D01*
X397740Y372560D01*
X397713Y372610D01*
X397683Y372640D01*
X397650Y372650D01*
X397640Y372702D01*
X397610Y372749D01*
X397560Y372790D01*
X397490Y372826D01*
X397400Y372856D01*
X397290Y372881D01*
X397160Y372900D01*
X397148Y372902D01*
X397132Y372900D01*
X397002Y372881D01*
X396892Y372856D01*
X396801Y372826D01*
X396732Y372790D01*
X396682Y372749D01*
X396652Y372702D01*
X396642Y372650D01*
Y374201D01*
X396652Y374148D01*
X396682Y374101D01*
X396732Y374060D01*
X396801Y374024D01*
X396892Y373994D01*
X397002Y373969D01*
X397132Y373950D01*
X397144Y373949D01*
X397160Y373950D01*
X397290Y373969D01*
X397400Y373994D01*
X397490Y374024D01*
X397560Y374060D01*
X397610Y374101D01*
X397640Y374148D01*
X397650Y374201D01*
Y372650D01*
D02*
G37*
G36*
X482524Y372650D02*
X482514Y372702D01*
X482484Y372749D01*
X482434Y372790D01*
X482364Y372826D01*
X482274Y372856D01*
X482164Y372881D01*
X482034Y372900D01*
X482022Y372902D01*
X482006Y372900D01*
X481876Y372881D01*
X481766Y372856D01*
X481675Y372826D01*
X481605Y372790D01*
X481556Y372749D01*
X481526Y372702D01*
X481516Y372650D01*
Y374201D01*
X481526Y374148D01*
X481556Y374101D01*
X481605Y374060D01*
X481675Y374024D01*
X481766Y373994D01*
X481876Y373969D01*
X482006Y373950D01*
X482018Y373949D01*
X482034Y373950D01*
X482164Y373969D01*
X482274Y373994D01*
X482364Y374024D01*
X482434Y374060D01*
X482484Y374101D01*
X482514Y374148D01*
X482524Y374201D01*
Y372650D01*
D02*
G37*
G36*
X503488Y371567D02*
X503478Y371620D01*
X503448Y371666D01*
X503398Y371708D01*
X503328Y371743D01*
X503238Y371774D01*
X503128Y371798D01*
X502998Y371818D01*
X502986Y371819D01*
X502970Y371818D01*
X502840Y371798D01*
X502730Y371774D01*
X502640Y371743D01*
X502570Y371708D01*
X502520Y371666D01*
X502490Y371620D01*
X502480Y371567D01*
Y373118D01*
X502490Y373066D01*
X502520Y373019D01*
X502570Y372977D01*
X502640Y372942D01*
X502730Y372911D01*
X502840Y372887D01*
X502970Y372867D01*
X502982Y372866D01*
X502998Y372867D01*
X503128Y372887D01*
X503238Y372911D01*
X503328Y372942D01*
X503398Y372977D01*
X503448Y373019D01*
X503478Y373066D01*
X503488Y373118D01*
Y371567D01*
D02*
G37*
G36*
X388595Y372650D02*
X388586Y372702D01*
X388559Y372749D01*
X388514Y372790D01*
X388451Y372826D01*
X388370Y372856D01*
X388271Y372881D01*
X388155Y372900D01*
X388020Y372914D01*
X387697Y372925D01*
Y373925D01*
X387867Y373928D01*
X388155Y373950D01*
X388271Y373969D01*
X388370Y373994D01*
X388451Y374024D01*
X388514Y374060D01*
X388559Y374101D01*
X388586Y374148D01*
X388595Y374201D01*
Y372650D01*
D02*
G37*
G36*
X390730Y372642D02*
X390674Y372617D01*
X390625Y372575D01*
X390583Y372518D01*
X390547Y372443D01*
X390518Y372352D01*
X390495Y372245D01*
X390479Y372121D01*
X390469Y371981D01*
X390466Y371824D01*
X389466D01*
X389462Y371981D01*
X389436Y372245D01*
X389413Y372352D01*
X389384Y372443D01*
X389348Y372518D01*
X389306Y372575D01*
X389257Y372617D01*
X389201Y372642D01*
X389139Y372650D01*
X390792D01*
X390730Y372642D01*
D02*
G37*
G36*
X406114Y371764D02*
X406104Y371816D01*
X406074Y371863D01*
X406024Y371904D01*
X405954Y371940D01*
X405864Y371971D01*
X405754Y371995D01*
X405624Y372015D01*
X405474Y372028D01*
X405114Y372039D01*
Y373039D01*
X405304Y373042D01*
X405624Y373064D01*
X405754Y373083D01*
X405864Y373108D01*
X405954Y373138D01*
X406024Y373174D01*
X406074Y373216D01*
X406104Y373263D01*
X406114Y373315D01*
Y371764D01*
D02*
G37*
G36*
X412008Y373280D02*
X412043Y373248D01*
X412102Y373220D01*
X412185Y373197D01*
X412291Y373176D01*
X412421Y373160D01*
X412752Y373137D01*
X413177Y373130D01*
Y371949D01*
X412953Y371947D01*
X412291Y371903D01*
X412185Y371882D01*
X412102Y371858D01*
X412043Y371831D01*
X412008Y371799D01*
X411996Y371764D01*
Y373315D01*
X412008Y373280D01*
D02*
G37*
G36*
X408463Y373263D02*
X408493Y373216D01*
X408542Y373174D01*
X408613Y373138D01*
X408703Y373108D01*
X408813Y373083D01*
X408943Y373064D01*
X409039Y373055D01*
X409168Y373064D01*
X409298Y373083D01*
X409408Y373108D01*
X409498Y373138D01*
X409568Y373174D01*
X409618Y373216D01*
X409648Y373262D01*
X409658Y373315D01*
Y371764D01*
X409648Y371816D01*
X409618Y371863D01*
X409568Y371904D01*
X409498Y371940D01*
X409408Y371971D01*
X409298Y371995D01*
X409168Y372015D01*
X409071Y372024D01*
X408943Y372015D01*
X408813Y371995D01*
X408703Y371971D01*
X408613Y371940D01*
X408542Y371904D01*
X408493Y371863D01*
X408463Y371816D01*
X408453Y371764D01*
Y373315D01*
X408463Y373263D01*
D02*
G37*
G36*
X484682Y372641D02*
X484614Y372614D01*
X484554Y372569D01*
X484502Y372506D01*
X484458Y372425D01*
X484422Y372326D01*
X484394Y372209D01*
X484374Y372074D01*
X484362Y371921D01*
X484358Y371750D01*
X483358D01*
X483354Y371921D01*
X483342Y372074D01*
X483322Y372209D01*
X483294Y372326D01*
X483258Y372425D01*
X483214Y372506D01*
X483162Y372569D01*
X483102Y372614D01*
X483034Y372641D01*
X482958Y372650D01*
X484758D01*
X484682Y372641D01*
D02*
G37*
G36*
X490778Y374148D02*
X490808Y374101D01*
X490858Y374060D01*
X490928Y374024D01*
X491018Y373994D01*
X491128Y373969D01*
X491222Y373955D01*
X491317Y373969D01*
X491427Y373994D01*
X491517Y374024D01*
X491587Y374060D01*
X491637Y374101D01*
X491667Y374148D01*
X491677Y374201D01*
Y373928D01*
X491768Y373925D01*
Y372925D01*
X491677Y372924D01*
Y372650D01*
X493256D01*
X493161Y372640D01*
X493076Y372610D01*
X493001Y372560D01*
X492936Y372490D01*
X492881Y372400D01*
X492836Y372290D01*
X492801Y372160D01*
X492776Y372010D01*
X492761Y371840D01*
X492756Y371650D01*
X491756D01*
X491755Y371840D01*
X491706Y372610D01*
X491692Y372640D01*
X491677Y372650D01*
X491667Y372702D01*
X491637Y372749D01*
X491587Y372790D01*
X491517Y372826D01*
X491427Y372856D01*
X491317Y372881D01*
X491222Y372895D01*
X491128Y372881D01*
X491018Y372856D01*
X490928Y372826D01*
X490858Y372790D01*
X490808Y372749D01*
X490778Y372702D01*
X490768Y372650D01*
Y372922D01*
X490677Y372925D01*
Y373925D01*
X490768Y373926D01*
Y374201D01*
X490778Y374148D01*
D02*
G37*
G36*
X505838Y373083D02*
X505874Y373051D01*
X505933Y373024D01*
X506016Y373000D01*
X506122Y372979D01*
X506252Y372963D01*
X506582Y372940D01*
X507008Y372933D01*
Y371752D01*
X506783Y371750D01*
X506122Y371706D01*
X506016Y371685D01*
X505933Y371661D01*
X505874Y371634D01*
X505838Y371602D01*
X505827Y371567D01*
Y373118D01*
X505838Y373083D01*
D02*
G37*
G36*
X500142Y371567D02*
X500132Y371620D01*
X500102Y371666D01*
X500052Y371708D01*
X499982Y371743D01*
X499892Y371774D01*
X499782Y371798D01*
X499652Y371818D01*
X499502Y371831D01*
X499142Y371843D01*
Y372843D01*
X499332Y372845D01*
X499652Y372867D01*
X499782Y372887D01*
X499892Y372911D01*
X499982Y372942D01*
X500052Y372977D01*
X500102Y373019D01*
X500132Y373066D01*
X500142Y373118D01*
Y371567D01*
D02*
G37*
G36*
X495394Y370165D02*
X494236D01*
X494269Y370175D01*
X494297Y370205D01*
X494323Y370254D01*
X494345Y370323D01*
X494363Y370412D01*
X494379Y370521D01*
X494399Y370798D01*
X494406Y371153D01*
X495405D01*
X495394Y370165D01*
D02*
G37*
G36*
X492757Y370975D02*
X492806Y370205D01*
X492820Y370175D01*
X492835Y370165D01*
X491677D01*
X491692Y370175D01*
X491706Y370205D01*
X491717Y370255D01*
X491728Y370325D01*
X491743Y370525D01*
X491756Y371165D01*
X492756D01*
X492757Y370975D01*
D02*
G37*
G36*
X484990Y370938D02*
X485031Y370404D01*
X485049Y370318D01*
X485071Y370251D01*
X485096Y370203D01*
X485125Y370175D01*
X485157Y370165D01*
X484000D01*
X483998Y370175D01*
X483996Y370203D01*
X483989Y370633D01*
X483988Y371119D01*
X484988D01*
X484990Y370938D01*
D02*
G37*
G36*
X363293Y370925D02*
X363311Y370724D01*
X363340Y370547D01*
X363382Y370393D01*
X363435Y370264D01*
X363500Y370157D01*
X363577Y370075D01*
X363665Y370016D01*
X363766Y369980D01*
X363878Y369968D01*
X361516D01*
X361628Y369980D01*
X361728Y370016D01*
X361817Y370075D01*
X361894Y370157D01*
X361959Y370264D01*
X362012Y370393D01*
X362053Y370547D01*
X362083Y370724D01*
X362100Y370925D01*
X362106Y371149D01*
X363287D01*
X363293Y370925D01*
D02*
G37*
G36*
X398828Y370680D02*
X398877Y369910D01*
X398890Y369880D01*
X398905Y369870D01*
X397748D01*
X397763Y369880D01*
X397777Y369910D01*
X397788Y369960D01*
X397798Y370030D01*
X397814Y370230D01*
X397827Y370870D01*
X398827D01*
X398828Y370680D01*
D02*
G37*
G36*
X391150D02*
X391200Y369910D01*
X391213Y369880D01*
X391228Y369870D01*
X390071D01*
X390086Y369880D01*
X390099Y369910D01*
X390111Y369960D01*
X390121Y370030D01*
X390137Y370230D01*
X390150Y370870D01*
X391150D01*
X391150Y370680D01*
D02*
G37*
G36*
X401387Y370680D02*
X401436Y369910D01*
X401449Y369880D01*
X401464Y369870D01*
X400307D01*
X400322Y369880D01*
X400336Y369910D01*
X400347Y369960D01*
X400357Y370030D01*
X400373Y370230D01*
X400386Y370870D01*
X401386D01*
X401387Y370680D01*
D02*
G37*
G36*
X482610Y370166D02*
X482614Y370164D01*
Y365251D01*
X482626Y365019D01*
X482716Y364566D01*
X482893Y364138D01*
X482931Y364082D01*
X482664Y363582D01*
X480646D01*
X479493Y363811D01*
X478408Y364261D01*
X477431Y364914D01*
X477015Y365329D01*
X476698Y365617D01*
X475986Y366092D01*
X475195Y366420D01*
X474888Y366481D01*
X474714Y366741D01*
X474258Y367046D01*
X473721Y367153D01*
X469024D01*
X468966Y367241D01*
X468875Y367460D01*
X468828Y367693D01*
Y369079D01*
X468871Y369290D01*
X468953Y369490D01*
X469073Y369669D01*
X469149Y369745D01*
X469233Y369829D01*
X469432Y369962D01*
X469653Y370054D01*
X469887Y370100D01*
X470689D01*
X470749Y370100D01*
X474195D01*
X474481Y370044D01*
X474750Y369932D01*
X474993Y369770D01*
X475096Y369667D01*
X475096Y369667D01*
X475239Y369538D01*
X475558Y369324D01*
X475914Y369177D01*
X476291Y369102D01*
X476483Y369092D01*
X478836D01*
X479195Y369110D01*
X479900Y369250D01*
X480563Y369525D01*
X481161Y369924D01*
X481427Y370166D01*
X482610D01*
D02*
G37*
G36*
X388935Y370558D02*
X388996Y370533D01*
X389051Y370496D01*
X389075Y370472D01*
Y369907D01*
X389068Y369870D01*
X389075Y369833D01*
Y364961D01*
X389173D01*
Y361662D01*
Y361463D01*
X389096Y361074D01*
X388944Y360707D01*
X388723Y360377D01*
X388583Y360236D01*
X388395Y360049D01*
X387955Y359755D01*
X387501Y359566D01*
X381477D01*
X381473Y359571D01*
X381436Y359626D01*
X381411Y359687D01*
X381398Y359752D01*
Y359785D01*
Y365372D01*
X381382Y365382D01*
X381335Y365400D01*
X381285Y365410D01*
X381260Y365410D01*
X375620Y365411D01*
X375494Y365411D01*
X375248Y365459D01*
X375017Y365555D01*
X374808Y365695D01*
X374720Y365783D01*
X374663Y365839D01*
X374575Y365971D01*
X374515Y366118D01*
X374484Y366273D01*
X374484Y366353D01*
Y368518D01*
X374786Y368893D01*
X374835Y368925D01*
X375044Y369012D01*
X375265Y369056D01*
X375378Y369056D01*
X381672Y369056D01*
X381673Y369056D01*
X381734Y369082D01*
X381799Y369094D01*
X386434D01*
X386500Y369098D01*
X386629Y369123D01*
X386751Y369174D01*
X386861Y369247D01*
X386909Y369291D01*
X386932Y369316D01*
X386968Y369371D01*
X386993Y369431D01*
X387006Y369496D01*
X387008Y369529D01*
Y369997D01*
Y370063D01*
X387034Y370193D01*
X387084Y370316D01*
X387158Y370426D01*
X387205Y370472D01*
X387228Y370496D01*
X387283Y370533D01*
X387344Y370558D01*
X387409Y370571D01*
X388870D01*
X388935Y370558D01*
D02*
G37*
G36*
X499146Y370571D02*
X500105D01*
X500142Y370564D01*
X500179Y370571D01*
X502444D01*
X502480Y370564D01*
X502517Y370571D01*
X503452D01*
X503488Y370564D01*
X503525Y370571D01*
X505790D01*
X505827Y370564D01*
X505861Y370570D01*
X505895Y370566D01*
X505913Y370571D01*
X506823D01*
Y370737D01*
X513114D01*
X515914Y367937D01*
X515856Y367594D01*
X515717Y367387D01*
X511282D01*
X511254Y367381D01*
X511226Y367385D01*
X511063Y367343D01*
X510898Y367310D01*
X510874Y367295D01*
X510847Y367287D01*
X510656Y367196D01*
X510549Y367115D01*
X510432Y367048D01*
X510266Y366903D01*
X510163Y366770D01*
X510053Y366643D01*
X510044Y366616D01*
X510026Y366593D01*
X509982Y366431D01*
X509929Y366272D01*
X509878Y365866D01*
X509883Y365803D01*
X509870Y365740D01*
Y361926D01*
X509504Y361465D01*
X509435Y361426D01*
X504134Y361426D01*
Y361713D01*
X500984D01*
Y361713D01*
X499508D01*
Y361426D01*
X483601Y361426D01*
X482026Y362078D01*
X482126Y362578D01*
X482664D01*
X482792Y362604D01*
X483004Y362561D01*
X488319D01*
X488319Y362561D01*
X488898Y362677D01*
X489389Y363005D01*
X490676Y364292D01*
X490676Y364292D01*
X491005Y364783D01*
X491098Y365256D01*
X496390D01*
Y368153D01*
X496419Y368299D01*
X496419Y368299D01*
Y370527D01*
X496721Y370829D01*
X499146D01*
Y370571D01*
D02*
G37*
G36*
X405118Y370768D02*
X406078D01*
X406114Y370760D01*
X406151Y370768D01*
X408174D01*
X408416Y370768D01*
X408453Y370760D01*
X408661Y370768D01*
X408661Y370768D01*
X409621D01*
X409658Y370760D01*
X409694Y370768D01*
X411959D01*
X411996Y370760D01*
X412030Y370767D01*
X412064Y370763D01*
X412083Y370768D01*
X412992D01*
Y370934D01*
X468219D01*
X468219Y370934D01*
X468234Y370937D01*
X468378Y370738D01*
X468456Y370471D01*
X468363Y370378D01*
X468308Y370296D01*
X468238Y370226D01*
X468119Y370047D01*
X468081Y369956D01*
X468026Y369873D01*
X467943Y369674D01*
X467924Y369578D01*
X467886Y369486D01*
X467844Y369275D01*
Y369176D01*
X467825Y369079D01*
Y367693D01*
X467833Y367653D01*
X467782Y367435D01*
X467450Y367103D01*
X467429Y367096D01*
X467179Y367046D01*
X466868Y366838D01*
X466386Y366911D01*
X466273Y366968D01*
X466107Y367368D01*
X465498Y367977D01*
X464702Y368307D01*
X463841D01*
X463386Y368209D01*
X463106Y368300D01*
X462958Y368348D01*
X462945Y368351D01*
X462906Y368359D01*
X462858Y368384D01*
X462715Y368397D01*
X462574Y368425D01*
X462522Y368414D01*
X462468Y368419D01*
X462331Y368376D01*
X462190Y368348D01*
X462146Y368319D01*
X462094Y368303D01*
X461984Y368211D01*
X461981Y368209D01*
X457874D01*
Y363878D01*
X463386D01*
Y363878D01*
X463651Y364055D01*
X463841Y363976D01*
X464702D01*
X465498Y364306D01*
X465812Y364619D01*
X466312Y364412D01*
Y361426D01*
X466312Y361426D01*
X466203Y361421D01*
X465992Y361379D01*
X465792Y361296D01*
X465612Y361176D01*
X465532Y361103D01*
X464576Y360147D01*
X464136Y359853D01*
X463647Y359651D01*
X463128Y359547D01*
X462863Y359547D01*
X458685D01*
Y359055D01*
X458675Y359149D01*
X458646Y359232D01*
X458596Y359306D01*
X458526Y359370D01*
X458436Y359424D01*
X458327Y359469D01*
X458197Y359503D01*
X458048Y359528D01*
X457878Y359542D01*
X457689Y359547D01*
X454097D01*
X453577Y359651D01*
X453088Y359853D01*
X452648Y360147D01*
X452461Y360335D01*
X451990Y360806D01*
Y360806D01*
X451988Y360807D01*
X451971Y360824D01*
X451935Y360859D01*
X451933Y360860D01*
X451931Y360862D01*
X451655Y361127D01*
X450230Y362563D01*
X450000Y362795D01*
X449878Y362917D01*
X449878Y362917D01*
X449151Y363577D01*
X447521Y364666D01*
X445710Y365416D01*
X443787Y365798D01*
X442807Y365846D01*
X438985Y365846D01*
X438985Y365846D01*
X438004Y365798D01*
X436082Y365416D01*
X434271Y364666D01*
X432641Y363577D01*
X431914Y362917D01*
X431091Y362095D01*
X430600Y361767D01*
X430055Y361541D01*
X429476Y361426D01*
X429181Y361426D01*
X424016D01*
X418034D01*
Y364430D01*
X418001Y364598D01*
X417977Y364766D01*
X417822Y365201D01*
X417776Y365280D01*
Y365689D01*
X417436D01*
X417389Y365712D01*
X417308Y365772D01*
X417214Y365796D01*
X417127Y365838D01*
X416675Y365954D01*
X416549Y365961D01*
X416425Y365986D01*
X412167D01*
X412139Y365980D01*
X412111Y365984D01*
X411948Y365942D01*
X411783Y365910D01*
X411759Y365894D01*
X411731Y365887D01*
X411448Y365750D01*
X411377Y365697D01*
X411360Y365689D01*
X411004D01*
Y365332D01*
X410783Y364975D01*
X410755Y364899D01*
X410710Y364832D01*
X410687Y364717D01*
X410647Y364608D01*
X410650Y364527D01*
X410634Y364448D01*
Y361434D01*
X410134Y361426D01*
X390207Y361426D01*
X390177Y361463D01*
Y362069D01*
X394685D01*
X394685Y362069D01*
X395264Y362185D01*
X395755Y362513D01*
X396747Y363505D01*
X396747Y363505D01*
X397075Y363996D01*
X397190Y364575D01*
Y364961D01*
X397342D01*
Y364961D01*
X399311D01*
Y364961D01*
X402461D01*
Y369833D01*
X402468Y369870D01*
X402461Y369906D01*
Y370399D01*
X403088Y371026D01*
X405118D01*
Y370768D01*
D02*
G37*
G36*
X462586Y367309D02*
X462622Y367209D01*
X462682Y367120D01*
X462765Y367043D01*
X462873Y366978D01*
X463004Y366925D01*
X463159Y366884D01*
X463162Y366883D01*
X463242Y366905D01*
X463319Y366931D01*
X463388Y366962D01*
X463448Y366997D01*
X463500Y367036D01*
X463484Y366842D01*
X463541Y366837D01*
X463767Y366831D01*
Y365650D01*
X463541Y365644D01*
X463382Y365630D01*
X463362Y365388D01*
X463314Y365438D01*
X463258Y365482D01*
X463193Y365522D01*
X463119Y365556D01*
X463069Y365573D01*
X463004Y365555D01*
X462873Y365502D01*
X462765Y365437D01*
X462682Y365360D01*
X462622Y365272D01*
X462586Y365171D01*
X462574Y365059D01*
Y365648D01*
X462489Y365650D01*
X462574Y366529D01*
Y367421D01*
X462586Y367309D01*
D02*
G37*
G36*
X490243Y366243D02*
X490214Y366217D01*
X490189Y366172D01*
X490167Y366110D01*
X490149Y366030D01*
X490133Y365932D01*
X490113Y365683D01*
X490106Y365362D01*
X489106D01*
X489118Y366252D01*
X490275D01*
X490243Y366243D01*
D02*
G37*
G36*
X396314Y365947D02*
X396285Y365917D01*
X396260Y365867D01*
X396238Y365797D01*
X396219Y365707D01*
X396204Y365597D01*
X396184Y365317D01*
X396177Y364957D01*
X395177D01*
X395189Y365957D01*
X396346D01*
X396314Y365947D01*
D02*
G37*
G36*
X552146Y361052D02*
X551959Y360931D01*
X551646Y360861D01*
X528146Y384361D01*
X528337Y384823D01*
X552146D01*
Y361052D01*
D02*
G37*
G36*
X416876Y364866D02*
X417031Y364430D01*
Y360126D01*
X416991Y359925D01*
X416912Y359735D01*
X416798Y359564D01*
X416726Y359492D01*
X416649Y359415D01*
X416469Y359295D01*
X416268Y359212D01*
X416056Y359170D01*
X412795D01*
X412616Y359205D01*
X412447Y359275D01*
X412295Y359377D01*
X412231Y359441D01*
X412090Y359582D01*
X411868Y359914D01*
X411715Y360283D01*
X411637Y360675D01*
Y364448D01*
X411883Y364846D01*
X412167Y364982D01*
X416425D01*
X416876Y364866D01*
D02*
G37*
G36*
X409720Y358563D02*
X409720Y358563D01*
X409720Y358563D01*
X410176Y358457D01*
X410198Y358448D01*
X410363Y358338D01*
X410527Y358174D01*
X410674Y357954D01*
X410775Y357709D01*
X410827Y357450D01*
X410827Y357317D01*
X410827Y355536D01*
X410827Y355536D01*
X410827Y355436D01*
X410788Y355242D01*
X410712Y355058D01*
X410602Y354893D01*
X410438Y354729D01*
X410218Y354582D01*
X409973Y354481D01*
X409713Y354429D01*
X409581Y354429D01*
X400672D01*
X400672Y354429D01*
X400606Y354426D01*
X400477Y354400D01*
X400355Y354350D01*
X400246Y354277D01*
X400197Y354232D01*
Y354232D01*
X399997Y354012D01*
X399668Y353519D01*
X399637Y353445D01*
X399311D01*
Y352906D01*
X399270Y352845D01*
X399193Y352461D01*
Y347207D01*
X399213Y347110D01*
Y347011D01*
X399311Y346516D01*
Y345262D01*
X399311Y345262D01*
X399311Y345169D01*
X399275Y344988D01*
X399204Y344817D01*
X399101Y344664D01*
X398967Y344529D01*
X398805Y344421D01*
X398624Y344346D01*
X398432Y344308D01*
X398335Y344308D01*
X393811D01*
X393613Y344347D01*
X393426Y344424D01*
X393258Y344537D01*
X393146Y344649D01*
X393080Y344747D01*
X393036Y344855D01*
X393013Y344970D01*
Y345029D01*
X393012Y345267D01*
Y345585D01*
X393094Y345998D01*
X393255Y346387D01*
X393384Y346580D01*
X393701Y346949D01*
X393713Y346960D01*
X393713Y346961D01*
X393899Y347146D01*
X395177D01*
Y347673D01*
X395344Y347677D01*
X396020Y347677D01*
X396020Y347677D01*
X396020Y347677D01*
X396105Y347681D01*
X396272Y347714D01*
X396273Y347714D01*
X396369Y347754D01*
X396370Y347754D01*
X396431Y347780D01*
X396431Y347780D01*
X396462Y347801D01*
X396462Y347801D01*
X396471Y347807D01*
X396573Y347875D01*
X396573Y347875D01*
X396637Y347932D01*
X396720Y348016D01*
X396838Y348146D01*
X397033Y348438D01*
X397167Y348761D01*
X397235Y349105D01*
X397244Y349281D01*
X397244Y354485D01*
X397381Y355173D01*
X397650Y355822D01*
X398040Y356406D01*
X398996Y357363D01*
X399877Y357951D01*
X400856Y358356D01*
X401894Y358563D01*
X402424Y358563D01*
X409720Y358563D01*
X409720Y358563D01*
D02*
G37*
G36*
X503364Y359923D02*
X503364Y359923D01*
X503422Y359782D01*
X503422Y359782D01*
X503507Y359655D01*
X503507Y359655D01*
X503558Y359599D01*
X503589Y359567D01*
X503590Y359567D01*
X503918Y359210D01*
X504284Y358663D01*
X504576Y357958D01*
X504724Y357210D01*
X504724Y356829D01*
X504724Y356028D01*
X504724Y356028D01*
Y355928D01*
X504686Y355734D01*
X504610Y355550D01*
X504499Y355385D01*
X504382Y355268D01*
X504272Y355195D01*
X504150Y355144D01*
X504020Y355118D01*
X495323D01*
X495323Y355118D01*
X495126Y355108D01*
X494738Y355031D01*
X494373Y354880D01*
X494044Y354660D01*
X493898Y354528D01*
X493499Y354129D01*
X493389Y354008D01*
X493208Y353737D01*
X493083Y353436D01*
X493080Y353418D01*
X492998Y353294D01*
X492937Y353141D01*
X492904Y353091D01*
X492892Y353031D01*
X492854Y352940D01*
X492846Y352903D01*
X492846Y352804D01*
X492827Y352707D01*
Y348192D01*
X492756Y347835D01*
Y346331D01*
X492775Y346234D01*
Y346135D01*
X492851Y345756D01*
X492889Y345665D01*
X492908Y345568D01*
X493012Y345317D01*
Y345299D01*
X493012Y345299D01*
X493012Y345200D01*
X492973Y345005D01*
X492897Y344822D01*
X492787Y344657D01*
X492623Y344493D01*
X492403Y344346D01*
X492158Y344245D01*
X491898Y344193D01*
X491766Y344193D01*
X490476D01*
X490281Y344232D01*
X490098Y344308D01*
X489932Y344418D01*
X489815Y344535D01*
X489742Y344645D01*
X489691Y344767D01*
X489665Y344897D01*
X489665Y344963D01*
Y352298D01*
X489665Y352769D01*
X489665Y352769D01*
X489665Y352769D01*
X489665Y353397D01*
X489911Y354631D01*
X490392Y355793D01*
X491091Y356839D01*
X491816Y357564D01*
X492477Y358006D01*
X493211Y358310D01*
X493990Y358465D01*
X494387Y358465D01*
X499287Y358465D01*
X499386Y358469D01*
X499580Y358508D01*
X499580Y358508D01*
X499762Y358584D01*
X499927Y358693D01*
X500000Y358760D01*
X500066Y358833D01*
X500176Y358998D01*
X500252Y359180D01*
X500290Y359374D01*
X500295Y359473D01*
X500295Y360039D01*
X502658D01*
Y360039D01*
X503341D01*
X503364Y359923D01*
D02*
G37*
G36*
X515952Y366337D02*
X516173Y366245D01*
X516371Y366112D01*
X516456Y366028D01*
X516605Y365879D01*
X516838Y365530D01*
X516999Y365141D01*
X517081Y364729D01*
Y355412D01*
X517081D01*
X517038Y355369D01*
X516936Y355301D01*
X516823Y355255D01*
X516704Y355231D01*
X512435D01*
X512417Y355249D01*
Y358180D01*
X512403Y358466D01*
X512291Y359026D01*
X512073Y359553D01*
X511756Y360028D01*
X511564Y360240D01*
X511400Y360404D01*
X511142Y360789D01*
X510964Y361218D01*
X510874Y361673D01*
Y365740D01*
X510925Y366147D01*
X511091Y366292D01*
X511282Y366383D01*
X515717D01*
X515952Y366337D01*
D02*
G37*
G36*
X510164Y358700D02*
X510275Y358589D01*
X510335Y358444D01*
Y358366D01*
Y354232D01*
Y354115D01*
X510245Y353898D01*
X510079Y353732D01*
X509862Y353642D01*
X506024D01*
X505879Y353702D01*
X505769Y353812D01*
X505709Y353957D01*
Y354035D01*
Y355832D01*
X505728Y355928D01*
Y356028D01*
X505728Y356028D01*
X505728Y356829D01*
X505728Y357210D01*
X505709Y357307D01*
Y358366D01*
Y358444D01*
X505769Y358589D01*
X505879Y358700D01*
X506024Y358760D01*
X510019D01*
X510164Y358700D01*
D02*
G37*
G36*
X473043Y354033D02*
X473004Y353839D01*
Y348857D01*
X472522Y348721D01*
X467914D01*
X467733Y348795D01*
X467595Y348934D01*
X467520Y349115D01*
Y354449D01*
X467535Y354485D01*
X467562Y354513D01*
X467598Y354528D01*
X472657D01*
X473043Y354033D01*
D02*
G37*
G36*
X378839Y360382D02*
X378848Y360185D01*
X378925Y359797D01*
X379077Y359432D01*
X379296Y359103D01*
X379429Y358957D01*
X379429Y358957D01*
X379527Y358868D01*
X379746Y358722D01*
X379989Y358621D01*
X380248Y358570D01*
X380380Y358563D01*
X389459D01*
X390368Y358382D01*
X391225Y358028D01*
X391995Y357513D01*
X392323Y357185D01*
X392744Y356764D01*
X393406Y355773D01*
X393862Y354672D01*
X394094Y353504D01*
Y348551D01*
X393899D01*
X393634Y348498D01*
X393368Y348446D01*
X393365Y348444D01*
X393362Y348444D01*
X393334Y348425D01*
X392637D01*
Y352412D01*
X392618Y352509D01*
X392618Y352608D01*
X392611Y352644D01*
X392601Y352668D01*
X392600Y352694D01*
X392568Y352760D01*
X392561Y352796D01*
X392527Y352847D01*
X392526Y352848D01*
X392461Y353006D01*
X392443Y353024D01*
X392432Y353047D01*
X392391Y353126D01*
X392358Y353189D01*
X392358Y353190D01*
X392224Y353445D01*
X392126Y353543D01*
X392126Y353543D01*
X391648Y354022D01*
X391302Y354335D01*
X390528Y354852D01*
X389667Y355209D01*
X388753Y355391D01*
X388287Y355413D01*
X386597D01*
X386542Y355411D01*
X386531Y355410D01*
X386531Y355410D01*
X386402Y355384D01*
X386402Y355384D01*
X386280Y355334D01*
X386280Y355334D01*
X386171Y355261D01*
X386122Y355217D01*
X386122D01*
X386122Y355217D01*
X385739Y354933D01*
X385583Y354869D01*
X385353Y354823D01*
X374902D01*
Y364272D01*
X378839D01*
Y360382D01*
D02*
G37*
G36*
X504543Y353022D02*
X504729Y352945D01*
X504896Y352834D01*
X504967Y352763D01*
X505061Y352677D01*
X505273Y352536D01*
X505508Y352438D01*
X505757Y352389D01*
X505884Y352383D01*
X516709D01*
X516817Y352361D01*
X516918Y352319D01*
X517009Y352258D01*
X517048Y352220D01*
X517074Y352194D01*
X517114Y352133D01*
X517142Y352066D01*
X517156Y351994D01*
Y349662D01*
X517121Y349483D01*
X517051Y349314D01*
X516950Y349162D01*
X516885Y349098D01*
X516827Y349040D01*
X516690Y348948D01*
X516538Y348885D01*
X516377Y348853D01*
X499499D01*
X499447Y348851D01*
X499345Y348830D01*
X499249Y348791D01*
X499162Y348733D01*
X499124Y348698D01*
X499041Y348615D01*
X498846Y348484D01*
X498629Y348395D01*
X498399Y348349D01*
X496961D01*
X496932Y348392D01*
X496862Y348462D01*
X496807Y348544D01*
X496803Y348547D01*
Y352562D01*
X497005Y353043D01*
X497280Y353061D01*
X504346D01*
X504543Y353022D01*
D02*
G37*
G36*
X473721Y363410D02*
X473725Y363311D01*
X473764Y363117D01*
X473840Y362934D01*
X473949Y362770D01*
X474016Y362697D01*
X474382Y362365D01*
X475204Y361816D01*
X476117Y361438D01*
X477086Y361245D01*
X477580Y361221D01*
X479422D01*
X481354Y360836D01*
X483173Y360082D01*
X484811Y358988D01*
X485508Y358292D01*
X487303Y356496D01*
X487514Y356285D01*
X487845Y355790D01*
X488073Y355240D01*
X488189Y354655D01*
Y354358D01*
Y348130D01*
X486567D01*
Y352707D01*
X486547Y352804D01*
X486547Y352903D01*
X486540Y352940D01*
X486534Y352953D01*
X486534Y352968D01*
X486499Y353045D01*
X486490Y353091D01*
X486456Y353142D01*
X486390Y353302D01*
X486380Y353312D01*
X486374Y353325D01*
X486319Y353402D01*
Y353438D01*
X486311Y353603D01*
X486246Y353926D01*
X486121Y354230D01*
X485938Y354504D01*
X485827Y354626D01*
X485240Y355157D01*
X483926Y356036D01*
X482465Y356641D01*
X480914Y356949D01*
X480124Y356988D01*
X469102D01*
X469037Y357001D01*
X468976Y357026D01*
X468921Y357063D01*
X468898Y357087D01*
X468617Y357367D01*
X468176Y358028D01*
X467872Y358762D01*
X467717Y359541D01*
Y359938D01*
Y365748D01*
X473721D01*
Y363410D01*
D02*
G37*
G36*
X482367Y353763D02*
X482640Y353405D01*
X482591Y353159D01*
Y348187D01*
X482559Y348110D01*
X482480Y348031D01*
X482317Y347868D01*
X482303Y347862D01*
X482201Y347842D01*
X482161Y347840D01*
X474896Y347840D01*
X474785Y347952D01*
X474601Y348227D01*
X474474Y348533D01*
X474409Y348857D01*
Y353839D01*
X482263D01*
X482367Y353763D01*
D02*
G37*
G36*
X417717Y347835D02*
X403271D01*
X403076Y347873D01*
X402893Y347949D01*
X402833Y347989D01*
X402808Y348026D01*
X402797Y348083D01*
X402739Y348222D01*
X402683Y348505D01*
X402677Y348637D01*
Y352461D01*
X403108Y352854D01*
X417717D01*
Y347835D01*
D02*
G37*
G36*
X378208Y352922D02*
X378667Y352732D01*
X379080Y352456D01*
X379353Y352183D01*
X379507Y351953D01*
X379612Y351697D01*
X379666Y351426D01*
Y348714D01*
X379641Y348586D01*
X379591Y348466D01*
X379519Y348358D01*
X379473Y348312D01*
X379289Y348128D01*
X378856Y347838D01*
X378375Y347639D01*
X377864Y347537D01*
X373596D01*
X373364Y347584D01*
X373146Y347674D01*
X372950Y347805D01*
X372867Y347888D01*
X372731Y348024D01*
X372519Y348342D01*
X372373Y348695D01*
X372298Y349070D01*
Y352196D01*
X372289Y352224D01*
X372536Y352622D01*
X372923Y352894D01*
X373098Y352966D01*
X373360Y353018D01*
X377721D01*
X378208Y352922D01*
D02*
G37*
G36*
X485556Y352744D02*
X485563Y352707D01*
Y347835D01*
X485602D01*
Y346748D01*
X485602Y346748D01*
X485602Y346652D01*
X485565Y346463D01*
X485491Y346285D01*
X485384Y346125D01*
X485316Y346057D01*
X485018Y345759D01*
X485018Y345759D01*
X484801Y345542D01*
X484292Y345202D01*
X483726Y344967D01*
X483125Y344848D01*
X481653D01*
X481653Y344848D01*
X481515Y344841D01*
X481243Y344787D01*
X480988Y344681D01*
X480757Y344527D01*
X480655Y344434D01*
X480347Y344094D01*
X479838Y343333D01*
X479488Y342487D01*
X479309Y341589D01*
X479287Y341131D01*
Y337387D01*
X479287Y337387D01*
X479287Y337226D01*
X479222Y336911D01*
X479095Y336616D01*
X478910Y336352D01*
X478793Y336242D01*
X470940Y336242D01*
X470626Y336304D01*
X470329Y336427D01*
X470062Y336605D01*
X469949Y336719D01*
X469911Y336757D01*
X469851Y336846D01*
X469810Y336945D01*
X469790Y337049D01*
Y343460D01*
X469790Y343460D01*
X469822Y343946D01*
X469917Y344426D01*
X470167Y345029D01*
X470451Y345454D01*
X470760Y345802D01*
Y345802D01*
X471102Y346113D01*
X471584Y346434D01*
X472227Y346701D01*
X472909Y346836D01*
X473256Y346836D01*
X482186Y346836D01*
X482186Y346836D01*
X482324Y346843D01*
X482595Y346897D01*
X482596Y346897D01*
X482651Y346920D01*
X482773Y346971D01*
X482804Y346983D01*
X482804Y346983D01*
X482851Y347003D01*
X482852Y347003D01*
X483081Y347157D01*
X483184Y347250D01*
X483184Y347250D01*
X483274Y347349D01*
X483421Y347570D01*
X483422Y347570D01*
X483453Y347645D01*
X483523Y347816D01*
X483527Y347835D01*
X483595D01*
Y353159D01*
X485260D01*
X485556Y352744D01*
D02*
G37*
G36*
X388500Y353124D02*
X388623Y353073D01*
X388733Y353000D01*
X388779Y352953D01*
X388826Y352906D01*
X388900Y352796D01*
X388951Y352674D01*
X388976Y352544D01*
Y352478D01*
Y347424D01*
Y347358D01*
X388951Y347228D01*
X388900Y347106D01*
X388826Y346996D01*
X388779Y346949D01*
X388663Y346832D01*
X388387Y346648D01*
X388082Y346521D01*
X387757Y346457D01*
X381936D01*
X381546Y346534D01*
X381179Y346686D01*
X380849Y346907D01*
X380709Y347047D01*
X380638Y347117D01*
X380528Y347283D01*
X380452Y347466D01*
X380413Y347661D01*
Y347760D01*
Y347890D01*
X380426Y347909D01*
X380463Y348000D01*
X380518Y348082D01*
X380568Y348202D01*
X380587Y348299D01*
X380625Y348391D01*
X380651Y348518D01*
Y348617D01*
X380670Y348714D01*
Y351426D01*
X380651Y351523D01*
Y351621D01*
X380597Y351893D01*
X380559Y351984D01*
X380540Y352081D01*
X380434Y352337D01*
X380413Y352367D01*
Y352461D01*
Y352617D01*
Y352650D01*
X380426Y352715D01*
X380452Y352776D01*
X380488Y352831D01*
X380512Y352854D01*
X380582Y352924D01*
X380747Y353035D01*
X380931Y353111D01*
X381125Y353150D01*
X388370D01*
X388500Y353124D01*
D02*
G37*
G36*
X391627Y352449D02*
X391634Y352412D01*
Y347539D01*
X391732D01*
Y346311D01*
X391716Y346272D01*
X391634Y345859D01*
Y345720D01*
X391607Y345585D01*
Y345267D01*
X391607Y345264D01*
X391607Y345261D01*
X391608Y345026D01*
Y344970D01*
X391635Y344834D01*
Y344696D01*
X391642Y344658D01*
X391579Y344507D01*
X391432Y344286D01*
X391339Y344193D01*
X391175Y344029D01*
X390831Y343799D01*
X388976D01*
Y343504D01*
X387032D01*
X386933Y343499D01*
X386739Y343460D01*
X386557Y343385D01*
X386392Y343275D01*
X386319Y343209D01*
X386252Y343135D01*
X386143Y342971D01*
X386067Y342788D01*
X386029Y342595D01*
X386024Y342496D01*
Y336834D01*
X385985Y336639D01*
X385909Y336456D01*
X385799Y336291D01*
X385611Y336104D01*
X385484Y336018D01*
X377196Y336018D01*
X376969Y335973D01*
X376739Y335942D01*
X376719Y335930D01*
X376652Y335958D01*
X376322Y336178D01*
X376017Y336483D01*
X375760Y336868D01*
X375583Y337296D01*
X375492Y337751D01*
Y342065D01*
X375595Y342584D01*
X375798Y343073D01*
X376092Y343514D01*
X376279Y343701D01*
X376279D01*
X377384Y344805D01*
X377566Y344987D01*
X377994Y345273D01*
X378470Y345470D01*
X378975Y345571D01*
X381300D01*
X381350Y345550D01*
X381740Y345472D01*
X381839D01*
X381936Y345453D01*
X387757D01*
X387854Y345472D01*
X387953D01*
X388277Y345537D01*
X388369Y345575D01*
X388465Y345594D01*
X388771Y345721D01*
X388854Y345776D01*
X388945Y345813D01*
X389220Y345997D01*
X389290Y346067D01*
X389372Y346122D01*
X389489Y346239D01*
X389489Y346239D01*
X389536Y346286D01*
X389591Y346368D01*
X389661Y346438D01*
X389734Y346548D01*
X389772Y346639D01*
X389827Y346722D01*
X389878Y346844D01*
X389897Y346941D01*
X389935Y347032D01*
X389961Y347162D01*
Y347261D01*
X389980Y347358D01*
Y352544D01*
X390314Y352808D01*
X390413Y352854D01*
X391325D01*
X391627Y352449D01*
D02*
G37*
G36*
X459055Y357185D02*
Y357087D01*
X462205D01*
X462205Y357087D01*
Y357087D01*
X462205Y357087D01*
X462668Y356998D01*
X462725Y356960D01*
X462865Y356820D01*
X462909Y356755D01*
X463030Y356430D01*
X463091Y356177D01*
X463091Y356177D01*
X463091Y355699D01*
X463091Y353463D01*
X463091Y352569D01*
X462742Y350816D01*
X462058Y349165D01*
X461065Y347679D01*
X460433Y347047D01*
X460433Y347047D01*
X460433Y347047D01*
X458025Y344639D01*
X457947Y344553D01*
X457818Y344359D01*
X457728Y344144D01*
X457728Y344144D01*
X457683Y343916D01*
X457677Y343799D01*
X457677Y343799D01*
X457677Y343799D01*
X457677Y343372D01*
X457677Y343239D01*
X457625Y342980D01*
X457524Y342735D01*
X457377Y342515D01*
X457073Y342211D01*
X456577Y341880D01*
X456027Y341652D01*
X456017Y341650D01*
X455973Y341668D01*
X455942Y341674D01*
X455893Y341674D01*
X455846Y341690D01*
X455387Y341748D01*
X455298Y341742D01*
X455210Y341759D01*
X455209Y341759D01*
X441895Y341759D01*
X441763Y341759D01*
X441627Y341732D01*
X441489D01*
X441229Y341681D01*
X441101Y341628D01*
X440966Y341601D01*
X440721Y341499D01*
X440606Y341423D01*
X440478Y341370D01*
X440258Y341222D01*
X440160Y341125D01*
X440045Y341048D01*
X439952Y340954D01*
X439951Y340954D01*
X439951Y340954D01*
X439881Y340884D01*
X439804Y340769D01*
X439707Y340671D01*
X439596Y340506D01*
X439543Y340378D01*
X439466Y340263D01*
X439390Y340079D01*
X439363Y339944D01*
X439310Y339816D01*
X439272Y339621D01*
Y339483D01*
X439245Y339347D01*
X439245Y294050D01*
X439233Y294042D01*
X439062Y293972D01*
X438847Y293929D01*
X438755Y293925D01*
X429822D01*
X429747Y293957D01*
X429635Y294052D01*
X429443Y294388D01*
X429505Y294697D01*
Y294836D01*
X429532Y294972D01*
X429532Y295130D01*
X429532Y332638D01*
Y332818D01*
X429505Y332954D01*
Y333092D01*
X429435Y333444D01*
X429382Y333572D01*
X429355Y333707D01*
X429218Y334039D01*
X429141Y334154D01*
X429088Y334282D01*
X428888Y334580D01*
X428856Y334613D01*
Y341442D01*
X428856Y341866D01*
X429022Y342698D01*
X429347Y343482D01*
X429818Y344188D01*
X430352Y344722D01*
X430902Y345090D01*
X431514Y345343D01*
X432163Y345472D01*
X432494D01*
X432494Y345472D01*
X444066D01*
X444725Y345505D01*
X446018Y345762D01*
X447235Y346266D01*
X448330Y346998D01*
X448819Y347441D01*
X448988Y347610D01*
X449614Y348301D01*
X450649Y349850D01*
X451362Y351572D01*
X451726Y353399D01*
X451772Y354331D01*
X451772Y354331D01*
Y354588D01*
X451872Y355093D01*
X452069Y355569D01*
X452355Y355997D01*
X452943Y356585D01*
X453383Y356879D01*
X453873Y357082D01*
X454392Y357185D01*
X454657D01*
X454657Y357185D01*
X459055Y357185D01*
D02*
G37*
G36*
X455209Y340354D02*
X455209Y340354D01*
X455210D01*
X455668Y340296D01*
X455700Y340290D01*
X456005Y340163D01*
X456281Y339979D01*
X456657Y339603D01*
X456657Y339603D01*
Y339603D01*
X456954Y339231D01*
X457040Y339104D01*
X457201Y338714D01*
X457283Y338301D01*
X457283Y338090D01*
X457296Y337834D01*
X457396Y337332D01*
X457592Y336858D01*
X457877Y336432D01*
X458049Y336242D01*
X458366Y335925D01*
X458684Y335637D01*
X459396Y335161D01*
X460187Y334834D01*
X461027Y334667D01*
X461455Y334646D01*
X468518D01*
X468996Y334646D01*
X469350Y334452D01*
X469451Y334388D01*
X469587Y334252D01*
X469587Y334252D01*
X469704Y334135D01*
X469887Y333860D01*
X470014Y333554D01*
X470079Y333229D01*
X470079Y333064D01*
X470079Y293905D01*
X470079Y293905D01*
X470079Y293739D01*
X470014Y293414D01*
X469887Y293109D01*
X469704Y292834D01*
X469446Y292576D01*
X469116Y292355D01*
X468749Y292203D01*
X468360Y292126D01*
X468161Y292126D01*
X462931D01*
X462427Y292226D01*
X461951Y292424D01*
X461523Y292709D01*
X460925Y293307D01*
Y293307D01*
X460925Y293307D01*
X460803Y293418D01*
X460529Y293601D01*
X460225Y293727D01*
X459902Y293791D01*
X459737Y293799D01*
X452033Y293799D01*
X452033Y293799D01*
X451901Y293793D01*
X451643Y293741D01*
X451400Y293640D01*
X451180Y293494D01*
X451083Y293406D01*
X450994Y293308D01*
X450848Y293089D01*
X450747Y292845D01*
X450695Y292587D01*
X450689Y292455D01*
Y289961D01*
X450405D01*
Y276594D01*
X429539D01*
Y289961D01*
X429429D01*
Y292060D01*
X429528Y292520D01*
X438789D01*
X439020Y292531D01*
X439472Y292621D01*
X439898Y292797D01*
X440282Y293054D01*
X440453Y293209D01*
X440497Y293257D01*
X440570Y293367D01*
X440621Y293489D01*
X440646Y293618D01*
X440650Y293684D01*
X440650Y339347D01*
X440688Y339542D01*
X440764Y339725D01*
X440875Y339890D01*
X440945Y339961D01*
X441039Y340054D01*
X441259Y340201D01*
X441503Y340303D01*
X441763Y340354D01*
X441895Y340354D01*
X455209Y340354D01*
X455209Y340354D01*
D02*
G37*
G36*
X538353Y338232D02*
X538303Y338277D01*
X538243Y338317D01*
X538176Y338352D01*
X538100Y338383D01*
X538015Y338409D01*
X537922Y338430D01*
X537821Y338447D01*
X537711Y338459D01*
X537465Y338468D01*
Y339649D01*
X537592Y339651D01*
X537821Y339670D01*
X537922Y339687D01*
X538015Y339708D01*
X538100Y339734D01*
X538176Y339765D01*
X538243Y339800D01*
X538303Y339841D01*
X538353Y339885D01*
Y338232D01*
D02*
G37*
G36*
X548985Y358981D02*
Y327505D01*
X548523Y327313D01*
X543261Y332576D01*
X543312Y332834D01*
X543921Y333443D01*
X544251Y334239D01*
Y335100D01*
X543921Y335896D01*
X543312Y336505D01*
X542516Y336835D01*
X541655D01*
X540859Y336505D01*
X540642Y336288D01*
X540618Y336283D01*
X540587Y336278D01*
X540551Y336275D01*
X536567D01*
X535851Y336991D01*
X536042Y337453D01*
X537677D01*
X537686Y337452D01*
X537730Y337445D01*
X537753Y337439D01*
X537970Y337223D01*
X538766Y336893D01*
X539627D01*
X540423Y337223D01*
X541032Y337832D01*
X541362Y338628D01*
Y339489D01*
X541032Y340285D01*
X540423Y340894D01*
X539627Y341224D01*
X538766D01*
X537970Y340894D01*
X537753Y340678D01*
X537730Y340672D01*
X537699Y340667D01*
X537662Y340664D01*
X535425D01*
X531527Y344563D01*
Y366634D01*
X531405Y367248D01*
X531057Y367769D01*
X531057Y367769D01*
X516838Y381988D01*
X517030Y382450D01*
X525516D01*
X548985Y358981D01*
D02*
G37*
G36*
X466151Y342975D02*
X466401Y342726D01*
X466535Y342401D01*
Y342224D01*
Y337598D01*
Y337422D01*
X466401Y337097D01*
X466151Y336847D01*
X465826Y336713D01*
X462383D01*
X462165Y336803D01*
X461999Y336969D01*
X461909Y337186D01*
Y337303D01*
Y342913D01*
Y342952D01*
X461939Y343025D01*
X461995Y343080D01*
X462067Y343110D01*
X465826D01*
X466151Y342975D01*
D02*
G37*
G36*
X516476Y343020D02*
X516642Y342854D01*
X516732Y342637D01*
Y342520D01*
Y336909D01*
Y336870D01*
X516702Y336798D01*
X516647Y336742D01*
X516575Y336713D01*
X512816D01*
X512490Y336847D01*
X512241Y337097D01*
X512106Y337422D01*
Y337598D01*
X512106D01*
Y342224D01*
Y342401D01*
X512241Y342726D01*
X512490Y342975D01*
X512816Y343110D01*
X516259D01*
X516476Y343020D01*
D02*
G37*
G36*
X486358D02*
X486524Y342854D01*
X486614Y342637D01*
Y342520D01*
Y336909D01*
Y336870D01*
X486584Y336798D01*
X486529Y336742D01*
X486456Y336713D01*
X482698D01*
X482372Y336847D01*
X482123Y337097D01*
X481988Y337422D01*
Y337598D01*
X481988D01*
Y342224D01*
Y342401D01*
X482123Y342726D01*
X482372Y342975D01*
X482698Y343110D01*
X486141D01*
X486358Y343020D01*
D02*
G37*
G36*
X496270Y342877D02*
X496519Y342628D01*
X496654Y342302D01*
Y342126D01*
X496654D01*
Y337500D01*
Y337324D01*
X496519Y336998D01*
X496270Y336749D01*
X495944Y336614D01*
X492501D01*
X492284Y336704D01*
X492118Y336870D01*
X492028Y337087D01*
Y337205D01*
Y342815D01*
Y342854D01*
X492058Y342927D01*
X492113Y342982D01*
X492185Y343012D01*
X495944D01*
X496270Y342877D01*
D02*
G37*
G36*
X423140D02*
X423389Y342628D01*
X423524Y342302D01*
Y342126D01*
X423524D01*
Y337500D01*
Y337324D01*
X423389Y336998D01*
X423140Y336749D01*
X422814Y336614D01*
X419371D01*
X419154Y336704D01*
X418988Y336870D01*
X418898Y337087D01*
Y337205D01*
Y342815D01*
Y342854D01*
X418928Y342927D01*
X418983Y342982D01*
X419055Y343012D01*
X422814D01*
X423140Y342877D01*
D02*
G37*
G36*
X401978D02*
X402227Y342628D01*
X402362Y342302D01*
Y342126D01*
X402362D01*
Y337500D01*
Y337324D01*
X402227Y336998D01*
X401978Y336749D01*
X401653Y336614D01*
X398209D01*
X397992Y336704D01*
X397826Y336870D01*
X397736Y337087D01*
Y337205D01*
Y342815D01*
Y342854D01*
X397766Y342927D01*
X397822Y342982D01*
X397894Y343012D01*
X401653D01*
X401978Y342877D01*
D02*
G37*
G36*
X372943D02*
X373192Y342628D01*
X373327Y342302D01*
Y342126D01*
X373327D01*
Y337500D01*
Y337324D01*
X373192Y336998D01*
X372943Y336749D01*
X372617Y336614D01*
X369174D01*
X368957Y336704D01*
X368791Y336870D01*
X368701Y337087D01*
Y337205D01*
Y342815D01*
Y342854D01*
X368731Y342927D01*
X368786Y342982D01*
X368859Y343012D01*
X372617D01*
X372943Y342877D01*
D02*
G37*
G36*
X393248Y342922D02*
X393414Y342756D01*
X393504Y342539D01*
Y342421D01*
Y336811D01*
Y336772D01*
X393474Y336700D01*
X393419Y336644D01*
X393346Y336614D01*
X389588D01*
X389262Y336749D01*
X389013Y336998D01*
X388878Y337324D01*
Y337500D01*
X388878D01*
Y342126D01*
Y342302D01*
X388960Y342500D01*
X388976D01*
X389360Y342577D01*
X389686Y342794D01*
X389687Y342796D01*
X390831D01*
X390928Y342815D01*
X391026D01*
X391118Y342853D01*
X391215Y342872D01*
X391297Y342927D01*
X391388Y342965D01*
X391459Y343012D01*
X393031D01*
X393248Y342922D01*
D02*
G37*
G36*
X401673Y348612D02*
X401685Y348382D01*
X401775Y347929D01*
X401870Y347699D01*
Y347539D01*
X401936D01*
X401951Y347503D01*
X402207Y347120D01*
X402362Y346949D01*
X402533Y346794D01*
X402917Y346538D01*
X403343Y346361D01*
X403795Y346271D01*
X404026Y346260D01*
X412734D01*
X413253Y346157D01*
X413742Y345954D01*
X414183Y345660D01*
X414370Y345472D01*
X414534Y345309D01*
X414791Y344923D01*
X414969Y344495D01*
X415059Y344041D01*
Y336925D01*
X415033Y336795D01*
X414983Y336673D01*
X414909Y336563D01*
X414862Y336516D01*
X414792Y336445D01*
X414627Y336335D01*
X414443Y336259D01*
X414249Y336221D01*
X405822D01*
X405693Y336246D01*
X405570Y336297D01*
X405460Y336370D01*
X405413Y336417D01*
X405367Y336464D01*
X405293Y336574D01*
X405242Y336697D01*
X405217Y336826D01*
Y342160D01*
X405210Y342291D01*
X405159Y342550D01*
X405058Y342793D01*
X404911Y343012D01*
X404823Y343110D01*
X403711Y344222D01*
X403694Y344237D01*
X403655Y344263D01*
X403612Y344281D01*
X403567Y344290D01*
X403543Y344291D01*
X403239D01*
X402642Y344410D01*
X402080Y344643D01*
X401727Y344879D01*
X401359Y345196D01*
X401359D01*
X400984Y345571D01*
X400797Y345758D01*
X400503Y346198D01*
X400300Y346688D01*
X400197Y347207D01*
Y352461D01*
X401673D01*
Y348612D01*
D02*
G37*
G36*
X495799Y353030D02*
Y347835D01*
X496098D01*
X496347Y347462D01*
X496501Y347291D01*
X496501Y347291D01*
X496546Y347246D01*
X496833Y346986D01*
X497477Y346556D01*
X498193Y346259D01*
X498952Y346108D01*
X499339Y346089D01*
X507076D01*
X507379Y346029D01*
X507664Y345911D01*
X507921Y345739D01*
X508030Y345630D01*
X508281Y345379D01*
X508675Y344789D01*
X508947Y344134D01*
X509085Y343438D01*
Y336982D01*
X509036Y336735D01*
X508940Y336503D01*
X508800Y336293D01*
X508711Y336204D01*
X508622Y336115D01*
X508413Y335976D01*
X508180Y335879D01*
X507933Y335830D01*
X501203D01*
X501166Y335845D01*
X500629Y335952D01*
X500554D01*
X500178Y336108D01*
X499779Y336375D01*
X499609Y336545D01*
X499556Y336597D01*
X499473Y336721D01*
X499416Y336858D01*
X499388Y337004D01*
Y340431D01*
X499365Y340893D01*
X499185Y341797D01*
X498832Y342649D01*
X498319Y343416D01*
X498009Y343759D01*
X497760Y343984D01*
X497201Y344358D01*
X496581Y344615D01*
X495922Y344746D01*
X495586Y344762D01*
X495059D01*
X494845Y344805D01*
X494643Y344888D01*
X494461Y345010D01*
X494384Y345087D01*
Y345087D01*
X494334Y345137D01*
X494198Y345273D01*
X493983Y345595D01*
X493835Y345952D01*
X493760Y346331D01*
Y347835D01*
X493831D01*
Y352707D01*
X493838Y352744D01*
X494122Y353177D01*
X495787D01*
X495799Y353030D01*
D02*
G37*
G36*
X501063Y334367D02*
X501395Y334035D01*
X501575Y333601D01*
Y333366D01*
Y293406D01*
X501575Y293406D01*
X501575Y293218D01*
X501448Y292864D01*
X501210Y292573D01*
X500888Y292380D01*
X500703Y292344D01*
X500278Y291872D01*
X499575Y290814D01*
X499091Y289640D01*
X498847Y288394D01*
X498817Y287759D01*
X498817Y276594D01*
X476397D01*
Y288386D01*
X476321Y288770D01*
X476103Y289095D01*
X475778Y289313D01*
X475394Y289389D01*
X475090D01*
X474748Y289457D01*
X474518Y289469D01*
X474047Y289469D01*
X473782Y289469D01*
X473263Y289572D01*
X472773Y289774D01*
X472333Y290069D01*
X472029Y290373D01*
X471845Y290648D01*
X471718Y290954D01*
X471654Y291279D01*
Y307671D01*
X471740Y307911D01*
X472276Y308032D01*
X472401Y307949D01*
X472785Y307873D01*
X480450D01*
X480834Y307949D01*
X481160Y308167D01*
X481377Y308492D01*
X481454Y308876D01*
Y311461D01*
X481377Y311845D01*
X481160Y312171D01*
X480834Y312388D01*
X480450Y312465D01*
X472785D01*
X472644Y312437D01*
X471810Y312437D01*
X471654Y312872D01*
Y325590D01*
X471654Y325590D01*
X471698Y326072D01*
X471754Y326353D01*
X471951Y326828D01*
X472237Y327256D01*
X472407Y327426D01*
X472419Y327438D01*
X472760Y327780D01*
X472760Y327780D01*
X472760Y327780D01*
X473106Y328125D01*
X473918Y328668D01*
X474821Y329042D01*
X475779Y329232D01*
X476268Y329232D01*
X480577Y329232D01*
X480577Y329232D01*
X480577Y329232D01*
X480617Y329234D01*
X480695Y329250D01*
X480695Y329250D01*
X480768Y329280D01*
X480768Y329280D01*
X480834Y329324D01*
X480835Y329324D01*
X480864Y329351D01*
X481190Y329569D01*
X481407Y329894D01*
X481484Y330278D01*
Y332833D01*
X481484Y332957D01*
X481532Y333200D01*
X481627Y333428D01*
X481764Y333634D01*
X482227Y334097D01*
X482557Y334318D01*
X482924Y334470D01*
X483314Y334547D01*
X483512Y334547D01*
X500629Y334547D01*
X501063Y334367D01*
D02*
G37*
G36*
X541242Y333842D02*
X541191Y333887D01*
X541132Y333928D01*
X541065Y333963D01*
X540989Y333994D01*
X540904Y334020D01*
X540811Y334041D01*
X540709Y334057D01*
X540599Y334069D01*
X540354Y334079D01*
Y335260D01*
X540481Y335262D01*
X540709Y335281D01*
X540811Y335298D01*
X540904Y335319D01*
X540989Y335345D01*
X541065Y335376D01*
X541132Y335411D01*
X541191Y335451D01*
X541242Y335496D01*
Y333842D01*
D02*
G37*
G36*
X531497Y330679D02*
X531306Y330217D01*
X526311Y330217D01*
X525208Y330436D01*
X524168Y330867D01*
X523233Y331492D01*
X522601Y332124D01*
X522233Y332674D01*
X521980Y333286D01*
X521850Y333935D01*
X521850Y334266D01*
Y339644D01*
X522103Y339783D01*
X522350Y339825D01*
X531497Y330679D01*
D02*
G37*
G36*
X404143Y334613D02*
X404423Y334614D01*
X404941Y334399D01*
X405337Y334003D01*
X405478Y333663D01*
X405551Y333205D01*
Y333205D01*
X405551D01*
X405551Y333205D01*
Y319322D01*
X405540Y319299D01*
X405063Y318951D01*
X405051Y318951D01*
X404955Y318970D01*
X397308D01*
X396923Y318894D01*
X396598Y318676D01*
X396380Y318351D01*
X396304Y317967D01*
Y315173D01*
X396380Y314789D01*
X396410Y314744D01*
X395901Y314234D01*
X395571Y313438D01*
Y312576D01*
X395901Y311781D01*
X396510Y311171D01*
X397305Y310842D01*
X398167D01*
X398963Y311171D01*
X399201Y311409D01*
X399220Y311414D01*
X399249Y311419D01*
X399287Y311422D01*
X404667D01*
X405284Y310805D01*
Y297893D01*
X404983Y297646D01*
X397150D01*
X396766Y297569D01*
X396440Y297352D01*
X396223Y297026D01*
X396146Y296642D01*
Y293816D01*
X396223Y293432D01*
X396440Y293107D01*
X396766Y292889D01*
X397150Y292813D01*
X404983D01*
X405020Y292820D01*
X405518Y292434D01*
X405512Y291549D01*
X405512Y291218D01*
X405383Y290569D01*
X405129Y289958D01*
X404762Y289407D01*
X404744Y289389D01*
X404528D01*
X404144Y289313D01*
X403818Y289095D01*
X403601Y288770D01*
X403524Y288386D01*
Y276594D01*
X381299D01*
X381299Y289604D01*
X381273Y290131D01*
X381068Y291164D01*
X380664Y292138D01*
X380079Y293015D01*
X379724Y293406D01*
X379627Y293494D01*
X379408Y293640D01*
X379231Y293714D01*
X379164Y293741D01*
X379164Y293741D01*
X378906Y293793D01*
X378774Y293799D01*
X378774Y293799D01*
X378774Y293799D01*
X378774Y293799D01*
X378271D01*
X378076Y293838D01*
X377893Y293914D01*
X377728Y294024D01*
X377658Y294094D01*
X377564Y294188D01*
X377417Y294408D01*
X377315Y294653D01*
X377264Y294913D01*
X377264Y295045D01*
Y295970D01*
X377360Y296113D01*
X377505Y296846D01*
X377505Y296846D01*
Y312402D01*
X377360Y313134D01*
X377264Y313278D01*
Y313824D01*
X377568Y314028D01*
X377873Y314483D01*
X377980Y315021D01*
Y317782D01*
X377873Y318320D01*
X377568Y318776D01*
X377252Y318987D01*
X377112Y319080D01*
X376815Y319140D01*
Y334229D01*
X377037Y334473D01*
X377196Y334614D01*
X404143Y334613D01*
D02*
G37*
G36*
X401535Y317358D02*
X401602Y317303D01*
X401679Y317252D01*
X401762Y317208D01*
X401851Y317171D01*
X401947Y317140D01*
X402048Y317116D01*
X402156Y317099D01*
X402270Y317089D01*
X402390Y317086D01*
X402345Y316086D01*
X402225Y316082D01*
X402111Y316073D01*
X402002Y316057D01*
X401899Y316036D01*
X401802Y316007D01*
X401710Y315973D01*
X401624Y315932D01*
X401544Y315886D01*
X401535Y315879D01*
Y315586D01*
X401525Y315681D01*
X401495Y315766D01*
X401457Y315822D01*
X401400Y315773D01*
X401404Y315879D01*
X401375Y315906D01*
X401285Y315961D01*
X401175Y316006D01*
X401045Y316041D01*
X400895Y316066D01*
X400725Y316081D01*
X400603Y316084D01*
X400532Y316083D01*
X400212Y316060D01*
X400082Y316039D01*
X399972Y316014D01*
X399882Y315982D01*
X399812Y315944D01*
X399776Y315913D01*
X399782Y315773D01*
X399726Y315821D01*
X399722Y315797D01*
Y315825D01*
X399712Y315833D01*
X399638Y315886D01*
X399557Y315932D01*
X399471Y315973D01*
X399379Y316007D01*
X399282Y316036D01*
X399179Y316057D01*
X399070Y316073D01*
X398956Y316082D01*
X398836Y316086D01*
X398791Y317086D01*
X398911Y317089D01*
X399025Y317099D01*
X399133Y317116D01*
X399234Y317140D01*
X399330Y317171D01*
X399419Y317208D01*
X399502Y317252D01*
X399579Y317303D01*
X399650Y317361D01*
X399714Y317425D01*
X399722Y317235D01*
Y317348D01*
X399732Y317298D01*
X399762Y317254D01*
X399812Y317214D01*
X399882Y317180D01*
X399972Y317151D01*
X400082Y317128D01*
X400212Y317109D01*
X400362Y317096D01*
X400633Y317088D01*
X400725Y317091D01*
X400895Y317106D01*
X401045Y317131D01*
X401175Y317166D01*
X401285Y317211D01*
X401375Y317266D01*
X401445Y317331D01*
X401465Y317360D01*
X401467Y317425D01*
X401492Y317401D01*
X401495Y317406D01*
X401525Y317491D01*
X401535Y317586D01*
Y317358D01*
D02*
G37*
G36*
X398616Y313805D02*
X398676Y313766D01*
X398744Y313731D01*
X398820Y313701D01*
X398905Y313676D01*
X398998Y313655D01*
X399100Y313639D01*
X399210Y313627D01*
X399456Y313618D01*
X399479Y312437D01*
X399352Y312435D01*
X399124Y312415D01*
X399023Y312398D01*
X398930Y312376D01*
X398846Y312350D01*
X398770Y312318D01*
X398703Y312282D01*
X398644Y312241D01*
X398594Y312195D01*
X398565Y313848D01*
X398616Y313805D01*
D02*
G37*
G36*
X513878Y334547D02*
X518948Y334547D01*
X518948Y334547D01*
X518948Y334547D01*
X518948D01*
X519408Y334495D01*
X519536Y334470D01*
X519903Y334318D01*
X520234Y334097D01*
X520374Y333957D01*
X520546Y333784D01*
X520818Y333379D01*
X521004Y332928D01*
X521099Y332450D01*
Y332206D01*
X521099Y276594D01*
X500222D01*
X500222Y287726D01*
X500245Y288225D01*
X500416Y289093D01*
X500621Y289401D01*
X502235Y291014D01*
X502485Y291290D01*
X502548Y291385D01*
X502898Y291909D01*
X503183Y292596D01*
X503328Y293326D01*
X503346Y293698D01*
X503346Y305128D01*
X503346D01*
X503396Y305608D01*
X503437Y305814D01*
X503614Y306242D01*
X503872Y306627D01*
X504035Y306791D01*
X504254Y307033D01*
X504616Y307574D01*
X504829Y308088D01*
X505008Y308053D01*
X507919D01*
X508140Y307962D01*
X509001D01*
X509222Y308053D01*
X512072D01*
X512456Y308129D01*
X512782Y308347D01*
X512999Y308672D01*
X513076Y309056D01*
Y311461D01*
X512999Y311845D01*
X512782Y312171D01*
X512456Y312388D01*
X512072Y312465D01*
X505008D01*
X504909Y312914D01*
X504735Y313333D01*
X504483Y313710D01*
X504331Y313878D01*
X503973Y314236D01*
X503673Y314611D01*
X503590Y314735D01*
X503429Y315124D01*
X503346Y315537D01*
X503346Y315748D01*
Y326673D01*
X503346Y326673D01*
X503373Y327162D01*
X503401Y327357D01*
X503555Y327789D01*
X503725Y328074D01*
X504035Y328445D01*
X504404Y328761D01*
X504741Y328987D01*
X505292Y329215D01*
X505746Y329305D01*
X512012D01*
X512396Y329381D01*
X512443Y329413D01*
X512506Y329439D01*
X512655Y329538D01*
X512722Y329599D01*
X512788Y329672D01*
X512897Y329835D01*
X512925Y329904D01*
X512939Y329924D01*
X512944Y329948D01*
X512972Y330017D01*
X513011Y330210D01*
X513016Y330308D01*
X513016Y330308D01*
Y332773D01*
X513016Y332773D01*
X513016Y333833D01*
X513016Y333833D01*
X513196Y334259D01*
X513272Y334335D01*
X513428Y334439D01*
X513601Y334511D01*
X513784Y334547D01*
X513878Y334547D01*
D02*
G37*
G36*
X537559Y302389D02*
X535687Y300518D01*
X535339Y299997D01*
X535217Y299382D01*
X535217Y299382D01*
Y289567D01*
X527374D01*
Y276594D01*
X522443D01*
Y288298D01*
X522670Y288704D01*
X522842Y288961D01*
X522962Y289252D01*
X523024Y289561D01*
X523032Y289718D01*
X523032Y301575D01*
X523032Y301575D01*
Y301575D01*
X523407Y301874D01*
X523732Y302076D01*
X524272Y302278D01*
X524841Y302372D01*
X525129Y302362D01*
X534402Y302362D01*
X534872Y302362D01*
X534872Y302362D01*
X534872Y302362D01*
X535564Y302396D01*
X536921Y302666D01*
X537275Y302813D01*
X537559Y302389D01*
D02*
G37*
G36*
X401543Y296163D02*
Y294717D01*
X401599Y294661D01*
X401588Y294652D01*
X401579Y294646D01*
X401570Y294643D01*
X401563Y294643D01*
X401557Y294647D01*
X401552Y294654D01*
X401548Y294665D01*
X401545Y294679D01*
X401543Y294696D01*
X401543Y294717D01*
X400764Y295496D01*
X400912Y295643D01*
X401511Y296172D01*
X401535Y296177D01*
X401543Y296163D01*
D02*
G37*
G36*
X404680Y296388D02*
X404714Y296340D01*
X404771Y296298D01*
X404850Y296262D01*
X404953Y296231D01*
X405078Y296206D01*
X405226Y296187D01*
X405591Y296164D01*
X405807Y296161D01*
Y294980D01*
X405589Y294975D01*
X405394Y294958D01*
X405222Y294931D01*
X405072Y294893D01*
X404946Y294843D01*
X404842Y294783D01*
X404761Y294712D01*
X404703Y294629D01*
X404668Y294536D01*
X404656Y294432D01*
X404668Y296441D01*
X404680Y296388D01*
D02*
G37*
G36*
X425816Y334663D02*
X426063Y334663D01*
X426549Y334566D01*
X427006Y334377D01*
X427418Y334102D01*
X427593Y333927D01*
X427593Y333927D01*
X427720Y333800D01*
X427920Y333502D01*
X428057Y333170D01*
X428127Y332818D01*
Y332638D01*
X428127Y295129D01*
X428127Y294972D01*
X428065Y294662D01*
X427945Y294370D01*
X427809Y294167D01*
X427420Y293898D01*
X418840Y293898D01*
X418807Y293896D01*
X418742Y293883D01*
X418682Y293858D01*
X418627Y293821D01*
X418602Y293799D01*
X418565Y293758D01*
X418558Y293750D01*
X418558Y293750D01*
X418485Y293641D01*
X418485Y293641D01*
X418434Y293519D01*
X418434Y293519D01*
X418409Y293390D01*
X418405Y293324D01*
X418247Y293029D01*
X417815Y292825D01*
X417336Y292825D01*
X410158D01*
X409746Y292907D01*
X409357Y293069D01*
X409007Y293302D01*
X408741Y293568D01*
X408557Y293843D01*
X408430Y294149D01*
X408366Y294473D01*
Y295320D01*
X408744Y295885D01*
X408897Y296654D01*
Y311470D01*
X408744Y312238D01*
X408366Y312804D01*
Y333242D01*
X408381Y333558D01*
Y333620D01*
X408405Y333742D01*
X408453Y333856D01*
X408522Y333959D01*
X408565Y334003D01*
X408565Y334003D01*
X408801Y334239D01*
X409112Y334447D01*
X409458Y334590D01*
X409825Y334663D01*
X410012D01*
Y334663D01*
X425816Y334663D01*
D02*
G37*
G36*
X548985Y304980D02*
Y297516D01*
X547892Y296423D01*
X547544Y295901D01*
X547422Y295287D01*
X547422Y295287D01*
Y289567D01*
X544530D01*
Y301180D01*
X548523Y305172D01*
X548985Y304980D01*
D02*
G37*
G36*
X541319Y300955D02*
Y289567D01*
X538428D01*
Y298717D01*
X540857Y301146D01*
X541319Y300955D01*
D02*
G37*
G36*
X549624Y289527D02*
X549641Y289327D01*
X549671Y289149D01*
X549712Y288996D01*
X549765Y288866D01*
X549830Y288760D01*
X549907Y288677D01*
X549996Y288618D01*
X550096Y288582D01*
X550208Y288571D01*
X547846D01*
X547958Y288582D01*
X548059Y288618D01*
X548147Y288677D01*
X548224Y288760D01*
X548289Y288866D01*
X548342Y288996D01*
X548384Y289149D01*
X548413Y289327D01*
X548431Y289527D01*
X548437Y289752D01*
X549618D01*
X549624Y289527D01*
D02*
G37*
G36*
X543521D02*
X543539Y289327D01*
X543569Y289149D01*
X543610Y288996D01*
X543663Y288866D01*
X543728Y288760D01*
X543805Y288677D01*
X543893Y288618D01*
X543994Y288582D01*
X544106Y288571D01*
X541744D01*
X541856Y288582D01*
X541956Y288618D01*
X542045Y288677D01*
X542122Y288760D01*
X542187Y288866D01*
X542240Y288996D01*
X542281Y289149D01*
X542311Y289327D01*
X542328Y289527D01*
X542334Y289752D01*
X543515D01*
X543521Y289527D01*
D02*
G37*
G36*
X537419D02*
X537437Y289327D01*
X537466Y289149D01*
X537507Y288996D01*
X537561Y288866D01*
X537626Y288760D01*
X537702Y288677D01*
X537791Y288618D01*
X537891Y288582D01*
X538004Y288571D01*
X535641D01*
X535754Y288582D01*
X535854Y288618D01*
X535943Y288677D01*
X536019Y288760D01*
X536084Y288866D01*
X536137Y288996D01*
X536179Y289149D01*
X536208Y289327D01*
X536226Y289527D01*
X536232Y289752D01*
X537413D01*
X537419Y289527D01*
D02*
G37*
G36*
X459193Y292394D02*
X459669Y292197D01*
X460168Y291864D01*
X460532Y291535D01*
X460532Y291535D01*
Y291535D01*
X460856Y291178D01*
X461194Y290673D01*
X461472Y290000D01*
X461525Y289732D01*
X461248Y289316D01*
X461230Y289313D01*
X460905Y289095D01*
X460687Y288770D01*
X460611Y288386D01*
Y276594D01*
X451810D01*
Y289158D01*
X451987Y289423D01*
X452094Y289961D01*
Y292190D01*
X452162Y292236D01*
X452545Y292394D01*
X459193Y292394D01*
D02*
G37*
G36*
X427886Y292335D02*
X428045Y292163D01*
X428024Y292060D01*
Y289961D01*
X428131Y289423D01*
X428134Y289419D01*
Y276594D01*
X419311D01*
Y288386D01*
X419234Y288770D01*
X419017Y289095D01*
X418691Y289313D01*
X418349Y289381D01*
X418475Y290016D01*
X418804Y290811D01*
X419282Y291527D01*
X419587Y291831D01*
X419821Y292065D01*
X420371Y292432D01*
X420516Y292493D01*
X427420Y292493D01*
X427567Y292522D01*
X427640Y292523D01*
X427886Y292335D01*
D02*
G37*
G36*
X361122Y358858D02*
X364272D01*
Y359149D01*
X364335Y359219D01*
X364772Y359410D01*
X364920Y359311D01*
X365267Y359167D01*
X365635Y359094D01*
X365823Y359085D01*
X367951D01*
Y358801D01*
X371100D01*
Y358801D01*
X372464D01*
Y358801D01*
X372964Y358838D01*
X372972Y358835D01*
X373187Y358685D01*
X373197Y358636D01*
X373197Y358573D01*
X373197Y355773D01*
X373197Y355773D01*
Y355690D01*
X373165Y355528D01*
X373102Y355375D01*
X373010Y355238D01*
X372951Y355179D01*
X372933Y355161D01*
X372891Y355132D01*
X372845Y355110D01*
X372796Y355096D01*
X372771Y355094D01*
X372497Y354792D01*
X372045Y354115D01*
X371734Y353363D01*
X371695Y353166D01*
X371689Y353160D01*
X371687Y353155D01*
X371683Y353151D01*
X371436Y352753D01*
X371422Y352714D01*
X371396Y352682D01*
X371353Y352532D01*
X371299Y352387D01*
X371300Y352345D01*
X371289Y352306D01*
X371299Y352218D01*
X371294Y352196D01*
Y349070D01*
X371314Y348973D01*
Y348874D01*
X371388Y348499D01*
X371426Y348408D01*
X371445Y348311D01*
X371555Y348046D01*
Y347268D01*
X371555Y347268D01*
X371555Y347169D01*
X371516Y346974D01*
X371440Y346790D01*
X371330Y346625D01*
X371166Y346462D01*
X370946Y346314D01*
X370701Y346213D01*
X370442Y346161D01*
X369044D01*
X369044Y346161D01*
X368846Y346152D01*
X368459Y346075D01*
X368093Y345923D01*
X367765Y345704D01*
X367618Y345571D01*
X367463Y345400D01*
X367207Y345016D01*
X367030Y344590D01*
X366940Y344138D01*
X366929Y343908D01*
X366929Y337775D01*
X366954Y337320D01*
X367136Y336426D01*
X367488Y335585D01*
X367980Y334857D01*
X367999Y334830D01*
X368307Y334493D01*
X368307Y334493D01*
X371656Y334528D01*
X374866Y334528D01*
X374925Y334528D01*
X375043Y334505D01*
X375153Y334459D01*
X375253Y334393D01*
X375295Y334350D01*
X375365Y334280D01*
X375410Y334213D01*
Y319140D01*
X375027Y318786D01*
X366177D01*
X365793Y318710D01*
X365468Y318492D01*
X365250Y318166D01*
X365174Y317782D01*
Y315021D01*
X365250Y314637D01*
X365468Y314312D01*
X365782Y314082D01*
X365453Y313286D01*
Y312425D01*
X365782Y311629D01*
X366391Y311020D01*
X367187Y310690D01*
X368049D01*
X368845Y311020D01*
X369454Y311629D01*
X369514Y311774D01*
X374077D01*
Y298313D01*
X373863Y297854D01*
X365888D01*
X365504Y297778D01*
X365178Y297561D01*
X364961Y297235D01*
X364884Y296851D01*
Y293704D01*
X364961Y293319D01*
X365178Y292994D01*
X365504Y292776D01*
X365888Y292700D01*
X373863D01*
X374216Y292770D01*
X375795Y292758D01*
X375815Y292726D01*
X375816Y292726D01*
X375859Y292664D01*
X375860Y292663D01*
X375907Y292604D01*
X375908Y292602D01*
X375958Y292547D01*
X375984Y292520D01*
X375984Y292520D01*
X377641Y292520D01*
X377674Y292513D01*
X377802Y292460D01*
X377997Y292421D01*
X378135D01*
X378271Y292394D01*
X378735D01*
X378747Y292392D01*
X378968Y292148D01*
X379419Y291473D01*
X379717Y290755D01*
X379823Y290221D01*
Y276594D01*
X359271D01*
Y341292D01*
Y344704D01*
Y359744D01*
X361122Y359744D01*
Y358858D01*
D02*
G37*
%LPC*%
G36*
X381398Y367258D02*
X381393Y367243D01*
X381398Y367193D01*
Y367258D01*
D02*
G37*
G36*
Y367189D02*
X381387Y367138D01*
X381398Y367087D01*
Y367189D01*
D02*
G37*
%LPD*%
D10*
X370074Y295079D02*
X373824D01*
X369312Y295841D02*
X370074Y295079D01*
X373824D02*
X375590Y296846D01*
X367613Y295299D02*
X368155Y295841D01*
X369312D01*
X403535Y349953D02*
X414370D01*
X413272Y361796D02*
X414390Y362913D01*
X413272Y360637D02*
Y361796D01*
X489008Y373425D02*
X489008Y373425D01*
X402461Y372539D02*
X407283D01*
X410827D01*
X398566Y316586D02*
X403085D01*
X368885Y313287D02*
X374705D01*
X367618Y312856D02*
X367879Y313116D01*
X368714D02*
X368885Y313287D01*
X367879Y313116D02*
X368714D01*
X374705Y313287D02*
X375590Y312402D01*
Y296846D02*
Y312402D01*
X387697Y373425D02*
X390157D01*
X390650Y367914D02*
Y371140D01*
X389966Y373233D02*
X390157Y373425D01*
X389966Y371824D02*
Y373233D01*
Y371824D02*
X390650Y371140D01*
X480346Y373425D02*
X483693D01*
X483693Y373425D01*
X483858Y373260D01*
Y371750D02*
Y373260D01*
X484488Y368299D02*
X484579Y368209D01*
X484488Y368299D02*
Y371119D01*
X483858Y371750D02*
X484488Y371119D01*
X501311Y372342D02*
X504658D01*
X496095D02*
X501311D01*
X504658D02*
X504658Y372342D01*
X492543Y373713D02*
X494283D01*
X492256Y373425D02*
X492543Y373713D01*
X494906Y371153D02*
X496095Y372342D01*
X494906Y368299D02*
Y371153D01*
X476016Y358662D02*
X482807D01*
X487138Y354331D01*
X471894Y362291D02*
X472976D01*
X475138Y359540D02*
Y360130D01*
X470602Y363583D02*
X471894Y362291D01*
X475138Y359540D02*
X476016Y358662D01*
X472976Y362291D02*
X475138Y360130D01*
X398553Y316573D02*
X398566Y316586D01*
X403085D02*
X403097Y316598D01*
X374116Y349233D02*
X374377Y349494D01*
X376560D01*
X377362Y350295D01*
X507836Y356988D02*
X507906D01*
X506958Y355161D02*
Y356110D01*
X507836Y356988D01*
X488319Y364075D02*
X489606Y365362D01*
Y368118D02*
X489697Y368209D01*
X489606Y365362D02*
Y368118D01*
X483004Y364075D02*
X488319D01*
X482020Y365059D02*
X483004Y364075D01*
X482020Y365059D02*
Y368209D01*
X489008Y373425D02*
X492256D01*
Y368209D02*
Y373425D01*
X494815Y368209D02*
X494906Y368299D01*
X482020Y368209D02*
X482020Y368209D01*
X477295Y368209D02*
X482020D01*
X494717Y356988D02*
X502591D01*
X492256Y354528D02*
X494717Y356988D01*
X492256Y350787D02*
Y354528D01*
X487138Y350787D02*
Y354331D01*
X398327Y367914D02*
Y373425D01*
X400886Y367913D02*
Y370965D01*
X402461Y372539D01*
X388090Y367913D02*
X388090Y367914D01*
Y364370D02*
Y367914D01*
Y364370D02*
X388878Y363583D01*
X388000Y350197D02*
X388090Y350287D01*
Y350492D01*
X398327Y373425D02*
X398327Y373425D01*
X394980Y373425D02*
X398327D01*
X383391Y367840D02*
X383465Y367913D01*
X383317Y361953D02*
X383391Y362027D01*
Y367840D01*
X382825Y356545D02*
X382874Y356496D01*
X395677Y364575D02*
Y367823D01*
X395768Y367913D01*
X382874Y350197D02*
X388000D01*
X393209Y350492D02*
Y353839D01*
X382874Y356496D02*
X390551D01*
X393209Y353839D01*
X377018Y356938D02*
Y361953D01*
X383465Y367913D02*
X388090D01*
X388878Y363583D02*
X394685D01*
X395677Y364575D01*
X377411Y356545D02*
X382825D01*
X377362Y356594D02*
X377411Y356545D01*
X377018Y356938D02*
X377362Y356594D01*
X398327Y350492D02*
Y354331D01*
X403445Y350043D02*
X403535Y349953D01*
X403445Y350043D02*
Y350492D01*
X398327Y354331D02*
X400295Y356299D01*
X408268D01*
D13*
X460630Y366339D02*
X460728Y366240D01*
X464173D02*
X464272Y366142D01*
X460728Y366240D02*
X464173D01*
X549027Y282677D02*
Y295287D01*
X550591Y296850D01*
Y359646D01*
X526181Y384055D02*
X550591Y359646D01*
X514665Y381890D02*
X529921Y366634D01*
X504658Y372342D02*
X513779D01*
X527756Y342815D02*
Y365737D01*
X474378Y381890D02*
X514665D01*
X513768Y379724D02*
X527756Y365737D01*
X513779Y372342D02*
X523425Y362697D01*
Y341021D02*
Y362697D01*
X514173Y375098D02*
X525591Y363681D01*
X475405Y379724D02*
X513768D01*
X495669Y375098D02*
X514173D01*
X529921Y343898D02*
Y366634D01*
X525591Y341918D02*
Y363681D01*
X467685Y375197D02*
X474378Y381890D01*
X494283Y373713D02*
X495669Y375098D01*
X362697Y374016D02*
X372736Y384055D01*
X468219Y372539D02*
X475405Y379724D01*
X372736Y384055D02*
X526181D01*
X402067Y375197D02*
X467685D01*
X410827Y372539D02*
X468219D01*
X362697Y368602D02*
Y374016D01*
X542925Y282677D02*
Y301845D01*
X536823Y282677D02*
Y299382D01*
X545462Y308021D01*
X401673Y295571D02*
X405807D01*
X397736Y313007D02*
X397757Y313028D01*
X401181Y295079D02*
X401673Y295571D01*
X405807D02*
X406890Y296654D01*
Y311470D01*
X405333Y313028D02*
X406890Y311470D01*
X397757Y313028D02*
X405333D01*
X523425Y341021D02*
X535056Y329390D01*
X540987D02*
X545462Y324915D01*
X535056Y329390D02*
X540987D01*
X525591Y341918D02*
X535872Y331636D01*
X541929D02*
X547900Y325665D01*
X535872Y331636D02*
X541929D01*
X547900Y306820D02*
Y325665D01*
X545462Y308021D02*
Y324915D01*
X542925Y301845D02*
X547900Y306820D01*
X535902Y334669D02*
X542085D01*
X527756Y342815D02*
X535902Y334669D01*
X529921Y343898D02*
X534760Y339059D01*
X539197D01*
X400492Y373622D02*
X402067Y375197D01*
X398524Y373622D02*
X400492D01*
X398327Y373425D02*
X398524Y373622D01*
D44*
X507906Y356693D02*
D03*
Y350984D02*
D03*
X377362Y356299D02*
D03*
Y350591D02*
D03*
X362697Y368307D02*
D03*
Y362598D02*
D03*
X460630Y360335D02*
D03*
Y366043D02*
D03*
D45*
X477039Y339862D02*
D03*
X484913D02*
D03*
X399508Y339862D02*
D03*
X407382D02*
D03*
X471777Y339862D02*
D03*
X463903D02*
D03*
X420571Y339862D02*
D03*
X412697D02*
D03*
X507008Y339862D02*
D03*
X514882D02*
D03*
X370472D02*
D03*
X378346D02*
D03*
X501664D02*
D03*
X493790D02*
D03*
X391535D02*
D03*
X383661D02*
D03*
D46*
X414390Y350000D02*
D03*
Y362913D02*
D03*
X470602Y350669D02*
D03*
Y363583D02*
D03*
D47*
X502591Y350689D02*
D03*
Y356988D02*
D03*
X514707Y350725D02*
D03*
Y357024D02*
D03*
X408268Y350000D02*
D03*
Y356299D02*
D03*
X382874Y356496D02*
D03*
Y350197D02*
D03*
X476606Y352362D02*
D03*
Y358662D02*
D03*
D48*
X483693Y376969D02*
D03*
Y373425D02*
D03*
X480346Y376969D02*
D03*
Y373425D02*
D03*
X489599Y376969D02*
D03*
Y373425D02*
D03*
X492846Y376969D02*
D03*
Y373425D02*
D03*
X504658Y368799D02*
D03*
Y372342D02*
D03*
X501311Y368799D02*
D03*
Y372342D02*
D03*
X476803Y371752D02*
D03*
Y368209D02*
D03*
X395472Y376969D02*
D03*
Y373425D02*
D03*
X398819Y376969D02*
D03*
Y373425D02*
D03*
X389764Y376969D02*
D03*
Y373425D02*
D03*
X386319Y376969D02*
D03*
Y373425D02*
D03*
X407283Y368996D02*
D03*
Y372539D02*
D03*
X410827Y368996D02*
D03*
Y372539D02*
D03*
X382874Y367913D02*
D03*
Y371457D02*
D03*
X398405Y295239D02*
D03*
Y298782D02*
D03*
X398553Y316573D02*
D03*
Y320116D02*
D03*
X367833Y316274D02*
D03*
X367833Y319817D02*
D03*
X367613Y295299D02*
D03*
Y298842D02*
D03*
X510569Y331544D02*
D03*
Y328000D02*
D03*
X510599Y310202D02*
D03*
Y306658D02*
D03*
X478751Y331476D02*
D03*
Y327933D02*
D03*
X478731Y310254D02*
D03*
Y306711D02*
D03*
D49*
X497374Y350787D02*
D03*
X494815Y350787D02*
D03*
X492256Y350787D02*
D03*
X487138Y350787D02*
D03*
X484579Y350787D02*
D03*
X482020Y350787D02*
D03*
Y368209D02*
D03*
X484579D02*
D03*
X487138D02*
D03*
X489697D02*
D03*
X492256D02*
D03*
X494815D02*
D03*
X497374D02*
D03*
X403445Y350492D02*
D03*
X400886D02*
D03*
X398327D02*
D03*
X393209D02*
D03*
X390650D02*
D03*
X388090D02*
D03*
Y367914D02*
D03*
X390650D02*
D03*
X393209D02*
D03*
X395768Y367913D02*
D03*
X398327Y367914D02*
D03*
X400886Y367913D02*
D03*
X403445Y367914D02*
D03*
D50*
X524618Y282677D02*
D03*
X530720D02*
D03*
X536823D02*
D03*
X542925D02*
D03*
X549027D02*
D03*
D51*
X377018Y361953D02*
D03*
X383317D02*
D03*
D52*
X460630Y358661D02*
D03*
Y357185D02*
D03*
X362697Y360433D02*
D03*
Y358957D02*
D03*
X501083Y361614D02*
D03*
Y360138D02*
D03*
X369526Y360376D02*
D03*
Y358899D02*
D03*
X370889Y360376D02*
D03*
Y358899D02*
D03*
X502559Y360138D02*
D03*
Y361614D02*
D03*
D53*
X444685Y297835D02*
D03*
X432874D02*
D03*
X444685Y308071D02*
D03*
X432874D02*
D03*
X444685Y318307D02*
D03*
X432874D02*
D03*
X444685Y328543D02*
D03*
X432874D02*
D03*
D54*
X394202Y331672D02*
D03*
X394202Y326672D02*
D03*
X394202Y321672D02*
D03*
X394182Y316672D02*
D03*
X425358Y310345D02*
D03*
X425358Y305345D02*
D03*
Y300345D02*
D03*
X425338Y295345D02*
D03*
X425350Y331672D02*
D03*
X425350Y326672D02*
D03*
Y321672D02*
D03*
X425330Y316672D02*
D03*
X394199Y310345D02*
D03*
X394199Y305345D02*
D03*
X394199Y300345D02*
D03*
X394180Y295345D02*
D03*
X483902Y316525D02*
D03*
Y321525D02*
D03*
Y326525D02*
D03*
X483921Y331525D02*
D03*
X483965Y295198D02*
D03*
X483965Y300199D02*
D03*
X483965Y305199D02*
D03*
X483985Y310198D02*
D03*
X452083Y316525D02*
D03*
X452083Y321525D02*
D03*
X452083Y326525D02*
D03*
X452103Y331525D02*
D03*
X452117Y295198D02*
D03*
X452117Y300198D02*
D03*
X452117Y305198D02*
D03*
X452137Y310198D02*
D03*
D55*
X385785Y324197D02*
D03*
X416941Y302870D02*
D03*
X416933Y324197D02*
D03*
X385783Y302870D02*
D03*
X492319Y324000D02*
D03*
X492382Y302673D02*
D03*
X460500Y324000D02*
D03*
X460534Y302673D02*
D03*
D56*
X371950Y316598D02*
D03*
Y321598D02*
D03*
X371950Y326598D02*
D03*
X371950Y331598D02*
D03*
X403105Y295272D02*
D03*
Y300272D02*
D03*
Y305272D02*
D03*
Y310272D02*
D03*
X403097Y316598D02*
D03*
Y321598D02*
D03*
Y326598D02*
D03*
Y331598D02*
D03*
X371947Y295272D02*
D03*
Y300272D02*
D03*
Y305272D02*
D03*
X371947Y310272D02*
D03*
X506154Y331598D02*
D03*
X506154Y326598D02*
D03*
X506154Y321598D02*
D03*
Y316598D02*
D03*
X506217Y310272D02*
D03*
X506217Y305272D02*
D03*
X506217Y300272D02*
D03*
Y295272D02*
D03*
X474335Y331598D02*
D03*
X474335Y326598D02*
D03*
X474335Y321598D02*
D03*
Y316598D02*
D03*
X474369Y310271D02*
D03*
X474369Y305271D02*
D03*
X474369Y300271D02*
D03*
Y295271D02*
D03*
D57*
X480346Y376969D02*
X483693D01*
X477689D02*
X480346D01*
X476071Y375350D02*
X477689Y376969D01*
X475961Y375350D02*
X476071D01*
X455315Y362205D02*
X455610Y361909D01*
Y361516D02*
Y361909D01*
Y361516D02*
X457087Y360039D01*
X460630D01*
X403445Y363491D02*
Y367914D01*
Y363491D02*
X403451Y363485D01*
X409750Y368874D02*
X410827D01*
X410888Y368935D01*
X410705Y368874D02*
X410827Y368996D01*
X403543Y369018D02*
X409628D01*
X403445Y368920D02*
X403543Y369018D01*
X403445Y367914D02*
Y368920D01*
X383241Y375591D02*
X384424Y376775D01*
X386125D01*
X386319Y376969D01*
X392015D01*
X382868Y375591D02*
X383241D01*
X382871Y371460D02*
Y375588D01*
Y371460D02*
X382874Y371457D01*
X382868Y375591D02*
X382871Y375588D01*
X392015Y376969D02*
X392592Y376392D01*
X392015Y376969D02*
X392015Y376969D01*
X398819D01*
X389764D02*
X392015D01*
X398819D02*
X398819Y376969D01*
X392592Y372014D02*
X393209Y371397D01*
X392592Y372014D02*
Y376392D01*
X393209Y367914D02*
Y371397D01*
X504694Y368762D02*
X507336D01*
X507373Y368725D01*
X504658Y368799D02*
X504694Y368762D01*
X504658Y368799D02*
X504658Y368799D01*
X501311Y368799D02*
X504658D01*
X497374Y368701D02*
X497472Y368799D01*
X501311D01*
X497374Y368209D02*
Y368701D01*
X485963Y376969D02*
X492846D01*
X483693D02*
X485963D01*
X492846D02*
X492846Y376969D01*
X476224Y372047D02*
Y375087D01*
X475961Y375350D02*
X476224Y375087D01*
X476520Y371752D02*
X476803D01*
X476224Y372047D02*
X476520Y371752D01*
X485963Y376969D02*
X486660Y376271D01*
Y371606D02*
Y376271D01*
Y371606D02*
X487138Y371129D01*
Y368209D02*
Y371129D01*
D58*
X369875Y295277D02*
D03*
D59*
X371376Y316402D02*
D03*
D60*
X401131Y316569D02*
D03*
D61*
X401067Y295229D02*
D03*
D62*
X476617Y310169D02*
D03*
D63*
X476648Y331556D02*
D03*
D64*
X508300Y331541D02*
D03*
D65*
X508540Y310259D02*
D03*
D66*
X439972Y282677D02*
D03*
X392728D02*
D03*
X369106D02*
D03*
X487216D02*
D03*
X510838D02*
D03*
D67*
X424224D02*
D03*
X455720D02*
D03*
D68*
X413272Y360637D02*
D03*
X527953Y331988D02*
D03*
X426772Y363779D02*
D03*
X362992Y381004D02*
D03*
X539764Y354134D02*
D03*
X544193Y377461D02*
D03*
X546850Y299311D02*
D03*
X540059Y295177D02*
D03*
X464272Y366142D02*
D03*
X455315Y362205D02*
D03*
X372045Y339591D02*
D03*
X367618Y312856D02*
D03*
X375197Y316535D02*
D03*
X364534Y331004D02*
D03*
X361647Y328215D02*
D03*
X367421Y331004D02*
D03*
X364534Y325427D02*
D03*
X361647Y322638D02*
D03*
X364534D02*
D03*
X367421Y328215D02*
D03*
X361647Y325427D02*
D03*
X367421D02*
D03*
X361647Y331004D02*
D03*
X367421Y322638D02*
D03*
X364534Y328215D02*
D03*
X364586Y308665D02*
D03*
X367473D02*
D03*
X397736Y313007D02*
D03*
X530721Y285466D02*
D03*
X530721Y279889D02*
D03*
X530721Y282677D02*
D03*
X524618Y279889D02*
D03*
X524618Y285466D02*
D03*
Y282677D02*
D03*
X368480Y357236D02*
D03*
X371688Y357218D02*
D03*
X371660Y361848D02*
D03*
X368483Y361820D02*
D03*
X515040Y364661D02*
D03*
X512561Y364671D02*
D03*
X403451Y363485D02*
D03*
X470697Y368886D02*
D03*
X473176Y368876D02*
D03*
X376200Y367224D02*
D03*
X378522Y367167D02*
D03*
X542085Y334669D02*
D03*
X539197Y339059D02*
D03*
X382868Y375591D02*
D03*
X507373Y368725D02*
D03*
X475961Y375350D02*
D03*
X437953Y307550D02*
D03*
X435039D02*
D03*
Y313212D02*
D03*
Y310381D02*
D03*
X437953D02*
D03*
Y313212D02*
D03*
Y316043D02*
D03*
X435039D02*
D03*
X385433Y347933D02*
D03*
X382579D02*
D03*
X476083Y349410D02*
D03*
X478937D02*
D03*
X491142Y345571D02*
D03*
X491043Y347835D02*
D03*
X438017Y329027D02*
D03*
X435130D02*
D03*
Y337499D02*
D03*
Y334675D02*
D03*
Y331851D02*
D03*
X438017D02*
D03*
Y334675D02*
D03*
Y337499D02*
D03*
X361699Y305877D02*
D03*
Y308665D02*
D03*
Y303088D02*
D03*
Y300299D02*
D03*
X364586Y305877D02*
D03*
Y303088D02*
D03*
Y300299D02*
D03*
X367473D02*
D03*
Y303088D02*
D03*
Y305877D02*
D03*
X510868Y317053D02*
D03*
Y319842D02*
D03*
Y322630D02*
D03*
Y325419D02*
D03*
X513755D02*
D03*
Y322630D02*
D03*
Y319842D02*
D03*
X513755Y317053D02*
D03*
X516642Y325419D02*
D03*
Y322630D02*
D03*
Y317053D02*
D03*
Y319842D02*
D03*
X516741Y298779D02*
D03*
X516741Y295990D02*
D03*
Y301567D02*
D03*
Y304356D02*
D03*
X513854Y295990D02*
D03*
Y298779D02*
D03*
Y301567D02*
D03*
Y304356D02*
D03*
X510966D02*
D03*
Y301567D02*
D03*
Y298779D02*
D03*
Y295990D02*
D03*
X490793Y305177D02*
D03*
X496567D02*
D03*
Y299600D02*
D03*
Y302389D02*
D03*
X487906Y305177D02*
D03*
X490793Y299600D02*
D03*
X493680Y305177D02*
D03*
Y302389D02*
D03*
X490793D02*
D03*
X487906Y299600D02*
D03*
Y302389D02*
D03*
X493680Y299600D02*
D03*
X450219Y305177D02*
D03*
X459602Y302487D02*
D03*
X456715Y299698D02*
D03*
X453528Y305149D02*
D03*
X450219Y299600D02*
D03*
Y302389D02*
D03*
X453528Y299572D02*
D03*
X459602Y305276D02*
D03*
Y299698D02*
D03*
X456715Y305276D02*
D03*
Y302487D02*
D03*
X453528Y302361D02*
D03*
X415418Y305177D02*
D03*
X418306D02*
D03*
Y299600D02*
D03*
X415418Y302389D02*
D03*
X424080Y305177D02*
D03*
X418306Y302389D02*
D03*
X424080Y299600D02*
D03*
X421193Y305177D02*
D03*
X424080Y302389D02*
D03*
X421193D02*
D03*
Y299600D02*
D03*
X415418D02*
D03*
X391294Y302389D02*
D03*
X385520Y305177D02*
D03*
Y302389D02*
D03*
X388407D02*
D03*
X391294Y299600D02*
D03*
X382633Y305177D02*
D03*
X385520Y299600D02*
D03*
X391294Y305177D02*
D03*
X388407Y299600D02*
D03*
X382633D02*
D03*
Y302389D02*
D03*
X388407Y305177D02*
D03*
X421095Y321232D02*
D03*
X423982D02*
D03*
X421095Y324021D02*
D03*
X415321Y321232D02*
D03*
X418208D02*
D03*
X421095Y326810D02*
D03*
X418208Y324021D02*
D03*
X415321Y326810D02*
D03*
X423982Y324021D02*
D03*
Y326810D02*
D03*
X418208D02*
D03*
X415321Y324021D02*
D03*
X387944D02*
D03*
Y321232D02*
D03*
Y326810D02*
D03*
X382170D02*
D03*
X385057Y321232D02*
D03*
Y326810D02*
D03*
X390831D02*
D03*
X385057Y324021D02*
D03*
X382170D02*
D03*
Y321232D02*
D03*
X390831D02*
D03*
Y324021D02*
D03*
X453561Y323993D02*
D03*
X450252Y324021D02*
D03*
X453561Y326782D02*
D03*
X459635Y326908D02*
D03*
Y321331D02*
D03*
X450252Y321232D02*
D03*
Y326810D02*
D03*
X456748Y326908D02*
D03*
Y324119D02*
D03*
X453561Y321204D02*
D03*
X459635Y324119D02*
D03*
X456748Y321331D02*
D03*
X493695Y321232D02*
D03*
X490808Y324021D02*
D03*
X487921D02*
D03*
X490808Y321232D02*
D03*
X496582Y324021D02*
D03*
X493695Y326810D02*
D03*
X487921D02*
D03*
X493695Y324021D02*
D03*
X496582Y326810D02*
D03*
X490808D02*
D03*
X487921Y321232D02*
D03*
X496582D02*
D03*
X374174Y351555D02*
D03*
X374116Y349233D02*
D03*
X415666Y360657D02*
D03*
X506958Y355161D02*
D03*
X508991Y355185D02*
D03*
X471708Y352793D02*
D03*
X469341Y352865D02*
D03*
X508425Y331477D02*
D03*
X476262Y331511D02*
D03*
X476399Y310235D02*
D03*
X508570Y310127D02*
D03*
X513402Y339738D02*
D03*
X495438Y339614D02*
D03*
X483296Y339572D02*
D03*
X465414Y339655D02*
D03*
X390045Y339742D02*
D03*
X397539Y346063D02*
D03*
X395079Y345965D02*
D03*
X400591Y316634D02*
D03*
X401116Y339862D02*
D03*
X422303D02*
D03*
D69*
X394795Y278740D02*
D03*
X390661Y286516D02*
D03*
X398929Y278740D02*
D03*
X390661D02*
D03*
X394795Y286516D02*
D03*
X398929D02*
D03*
Y282628D02*
D03*
X386527Y278740D02*
D03*
Y282628D02*
D03*
Y286516D02*
D03*
X371173Y278740D02*
D03*
X367039Y286516D02*
D03*
X375307Y278740D02*
D03*
X367039D02*
D03*
X371173Y286516D02*
D03*
X375307D02*
D03*
Y282628D02*
D03*
X362906Y278740D02*
D03*
Y282628D02*
D03*
Y286516D02*
D03*
X442039Y278740D02*
D03*
X437905Y286516D02*
D03*
X446173Y278740D02*
D03*
X437905D02*
D03*
X442039Y286516D02*
D03*
X446173D02*
D03*
Y282628D02*
D03*
X433771Y278740D02*
D03*
Y282628D02*
D03*
Y286516D02*
D03*
X489283Y278740D02*
D03*
X485149Y286516D02*
D03*
X493417Y278740D02*
D03*
X485149D02*
D03*
X489283Y286516D02*
D03*
X493417D02*
D03*
Y282628D02*
D03*
X481015Y278740D02*
D03*
Y282628D02*
D03*
Y286516D02*
D03*
X512905Y278740D02*
D03*
X508771Y286516D02*
D03*
X517039Y278740D02*
D03*
X508771D02*
D03*
X512905Y286516D02*
D03*
X517039D02*
D03*
Y282628D02*
D03*
X504637Y278740D02*
D03*
Y282628D02*
D03*
Y286516D02*
D03*
X455721Y278740D02*
D03*
Y286614D02*
D03*
X424224Y278740D02*
D03*
Y286614D02*
D03*
M02*
