G04*
G04 #@! TF.GenerationSoftware,Altium Limited,Altium Designer,22.5.1 (42)*
G04*
G04 Layer_Color=8388736*
%FSLAX25Y25*%
%MOIN*%
G70*
G04*
G04 #@! TF.SameCoordinates,FB260EB1-7277-4AC5-AAB9-1C9609E669AC*
G04*
G04*
G04 #@! TF.FilePolarity,Negative*
G04*
G01*
G75*
%ADD11R,0.14075X0.05709*%
%ADD12R,0.14075X0.06102*%
%ADD13R,0.08674X0.16942*%
%ADD14C,0.04737*%
D11*
X478691Y307283D02*
D03*
X478789Y317323D02*
D03*
X478691Y327264D02*
D03*
D12*
X478789Y337205D02*
D03*
D13*
X466082Y305552D02*
D03*
X466082Y339804D02*
D03*
X424508Y305512D02*
D03*
X424508Y339764D02*
D03*
D14*
X473526Y300787D02*
D03*
Y306037D02*
D03*
Y311286D02*
D03*
Y316535D02*
D03*
X481049Y316535D02*
D03*
Y311286D02*
D03*
Y306037D02*
D03*
Y300787D02*
D03*
X442009Y300787D02*
D03*
Y306037D02*
D03*
Y311286D02*
D03*
Y316535D02*
D03*
X449532Y316535D02*
D03*
Y311286D02*
D03*
Y306037D02*
D03*
Y300787D02*
D03*
X416775D02*
D03*
Y306037D02*
D03*
Y311286D02*
D03*
Y316535D02*
D03*
X409252Y316535D02*
D03*
Y311286D02*
D03*
Y306037D02*
D03*
Y300787D02*
D03*
X481112Y328346D02*
D03*
Y333596D02*
D03*
Y338845D02*
D03*
Y344094D02*
D03*
X473589Y344094D02*
D03*
Y338845D02*
D03*
Y333596D02*
D03*
Y328346D02*
D03*
X449221Y328346D02*
D03*
Y333596D02*
D03*
Y338845D02*
D03*
Y344094D02*
D03*
X441698Y344094D02*
D03*
Y338845D02*
D03*
Y333596D02*
D03*
Y328346D02*
D03*
X416677Y344094D02*
D03*
Y338845D02*
D03*
Y333596D02*
D03*
Y328346D02*
D03*
X409154Y328346D02*
D03*
Y333596D02*
D03*
Y338845D02*
D03*
Y344094D02*
D03*
M02*
