G04*
G04 #@! TF.GenerationSoftware,Altium Limited,Altium Designer,22.5.1 (42)*
G04*
G04 Layer_Physical_Order=2*
G04 Layer_Color=16711680*
%FSLAX25Y25*%
%MOIN*%
G70*
G04*
G04 #@! TF.SameCoordinates,FB260EB1-7277-4AC5-AAB9-1C9609E669AC*
G04*
G04*
G04 #@! TF.FilePolarity,Positive*
G04*
G01*
G75*
%ADD16C,0.03937*%
%ADD17R,0.11811X0.05512*%
G36*
X485410Y323130D02*
X403960D01*
Y347615D01*
X485410D01*
Y323130D01*
D02*
G37*
G36*
Y297661D02*
X403960D01*
Y299606D01*
Y321654D01*
X485410D01*
Y297661D01*
D02*
G37*
D16*
X473526Y300787D02*
D03*
Y306037D02*
D03*
Y311286D02*
D03*
Y316535D02*
D03*
X481049Y316535D02*
D03*
Y311286D02*
D03*
Y306037D02*
D03*
Y300787D02*
D03*
X442009Y300787D02*
D03*
Y306037D02*
D03*
Y311286D02*
D03*
Y316535D02*
D03*
X449532Y316535D02*
D03*
Y311286D02*
D03*
Y306037D02*
D03*
Y300787D02*
D03*
X416775D02*
D03*
Y306037D02*
D03*
Y311286D02*
D03*
Y316535D02*
D03*
X409252Y316535D02*
D03*
Y311286D02*
D03*
Y306037D02*
D03*
Y300787D02*
D03*
X481112Y328346D02*
D03*
Y333596D02*
D03*
Y338845D02*
D03*
Y344094D02*
D03*
X473589Y344094D02*
D03*
Y338845D02*
D03*
Y333596D02*
D03*
Y328346D02*
D03*
X449221Y328346D02*
D03*
Y333596D02*
D03*
Y338845D02*
D03*
Y344094D02*
D03*
X441698Y344094D02*
D03*
Y338845D02*
D03*
Y333596D02*
D03*
Y328346D02*
D03*
X416677Y344094D02*
D03*
Y338845D02*
D03*
Y333596D02*
D03*
Y328346D02*
D03*
X409154Y328346D02*
D03*
Y333596D02*
D03*
Y338845D02*
D03*
Y344094D02*
D03*
D17*
X479823Y307362D02*
D03*
Y317362D02*
D03*
Y327362D02*
D03*
Y337362D02*
D03*
M02*
