M48
;Layer_Color=9474304
;FILE_FORMAT=2:4
INCH,TZ
;TYPE=PLATED
T1F00S00C0.0118
T2F00S00C0.0394
%
T01
X31565Y20659
X31500Y21000
X32274Y20837
X33258Y20659
Y21713
X33630Y22055
X34046Y22363
X34449Y22697
X34770Y23136
X35122Y23488
X35472Y23898
X35856Y24252
X37000Y24000
X37500Y25000
X36220Y25315
X36181Y27136
X36447
X37402Y27018
X38376Y26201
X38386Y25935
X39500Y25000
X39301Y23543
X38996Y23533
X39047Y22801
X39000Y22000
X38228Y21791
X38533Y20591
X37785Y20551
X39852Y20571
X39500Y21000
X40630Y20138
Y19852
X41417Y19843
Y20128
X42205Y20148
X42195Y19862
X42205Y20591
X41988Y21742
Y22057
Y22579
X41998Y22864
X41112Y22933
Y22643
Y22352
Y22062
Y21772
X40807Y21781
Y22072
Y22362
Y22653
Y22943
X42598Y22136
X42884
Y21801
X42598Y21811
X43868Y23533
X44163
X44459
X44000Y24000
X44500Y25000
X43500
X42500
X41500
X41555Y26240
X41000Y28000
X43000
X44000
X44500Y27000
X43500
X35266Y27165
X35098Y26988
X34468Y26261
X34163Y26565
X33376Y27116
X33091Y27392
X32185Y27274
X31693Y27648
X31654Y26142
X31467Y25846
X31545Y24961
X31890Y25079
X32530Y25157
X32618Y24656
X33110Y24803
X33346Y25010
X32884Y25787
X32520Y26132
X32423Y24145
X31969Y23888
X34833Y25876
X35640Y20640
X30856Y20768
X30052Y20696
X29186Y20686
X28445Y20600
X28500Y21000
X28435Y21427
Y22264
X28022Y22234
Y22608
X28839Y22424
X30010Y22402
X29665Y24449
X29764Y24990
X30738Y25079
X29183Y25630
X29537Y26270
X29675Y27234
X30010Y27372
X30126Y27045
X29823Y27657
X29478Y27913
X29026Y27894
X28000Y28000
X28150Y28514
X29961Y28524
X30197Y27913
X30719Y27894
X28533Y26890
X28317Y26663
X28500Y25000
X27500
X28000Y24000
X29000
X27000
Y26000
X26296Y27516
X26457Y22224
X27254Y22234
X27661Y20667
X26775Y20657
X26181Y20610
T02
X38996Y25463
X39996
X40996
X41996
X42996
X43996
M30
