G04*
G04 #@! TF.GenerationSoftware,Altium Limited,Altium Designer,22.5.1 (42)*
G04*
G04 Layer_Color=8388736*
%FSLAX25Y25*%
%MOIN*%
G70*
G04*
G04 #@! TF.SameCoordinates,7192FBDB-E104-44C5-AB31-B02996B251F2*
G04*
G04*
G04 #@! TF.FilePolarity,Negative*
G04*
G01*
G75*
G04:AMPARAMS|DCode=14|XSize=31.62mil|YSize=23.75mil|CornerRadius=0mil|HoleSize=0mil|Usage=FLASHONLY|Rotation=45.000|XOffset=0mil|YOffset=0mil|HoleType=Round|Shape=Rectangle|*
%AMROTATEDRECTD14*
4,1,4,-0.00278,-0.01958,-0.01958,-0.00278,0.00278,0.01958,0.01958,0.00278,-0.00278,-0.01958,0.0*
%
%ADD14ROTATEDRECTD14*%

%ADD15R,0.06706X0.09461*%
%ADD16R,0.02375X0.03162*%
%ADD17R,0.05524X0.05524*%
G04:AMPARAMS|DCode=18|XSize=31.62mil|YSize=23.75mil|CornerRadius=0mil|HoleSize=0mil|Usage=FLASHONLY|Rotation=315.000|XOffset=0mil|YOffset=0mil|HoleType=Round|Shape=Rectangle|*
%AMROTATEDRECTD18*
4,1,4,-0.01958,0.00278,-0.00278,0.01958,0.01958,-0.00278,0.00278,-0.01958,-0.01958,0.00278,0.0*
%
%ADD18ROTATEDRECTD18*%

G04:AMPARAMS|DCode=19|XSize=47.37mil|YSize=35.56mil|CornerRadius=0mil|HoleSize=0mil|Usage=FLASHONLY|Rotation=45.000|XOffset=0mil|YOffset=0mil|HoleType=Round|Shape=Rectangle|*
%AMROTATEDRECTD19*
4,1,4,-0.00418,-0.02932,-0.02932,-0.00418,0.00418,0.02932,0.02932,0.00418,-0.00418,-0.02932,0.0*
%
%ADD19ROTATEDRECTD19*%

G04:AMPARAMS|DCode=20|XSize=39.5mil|YSize=43.43mil|CornerRadius=6.84mil|HoleSize=0mil|Usage=FLASHONLY|Rotation=45.000|XOffset=0mil|YOffset=0mil|HoleType=Round|Shape=RoundedRectangle|*
%AMROUNDEDRECTD20*
21,1,0.03950,0.02976,0,0,45.0*
21,1,0.02583,0.04343,0,0,45.0*
1,1,0.01367,0.01965,-0.00139*
1,1,0.01367,0.00139,-0.01965*
1,1,0.01367,-0.01965,0.00139*
1,1,0.01367,-0.00139,0.01965*
%
%ADD20ROUNDEDRECTD20*%
%ADD21R,0.03162X0.02375*%
%ADD22R,0.05524X0.10642*%
G04:AMPARAMS|DCode=23|XSize=74.8mil|YSize=94.49mil|CornerRadius=2.99mil|HoleSize=0mil|Usage=FLASHONLY|Rotation=270.000|XOffset=0mil|YOffset=0mil|HoleType=Round|Shape=RoundedRectangle|*
%AMROUNDEDRECTD23*
21,1,0.07480,0.08850,0,0,270.0*
21,1,0.06882,0.09449,0,0,270.0*
1,1,0.00598,-0.04425,-0.03441*
1,1,0.00598,-0.04425,0.03441*
1,1,0.00598,0.04425,0.03441*
1,1,0.00598,0.04425,-0.03441*
%
%ADD23ROUNDEDRECTD23*%
%ADD24R,0.07887X0.23241*%
G04:AMPARAMS|DCode=25|XSize=70.99mil|YSize=19.81mil|CornerRadius=0mil|HoleSize=0mil|Usage=FLASHONLY|Rotation=135.000|XOffset=0mil|YOffset=0mil|HoleType=Round|Shape=Rectangle|*
%AMROTATEDRECTD25*
4,1,4,0.03210,-0.01810,0.01810,-0.03210,-0.03210,0.01810,-0.01810,0.03210,0.03210,-0.01810,0.0*
%
%ADD25ROTATEDRECTD25*%

G04:AMPARAMS|DCode=26|XSize=70.99mil|YSize=19.81mil|CornerRadius=0mil|HoleSize=0mil|Usage=FLASHONLY|Rotation=225.000|XOffset=0mil|YOffset=0mil|HoleType=Round|Shape=Rectangle|*
%AMROTATEDRECTD26*
4,1,4,0.01810,0.03210,0.03210,0.01810,-0.01810,-0.03210,-0.03210,-0.01810,0.01810,0.03210,0.0*
%
%ADD26ROTATEDRECTD26*%

%ADD27C,0.07099*%
%ADD28C,0.03162*%
D14*
X310702Y273944D02*
D03*
X308196Y276450D02*
D03*
X313457Y276306D02*
D03*
X310952Y278812D02*
D03*
X352645Y240929D02*
D03*
X350139Y243435D02*
D03*
X349017Y237245D02*
D03*
X346512Y239751D02*
D03*
X345347Y233590D02*
D03*
X342842Y236095D02*
D03*
X341762Y229878D02*
D03*
X339256Y232383D02*
D03*
X338134Y226194D02*
D03*
X335629Y228699D02*
D03*
X334506Y222510D02*
D03*
X332001Y225015D02*
D03*
X330879Y218826D02*
D03*
X328373Y221332D02*
D03*
X295042Y274249D02*
D03*
X292537Y276755D02*
D03*
X353767Y247119D02*
D03*
X356272Y244613D02*
D03*
X346997Y251798D02*
D03*
X344492Y254304D02*
D03*
D15*
X382382Y245669D02*
D03*
X401279D02*
D03*
X382382Y215158D02*
D03*
X401279D02*
D03*
D16*
X317520Y283661D02*
D03*
X321063D02*
D03*
X317421Y279626D02*
D03*
X320965D02*
D03*
X283071Y277854D02*
D03*
X286614D02*
D03*
D17*
X311811Y285236D02*
D03*
X303543D02*
D03*
X294094Y285138D02*
D03*
X285827D02*
D03*
D18*
X332257Y282749D02*
D03*
X329751Y280243D02*
D03*
X335898Y279304D02*
D03*
X333393Y276798D02*
D03*
X339442Y275859D02*
D03*
X336936Y273354D02*
D03*
X342788Y272611D02*
D03*
X340283Y270106D02*
D03*
X345839Y269658D02*
D03*
X343334Y267153D02*
D03*
X349284Y266312D02*
D03*
X346779Y263806D02*
D03*
X352828Y262965D02*
D03*
X350322Y260460D02*
D03*
X357382Y260138D02*
D03*
X359887Y262643D02*
D03*
X355387Y258241D02*
D03*
X352881Y255735D02*
D03*
X296725Y261194D02*
D03*
X294220Y258688D02*
D03*
X306174Y229402D02*
D03*
X303668Y226897D02*
D03*
X308930Y226646D02*
D03*
X306424Y224141D02*
D03*
X297021Y255584D02*
D03*
X294515Y253078D02*
D03*
D19*
X349963Y272182D02*
D03*
X345509Y276637D02*
D03*
X289407Y268369D02*
D03*
X293861Y263915D02*
D03*
X290121Y260174D02*
D03*
X285667Y264629D02*
D03*
D20*
X365462Y249965D02*
D03*
X356693Y253445D02*
D03*
X361982Y258734D02*
D03*
D21*
X304023Y210630D02*
D03*
Y214173D02*
D03*
X296152Y210630D02*
D03*
Y214173D02*
D03*
X288189Y210630D02*
D03*
Y214173D02*
D03*
X280315Y210630D02*
D03*
Y214173D02*
D03*
X272441Y210630D02*
D03*
Y214173D02*
D03*
X264567Y210630D02*
D03*
Y214173D02*
D03*
X262856Y283016D02*
D03*
Y279473D02*
D03*
X263064Y267294D02*
D03*
Y270837D02*
D03*
D22*
X429921Y198425D02*
D03*
X422047D02*
D03*
X414173D02*
D03*
X406299D02*
D03*
X398425D02*
D03*
X390551D02*
D03*
X382677D02*
D03*
X374803D02*
D03*
X366929D02*
D03*
X359055D02*
D03*
X343307D02*
D03*
X335433D02*
D03*
X327559D02*
D03*
X319685D02*
D03*
X311811D02*
D03*
X303937D02*
D03*
X296063D02*
D03*
X288189D02*
D03*
X280315D02*
D03*
X272441D02*
D03*
X264567D02*
D03*
X351181D02*
D03*
D23*
X272244Y267079D02*
D03*
X272244Y283221D02*
D03*
D24*
X428248Y227362D02*
D03*
X410138D02*
D03*
D25*
X324438Y232655D02*
D03*
X325830Y234047D02*
D03*
X327222Y235438D02*
D03*
X328614Y236830D02*
D03*
X330006Y238222D02*
D03*
X331398Y239614D02*
D03*
X332790Y241006D02*
D03*
X334182Y242398D02*
D03*
X335574Y243790D02*
D03*
X336966Y245182D02*
D03*
X338358Y246574D02*
D03*
X339750Y247966D02*
D03*
X316919Y270796D02*
D03*
X315527Y269405D02*
D03*
X314135Y268013D02*
D03*
X312743Y266621D02*
D03*
X311351Y265229D02*
D03*
X309960Y263837D02*
D03*
X308568Y262445D02*
D03*
X307176Y261053D02*
D03*
X305784Y259661D02*
D03*
X304392Y258269D02*
D03*
X303000Y256877D02*
D03*
X301608Y255485D02*
D03*
D26*
X339680D02*
D03*
X338288Y256877D02*
D03*
X336896Y258269D02*
D03*
X335504Y259661D02*
D03*
X334112Y261053D02*
D03*
X332720Y262445D02*
D03*
X331329Y263837D02*
D03*
X329937Y265229D02*
D03*
X328545Y266621D02*
D03*
X327153Y268013D02*
D03*
X325761Y269405D02*
D03*
X324369Y270797D02*
D03*
X301538Y247966D02*
D03*
X302930Y246574D02*
D03*
X304322Y245182D02*
D03*
X305714Y243790D02*
D03*
X307106Y242398D02*
D03*
X308498Y241006D02*
D03*
X309890Y239614D02*
D03*
X311282Y238222D02*
D03*
X312674Y236830D02*
D03*
X314066Y235438D02*
D03*
X315458Y234047D02*
D03*
X316850Y232655D02*
D03*
D27*
X389961Y254626D02*
D03*
X399961D02*
D03*
X409961D02*
D03*
X419961D02*
D03*
X429961D02*
D03*
X439961D02*
D03*
D28*
X280217Y226083D02*
D03*
X440000Y280000D02*
D03*
X445000Y270000D02*
D03*
Y250000D02*
D03*
X440000Y240000D02*
D03*
X430000Y280000D02*
D03*
X435000Y270000D02*
D03*
Y250000D02*
D03*
X425000D02*
D03*
X410000Y280000D02*
D03*
X415000Y250000D02*
D03*
X395000D02*
D03*
X390000Y220000D02*
D03*
X395000Y210000D02*
D03*
X375000Y250000D02*
D03*
X370000Y240000D02*
D03*
X315000Y210000D02*
D03*
X290000Y240000D02*
D03*
X280000Y280000D02*
D03*
X285000Y250000D02*
D03*
X280000Y240000D02*
D03*
X285000Y210000D02*
D03*
X270000Y260000D02*
D03*
X275000Y250000D02*
D03*
X270000Y240000D02*
D03*
X291831Y256299D02*
D03*
X296654Y244488D02*
D03*
X315453Y249606D02*
D03*
X318898Y250787D02*
D03*
X307185Y278937D02*
D03*
X316929Y276476D02*
D03*
X377854Y205512D02*
D03*
X261811Y206102D02*
D03*
X267747Y206568D02*
D03*
X276605Y206666D02*
D03*
X300523Y206961D02*
D03*
X291861Y206863D02*
D03*
X322736Y208366D02*
D03*
X308563Y207677D02*
D03*
X284449Y206004D02*
D03*
X332579Y206594D02*
D03*
X314665Y258465D02*
D03*
X364469Y271358D02*
D03*
X374016Y270177D02*
D03*
X421949Y198622D02*
D03*
X422047Y201476D02*
D03*
Y205906D02*
D03*
X398524Y205709D02*
D03*
X385335Y205906D02*
D03*
X295374Y262697D02*
D03*
X285335Y268898D02*
D03*
X352658Y271654D02*
D03*
X299606Y285236D02*
D03*
X281496Y285138D02*
D03*
X315650Y206594D02*
D03*
X356398Y206398D02*
D03*
X390465Y228006D02*
D03*
X340464Y223633D02*
D03*
X344488Y226969D02*
D03*
X336301Y220553D02*
D03*
X351216Y234877D02*
D03*
X347701Y231363D02*
D03*
X358563Y242520D02*
D03*
X354724Y238976D02*
D03*
X332579Y217126D02*
D03*
X326181Y246555D02*
D03*
X406299Y201378D02*
D03*
Y198524D02*
D03*
X393012Y235433D02*
D03*
X283169Y266634D02*
D03*
X389961Y235335D02*
D03*
X328839Y257874D02*
D03*
X325197Y261319D02*
D03*
X325295Y251575D02*
D03*
X316535Y261417D02*
D03*
X262960Y275155D02*
D03*
X294783Y279134D02*
D03*
X297638Y249902D02*
D03*
X331102Y248031D02*
D03*
X333465Y250098D02*
D03*
X300098Y224016D02*
D03*
X362205Y253150D02*
D03*
X361811Y271358D02*
D03*
X290256Y278937D02*
D03*
X350984Y269882D02*
D03*
X383858Y259350D02*
D03*
X383760Y262008D02*
D03*
X415551Y262402D02*
D03*
X382283Y217913D02*
D03*
X414173Y198425D02*
D03*
Y201279D02*
D03*
X441634Y235335D02*
D03*
X438681D02*
D03*
X444587D02*
D03*
X419882Y217421D02*
D03*
Y220571D02*
D03*
Y225787D02*
D03*
X419980Y228642D02*
D03*
X428839Y218012D02*
D03*
Y221358D02*
D03*
X425984D02*
D03*
Y218110D02*
D03*
X411122Y229331D02*
D03*
Y217717D02*
D03*
Y220620D02*
D03*
Y223524D02*
D03*
Y226427D02*
D03*
X408071Y226526D02*
D03*
Y223622D02*
D03*
Y220719D02*
D03*
Y217815D02*
D03*
Y229429D02*
D03*
X344677Y262608D02*
D03*
X324228Y241449D02*
D03*
X319685Y238878D02*
D03*
X348327Y258760D02*
D03*
X341634Y265650D02*
D03*
X333760Y271161D02*
D03*
X330906Y273917D02*
D03*
X321850Y272736D02*
D03*
X296752Y272342D02*
D03*
X307382Y250787D02*
D03*
X301969Y279134D02*
D03*
X298228Y276575D02*
D03*
X300098Y273721D02*
D03*
X301258Y270451D02*
D03*
X284350Y222638D02*
D03*
X288386Y224241D02*
D03*
X284350Y214272D02*
D03*
X264567Y222244D02*
D03*
X280217Y222342D02*
D03*
X272539D02*
D03*
M02*
