G04*
G04 #@! TF.GenerationSoftware,Altium Limited,Altium Designer,22.5.1 (42)*
G04*
G04 Layer_Color=65535*
%FSLAX25Y25*%
%MOIN*%
G70*
G04*
G04 #@! TF.SameCoordinates,7192FBDB-E104-44C5-AB31-B02996B251F2*
G04*
G04*
G04 #@! TF.FilePolarity,Positive*
G04*
G01*
G75*
%ADD10C,0.00591*%
%ADD11C,0.01000*%
%ADD12C,0.00787*%
%ADD13C,0.01181*%
D10*
X447590Y259547D02*
Y290945D01*
X382528Y259547D02*
Y290945D01*
Y259547D02*
X447590D01*
X382528Y290945D02*
X447590D01*
X300394Y282579D02*
Y288090D01*
X282677Y282480D02*
Y287992D01*
X278937Y272493D02*
Y277808D01*
X271949Y262847D02*
X272736Y262847D01*
X265453Y272591D02*
Y277906D01*
X271923Y287583D02*
X272710Y287583D01*
X405413Y215059D02*
X432185Y215059D01*
X405413Y215059D02*
Y239567D01*
X432776Y239567D01*
Y215059D02*
Y239567D01*
X432185Y215059D02*
X432776D01*
X289824Y264332D02*
X293374Y267882D01*
X304567Y251691D02*
X320574Y235683D01*
X304567Y251691D02*
X320644Y267768D01*
X336651Y251760D01*
X320574Y235683D02*
X336651Y251760D01*
X304110Y271905D02*
X304110Y272461D01*
X303554Y273018D01*
X302997D01*
X301884Y271905D01*
Y271348D01*
X302440Y270792D01*
X302997D01*
X303275Y269957D02*
X303832Y269400D01*
X303554Y269678D01*
X305223Y271348D01*
X304667D01*
X306058Y269957D02*
X306615Y269957D01*
X307171Y269400D01*
Y268843D01*
X306893Y268565D01*
X306336D01*
Y268008D01*
X306058Y267730D01*
X305502D01*
X304945Y268287D01*
Y268843D01*
X305223Y269122D01*
X305780D01*
Y269678D01*
X306058Y269957D01*
X305780Y269122D02*
X306336Y268565D01*
X306374Y274464D02*
X306374Y275020D01*
X305817Y275577D01*
X305261D01*
X304148Y274464D01*
Y273907D01*
X304704Y273351D01*
X305261D01*
X305539Y272516D02*
X306096Y271959D01*
X305817Y272237D01*
X307487Y273907D01*
X306930D01*
X308600Y272794D02*
X309714Y271681D01*
X309435Y271402D01*
X307209D01*
X306930Y271124D01*
X428741Y205512D02*
Y207874D01*
X429921D01*
X430315Y207480D01*
Y206693D01*
X429921Y206299D01*
X428741D01*
X431102Y205512D02*
X431889D01*
X431496D01*
Y207874D01*
X431102Y207480D01*
X276772Y261811D02*
Y261417D01*
X277559Y260630D01*
X278346Y261417D01*
Y261811D01*
X277559Y260630D02*
Y259449D01*
X279134D02*
X279921D01*
X279527D01*
Y261811D01*
X279134Y261417D01*
X369686Y252362D02*
Y250394D01*
X370079Y250000D01*
X370866D01*
X371260Y250394D01*
Y252362D01*
X373621D02*
X372834Y251968D01*
X372047Y251181D01*
Y250394D01*
X372441Y250000D01*
X373228D01*
X373621Y250394D01*
Y250787D01*
X373228Y251181D01*
X372047D01*
X376772Y287795D02*
Y285827D01*
X377166Y285433D01*
X377953D01*
X378347Y285827D01*
Y287795D01*
X380708Y285433D02*
X379134D01*
X380708Y287008D01*
Y287401D01*
X380314Y287795D01*
X379527D01*
X379134Y287401D01*
X317048Y273639D02*
X318440Y272248D01*
X318996D01*
X319553Y272804D01*
Y273361D01*
X318161Y274752D01*
X320388Y273639D02*
X320944Y274196D01*
X320666Y273917D01*
X318996Y275587D01*
Y275030D01*
X375985Y255511D02*
X375591Y255905D01*
X374804D01*
X374410Y255511D01*
Y255118D01*
X374804Y254724D01*
X375591D01*
X375985Y254331D01*
Y253937D01*
X375591Y253544D01*
X374804D01*
X374410Y253937D01*
X376772Y255905D02*
Y253544D01*
X377559Y254331D01*
X378346Y253544D01*
Y255905D01*
X379133Y253544D02*
X379920D01*
X379527D01*
Y255905D01*
X379133Y255511D01*
X281286Y269380D02*
X279616Y271049D01*
X280451Y271884D01*
X281007Y271884D01*
X281564Y271328D01*
Y270771D01*
X280729Y269936D01*
X281286Y270493D02*
X282399Y270493D01*
X284069Y272163D02*
X282956Y271049D01*
Y273276D01*
X282677Y273554D01*
X282121Y273554D01*
X281564Y272997D01*
Y272441D01*
X284347Y272997D02*
X284904D01*
X285460Y273554D01*
Y274111D01*
X284347Y275224D01*
X283790Y275224D01*
X283234Y274667D01*
Y274111D01*
X283512Y273832D01*
X284069D01*
X284904Y274667D01*
X326476Y281792D02*
X324115D01*
Y282973D01*
X324508Y283367D01*
X325295D01*
X325689Y282973D01*
Y281792D01*
Y282579D02*
X326476Y283367D01*
Y285728D02*
Y284154D01*
X324902Y285728D01*
X324508D01*
X324115Y285334D01*
Y284547D01*
X324508Y284154D01*
Y286515D02*
X324115Y286909D01*
Y287696D01*
X324508Y288089D01*
X324902D01*
X325295Y287696D01*
Y287302D01*
Y287696D01*
X325689Y288089D01*
X326082D01*
X326476Y287696D01*
Y286909D01*
X326082Y286515D01*
X322628Y279049D02*
X324297Y280719D01*
X325132Y279884D01*
X325132Y279327D01*
X324576Y278771D01*
X324019D01*
X323184Y279606D01*
X323741Y279049D02*
X323741Y277936D01*
X325411Y276266D02*
X324297Y277379D01*
X326524D01*
X326802Y277658D01*
X326802Y278214D01*
X326246Y278771D01*
X325689D01*
X327080Y274596D02*
X325967Y275709D01*
X328194D01*
X328472Y275988D01*
X328472Y276544D01*
X327915Y277101D01*
X327359D01*
X292493Y270405D02*
X294162Y272074D01*
X294997Y271239D01*
X294997Y270683D01*
X294441Y270126D01*
X293884D01*
X293049Y270961D01*
X293606Y270405D02*
X293606Y269291D01*
X295276Y267621D02*
X294162Y268735D01*
X296389D01*
X296667Y269013D01*
X296667Y269570D01*
X296111Y270126D01*
X295554D01*
X295832Y267065D02*
X296389Y266508D01*
X296111Y266787D01*
X297780Y268456D01*
X297224D01*
X294292Y216930D02*
Y219291D01*
X295473D01*
X295867Y218897D01*
Y218110D01*
X295473Y217717D01*
X294292D01*
X295079D02*
X295867Y216930D01*
X296654D02*
X297441D01*
X297047D01*
Y219291D01*
X296654Y218897D01*
X298622D02*
X299015Y219291D01*
X299802D01*
X300196Y218897D01*
Y217323D01*
X299802Y216930D01*
X299015D01*
X298622Y217323D01*
Y218897D01*
X302757Y216930D02*
Y219291D01*
X303937D01*
X304331Y218897D01*
Y218110D01*
X303937Y217717D01*
X302757D01*
X303544D02*
X304331Y216930D01*
X305118Y217323D02*
X305512Y216930D01*
X306299D01*
X306692Y217323D01*
Y218897D01*
X306299Y219291D01*
X305512D01*
X305118Y218897D01*
Y218504D01*
X305512Y218110D01*
X306692D01*
X278741Y216930D02*
Y219291D01*
X279922D01*
X280315Y218897D01*
Y218110D01*
X279922Y217717D01*
X278741D01*
X279528D02*
X280315Y216930D01*
X281102Y218897D02*
X281496Y219291D01*
X282283D01*
X282677Y218897D01*
Y218504D01*
X282283Y218110D01*
X282677Y217717D01*
Y217323D01*
X282283Y216930D01*
X281496D01*
X281102Y217323D01*
Y217717D01*
X281496Y218110D01*
X281102Y218504D01*
Y218897D01*
X281496Y218110D02*
X282283D01*
X287402Y216536D02*
Y218897D01*
X288583D01*
X288977Y218504D01*
Y217717D01*
X288583Y217323D01*
X287402D01*
X288189D02*
X288977Y216536D01*
X289764Y218897D02*
X291338D01*
Y218504D01*
X289764Y216929D01*
Y216536D01*
X270867Y216930D02*
Y219291D01*
X272047D01*
X272441Y218897D01*
Y218110D01*
X272047Y217717D01*
X270867D01*
X271654D02*
X272441Y216930D01*
X274802Y219291D02*
X274015Y218897D01*
X273228Y218110D01*
Y217323D01*
X273622Y216930D01*
X274409D01*
X274802Y217323D01*
Y217717D01*
X274409Y218110D01*
X273228D01*
X262599Y216930D02*
Y219291D01*
X263780D01*
X264173Y218897D01*
Y218110D01*
X263780Y217717D01*
X262599D01*
X263386D02*
X264173Y216930D01*
X266535Y219291D02*
X264961D01*
Y218110D01*
X265748Y218504D01*
X266141D01*
X266535Y218110D01*
Y217323D01*
X266141Y216930D01*
X265354D01*
X264961Y217323D01*
X409056Y212598D02*
Y210237D01*
X410630D01*
X412992D02*
X411417D01*
X412992Y211811D01*
Y212205D01*
X412598Y212598D01*
X411811D01*
X411417Y212205D01*
X286913Y272835D02*
X285800Y271722D01*
X286635Y270887D01*
X287191Y271443D01*
X286635Y270887D01*
X287470Y270052D01*
Y273391D02*
X289139Y271722D01*
X289974Y272556D01*
Y273113D01*
X289696Y273391D01*
X289139D01*
X288304Y272556D01*
X289139Y273391D01*
Y273948D01*
X288861Y274226D01*
X288304Y274226D01*
X287470Y273391D01*
X290809D02*
X291366Y273948D01*
X291087Y273670D01*
X289418Y275339D01*
Y274783D01*
X317225Y287992D02*
Y285630D01*
X318406D01*
X318799Y286024D01*
Y287598D01*
X318406Y287992D01*
X317225D01*
X321161Y285630D02*
X319586D01*
X321161Y287205D01*
Y287598D01*
X320767Y287992D01*
X319980D01*
X319586Y287598D01*
X296851Y281496D02*
Y279134D01*
X298032D01*
X298425Y279528D01*
Y281102D01*
X298032Y281496D01*
X296851D01*
X299212Y279134D02*
X299999D01*
X299606D01*
Y281496D01*
X299212Y281102D01*
X352661Y277003D02*
X352104Y277003D01*
X351548Y276446D01*
Y275889D01*
X352661Y274776D01*
X353218D01*
X353774Y275333D01*
Y275889D01*
X355444Y277003D02*
X353774Y278672D01*
Y277003D01*
X354887Y278116D01*
X357392Y278951D02*
X356279Y277837D01*
Y280064D01*
X356000Y280342D01*
X355444Y280342D01*
X354887Y279785D01*
Y279229D01*
X329416Y285253D02*
X328859Y285253D01*
X328302Y284697D01*
Y284140D01*
X329416Y283027D01*
X329972D01*
X330529Y283583D01*
Y284140D01*
X332199Y285253D02*
X330529Y286923D01*
Y285253D01*
X331642Y286366D01*
X333033Y286088D02*
X333590Y286645D01*
X333312Y286366D01*
X331642Y288036D01*
Y287480D01*
X335732Y284483D02*
X335175Y284483D01*
X334619Y283926D01*
Y283370D01*
X335732Y282256D01*
X336288D01*
X336845Y282813D01*
Y283370D01*
X338515Y284483D02*
X336845Y286153D01*
Y284483D01*
X337958Y285596D01*
Y286709D02*
Y287266D01*
X338515Y287822D01*
X339071Y287822D01*
X340185Y286709D01*
Y286153D01*
X339628Y285596D01*
X339071D01*
X337958Y286709D01*
X348262Y224504D02*
X348262Y225061D01*
X347706Y225618D01*
X347149D01*
X346036Y224504D01*
Y223948D01*
X346592Y223391D01*
X347149D01*
X348819Y223948D02*
X349376D01*
X349932Y223391D01*
X349932Y222835D01*
X349654Y222556D01*
X349097D01*
X348819Y222835D01*
X349097Y222556D01*
Y222000D01*
X348819Y221722D01*
X348262D01*
X347706Y222278D01*
Y222835D01*
X349376Y221165D02*
Y220608D01*
X349932Y220052D01*
X350489D01*
X351602Y221165D01*
X351602Y221722D01*
X351045Y222278D01*
X350489D01*
X350210Y222000D01*
Y221443D01*
X351045Y220608D01*
X353055Y268341D02*
X352498Y268341D01*
X351941Y267785D01*
Y267228D01*
X353055Y266115D01*
X353611D01*
X354168Y266671D01*
Y267228D01*
X353611Y268898D02*
Y269454D01*
X354168Y270011D01*
X354724Y270011D01*
X355003Y269732D01*
Y269176D01*
X354724Y268898D01*
X355003Y269176D01*
X355559D01*
X355838Y268898D01*
Y268341D01*
X355281Y267785D01*
X354724D01*
X355281Y270567D02*
Y271124D01*
X355838Y271681D01*
X356394Y271681D01*
X356673Y271402D01*
Y270846D01*
X357229D01*
X357507Y270567D01*
Y270011D01*
X356951Y269454D01*
X356394D01*
X356116Y269732D01*
Y270289D01*
X355559D01*
X355281Y270567D01*
X356116Y270289D02*
X356673Y270846D01*
X355417Y264798D02*
X354860Y264798D01*
X354304Y264241D01*
Y263685D01*
X355417Y262571D01*
X355973D01*
X356530Y263128D01*
Y263685D01*
X355973Y265354D02*
Y265911D01*
X356530Y266467D01*
X357087Y266467D01*
X357365Y266189D01*
Y265633D01*
X357087Y265354D01*
X357365Y265633D01*
X357922D01*
X358200Y265354D01*
Y264798D01*
X357643Y264241D01*
X357087D01*
X357365Y267302D02*
X358478Y268416D01*
X358756Y268137D01*
Y265911D01*
X359035Y265633D01*
X351018Y228835D02*
X351018Y229392D01*
X350462Y229948D01*
X349905D01*
X348792Y228835D01*
Y228278D01*
X349348Y227722D01*
X349905D01*
X351575Y228278D02*
X352131D01*
X352688Y227722D01*
X352688Y227165D01*
X352410Y226887D01*
X351853D01*
X351575Y227165D01*
X351853Y226887D01*
Y226330D01*
X351575Y226052D01*
X351018D01*
X350462Y226609D01*
Y227165D01*
X354636Y225774D02*
X353801Y226052D01*
X352688D01*
X352131Y225496D01*
Y224939D01*
X352688Y224382D01*
X353245D01*
X353523Y224661D01*
Y225217D01*
X352688Y226052D01*
X336058Y214268D02*
X336058Y214825D01*
X335501Y215381D01*
X334944D01*
X333831Y214268D01*
Y213712D01*
X334388Y213155D01*
X334944D01*
X336614Y213712D02*
X337171D01*
X337727Y213155D01*
X337727Y212598D01*
X337449Y212320D01*
X336893D01*
X336614Y212598D01*
X336893Y212320D01*
Y211764D01*
X336614Y211485D01*
X336058D01*
X335501Y212042D01*
Y212598D01*
X339675Y211207D02*
X338562Y212320D01*
X337727Y211485D01*
X338562Y211207D01*
X338841Y210929D01*
Y210372D01*
X338284Y209815D01*
X337727D01*
X337171Y210372D01*
Y210929D01*
X354955Y232378D02*
X354955Y232935D01*
X354399Y233492D01*
X353842D01*
X352729Y232378D01*
Y231822D01*
X353285Y231265D01*
X353842D01*
X355512Y231822D02*
X356068D01*
X356625Y231265D01*
X356625Y230709D01*
X356347Y230430D01*
X355790D01*
X355512Y230709D01*
X355790Y230430D01*
Y229874D01*
X355512Y229595D01*
X354955D01*
X354399Y230152D01*
Y230709D01*
X356625Y227926D02*
X358295Y229595D01*
X356625D01*
X357738Y228482D01*
X338881Y281727D02*
X338325Y281727D01*
X337768Y281170D01*
Y280614D01*
X338881Y279501D01*
X339438D01*
X339995Y280057D01*
Y280614D01*
X339438Y282283D02*
Y282840D01*
X339995Y283397D01*
X340551Y283397D01*
X340829Y283118D01*
Y282562D01*
X340551Y282283D01*
X340829Y282562D01*
X341386D01*
X341664Y282283D01*
Y281727D01*
X341108Y281170D01*
X340551D01*
X341108Y283953D02*
Y284510D01*
X341664Y285066D01*
X342221Y285066D01*
X342499Y284788D01*
Y284232D01*
X342221Y283953D01*
X342499Y284232D01*
X343056D01*
X343334Y283953D01*
Y283397D01*
X342778Y282840D01*
X342221D01*
X339601Y218205D02*
X339601Y218762D01*
X339044Y219318D01*
X338488D01*
X337374Y218205D01*
Y217649D01*
X337931Y217092D01*
X338488D01*
X340158Y217649D02*
X340714D01*
X341271Y217092D01*
X341271Y216535D01*
X340992Y216257D01*
X340436D01*
X340158Y216535D01*
X340436Y216257D01*
Y215701D01*
X340158Y215422D01*
X339601D01*
X339044Y215979D01*
Y216535D01*
X341549Y213474D02*
X340436Y214587D01*
X342662D01*
X342940Y214866D01*
X342940Y215422D01*
X342384Y215979D01*
X341827D01*
X344210Y221470D02*
X344210Y222027D01*
X343653Y222583D01*
X343097D01*
X341984Y221470D01*
Y220914D01*
X342540Y220357D01*
X343097D01*
X344766Y220914D02*
X345323D01*
X345880Y220357D01*
X345880Y219800D01*
X345601Y219522D01*
X345045D01*
X344766Y219800D01*
X345045Y219522D01*
Y218966D01*
X344766Y218687D01*
X344210D01*
X343653Y219244D01*
Y219800D01*
X345045Y217852D02*
X345601Y217296D01*
X345323Y217574D01*
X346993Y219244D01*
X346436D01*
X358105Y235922D02*
X358105Y236478D01*
X357548Y237035D01*
X356992D01*
X355878Y235922D01*
Y235365D01*
X356435Y234809D01*
X356992D01*
X358661Y235365D02*
X359218D01*
X359775Y234809D01*
X359775Y234252D01*
X359496Y233974D01*
X358940D01*
X358661Y234252D01*
X358940Y233974D01*
Y233417D01*
X358661Y233139D01*
X358105D01*
X357548Y233695D01*
Y234252D01*
X360331Y233695D02*
X360888D01*
X361444Y233139D01*
X361444Y232582D01*
X360331Y231469D01*
X359775D01*
X359218Y232026D01*
Y232582D01*
X360331Y233695D01*
X362436Y239465D02*
X362436Y240022D01*
X361879Y240578D01*
X361322D01*
X360209Y239465D01*
Y238909D01*
X360766Y238352D01*
X361322D01*
X362714Y236404D02*
X361601Y237517D01*
X363827D01*
X364105Y237795D01*
X364105Y238352D01*
X363549Y238909D01*
X362992D01*
X363549Y236125D02*
Y235569D01*
X364105Y235012D01*
X364662D01*
X365775Y236125D01*
X365775Y236682D01*
X365218Y237239D01*
X364662D01*
X364384Y236960D01*
Y236404D01*
X365218Y235569D01*
X348330Y248656D02*
X347774Y248656D01*
X347217Y248099D01*
Y247543D01*
X348330Y246430D01*
X348887D01*
X349443Y246986D01*
Y247543D01*
X351392Y248934D02*
X350278Y247821D01*
Y250047D01*
X350000Y250326D01*
X349443Y250326D01*
X348887Y249769D01*
Y249213D01*
X350278Y251161D02*
X351392Y252274D01*
X351670Y251996D01*
Y249769D01*
X351948Y249491D01*
X363617Y265843D02*
X363617Y266400D01*
X363060Y266956D01*
X362503D01*
X361390Y265843D01*
Y265286D01*
X361947Y264730D01*
X362503D01*
X363895Y262782D02*
X362782Y263895D01*
X365008D01*
X365286Y264173D01*
X365286Y264730D01*
X364730Y265286D01*
X364173D01*
X367234Y262782D02*
X366400Y263060D01*
X365286D01*
X364730Y262503D01*
Y261947D01*
X365286Y261390D01*
X365843D01*
X366121Y261669D01*
Y262225D01*
X365286Y263060D01*
X262205Y260434D02*
X261811Y260040D01*
Y259253D01*
X262205Y258859D01*
X263779D01*
X264173Y259253D01*
Y260040D01*
X263779Y260434D01*
X264173Y261221D02*
Y262008D01*
Y261614D01*
X261811D01*
X262205Y261221D01*
X261811Y264763D02*
Y263189D01*
X262992D01*
X262599Y263976D01*
Y264369D01*
X262992Y264763D01*
X263779D01*
X264173Y264369D01*
Y263582D01*
X263779Y263189D01*
X262501Y287598D02*
X262107Y287992D01*
X261320D01*
X260926Y287598D01*
Y286024D01*
X261320Y285630D01*
X262107D01*
X262501Y286024D01*
X263288Y285630D02*
X264075D01*
X263681D01*
Y287992D01*
X263288Y287598D01*
X266436Y285630D02*
Y287992D01*
X265255Y286811D01*
X266830D01*
X343053Y249141D02*
X343053Y248585D01*
X343609Y248028D01*
X344166D01*
X345279Y249141D01*
Y249698D01*
X344722Y250255D01*
X344166D01*
X343887Y251089D02*
X343331Y251646D01*
X343609Y251368D01*
X341939Y249698D01*
X342496D01*
Y252481D02*
X341939Y253038D01*
X342218Y252759D01*
X340548Y251089D01*
X341105Y251089D01*
X348401Y283027D02*
X348401Y283583D01*
X347845Y284140D01*
X347288D01*
X346175Y283027D01*
Y282470D01*
X346732Y281913D01*
X347288D01*
X347567Y281079D02*
X348123Y280522D01*
X347845Y280800D01*
X349515Y282470D01*
X348958D01*
X350349Y281079D02*
X350906Y281079D01*
X351463Y280522D01*
Y279965D01*
X350349Y278852D01*
X349793D01*
X349236Y279409D01*
Y279965D01*
X350349Y281079D01*
X342078Y279412D02*
X341522Y279412D01*
X340965Y278856D01*
Y278299D01*
X342078Y277186D01*
X342635D01*
X343192Y277742D01*
Y278299D01*
X343748Y278856D02*
X344305D01*
X344862Y279412D01*
Y279969D01*
X343748Y281082D01*
X343192Y281082D01*
X342635Y280525D01*
Y279969D01*
X342913Y279691D01*
X343470D01*
X344305Y280525D01*
X285386Y255790D02*
X284829Y255790D01*
X284272Y255234D01*
Y254677D01*
X285386Y253564D01*
X285942D01*
X286499Y254120D01*
Y254677D01*
X286777Y257738D02*
X286499Y256903D01*
Y255790D01*
X287055Y255234D01*
X287612D01*
X288169Y255790D01*
Y256347D01*
X287890Y256625D01*
X287334D01*
X286499Y255790D01*
X301134Y231381D02*
X300577Y231381D01*
X300020Y230824D01*
Y230268D01*
X301134Y229154D01*
X301690D01*
X302247Y229711D01*
Y230268D01*
X302525Y233329D02*
X301412Y232215D01*
X302247Y231381D01*
X302525Y232215D01*
X302803Y232494D01*
X303360D01*
X303917Y231937D01*
Y231381D01*
X303360Y230824D01*
X302803D01*
X290504Y250278D02*
X289947Y250278D01*
X289390Y249722D01*
Y249165D01*
X290504Y248052D01*
X291060D01*
X291617Y248608D01*
Y249165D01*
X293287Y250278D02*
X291617Y251948D01*
Y250278D01*
X292730Y251392D01*
X299165Y263664D02*
X298608Y263664D01*
X298052Y263107D01*
Y262551D01*
X299165Y261438D01*
X299722D01*
X300278Y261994D01*
Y262551D01*
X299722Y264221D02*
Y264777D01*
X300278Y265334D01*
X300835Y265334D01*
X301113Y265056D01*
Y264499D01*
X300835Y264221D01*
X301113Y264499D01*
X301670D01*
X301948Y264221D01*
Y263664D01*
X301392Y263107D01*
X300835D01*
X309795Y223113D02*
X309238Y223113D01*
X308682Y222556D01*
Y222000D01*
X309795Y220887D01*
X310352D01*
X310908Y221443D01*
Y222000D01*
X312856Y223391D02*
X311743Y222278D01*
Y224504D01*
X311465Y224783D01*
X310908Y224783D01*
X310352Y224226D01*
Y223670D01*
D11*
X387500Y215158D02*
X396358D01*
X387500Y246654D02*
X396358D01*
X382382Y221063D02*
Y239764D01*
X401279Y221063D02*
Y239764D01*
X386990Y287022D02*
X385678D01*
X386334D01*
Y283743D01*
X385678Y283087D01*
X385022D01*
X384366Y283743D01*
X388302Y287022D02*
Y283087D01*
X390926D01*
X394862Y286366D02*
X394205Y287022D01*
X392894D01*
X392238Y286366D01*
Y283743D01*
X392894Y283087D01*
X394205D01*
X394862Y283743D01*
X398797Y287022D02*
X397485D01*
X398141D01*
Y283743D01*
X397485Y283087D01*
X396829D01*
X396173Y283743D01*
X400109Y287022D02*
Y283087D01*
X402733D01*
X406669Y286366D02*
X406013Y287022D01*
X404701D01*
X404045Y286366D01*
Y283743D01*
X404701Y283087D01*
X406013D01*
X406669Y283743D01*
X410604Y287022D02*
X409293D01*
X409948D01*
Y283743D01*
X409293Y283087D01*
X408637D01*
X407981Y283743D01*
X411916Y287022D02*
Y283087D01*
X414540D01*
X418476Y286366D02*
X417820Y287022D01*
X416508D01*
X415852Y286366D01*
Y283743D01*
X416508Y283087D01*
X417820D01*
X418476Y283743D01*
X422412Y287022D02*
X421100D01*
X421756D01*
Y283743D01*
X421100Y283087D01*
X420444D01*
X419788Y283743D01*
X423724Y287022D02*
Y283087D01*
X426347D01*
X430283Y286366D02*
X429627Y287022D01*
X428315D01*
X427659Y286366D01*
Y283743D01*
X428315Y283087D01*
X429627D01*
X430283Y283743D01*
D12*
X359477Y246207D02*
X362400Y249130D01*
X366297Y253027D02*
X368803Y255533D01*
X362887Y261449D02*
X368803Y255533D01*
X357528Y248155D02*
X359477Y246207D01*
D13*
X278937Y287598D02*
X279462D01*
Y287074D01*
X278937D01*
Y287598D01*
X323358Y230533D02*
X322987Y230162D01*
X322616Y230533D01*
X322987Y230904D01*
X323358Y230533D01*
M02*
