G04*
G04 #@! TF.GenerationSoftware,Altium Limited,Altium Designer,22.5.1 (42)*
G04*
G04 Layer_Color=32896*
%FSLAX25Y25*%
%MOIN*%
G70*
G04*
G04 #@! TF.SameCoordinates,7192FBDB-E104-44C5-AB31-B02996B251F2*
G04*
G04*
G04 #@! TF.FilePolarity,Positive*
G04*
G01*
G75*
%ADD10C,0.00591*%
%ADD11C,0.01000*%
%ADD12C,0.00787*%
%ADD13C,0.01181*%
%ADD61C,0.00394*%
D10*
X327521Y251832D02*
X331071Y255382D01*
X313484Y233562D02*
X311122D01*
Y232381D01*
X311516Y231988D01*
X312303D01*
X312697Y232381D01*
Y233562D01*
Y232775D02*
X313484Y231988D01*
X311516Y231201D02*
X311122Y230807D01*
Y230020D01*
X311516Y229626D01*
X311910D01*
X312303Y230020D01*
Y230413D01*
Y230020D01*
X312697Y229626D01*
X313090D01*
X313484Y230020D01*
Y230807D01*
X313090Y231201D01*
X311516Y228839D02*
X311122Y228446D01*
Y227658D01*
X311516Y227265D01*
X313090D01*
X313484Y227658D01*
Y228446D01*
X313090Y228839D01*
X311516D01*
X299790Y237215D02*
X298120Y235545D01*
X298955Y234710D01*
X299511Y234710D01*
X300068Y235267D01*
Y235823D01*
X299233Y236658D01*
X299790Y236102D02*
X300903Y236102D01*
X302573Y234432D02*
X301459Y235545D01*
Y233319D01*
X301181Y233040D01*
X300624Y233040D01*
X300068Y233597D01*
Y234154D01*
X302573Y231092D02*
X301459Y232206D01*
X302294Y233040D01*
X302573Y232206D01*
X302851Y231927D01*
X303408D01*
X303964Y232484D01*
Y233040D01*
X303408Y233597D01*
X302851D01*
X322735Y244981D02*
Y247342D01*
X321554D01*
X321161Y246949D01*
Y246161D01*
X321554Y245768D01*
X322735D01*
X321948D02*
X321161Y244981D01*
X320374D02*
X319587D01*
X319980D01*
Y247342D01*
X320374Y246949D01*
X318406Y245374D02*
X318012Y244981D01*
X317225D01*
X316832Y245374D01*
Y246949D01*
X317225Y247342D01*
X318012D01*
X318406Y246949D01*
Y246555D01*
X318012Y246161D01*
X316832D01*
X321357Y241437D02*
Y243799D01*
X320177D01*
X319783Y243405D01*
Y242618D01*
X320177Y242225D01*
X321357D01*
X320570D02*
X319783Y241437D01*
X318996D02*
X318209D01*
X318602D01*
Y243799D01*
X318996Y243405D01*
X317028D02*
X316634Y243799D01*
X315847D01*
X315454Y243405D01*
Y243012D01*
X315847Y242618D01*
X315454Y242225D01*
Y241831D01*
X315847Y241437D01*
X316634D01*
X317028Y241831D01*
Y242225D01*
X316634Y242618D01*
X317028Y243012D01*
Y243405D01*
X316634Y242618D02*
X315847D01*
X375098Y275689D02*
Y273721D01*
X374704Y273327D01*
X373917D01*
X373523Y273721D01*
Y275689D01*
X372736D02*
X371162D01*
Y275295D01*
X372736Y273721D01*
Y273327D01*
X437402Y242913D02*
X439370D01*
X439763Y242519D01*
Y241732D01*
X439370Y241338D01*
X437402D01*
Y238977D02*
Y240551D01*
X438583D01*
X438189Y239764D01*
Y239371D01*
X438583Y238977D01*
X439370D01*
X439763Y239371D01*
Y240158D01*
X439370Y240551D01*
X396850Y242126D02*
Y240158D01*
X396456Y239764D01*
X395669D01*
X395275Y240158D01*
Y242126D01*
X394488Y241732D02*
X394095Y242126D01*
X393308D01*
X392914Y241732D01*
Y241338D01*
X393308Y240945D01*
X393701D01*
X393308D01*
X392914Y240551D01*
Y240158D01*
X393308Y239764D01*
X394095D01*
X394488Y240158D01*
X427558Y242126D02*
Y244488D01*
X426377D01*
X425984Y244094D01*
Y243307D01*
X426377Y242914D01*
X427558D01*
X426771D02*
X425984Y242126D01*
X425197Y244094D02*
X424803Y244488D01*
X424016D01*
X423622Y244094D01*
Y243701D01*
X424016Y243307D01*
X424409D01*
X424016D01*
X423622Y242914D01*
Y242520D01*
X424016Y242126D01*
X424803D01*
X425197Y242520D01*
X421261Y244488D02*
X422048Y244094D01*
X422835Y243307D01*
Y242520D01*
X422442Y242126D01*
X421654D01*
X421261Y242520D01*
Y242914D01*
X421654Y243307D01*
X422835D01*
X427558Y246063D02*
Y248425D01*
X426377D01*
X425984Y248031D01*
Y247244D01*
X426377Y246850D01*
X427558D01*
X426771D02*
X425984Y246063D01*
X425197Y248031D02*
X424803Y248425D01*
X424016D01*
X423622Y248031D01*
Y247638D01*
X424016Y247244D01*
X424409D01*
X424016D01*
X423622Y246850D01*
Y246457D01*
X424016Y246063D01*
X424803D01*
X425197Y246457D01*
X421261Y248425D02*
X422835D01*
Y247244D01*
X422048Y247638D01*
X421654D01*
X421261Y247244D01*
Y246457D01*
X421654Y246063D01*
X422442D01*
X422835Y246457D01*
X428739Y210237D02*
Y212598D01*
X427558D01*
X427165Y212205D01*
Y211417D01*
X427558Y211024D01*
X428739D01*
X427952D02*
X427165Y210237D01*
X426378Y212205D02*
X425984Y212598D01*
X425197D01*
X424803Y212205D01*
Y211811D01*
X425197Y211417D01*
X425591D01*
X425197D01*
X424803Y211024D01*
Y210630D01*
X425197Y210237D01*
X425984D01*
X426378Y210630D01*
X422835Y210237D02*
Y212598D01*
X424016Y211417D01*
X422442D01*
X376771Y225983D02*
X374410D01*
Y224802D01*
X374803Y224409D01*
X375590D01*
X375984Y224802D01*
Y225983D01*
Y225196D02*
X376771Y224409D01*
Y222047D02*
Y223622D01*
X375197Y222047D01*
X374803D01*
X374410Y222441D01*
Y223228D01*
X374803Y223622D01*
Y221260D02*
X374410Y220867D01*
Y220080D01*
X374803Y219686D01*
X375197D01*
X375590Y220080D01*
X375984Y219686D01*
X376378D01*
X376771Y220080D01*
Y220867D01*
X376378Y221260D01*
X375984D01*
X375590Y220867D01*
X375197Y221260D01*
X374803D01*
X375590Y220867D02*
Y220080D01*
X291943Y270167D02*
X293613Y271837D01*
X292778Y272672D01*
X292221Y272672D01*
X291664Y272115D01*
Y271559D01*
X292499Y270724D01*
X291943Y271280D02*
X290829Y271280D01*
X289160Y272950D02*
X290273Y271837D01*
Y274063D01*
X290551Y274342D01*
X291108Y274342D01*
X291664Y273785D01*
Y273228D01*
X290273Y275176D02*
X289160Y276290D01*
X288881Y276011D01*
Y273785D01*
X288603Y273507D01*
X312904Y266352D02*
X311234Y268022D01*
X310399Y267187D01*
X310399Y266630D01*
X310956Y266074D01*
X311512D01*
X312347Y266909D01*
X311791Y266352D02*
X311791Y265239D01*
X310121Y263569D02*
X311234Y264682D01*
X309008D01*
X308729Y264961D01*
X308729Y265517D01*
X309286Y266074D01*
X309842D01*
X306781Y263569D02*
X307616Y263847D01*
X308729D01*
X309286Y263291D01*
Y262734D01*
X308729Y262178D01*
X308173D01*
X307894Y262456D01*
Y263013D01*
X308729Y263847D01*
X381102Y225983D02*
X378741D01*
Y224802D01*
X379134Y224409D01*
X379921D01*
X380315Y224802D01*
Y225983D01*
Y225196D02*
X381102Y224409D01*
Y222047D02*
Y223622D01*
X379528Y222047D01*
X379134D01*
X378741Y222441D01*
Y223228D01*
X379134Y223622D01*
X381102Y220080D02*
X378741D01*
X379921Y221260D01*
Y219686D01*
X309459Y269206D02*
X307789Y270876D01*
X306954Y270041D01*
X306954Y269485D01*
X307511Y268928D01*
X308067D01*
X308902Y269763D01*
X308346Y269206D02*
X308346Y268093D01*
X306676Y266424D02*
X307789Y267537D01*
X305563D01*
X305284Y267815D01*
X305284Y268372D01*
X305841Y268928D01*
X306398D01*
X304728Y267258D02*
X304171D01*
X303615Y266702D01*
X303615Y266145D01*
X304728Y265032D01*
X305284D01*
X305841Y265589D01*
Y266145D01*
X304728Y267258D01*
X418700Y264961D02*
Y267322D01*
X417519D01*
X417126Y266929D01*
Y266142D01*
X417519Y265748D01*
X418700D01*
X417913D02*
X417126Y264961D01*
X416338D02*
X415551D01*
X415945D01*
Y267322D01*
X416338Y266929D01*
X414370Y267322D02*
X412796D01*
Y266929D01*
X414370Y265355D01*
Y264961D01*
X315550Y211418D02*
Y213779D01*
X314370D01*
X313976Y213386D01*
Y212598D01*
X314370Y212205D01*
X315550D01*
X314763D02*
X313976Y211418D01*
X313189D02*
X312402D01*
X312795D01*
Y213779D01*
X313189Y213386D01*
X309647Y213779D02*
X310434Y213386D01*
X311221Y212598D01*
Y211811D01*
X310827Y211418D01*
X310040D01*
X309647Y211811D01*
Y212205D01*
X310040Y212598D01*
X311221D01*
X323424Y211418D02*
Y213779D01*
X322243D01*
X321850Y213386D01*
Y212598D01*
X322243Y212205D01*
X323424D01*
X322637D02*
X321850Y211418D01*
X321063D02*
X320276D01*
X320669D01*
Y213779D01*
X321063Y213386D01*
X317521Y213779D02*
X319095D01*
Y212598D01*
X318308Y212992D01*
X317914D01*
X317521Y212598D01*
Y211811D01*
X317914Y211418D01*
X318701D01*
X319095Y211811D01*
X411220Y268898D02*
Y271259D01*
X410039D01*
X409645Y270866D01*
Y270079D01*
X410039Y269685D01*
X411220D01*
X410432D02*
X409645Y268898D01*
X408858D02*
X408071D01*
X408464D01*
Y271259D01*
X408858Y270866D01*
X405710Y268898D02*
Y271259D01*
X406890Y270079D01*
X405316D01*
X307676Y211024D02*
Y213385D01*
X306495D01*
X306102Y212992D01*
Y212205D01*
X306495Y211811D01*
X307676D01*
X306889D02*
X306102Y211024D01*
X305315D02*
X304528D01*
X304921D01*
Y213385D01*
X305315Y212992D01*
X303347D02*
X302953Y213385D01*
X302166D01*
X301773Y212992D01*
Y212598D01*
X302166Y212205D01*
X302560D01*
X302166D01*
X301773Y211811D01*
Y211418D01*
X302166Y211024D01*
X302953D01*
X303347Y211418D01*
X436220Y266338D02*
X433859D01*
Y265157D01*
X434252Y264763D01*
X435039D01*
X435433Y265157D01*
Y266338D01*
Y265550D02*
X436220Y264763D01*
Y263976D02*
Y263189D01*
Y263583D01*
X433859D01*
X434252Y263976D01*
X436220Y260434D02*
Y262008D01*
X434646Y260434D01*
X434252D01*
X433859Y260828D01*
Y261615D01*
X434252Y262008D01*
X298621Y211418D02*
Y213779D01*
X297441D01*
X297047Y213386D01*
Y212598D01*
X297441Y212205D01*
X298621D01*
X297834D02*
X297047Y211418D01*
X296260D02*
X295473D01*
X295866D01*
Y213779D01*
X296260Y213386D01*
X294292Y211418D02*
X293505D01*
X293898D01*
Y213779D01*
X294292Y213386D01*
X281889Y211418D02*
Y213779D01*
X280708D01*
X280315Y213386D01*
Y212598D01*
X280708Y212205D01*
X281889D01*
X281102D02*
X280315Y211418D01*
X278347D02*
Y213779D01*
X279528Y212598D01*
X277953D01*
X290944Y211024D02*
Y213385D01*
X289763D01*
X289370Y212992D01*
Y212205D01*
X289763Y211811D01*
X290944D01*
X290157D02*
X289370Y211024D01*
X288583Y212992D02*
X288189Y213385D01*
X287402D01*
X287009Y212992D01*
Y212598D01*
X287402Y212205D01*
X287796D01*
X287402D01*
X287009Y211811D01*
Y211418D01*
X287402Y211024D01*
X288189D01*
X288583Y211418D01*
X266141Y211418D02*
Y213779D01*
X264960D01*
X264567Y213386D01*
Y212598D01*
X264960Y212205D01*
X266141D01*
X265354D02*
X264567Y211418D01*
X262205D02*
X263780D01*
X262205Y212992D01*
Y213386D01*
X262599Y213779D01*
X263386D01*
X263780Y213386D01*
X274015Y211024D02*
Y213385D01*
X272834D01*
X272441Y212992D01*
Y212205D01*
X272834Y211811D01*
X274015D01*
X273228D02*
X272441Y211024D01*
X271654D02*
X270867D01*
X271260D01*
Y213385D01*
X271654Y212992D01*
X335454Y245554D02*
X334340Y246667D01*
X335175Y247502D01*
X335732Y246945D01*
X335175Y247502D01*
X336010Y248337D01*
Y244997D02*
X337680Y246667D01*
X338515Y245832D01*
Y245276D01*
X338236Y244997D01*
X337680D01*
X336845Y245832D01*
X337680Y244997D01*
Y244441D01*
X337402Y244162D01*
X336845Y244162D01*
X336010Y244997D01*
X340463Y243884D02*
X339350Y244997D01*
Y242771D01*
X339071Y242493D01*
X338515Y242493D01*
X337958Y243049D01*
Y243606D01*
X388189Y270078D02*
X387796Y270472D01*
Y271259D01*
X388189Y271653D01*
X389763D01*
X390157Y271259D01*
Y270472D01*
X389763Y270078D01*
X390157Y267717D02*
Y269291D01*
X388583Y267717D01*
X388189D01*
X387796Y268110D01*
Y268898D01*
X388189Y269291D01*
Y266930D02*
X387796Y266536D01*
Y265749D01*
X388189Y265355D01*
X388583D01*
X388976Y265749D01*
X389370Y265355D01*
X389763D01*
X390157Y265749D01*
Y266536D01*
X389763Y266930D01*
X389370D01*
X388976Y266536D01*
X388583Y266930D01*
X388189D01*
X388976Y266536D02*
Y265749D01*
X364960Y276378D02*
X365354Y276771D01*
X366141D01*
X366534Y276378D01*
Y274803D01*
X366141Y274410D01*
X365354D01*
X364960Y274803D01*
X362599Y274410D02*
X364173D01*
X362599Y275984D01*
Y276378D01*
X362992Y276771D01*
X363779D01*
X364173Y276378D01*
X360237Y276771D02*
X361811D01*
Y275590D01*
X361024Y275984D01*
X360631D01*
X360237Y275590D01*
Y274803D01*
X360631Y274410D01*
X361418D01*
X361811Y274803D01*
X403937Y228740D02*
X403544Y229133D01*
Y229920D01*
X403937Y230314D01*
X405512D01*
X405905Y229920D01*
Y229133D01*
X405512Y228740D01*
X405905Y226378D02*
Y227953D01*
X404331Y226378D01*
X403937D01*
X403544Y226772D01*
Y227559D01*
X403937Y227953D01*
X405905Y224410D02*
X403544D01*
X404724Y225591D01*
Y224017D01*
X403937Y220472D02*
X403544Y220866D01*
Y221653D01*
X403937Y222046D01*
X405512D01*
X405905Y221653D01*
Y220866D01*
X405512Y220472D01*
X405905Y218110D02*
Y219685D01*
X404331Y218110D01*
X403937D01*
X403544Y218504D01*
Y219291D01*
X403937Y219685D01*
Y217323D02*
X403544Y216930D01*
Y216143D01*
X403937Y215749D01*
X404331D01*
X404724Y216143D01*
Y216536D01*
Y216143D01*
X405118Y215749D01*
X405512D01*
X405905Y216143D01*
Y216930D01*
X405512Y217323D01*
X443307Y243307D02*
X442914Y243700D01*
Y244487D01*
X443307Y244881D01*
X444882D01*
X445275Y244487D01*
Y243700D01*
X444882Y243307D01*
X445275Y240945D02*
Y242519D01*
X443701Y240945D01*
X443307D01*
X442914Y241339D01*
Y242126D01*
X443307Y242519D01*
X445275Y238584D02*
Y240158D01*
X443701Y238584D01*
X443307D01*
X442914Y238977D01*
Y239764D01*
X443307Y240158D01*
X417028Y236614D02*
X416634Y237007D01*
Y237794D01*
X417028Y238188D01*
X418602D01*
X418996Y237794D01*
Y237007D01*
X418602Y236614D01*
X418996Y234252D02*
Y235827D01*
X417421Y234252D01*
X417028D01*
X416634Y234646D01*
Y235433D01*
X417028Y235827D01*
X418996Y233465D02*
Y232678D01*
Y233072D01*
X416634D01*
X417028Y233465D01*
X324433Y235389D02*
X324433Y235946D01*
X324990Y236502D01*
X325546D01*
X326660Y235389D01*
Y234832D01*
X326103Y234276D01*
X325546D01*
X325268Y233441D02*
X324711Y232884D01*
X324990Y233162D01*
X323320Y234832D01*
X323877D01*
X321094Y232606D02*
X321929Y232884D01*
X323042Y232884D01*
X323598Y232328D01*
Y231771D01*
X323042Y231214D01*
X322485D01*
X322207Y231493D01*
Y232049D01*
X323042Y232884D01*
X395079Y222047D02*
X394686Y221654D01*
X393899D01*
X393505Y222047D01*
Y223622D01*
X393899Y224015D01*
X394686D01*
X395079Y223622D01*
X395866Y224015D02*
X396654D01*
X396260D01*
Y221654D01*
X395866Y222047D01*
X397834D02*
X398228Y221654D01*
X399015D01*
X399409Y222047D01*
Y222441D01*
X399015Y222835D01*
X398621D01*
X399015D01*
X399409Y223228D01*
Y223622D01*
X399015Y224015D01*
X398228D01*
X397834Y223622D01*
X400000Y238779D02*
X399607Y239173D01*
Y239960D01*
X400000Y240353D01*
X401575D01*
X401968Y239960D01*
Y239173D01*
X401575Y238779D01*
X401968Y237992D02*
Y237205D01*
Y237598D01*
X399607D01*
X400000Y237992D01*
X401968Y234450D02*
Y236024D01*
X400394Y234450D01*
X400000D01*
X399607Y234843D01*
Y235630D01*
X400000Y236024D01*
X324131Y269339D02*
X324131Y269895D01*
X324688Y270452D01*
X325244D01*
X326358Y269339D01*
Y268782D01*
X325801Y268226D01*
X325244D01*
X323574Y268782D02*
X323018D01*
X322461Y268226D01*
X322461Y267669D01*
X322740Y267391D01*
X323296D01*
Y266834D01*
X323574Y266556D01*
X324131D01*
X324688Y267112D01*
Y267669D01*
X324409Y267947D01*
X323853D01*
Y268504D01*
X323574Y268782D01*
X323853Y267947D02*
X323296Y267391D01*
X302576Y249654D02*
X302576Y250210D01*
X303133Y250767D01*
X303689D01*
X304802Y249654D01*
Y249097D01*
X304246Y248541D01*
X303689D01*
X301741Y249376D02*
X300628Y248262D01*
X300906Y247984D01*
X303133D01*
X303411Y247706D01*
X297081Y267486D02*
X297081Y268042D01*
X297638Y268599D01*
X298194D01*
X299308Y267486D01*
Y266929D01*
X298751Y266372D01*
X298194D01*
X297916Y265538D02*
X297359Y264981D01*
X297638Y265259D01*
X295968Y266929D01*
X296525D01*
D11*
X418110Y223031D02*
X422638Y223031D01*
X409449D02*
X413976Y223031D01*
X409449Y231102D02*
X413976Y231102D01*
X418110D02*
X422638Y231102D01*
Y223031D02*
Y231102D01*
X409449Y223031D02*
Y231102D01*
X418110Y214961D02*
X422638D01*
X409449Y214961D02*
X413976Y214961D01*
X409449Y223031D02*
X413976D01*
X418110D02*
X422638D01*
Y214961D02*
Y223031D01*
X409449Y214961D02*
X409449Y223031D01*
X436319Y217421D02*
Y223721D01*
Y229232D02*
X436319Y235531D01*
X446555Y217421D02*
Y223721D01*
Y229232D02*
Y235531D01*
X436319D02*
X446555D01*
X436319Y217421D02*
X446555D01*
X430905Y218012D02*
X444095Y218012D01*
X430905Y209941D02*
X444095Y209941D01*
X430905Y209941D02*
Y218012D01*
X444095Y209941D02*
Y218012D01*
D12*
X387763Y225644D02*
X393274Y225644D01*
X387763Y237746D02*
X393274D01*
X423882Y231165D02*
Y234315D01*
X435693D01*
X423882Y231165D02*
X435693D01*
X435693Y234315D01*
D13*
X383719Y224561D02*
Y225086D01*
X383194D01*
Y224561D01*
X383719D01*
X378740Y273228D02*
Y273753D01*
X378215D01*
Y273228D01*
X378740D01*
X422342Y240551D02*
X421818D01*
Y240026D01*
X422342D01*
Y240551D01*
D61*
X376378Y259795D02*
Y271173D01*
X372480Y259795D02*
X376378D01*
X372441Y259835D02*
X372480Y259795D01*
X372441Y259835D02*
Y271843D01*
X376339D01*
X376378Y271803D01*
Y271134D02*
Y271803D01*
M02*
