M48
;Layer_Color=9474304
;FILE_FORMAT=2:4
INCH,TZ
;TYPE=PLATED
T1F00S00C0.0118
T2F00S00C0.0157
T3F00S00C0.0197
%
T01
X47640Y31024
X48791Y30518
Y30239
Y29960
X49079
Y30239
Y30518
X49368
Y30239
Y29960
X49657
Y30239
Y30518
X51097Y30436
Y30157
Y29878
Y29599
X51385Y29599
Y29878
Y30157
Y30436
X51674Y30436
Y30157
X51674Y29878
X51674Y29599
X52462Y28547
Y28268
X52462Y27989
X53072
X53072Y28268
Y28547
X54006Y29518
X54685Y29931
X50857Y31013
X45960Y30528
Y30249
Y29970
X45672
Y30249
Y30528
X45353Y30515
Y30236
Y29957
X45022Y29960
Y30239
Y30518
X43795Y30755
Y31038
X43504
Y30755
X42408Y30518
Y30239
Y29960
X42119
Y30239
Y30518
X41831
Y30239
Y29960
X41542
Y30239
Y30518
X39129
Y30239
Y29960
X38841
Y30239
Y30518
X38552
Y30239
Y29960
X38263
Y30239
Y30518
X36747Y30588
Y30867
X36459
Y30588
Y30309
Y30030
X36170
Y30309
Y30588
Y30867
X36747Y30309
Y30030
X36762Y31286
X36742Y32264
Y32543
Y32822
Y33100
X36453
Y32822
Y32543
Y32264
X36165
Y32543
Y32822
Y33100
X37205Y33959
X37412Y34923
X37417Y35155
X37169Y35722
X36848Y35724
X36848Y36182
X37166Y36185
X37620Y36722
X37852Y36717
X38287Y37559
X36299Y38100
X38258Y34793
X38543
X39508Y34596
X39754Y34606
X40112Y33986
X39004Y33974
X39083Y32681
Y32402
Y32123
X38794
Y32402
Y32681
X38506
Y32402
Y32123
X38217
Y32402
Y32681
X37520Y31654
X40059Y31663
X39774Y31301
X41532Y32123
Y32402
Y32681
X41821
Y32402
Y32123
X42109
Y32402
Y32681
X42398
Y32402
Y32123
X43504Y31604
Y31321
X43795
Y31604
X43802Y32903
Y33185
Y33468
Y33750
X43513
Y33468
Y33185
Y32903
X45025Y32681
Y32402
Y32123
X45356Y32120
Y32399
Y32678
X45675Y32691
Y32412
Y32133
X45964
Y32412
Y32691
X46541Y33965
X46427Y36614
X45532Y36220
X42677Y36378
X41567Y36066
X41327Y36064
X40345Y36349
X42230Y33986
X46934Y35287
X47171Y35279
X47608Y34941
X47894
X49104Y34783
X49114Y34557
X49544Y33961
X48330Y33957
X47626Y33151
X48792Y32681
Y32402
Y32123
X49081
Y32402
Y32681
X49369
Y32402
Y32123
X49658
Y32402
Y32681
X51087Y32542
Y32263
Y31984
Y31705
X51376
X51376Y31984
Y32263
Y32542
X51664
Y32263
Y31984
Y31705
X50842Y33148
X51340Y33974
X50899Y35518
X50696Y35516
X50737Y36873
X51256Y36467
X51504Y36466
X53976Y35413
X53920Y33906
X54209Y33467
X52795Y33199
X54419Y37746
X47596Y37535
X47318Y36888
X47070Y36889
T02
X48102Y27874
Y28263
Y28652
X48515
X48928
X49342
Y28263
Y27874
X48928
X48515
X50464
Y28263
Y28652
X50877
X51290
X51704
Y28263
Y27874
X51290
X50877
X44617
Y28263
Y28652
X44204
X43791
X43377
Y28263
Y27874
X43791
X44204
X39893
Y28263
Y28652
X39479
X39066
X38653
Y28263
Y27874
X39066
X39479
X37531
Y28263
Y28652
X37117
X36704
X36291
Y28263
Y27874
X36704
X37117
T03
X48722Y28268
X51084
X45572
X45572Y27874
Y28661
X43997Y28268
X42422
X42422Y27874
Y28661
X39273Y28268
X36911
M30
