G04*
G04 #@! TF.GenerationSoftware,Altium Limited,Altium Designer,22.5.1 (42)*
G04*
G04 Layer_Physical_Order=1*
G04 Layer_Color=255*
%FSLAX25Y25*%
%MOIN*%
G70*
G04*
G04 #@! TF.SameCoordinates,4CCF3D7E-3C4F-46BB-889F-021E08990E68*
G04*
G04*
G04 #@! TF.FilePolarity,Positive*
G04*
G01*
G75*
%ADD12C,0.01000*%
%ADD33C,0.03150*%
%ADD34R,0.07874X0.03937*%
%ADD35R,0.23622X0.20472*%
%ADD36R,0.18898X0.18898*%
%ADD37R,0.22441X0.07087*%
%ADD38R,0.01575X0.02362*%
%ADD39R,0.02756X0.03937*%
%ADD40C,0.01181*%
%ADD41R,0.02953X0.06693*%
%ADD42R,0.03543X0.06299*%
%ADD43R,0.19685X0.08661*%
%ADD44R,0.07874X0.08661*%
%ADD45R,0.04724X0.08661*%
%ADD46C,0.05906*%
%ADD47C,0.07874*%
%ADD48C,0.04724*%
%ADD49C,0.04921*%
%ADD50C,0.12598*%
%ADD51C,0.06299*%
%ADD52C,0.02362*%
G36*
X336417Y500974D02*
Y500743D01*
X336327Y500288D01*
X336150Y499860D01*
X335892Y499475D01*
X335728Y499311D01*
X335366Y498948D01*
Y498948D01*
X335101Y498683D01*
X334478Y498267D01*
X333786Y497981D01*
X333052Y497835D01*
X308700D01*
X308375Y497899D01*
X308069Y498026D01*
X307794Y498210D01*
X307677Y498327D01*
X307326Y498678D01*
X306774Y499503D01*
X306395Y500421D01*
X306201Y501395D01*
Y501891D01*
Y507677D01*
X336417D01*
Y500974D01*
D02*
G37*
G36*
X367107Y469603D02*
X366795Y469395D01*
X366000Y469066D01*
X365156Y468898D01*
X353748D01*
X352764Y468898D01*
X350832Y469282D01*
X349012Y470036D01*
X347374Y471130D01*
X346677Y471827D01*
X341339Y477165D01*
X341339Y477165D01*
X340899Y477564D01*
X339913Y478223D01*
X338817Y478677D01*
X337654Y478908D01*
X337061Y478937D01*
X161623Y478937D01*
X161622Y478937D01*
X160642Y478889D01*
X158720Y478506D01*
X156909Y477756D01*
X155279Y476667D01*
X154551Y476008D01*
X148917Y470374D01*
X148917Y470374D01*
X148332Y469789D01*
X146956Y468869D01*
X145427Y468236D01*
X143804Y467913D01*
X142977Y467913D01*
X100216D01*
Y491732D01*
Y507658D01*
X305197D01*
Y501891D01*
Y501395D01*
X305217Y501298D01*
Y501199D01*
X305410Y500225D01*
X305448Y500134D01*
X305467Y500037D01*
X305847Y499119D01*
X305902Y499037D01*
X305940Y498946D01*
X306492Y498120D01*
X306562Y498050D01*
X306616Y497968D01*
X306967Y497617D01*
X306967Y497617D01*
X307084Y497500D01*
X307167Y497445D01*
X307237Y497375D01*
X307512Y497191D01*
X307603Y497154D01*
X307685Y497099D01*
X307991Y496972D01*
X308088Y496953D01*
X308179Y496915D01*
X308504Y496850D01*
X308603D01*
X308700Y496831D01*
X333052D01*
X333149Y496850D01*
X333247D01*
X333982Y496996D01*
X334073Y497034D01*
X334170Y497054D01*
X334862Y497340D01*
X334944Y497395D01*
X335036Y497433D01*
X335658Y497849D01*
X335728Y497919D01*
X335810Y497974D01*
X336075Y498239D01*
X336075Y498239D01*
X336438Y498601D01*
Y498601D01*
X336438Y498601D01*
X336602Y498765D01*
X336657Y498847D01*
X336727Y498917D01*
X336984Y499303D01*
X337022Y499394D01*
X337077Y499476D01*
X337254Y499904D01*
X337273Y500001D01*
X337311Y500092D01*
X337402Y500547D01*
Y500646D01*
X337421Y500743D01*
Y500974D01*
Y507658D01*
X367107D01*
Y469603D01*
D02*
G37*
G36*
X339400Y476663D02*
X340379Y476258D01*
X341259Y475670D01*
X341634Y475295D01*
X346087Y470842D01*
X346087Y470842D01*
Y470842D01*
X346814Y470183D01*
X348444Y469094D01*
X350255Y468344D01*
X352178Y467962D01*
X352374Y467952D01*
X352568Y467913D01*
X352667D01*
X352764Y467894D01*
X353748Y467894D01*
X365156D01*
X365253Y467913D01*
X366987D01*
X367096Y467487D01*
X367107Y467427D01*
Y361614D01*
X334752D01*
X334752Y361614D01*
X333772Y361566D01*
X331850Y361184D01*
X330038Y360433D01*
X328408Y359344D01*
X327681Y358685D01*
X326354Y357358D01*
X325695Y356631D01*
X324606Y355001D01*
X323856Y353190D01*
X323809Y352953D01*
X323425D01*
Y350288D01*
X323425Y350287D01*
Y342047D01*
X302625D01*
X302273Y342402D01*
X302291Y343980D01*
X302289Y343988D01*
X302291Y343996D01*
X302291Y389952D01*
X302291Y390937D01*
X302264Y391073D01*
Y391211D01*
X301880Y393143D01*
X301827Y393271D01*
X301800Y393407D01*
X301046Y395227D01*
X300969Y395342D01*
X300916Y395470D01*
X299821Y397108D01*
X299724Y397205D01*
X299647Y397320D01*
X298950Y398017D01*
X298950Y398017D01*
X298950Y398017D01*
X296171Y400797D01*
X295820Y401148D01*
X295705Y401225D01*
X295607Y401322D01*
X294781Y401874D01*
X294653Y401927D01*
X294538Y402004D01*
X293621Y402384D01*
X293485Y402411D01*
X293357Y402464D01*
X292383Y402658D01*
X292245D01*
X292109Y402684D01*
X291613Y402684D01*
X291613Y402684D01*
X264737Y402684D01*
X264439Y402684D01*
X264303Y402658D01*
X264165D01*
X263581Y402541D01*
X263453Y402488D01*
X263317Y402461D01*
X262767Y402233D01*
X262652Y402156D01*
X262524Y402104D01*
X262029Y401772D01*
X261931Y401675D01*
X261816Y401598D01*
X261605Y401387D01*
X261488Y401270D01*
X261411Y401155D01*
X261313Y401057D01*
X261129Y400782D01*
X261076Y400654D01*
X260999Y400539D01*
X260873Y400233D01*
X260846Y400097D01*
X260793Y399969D01*
X260790Y399954D01*
X260790Y399906D01*
X260774Y399861D01*
X260713Y399386D01*
X260716Y399345D01*
X260705Y399305D01*
X260711Y399255D01*
X260701Y399206D01*
Y360444D01*
Y359716D01*
X260728Y359580D01*
Y359442D01*
X261012Y358014D01*
X261065Y357886D01*
X261092Y357750D01*
X261650Y356405D01*
X261727Y356290D01*
X261779Y356162D01*
X262589Y354951D01*
X262686Y354853D01*
X262763Y354738D01*
X263254Y354248D01*
X263515Y353959D01*
X263966Y353284D01*
X264264Y352566D01*
X264422Y351769D01*
X264441Y351380D01*
Y342587D01*
X264186Y342142D01*
X263711D01*
X263710Y342142D01*
X263709Y342141D01*
X263708Y342142D01*
X253700Y342119D01*
X253346Y342472D01*
Y353346D01*
X230906D01*
Y342068D01*
X222409Y342049D01*
X220866Y342049D01*
X220859Y342048D01*
X220852Y342049D01*
X220389Y342043D01*
X220262Y342016D01*
X220132Y342006D01*
X219240Y341756D01*
X219124Y341697D01*
X219002Y341654D01*
X218539Y341381D01*
X218039Y341666D01*
X218039Y384047D01*
X218039Y384047D01*
X218039Y385032D01*
X218012Y385168D01*
Y385306D01*
X217628Y387238D01*
X217575Y387366D01*
X217548Y387501D01*
X216794Y389321D01*
X216717Y389436D01*
X216664Y389564D01*
X215569Y391202D01*
X215472Y391300D01*
X215395Y391415D01*
X214698Y392111D01*
X208745Y398064D01*
X208745Y398065D01*
X208049Y398761D01*
X207934Y398838D01*
X207836Y398936D01*
X206198Y400030D01*
X206070Y400083D01*
X205955Y400160D01*
X204135Y400914D01*
X203999Y400941D01*
X203872Y400994D01*
X201940Y401378D01*
X201801D01*
X201666Y401405D01*
X200681Y401405D01*
X169291Y401405D01*
X169291Y401405D01*
X169010D01*
X168875Y401378D01*
X168736D01*
X168185Y401268D01*
X168058Y401215D01*
X167922Y401188D01*
X167403Y400974D01*
X167288Y400897D01*
X167160Y400844D01*
X166693Y400532D01*
X166595Y400434D01*
X166480Y400357D01*
X166282Y400158D01*
X166231Y400108D01*
X166231Y400108D01*
X166231Y400108D01*
X166114Y399991D01*
X166037Y399875D01*
X165939Y399778D01*
X165755Y399502D01*
X165702Y399375D01*
X165626Y399260D01*
X165499Y398954D01*
X165472Y398818D01*
X165419Y398690D01*
X165354Y398366D01*
Y398227D01*
X165327Y398092D01*
X165327Y397926D01*
Y372347D01*
Y371784D01*
X165354Y371648D01*
Y371510D01*
X165574Y370406D01*
X165627Y370278D01*
X165654Y370143D01*
X166084Y369103D01*
X166161Y368988D01*
X166214Y368860D01*
X166840Y367924D01*
X166937Y367827D01*
X167014Y367711D01*
X167412Y367314D01*
X167833Y366892D01*
X167948Y366815D01*
X168046Y366718D01*
X169037Y366056D01*
X169165Y366003D01*
X169280Y365926D01*
X170381Y365470D01*
X170516Y365443D01*
X170644Y365390D01*
X171813Y365158D01*
X171951D01*
X172087Y365130D01*
X173784D01*
X174112Y365114D01*
X174789Y364980D01*
X175394Y364729D01*
X175967Y364346D01*
X176210Y364126D01*
X179222Y361114D01*
X179789Y360489D01*
X180743Y359060D01*
X181388Y357504D01*
X181723Y355819D01*
X181764Y354977D01*
X181764Y342152D01*
X181759Y342146D01*
X181326Y341794D01*
X163679Y341754D01*
X163666Y341752D01*
X163653Y341754D01*
X160945Y341678D01*
X160503Y341685D01*
X160373Y341661D01*
X160241Y341654D01*
X159341Y341427D01*
X159221Y341370D01*
X159096Y341329D01*
X158286Y340875D01*
X158185Y340789D01*
X158075Y340717D01*
X157410Y340068D01*
X157336Y339959D01*
X157248Y339861D01*
X156775Y339061D01*
X156731Y338937D01*
X156672Y338819D01*
X156423Y337924D01*
X156414Y337792D01*
X156387Y337663D01*
X156380Y336734D01*
X156405Y336604D01*
X156412Y336473D01*
X156647Y335574D01*
X156705Y335455D01*
X156746Y335330D01*
X157207Y334523D01*
X157293Y334423D01*
X157366Y334314D01*
X158021Y333654D01*
X158130Y333580D01*
X158229Y333493D01*
X159032Y333027D01*
X159157Y332984D01*
X159275Y332925D01*
X160172Y332684D01*
X160304Y332675D01*
X160433Y332649D01*
X160898Y332649D01*
X181867D01*
Y327102D01*
X181867Y326507D01*
X181894Y326372D01*
Y326233D01*
X182125Y325067D01*
X182178Y324939D01*
X182205Y324804D01*
X182660Y323706D01*
X182737Y323590D01*
X182790Y323463D01*
X183451Y322474D01*
X183548Y322376D01*
X183625Y322261D01*
X183661Y322226D01*
Y321850D01*
X184036D01*
X184046Y321841D01*
X184501Y321537D01*
X185039Y321430D01*
X209102Y321430D01*
X209863D01*
X209999Y321457D01*
X210137D01*
X211630Y321754D01*
X211758Y321807D01*
X211894Y321834D01*
X213300Y322416D01*
X213416Y322493D01*
X213543Y322546D01*
X214809Y323392D01*
X214907Y323490D01*
X215022Y323567D01*
X216052Y324597D01*
X216129Y324711D01*
X216227Y324809D01*
X216999Y325965D01*
X217052Y326093D01*
X217129Y326208D01*
X217661Y327492D01*
X217688Y327628D01*
X217741Y327756D01*
X218012Y329119D01*
Y329258D01*
X218039Y329393D01*
X218039Y330088D01*
Y333328D01*
X218539Y333613D01*
X219002Y333340D01*
X219124Y333297D01*
X219240Y333238D01*
X220132Y332988D01*
X220262Y332978D01*
X220389Y332951D01*
X220852Y332945D01*
X220859Y332946D01*
X220866Y332944D01*
X230905D01*
Y321850D01*
X253346D01*
Y332944D01*
X263648D01*
X264116Y332937D01*
X264399Y332590D01*
X264441Y332487D01*
Y327356D01*
X264469Y327220D01*
Y327082D01*
X264623Y326303D01*
X264676Y326175D01*
X264703Y326039D01*
X265007Y325305D01*
X265084Y325190D01*
X265137Y325062D01*
X265579Y324402D01*
X265676Y324304D01*
X265753Y324189D01*
X266034Y323908D01*
X266526Y323417D01*
X266641Y323340D01*
X266739Y323242D01*
X267894Y322470D01*
X268022Y322417D01*
X268137Y322340D01*
X269422Y321808D01*
X269557Y321781D01*
X269685Y321728D01*
X271048Y321457D01*
X271187D01*
X271322Y321430D01*
X299212D01*
X299750Y321537D01*
X300206Y321841D01*
X300215Y321850D01*
X300590D01*
Y322242D01*
X300634Y322307D01*
X300732Y322405D01*
X301283Y323231D01*
X301336Y323359D01*
X301413Y323474D01*
X301793Y324391D01*
X301820Y324527D01*
X301873Y324655D01*
X302067Y325629D01*
Y325767D01*
X302094Y325903D01*
X302094Y326390D01*
X302163Y332582D01*
X302185Y332608D01*
X302601Y332953D01*
X323425Y332953D01*
Y322637D01*
X323425Y322637D01*
X323420Y322193D01*
X323242Y321323D01*
X322903Y320503D01*
X322413Y319762D01*
X322103Y319445D01*
X321039Y318382D01*
X320343Y317685D01*
X319244Y316951D01*
X297294D01*
X297016Y317367D01*
X297146Y317680D01*
Y318541D01*
X296816Y319337D01*
X296207Y319946D01*
X295411Y320276D01*
X294550D01*
X293754Y319946D01*
X293145Y319337D01*
X292815Y318541D01*
Y317680D01*
X292944Y317367D01*
X292667Y316951D01*
X282825D01*
X282548Y317367D01*
X282677Y317680D01*
Y318541D01*
X282347Y319337D01*
X281738Y319946D01*
X280943Y320276D01*
X280081D01*
X279285Y319946D01*
X278676Y319337D01*
X278346Y318541D01*
Y317680D01*
X278476Y317367D01*
X278198Y316951D01*
X267975D01*
X267878Y317187D01*
X267811Y317451D01*
X268133Y318008D01*
X268307Y318659D01*
Y319333D01*
X268133Y319984D01*
X267796Y320567D01*
X267319Y321044D01*
X266736Y321381D01*
X266085Y321555D01*
X265411D01*
X264760Y321381D01*
X264177Y321044D01*
X263700Y320567D01*
X263363Y319984D01*
X263189Y319333D01*
Y318659D01*
X263363Y318008D01*
X263685Y317451D01*
X263618Y317187D01*
X263521Y316951D01*
X176083D01*
X175415Y316863D01*
X174792Y316605D01*
X174258Y316195D01*
X166384Y308321D01*
X165973Y307787D01*
X165716Y307164D01*
X165628Y306496D01*
Y304457D01*
X164631Y303473D01*
X164557Y303383D01*
X164403Y303206D01*
X164245Y303032D01*
X164083Y302863D01*
X161393Y300173D01*
X160734Y299446D01*
X159645Y297816D01*
X158895Y296005D01*
X158513Y294082D01*
X158465Y293102D01*
X158465Y280790D01*
X108559D01*
X108260Y280829D01*
X106581D01*
X104648Y282762D01*
Y326055D01*
X105148Y326154D01*
X105559Y325163D01*
X106399Y323905D01*
X107468Y322836D01*
X108726Y321996D01*
X110123Y321417D01*
X111606Y321122D01*
X113118D01*
X114602Y321417D01*
X115999Y321996D01*
X117256Y322836D01*
X118325Y323905D01*
X119166Y325163D01*
X119744Y326560D01*
X120039Y328043D01*
Y329555D01*
X119744Y331039D01*
X119166Y332436D01*
X118325Y333693D01*
X117256Y334763D01*
X115999Y335603D01*
X114602Y336181D01*
X113118Y336476D01*
X111606D01*
X110123Y336181D01*
X108726Y335603D01*
X107468Y334763D01*
X106399Y333693D01*
X105559Y332436D01*
X105148Y331444D01*
X104648Y331543D01*
Y349165D01*
X105148Y349265D01*
X105559Y348273D01*
X106399Y347016D01*
X107468Y345946D01*
X108726Y345106D01*
X110123Y344527D01*
X111606Y344232D01*
X113118D01*
X114602Y344527D01*
X115999Y345106D01*
X117256Y345946D01*
X118325Y347016D01*
X119166Y348273D01*
X119744Y349670D01*
X120039Y351153D01*
Y352666D01*
X119744Y354149D01*
X119166Y355546D01*
X118325Y356803D01*
X117256Y357873D01*
X115999Y358713D01*
X114602Y359292D01*
X113118Y359587D01*
X111606D01*
X110123Y359292D01*
X108726Y358713D01*
X107468Y357873D01*
X106399Y356803D01*
X105559Y355546D01*
X105148Y354554D01*
X104648Y354654D01*
Y361333D01*
X107762Y364446D01*
X121949D01*
Y362205D01*
X146358D01*
Y371260D01*
X140876D01*
X140668Y371760D01*
X140812Y371903D01*
X141142Y372699D01*
Y373561D01*
X140812Y374357D01*
X140203Y374966D01*
X139407Y375295D01*
X138546D01*
X137750Y374966D01*
X137303Y374519D01*
X136856Y374966D01*
X136061Y375295D01*
X135199D01*
X134403Y374966D01*
X134006Y374568D01*
X133510Y375064D01*
X132714Y375394D01*
X131853D01*
X131057Y375064D01*
X130448Y374455D01*
X130118Y373659D01*
Y372798D01*
X130448Y372002D01*
X130690Y371760D01*
X130483Y371260D01*
X128912D01*
X128670Y371760D01*
X128937Y372404D01*
Y373265D01*
X128607Y374061D01*
X127998Y374670D01*
X127202Y375000D01*
X126341D01*
X125545Y374670D01*
X125443Y374568D01*
X125341Y374670D01*
X124545Y375000D01*
X123684D01*
X122888Y374670D01*
X122278Y374061D01*
X121949Y373265D01*
Y372404D01*
X122216Y371760D01*
X121973Y371260D01*
X121949D01*
Y369609D01*
X106693D01*
X106025Y369521D01*
X105402Y369263D01*
X104868Y368853D01*
X100716Y364701D01*
X100216Y364908D01*
Y466062D01*
X100337Y466184D01*
X100668Y466404D01*
X101034Y466556D01*
X101424Y466634D01*
X101622Y466634D01*
X143124Y466634D01*
X143594Y466634D01*
X143594Y466634D01*
X143594Y466634D01*
X144574Y466682D01*
X146497Y467064D01*
X148308Y467815D01*
X149938Y468904D01*
X150665Y469563D01*
X157207Y476104D01*
X157207Y476104D01*
Y476104D01*
X157579Y476413D01*
X157817Y476573D01*
X158293Y476770D01*
X158798Y476870D01*
X159055Y476870D01*
X337832Y476870D01*
X337832Y476870D01*
X337832Y476870D01*
X338362Y476870D01*
X339400Y476663D01*
D02*
G37*
G36*
X293083Y401086D02*
X294001Y400706D01*
X294826Y400154D01*
X295177Y399803D01*
X297957Y397023D01*
X297957Y397023D01*
X298653Y396327D01*
X299748Y394689D01*
X300501Y392869D01*
X300886Y390937D01*
X300886Y389952D01*
X300886Y343996D01*
X300864Y342047D01*
X278937D01*
X278476Y342050D01*
X278346Y342026D01*
X278215Y342018D01*
X277308Y341781D01*
X277189Y341723D01*
X277064Y341682D01*
X276249Y341217D01*
X276150Y341130D01*
X276040Y341058D01*
X275374Y340397D01*
X275301Y340288D01*
X275213Y340189D01*
X274742Y339378D01*
X274700Y339253D01*
X274641Y339135D01*
X274397Y338230D01*
X274389Y338098D01*
X274363Y337969D01*
X274363Y337031D01*
X274389Y336902D01*
X274397Y336770D01*
X274641Y335865D01*
X274700Y335747D01*
X274742Y335622D01*
X275213Y334811D01*
X275301Y334712D01*
X275374Y334603D01*
X276040Y333942D01*
X276150Y333870D01*
X276249Y333783D01*
X277064Y333318D01*
X277189Y333277D01*
X277308Y333219D01*
X278215Y332982D01*
X278346Y332974D01*
X278476Y332950D01*
X278941Y332953D01*
X300407D01*
X300758Y332598D01*
X300689Y326400D01*
X300689Y326400D01*
X300689Y325903D01*
X300495Y324929D01*
X300115Y324011D01*
X299563Y323186D01*
X299212Y322835D01*
X271322D01*
X269959Y323106D01*
X268675Y323638D01*
X267519Y324410D01*
X267028Y324902D01*
X266747Y325182D01*
X266305Y325843D01*
X266001Y326577D01*
X265846Y327356D01*
Y333468D01*
X266374Y333764D01*
X266474Y333849D01*
X266584Y333921D01*
X267265Y334586D01*
X267339Y334695D01*
X267427Y334793D01*
X267911Y335612D01*
X267955Y335737D01*
X268014Y335855D01*
X268269Y336771D01*
X268279Y336903D01*
X268305Y337032D01*
X268313Y337983D01*
X268288Y338113D01*
X268280Y338245D01*
X268040Y339165D01*
X267982Y339284D01*
X267940Y339409D01*
X267469Y340235D01*
X267383Y340335D01*
X267310Y340444D01*
X266640Y341120D01*
X266530Y341193D01*
X266431Y341281D01*
X265846Y341620D01*
Y351415D01*
X265846D01*
X265846Y351415D01*
X265821Y351942D01*
X265615Y352975D01*
X265212Y353949D01*
X264626Y354826D01*
X264272Y355217D01*
X263757Y355731D01*
X262948Y356942D01*
X262390Y358288D01*
X262106Y359716D01*
Y360444D01*
Y399206D01*
X262106Y399206D01*
X262168Y399680D01*
X262171Y399696D01*
X262298Y400001D01*
X262481Y400277D01*
X262598Y400394D01*
X262809Y400604D01*
X263304Y400935D01*
X263855Y401163D01*
X264439Y401279D01*
X264737Y401279D01*
X291613Y401279D01*
X291613Y401279D01*
X291613Y401279D01*
X292109Y401279D01*
X293083Y401086D01*
D02*
G37*
G36*
X127430Y373820D02*
X127757Y373493D01*
X127933Y373066D01*
Y372604D01*
X127743Y372144D01*
X127737Y372115D01*
X127722Y372089D01*
X127699Y371924D01*
X127667Y371760D01*
X127459Y371588D01*
X127215Y371457D01*
X123670D01*
X123426Y371588D01*
X123219Y371760D01*
X123187Y371924D01*
X123164Y372089D01*
X123149Y372115D01*
X123143Y372144D01*
X123130Y372175D01*
Y373494D01*
X123456Y373820D01*
X123883Y373996D01*
X124345D01*
X124823Y373798D01*
X125059Y373641D01*
X125443Y373565D01*
X125827Y373641D01*
X126063Y373798D01*
X126541Y373996D01*
X127003D01*
X127430Y373820D01*
D02*
G37*
G36*
X132942Y374213D02*
X133296Y373859D01*
X133296Y373859D01*
X133622Y373641D01*
X134006Y373565D01*
X134390Y373641D01*
X134715Y373859D01*
X134972Y374115D01*
X135399Y374292D01*
X135861D01*
X136288Y374115D01*
X136593Y373809D01*
X136919Y373592D01*
X137303Y373516D01*
X137687Y373592D01*
X138013Y373809D01*
X138318Y374115D01*
X138745Y374292D01*
X139207D01*
X139634Y374115D01*
X139961Y373788D01*
X140138Y373361D01*
Y372899D01*
X139961Y372472D01*
X139959Y372469D01*
X139741Y372144D01*
X139665Y371760D01*
X139312Y371457D01*
X131942D01*
X131693Y371760D01*
X131617Y372144D01*
X131399Y372469D01*
X131299Y372570D01*
X131122Y372997D01*
Y373460D01*
X131299Y373886D01*
X131625Y374213D01*
X132052Y374390D01*
X132515D01*
X132942Y374213D01*
D02*
G37*
G36*
X341275Y360522D02*
X341161Y359845D01*
X341089Y359797D01*
X341089Y359797D01*
X337841Y356549D01*
X337493Y356028D01*
X337371Y355413D01*
X337371Y355413D01*
Y352953D01*
X329528D01*
Y342323D01*
X329142Y342047D01*
X324429D01*
Y350287D01*
X324429Y350287D01*
X324429Y350288D01*
Y352181D01*
X324436Y352188D01*
X324518Y352243D01*
X324573Y352325D01*
X324643Y352395D01*
X324681Y352486D01*
X324736Y352569D01*
X324755Y352666D01*
X324793Y352757D01*
X324821Y352897D01*
X325495Y354526D01*
X326488Y356012D01*
X326528Y356056D01*
X328984Y358511D01*
X329028Y358551D01*
X330514Y359544D01*
X332142Y360219D01*
X333895Y360567D01*
X334777Y360611D01*
X341208D01*
X341275Y360522D01*
D02*
G37*
G36*
X200681Y400000D02*
X201666Y400000D01*
X203598Y399616D01*
X205417Y398862D01*
X207055Y397767D01*
X207752Y397071D01*
X207752Y397071D01*
X213705Y391118D01*
X214401Y390422D01*
X215496Y388784D01*
X216249Y386964D01*
X216634Y385032D01*
X216634Y384047D01*
X216634D01*
X216634Y384047D01*
X216634Y339112D01*
X216396Y338217D01*
X216388Y338088D01*
X216363Y337960D01*
X216363Y337034D01*
X216388Y336906D01*
X216396Y336776D01*
X216634Y335882D01*
Y330088D01*
X216634Y329393D01*
X216363Y328030D01*
X215831Y326746D01*
X215058Y325590D01*
X214029Y324560D01*
X212763Y323714D01*
X211356Y323132D01*
X209863Y322835D01*
X209102D01*
X185039Y322835D01*
X184619Y323255D01*
X183958Y324243D01*
X183503Y325341D01*
X183272Y326507D01*
X183272Y327102D01*
Y332649D01*
X206102D01*
X206124Y332653D01*
X206145Y332650D01*
X206455Y332663D01*
X206901Y332657D01*
X207030Y332680D01*
X207162Y332687D01*
X208083Y332920D01*
X208202Y332977D01*
X208327Y333017D01*
X209156Y333482D01*
X209256Y333568D01*
X209367Y333640D01*
X210046Y334303D01*
X210121Y334412D01*
X210209Y334511D01*
X210692Y335328D01*
X210736Y335453D01*
X210795Y335571D01*
X211049Y336486D01*
X211059Y336617D01*
X211086Y336747D01*
X211093Y337696D01*
X211068Y337826D01*
X211060Y337958D01*
X210820Y338877D01*
X210763Y338995D01*
X210721Y339120D01*
X210250Y339946D01*
X210164Y340045D01*
X210091Y340155D01*
X209422Y340829D01*
X209313Y340903D01*
X209214Y340990D01*
X208392Y341467D01*
X208267Y341510D01*
X208149Y341568D01*
X207232Y341815D01*
X207100Y341824D01*
X206971Y341850D01*
X206496D01*
X206495Y341850D01*
X206494Y341850D01*
X183523Y341799D01*
X183169Y342152D01*
X183169Y355011D01*
X183121Y355992D01*
X182739Y357914D01*
X181989Y359725D01*
X180899Y361355D01*
X180240Y362083D01*
X180240Y362083D01*
X177179Y365143D01*
X176834Y365457D01*
X176059Y365974D01*
X175198Y366331D01*
X174285Y366512D01*
X173819Y366535D01*
X173819Y366535D01*
X173819Y366535D01*
X172087D01*
X170918Y366768D01*
X169817Y367224D01*
X168827Y367886D01*
X168405Y368307D01*
X168008Y368705D01*
X167382Y369641D01*
X166952Y370680D01*
X166732Y371784D01*
Y372347D01*
Y397926D01*
X166732Y398092D01*
X166797Y398416D01*
X166923Y398722D01*
X167107Y398997D01*
X167224Y399114D01*
X167275Y399165D01*
X167474Y399363D01*
X167941Y399675D01*
X168460Y399890D01*
X169010Y400000D01*
X169291D01*
X169291Y400000D01*
X200681Y400000D01*
D02*
G37*
G36*
X329528Y332453D02*
Y322628D01*
Y322125D01*
X330293D01*
Y320360D01*
X326884Y316951D01*
X321735D01*
X321528Y317451D01*
X321749Y317672D01*
X321749Y317672D01*
X322812Y318736D01*
X322815Y318740D01*
X322820Y318743D01*
X323130Y319060D01*
X323183Y319141D01*
X323251Y319209D01*
X323740Y319950D01*
X323776Y320039D01*
X323830Y320119D01*
X324169Y320939D01*
X324188Y321033D01*
X324226Y321122D01*
X324404Y321992D01*
X324404Y322088D01*
X324424Y322182D01*
X324429Y322626D01*
X324428Y322631D01*
X324429Y322637D01*
Y332953D01*
X329110D01*
X329528Y332453D01*
D02*
G37*
G36*
X361190Y351697D02*
Y326354D01*
X345496Y310661D01*
X335534D01*
X335342Y311123D01*
X340112Y315892D01*
X340460Y316413D01*
X340582Y317028D01*
X340582Y317028D01*
Y322125D01*
X354528D01*
Y332450D01*
X354756Y332875D01*
X354938Y332971D01*
X355056Y332977D01*
X355965Y333207D01*
X356084Y333263D01*
X356209Y333304D01*
X357027Y333762D01*
X357128Y333848D01*
X357238Y333920D01*
X357909Y334575D01*
X357983Y334684D01*
X358071Y334782D01*
X358548Y335590D01*
X358592Y335714D01*
X358651Y335832D01*
X358902Y336735D01*
X358912Y336867D01*
X358939Y336996D01*
X358946Y337933D01*
X358921Y338063D01*
X358913Y338194D01*
X358676Y339102D01*
X358619Y339220D01*
X358577Y339345D01*
X358113Y340160D01*
X358026Y340259D01*
X357953Y340369D01*
X357293Y341035D01*
X357183Y341108D01*
X357084Y341196D01*
X356274Y341667D01*
X356149Y341709D01*
X356031Y341768D01*
X355125Y342011D01*
X354994Y342020D01*
X354909Y342037D01*
X354831Y342096D01*
X354528Y342546D01*
Y352953D01*
X340582D01*
Y354748D01*
X342889Y357056D01*
X355831D01*
X361190Y351697D01*
D02*
G37*
G36*
X367107Y276594D02*
X337971D01*
X337610Y277094D01*
X337697Y277419D01*
Y278093D01*
X337522Y278744D01*
X337186Y279327D01*
X336709Y279804D01*
X336126Y280140D01*
X335475Y280315D01*
X334801D01*
X334150Y280140D01*
X334016Y280063D01*
X333881Y280140D01*
X333230Y280315D01*
X332557D01*
X331906Y280140D01*
X331322Y279804D01*
X330846Y279327D01*
X330509Y278744D01*
X330334Y278093D01*
Y277419D01*
X330421Y277094D01*
X330060Y276594D01*
X269539D01*
X269348Y277056D01*
X273299Y281007D01*
X273572Y281080D01*
X277067D01*
Y280709D01*
X281791D01*
Y282677D01*
X281922Y282993D01*
X282010Y283661D01*
X281922Y284330D01*
X281791Y284646D01*
Y286614D01*
X277067D01*
Y286243D01*
X276102D01*
X276070Y286362D01*
X275552Y287260D01*
X274819Y287993D01*
X273921Y288511D01*
X272920Y288780D01*
X271883D01*
X270882Y288511D01*
X269984Y287993D01*
X269251Y287260D01*
X268733Y286362D01*
X268465Y285361D01*
Y284324D01*
X268644Y283653D01*
X265781Y280790D01*
X264256D01*
X264122Y281290D01*
X264819Y281692D01*
X265552Y282425D01*
X266070Y283323D01*
X266339Y284324D01*
Y285361D01*
X266070Y286362D01*
X265552Y287260D01*
X264819Y287993D01*
X263921Y288511D01*
X262920Y288780D01*
X261883D01*
X260882Y288511D01*
X259984Y287993D01*
X259251Y287260D01*
X258733Y286362D01*
X258465Y285361D01*
Y284324D01*
X258733Y283323D01*
X259251Y282425D01*
X259984Y281692D01*
X260681Y281290D01*
X260547Y280790D01*
X168558D01*
X168367Y281252D01*
X170034Y282919D01*
X170444Y283453D01*
X170702Y284076D01*
X170790Y284744D01*
Y293456D01*
X171290Y293663D01*
X171764Y293188D01*
X172527Y292748D01*
X173378Y292520D01*
X174259D01*
X175111Y292748D01*
X175874Y293188D01*
X176497Y293811D01*
X176937Y294574D01*
X177165Y295426D01*
Y296307D01*
X176937Y297158D01*
X176497Y297921D01*
X175874Y298544D01*
X175111Y298985D01*
X174259Y299213D01*
X173378D01*
X172527Y298985D01*
X171764Y298544D01*
X171290Y298070D01*
X170790Y298277D01*
Y301330D01*
X171290Y301537D01*
X171764Y301062D01*
X172527Y300622D01*
X173378Y300394D01*
X174259D01*
X175111Y300622D01*
X175874Y301062D01*
X176497Y301685D01*
X176937Y302449D01*
X177165Y303300D01*
Y304181D01*
X177031Y304682D01*
X181964Y309615D01*
X192518D01*
X192709Y309153D01*
X190508Y306952D01*
X190007Y307087D01*
X189126D01*
X188275Y306859D01*
X187512Y306418D01*
X186889Y305795D01*
X186449Y305032D01*
X186221Y304181D01*
Y303300D01*
X186449Y302449D01*
X186889Y301685D01*
X187512Y301062D01*
X188275Y300622D01*
X189126Y300394D01*
X190007D01*
X190859Y300622D01*
X191622Y301062D01*
X192245Y301685D01*
X192685Y302449D01*
X192913Y303300D01*
Y304181D01*
X192779Y304682D01*
X195547Y307450D01*
X196423D01*
X196489Y306949D01*
X196149Y306859D01*
X195386Y306418D01*
X194763Y305795D01*
X194323Y305032D01*
X194095Y304181D01*
Y303300D01*
X194323Y302449D01*
X194763Y301685D01*
X195386Y301062D01*
X196149Y300622D01*
X197000Y300394D01*
X197881D01*
X198733Y300622D01*
X199496Y301062D01*
X200119Y301685D01*
X200559Y302449D01*
X200787Y303300D01*
Y304181D01*
X200559Y305032D01*
X200119Y305795D01*
X199496Y306418D01*
X198733Y306859D01*
X198393Y306949D01*
X198459Y307450D01*
X204297D01*
X204363Y306949D01*
X204023Y306859D01*
X203260Y306418D01*
X202637Y305795D01*
X202197Y305032D01*
X201969Y304181D01*
Y303300D01*
X202197Y302449D01*
X202637Y301685D01*
X203260Y301062D01*
X204023Y300622D01*
X204874Y300394D01*
X205755D01*
X206359Y300555D01*
X207523Y299392D01*
X207482Y298996D01*
X207011Y298751D01*
X206607Y298985D01*
X205755Y299213D01*
X204874D01*
X204023Y298985D01*
X203260Y298544D01*
X202637Y297921D01*
X202197Y297158D01*
X201969Y296307D01*
Y295426D01*
X202197Y294574D01*
X202637Y293811D01*
X203260Y293188D01*
X204023Y292748D01*
X204874Y292520D01*
X205755D01*
X206607Y292748D01*
X207056Y293007D01*
X207556Y292718D01*
Y291724D01*
X207556Y291724D01*
X207678Y291110D01*
X208026Y290589D01*
X210335Y288280D01*
Y288053D01*
X210664Y287258D01*
X211273Y286649D01*
X212069Y286319D01*
X212931D01*
X213727Y286649D01*
X214336Y287258D01*
X214665Y288053D01*
Y288915D01*
X214336Y289711D01*
X213727Y290320D01*
X212931Y290650D01*
X212507D01*
X210792Y292365D01*
X210798Y292877D01*
X210882Y292955D01*
X211267Y293112D01*
X211897Y292748D01*
X212748Y292520D01*
X213630D01*
X214481Y292748D01*
X215244Y293188D01*
X215867Y293811D01*
X216307Y294574D01*
X216535Y295426D01*
Y296307D01*
X216307Y297158D01*
X215867Y297921D01*
X215244Y298544D01*
X214481Y298985D01*
X213630Y299213D01*
X212748D01*
X211897Y298985D01*
X211175Y298567D01*
X210890Y298645D01*
X210675Y298734D01*
Y299894D01*
X210675Y299894D01*
X210560Y300473D01*
X210231Y300964D01*
X210231Y300964D01*
X208500Y302696D01*
X208661Y303300D01*
Y304181D01*
X208433Y305032D01*
X207993Y305795D01*
X207370Y306418D01*
X206607Y306859D01*
X206267Y306949D01*
X206333Y307450D01*
X212171D01*
X212237Y306949D01*
X211897Y306859D01*
X211134Y306418D01*
X210511Y305795D01*
X210071Y305032D01*
X209842Y304181D01*
Y303300D01*
X210071Y302449D01*
X210511Y301685D01*
X211134Y301062D01*
X211897Y300622D01*
X212748Y300394D01*
X213630D01*
X214481Y300622D01*
X215244Y301062D01*
X215867Y301685D01*
X216307Y302449D01*
X216535Y303300D01*
Y304181D01*
X216307Y305032D01*
X215867Y305795D01*
X215244Y306418D01*
X214481Y306859D01*
X214141Y306949D01*
X214207Y307450D01*
X220045D01*
X220111Y306949D01*
X219771Y306859D01*
X219008Y306418D01*
X218385Y305795D01*
X217945Y305032D01*
X217717Y304181D01*
Y303300D01*
X217945Y302449D01*
X218385Y301685D01*
X219008Y301062D01*
X219771Y300622D01*
X220622Y300394D01*
X221504D01*
X222355Y300622D01*
X223118Y301062D01*
X223741Y301685D01*
X224181Y302449D01*
X224409Y303300D01*
Y304181D01*
X224181Y305032D01*
X223741Y305795D01*
X223118Y306418D01*
X222355Y306859D01*
X222015Y306949D01*
X222081Y307450D01*
X227919D01*
X227985Y306949D01*
X227645Y306859D01*
X226882Y306418D01*
X226259Y305795D01*
X225819Y305032D01*
X225591Y304181D01*
Y303300D01*
X225819Y302449D01*
X226259Y301685D01*
X226882Y301062D01*
X227645Y300622D01*
X228496Y300394D01*
X229378D01*
X230229Y300622D01*
X230992Y301062D01*
X231615Y301685D01*
X232055Y302449D01*
X232283Y303300D01*
Y304181D01*
X232055Y305032D01*
X231615Y305795D01*
X230992Y306418D01*
X230229Y306859D01*
X229889Y306949D01*
X229955Y307450D01*
X235793D01*
X235859Y306949D01*
X235519Y306859D01*
X234756Y306418D01*
X234133Y305795D01*
X233693Y305032D01*
X233465Y304181D01*
Y303300D01*
X233693Y302449D01*
X234133Y301685D01*
X234756Y301062D01*
X235519Y300622D01*
X236370Y300394D01*
X237252D01*
X238103Y300622D01*
X238866Y301062D01*
X239489Y301685D01*
X239929Y302449D01*
X240158Y303300D01*
Y304181D01*
X239929Y305032D01*
X239489Y305795D01*
X238866Y306418D01*
X238103Y306859D01*
X237763Y306949D01*
X237829Y307450D01*
X251541D01*
X251607Y306949D01*
X251267Y306859D01*
X250504Y306418D01*
X249881Y305795D01*
X249441Y305032D01*
X249213Y304181D01*
Y303300D01*
X249441Y302449D01*
X249881Y301685D01*
X250504Y301062D01*
X251267Y300622D01*
X252118Y300394D01*
X253000D01*
X253851Y300622D01*
X254614Y301062D01*
X255237Y301685D01*
X255678Y302449D01*
X255906Y303300D01*
Y304181D01*
X255678Y305032D01*
X255237Y305795D01*
X254614Y306418D01*
X253851Y306859D01*
X253512Y306949D01*
X253577Y307450D01*
X259415D01*
X259481Y306949D01*
X259141Y306859D01*
X258378Y306418D01*
X257755Y305795D01*
X257315Y305032D01*
X257087Y304181D01*
Y303300D01*
X257315Y302449D01*
X257755Y301685D01*
X258378Y301062D01*
X259141Y300622D01*
X259993Y300394D01*
X260874D01*
X261725Y300622D01*
X262488Y301062D01*
X263111Y301685D01*
X263551Y302449D01*
X263779Y303300D01*
Y304181D01*
X263551Y305032D01*
X263111Y305795D01*
X262488Y306418D01*
X261725Y306859D01*
X261385Y306949D01*
X261451Y307450D01*
X275163D01*
X275229Y306949D01*
X274889Y306859D01*
X274126Y306418D01*
X273503Y305795D01*
X273063Y305032D01*
X272835Y304181D01*
Y303300D01*
X273063Y302449D01*
X273503Y301685D01*
X274126Y301062D01*
X274889Y300622D01*
X275741Y300394D01*
X276622D01*
X277473Y300622D01*
X278236Y301062D01*
X278859Y301685D01*
X279299Y302449D01*
X279528Y303300D01*
Y304181D01*
X279299Y305032D01*
X278859Y305795D01*
X278236Y306418D01*
X277473Y306859D01*
X277133Y306949D01*
X277199Y307450D01*
X283037D01*
X283103Y306949D01*
X282763Y306859D01*
X282000Y306418D01*
X281377Y305795D01*
X280937Y305032D01*
X280709Y304181D01*
Y303300D01*
X280937Y302449D01*
X281377Y301685D01*
X282000Y301062D01*
X282763Y300622D01*
X283615Y300394D01*
X284496D01*
X285347Y300622D01*
X286110Y301062D01*
X286733Y301685D01*
X287174Y302449D01*
X287402Y303300D01*
Y304181D01*
X287174Y305032D01*
X286733Y305795D01*
X286110Y306418D01*
X285347Y306859D01*
X285008Y306949D01*
X285073Y307450D01*
X298785D01*
X298851Y306949D01*
X298512Y306859D01*
X297748Y306418D01*
X297125Y305795D01*
X296685Y305032D01*
X296457Y304181D01*
Y303300D01*
X296685Y302449D01*
X297125Y301685D01*
X297748Y301062D01*
X298512Y300622D01*
X299363Y300394D01*
X300244D01*
X300848Y300555D01*
X302227Y299176D01*
Y293406D01*
X302227Y293406D01*
X302342Y292826D01*
X302670Y292335D01*
X304442Y290564D01*
X304442Y290564D01*
X304933Y290236D01*
X305512Y290121D01*
X307904D01*
X308268Y289757D01*
Y286122D01*
Y282874D01*
X311811D01*
Y286221D01*
X314469D01*
Y286221D01*
X314968Y286221D01*
X318012D01*
Y290551D01*
X317846D01*
Y290650D01*
X317724Y291264D01*
X317375Y291785D01*
X317375Y291785D01*
X317157Y292004D01*
Y292929D01*
X317606Y293188D01*
X318229Y293811D01*
X318670Y294574D01*
X318898Y295426D01*
Y296307D01*
X318670Y297158D01*
X318229Y297921D01*
X317606Y298544D01*
X316843Y298985D01*
X315992Y299213D01*
X315111D01*
X314260Y298985D01*
X313496Y298544D01*
X312873Y297921D01*
X312433Y297158D01*
X312205Y296307D01*
Y295426D01*
X312433Y294574D01*
X312873Y293811D01*
X313496Y293188D01*
X313946Y292929D01*
Y291339D01*
X313946Y291339D01*
X314003Y291051D01*
X313711Y290606D01*
X313628Y290551D01*
X311586D01*
X311523Y290870D01*
X311175Y291391D01*
X309797Y292769D01*
X309276Y293117D01*
X308661Y293239D01*
X308197Y293147D01*
X306139D01*
X305254Y294032D01*
Y299803D01*
X305138Y300382D01*
X304810Y300873D01*
X304810Y300873D01*
X302988Y302696D01*
X303150Y303300D01*
Y304181D01*
X302922Y305032D01*
X302481Y305795D01*
X301858Y306418D01*
X301095Y306859D01*
X300756Y306949D01*
X300821Y307450D01*
X314533D01*
X314599Y306949D01*
X314260Y306859D01*
X313496Y306418D01*
X312873Y305795D01*
X312433Y305032D01*
X312205Y304181D01*
Y303300D01*
X312433Y302449D01*
X312873Y301685D01*
X313496Y301062D01*
X314260Y300622D01*
X315111Y300394D01*
X315992D01*
X316843Y300622D01*
X317606Y301062D01*
X318229Y301685D01*
X318670Y302449D01*
X318898Y303300D01*
Y304181D01*
X318670Y305032D01*
X318229Y305795D01*
X317606Y306418D01*
X316843Y306859D01*
X316504Y306949D01*
X316569Y307450D01*
X322407D01*
X322473Y306949D01*
X322133Y306859D01*
X321370Y306418D01*
X320747Y305795D01*
X320307Y305032D01*
X320079Y304181D01*
Y303300D01*
X320307Y302449D01*
X320747Y301685D01*
X321370Y301062D01*
X322133Y300622D01*
X322985Y300394D01*
X323866D01*
X324717Y300622D01*
X325480Y301062D01*
X326103Y301685D01*
X326544Y302449D01*
X326772Y303300D01*
Y304181D01*
X326544Y305032D01*
X326103Y305795D01*
X325480Y306418D01*
X324717Y306859D01*
X324378Y306949D01*
X324443Y307450D01*
X337118D01*
X337252Y306949D01*
X336877Y306733D01*
X336180Y306037D01*
X335688Y305184D01*
X335433Y304233D01*
Y303248D01*
X335688Y302296D01*
X336180Y301444D01*
X336877Y300747D01*
X337730Y300255D01*
X338681Y300000D01*
X339666D01*
X340617Y300255D01*
X341470Y300747D01*
X342166Y301444D01*
X342658Y302296D01*
X342913Y303248D01*
Y304233D01*
X342658Y305184D01*
X342166Y306037D01*
X341470Y306733D01*
X341095Y306949D01*
X341229Y307450D01*
X346161D01*
X346161Y307450D01*
X346776Y307572D01*
X347297Y307920D01*
X363931Y324554D01*
X364279Y325075D01*
X364401Y325689D01*
X364401Y325689D01*
Y352362D01*
X364279Y352977D01*
X363931Y353498D01*
X363931Y353498D01*
X357631Y359797D01*
X357559Y359845D01*
X357446Y360522D01*
X357512Y360611D01*
X367107D01*
Y276594D01*
D02*
G37*
G36*
X161666Y298133D02*
Y297625D01*
X161995Y296829D01*
X162604Y296220D01*
X163400Y295890D01*
X164262D01*
X165058Y296220D01*
X165166Y296328D01*
X165628Y296137D01*
Y285813D01*
X160604Y280790D01*
X159744D01*
Y295129D01*
X159860Y295712D01*
X160535Y297341D01*
X161166Y298285D01*
X161666Y298133D01*
D02*
G37*
G36*
X335583Y278831D02*
X335846Y278679D01*
X336061Y278465D01*
X336213Y278201D01*
X336292Y277908D01*
Y277604D01*
X336253Y277458D01*
X336248Y277385D01*
X336223Y277317D01*
X336230Y277114D01*
X336217Y276911D01*
X335905Y276647D01*
X335815Y276594D01*
X332216D01*
X332126Y276647D01*
X331814Y276911D01*
X331801Y277114D01*
X331809Y277317D01*
X331783Y277385D01*
X331779Y277458D01*
X331739Y277604D01*
Y277908D01*
X331818Y278201D01*
X331970Y278465D01*
X332185Y278679D01*
X332448Y278831D01*
X332741Y278910D01*
X333045D01*
X333425Y278808D01*
X333487Y278787D01*
X333652Y278706D01*
X333745Y278700D01*
X333832Y278670D01*
X334015Y278682D01*
X334199Y278670D01*
X334287Y278700D01*
X334379Y278706D01*
X334544Y278787D01*
X334607Y278808D01*
X334986Y278910D01*
X335290D01*
X335583Y278831D01*
D02*
G37*
%LPC*%
G36*
X356113Y503070D02*
X354911D01*
X354814Y503051D01*
X354715D01*
X353536Y502817D01*
X353445Y502779D01*
X353348Y502760D01*
X352237Y502299D01*
X352155Y502245D01*
X352064Y502207D01*
X351064Y501539D01*
X350994Y501469D01*
X350912Y501414D01*
X350062Y500564D01*
X350007Y500482D01*
X349937Y500412D01*
X349270Y499413D01*
X349232Y499321D01*
X349177Y499239D01*
X348717Y498129D01*
X348697Y498032D01*
X348660Y497940D01*
X348425Y496761D01*
Y496663D01*
X348406Y496566D01*
Y495965D01*
Y495364D01*
X348425Y495267D01*
Y495168D01*
X348660Y493989D01*
X348697Y493897D01*
X348717Y493800D01*
X349177Y492690D01*
X349232Y492608D01*
X349270Y492517D01*
X349937Y491517D01*
X350007Y491447D01*
X350062Y491365D01*
X350912Y490515D01*
X350994Y490460D01*
X351064Y490390D01*
X352064Y489722D01*
X352155Y489684D01*
X352237Y489630D01*
X353348Y489170D01*
X353445Y489150D01*
X353536Y489113D01*
X354715Y488878D01*
X354814D01*
X354911Y488859D01*
X356113D01*
X356210Y488878D01*
X356309D01*
X357488Y489113D01*
X357579Y489150D01*
X357676Y489170D01*
X358786Y489630D01*
X358869Y489684D01*
X358960Y489722D01*
X359959Y490390D01*
X360029Y490460D01*
X360111Y490515D01*
X360961Y491365D01*
X361016Y491447D01*
X361086Y491517D01*
X361754Y492517D01*
X361792Y492608D01*
X361847Y492690D01*
X362307Y493800D01*
X362326Y493897D01*
X362364Y493989D01*
X362598Y495168D01*
Y495267D01*
X362618Y495364D01*
Y495965D01*
Y496566D01*
X362598Y496663D01*
Y496761D01*
X362364Y497940D01*
X362326Y498032D01*
X362307Y498129D01*
X361847Y499239D01*
X361792Y499321D01*
X361754Y499413D01*
X361086Y500412D01*
X361016Y500482D01*
X360961Y500564D01*
X360111Y501414D01*
X360029Y501469D01*
X359959Y501539D01*
X358960Y502207D01*
X358869Y502245D01*
X358786Y502299D01*
X357676Y502760D01*
X357579Y502779D01*
X357488Y502817D01*
X356309Y503051D01*
X356210D01*
X356113Y503070D01*
D02*
G37*
G36*
X124753Y495413D02*
X123396D01*
X122065Y495149D01*
X120811Y494629D01*
X119683Y493875D01*
X118723Y492916D01*
X117969Y491787D01*
X117450Y490533D01*
X117185Y489202D01*
Y487845D01*
X117450Y486514D01*
X117969Y485260D01*
X118723Y484132D01*
X119683Y483172D01*
X120811Y482418D01*
X122065Y481899D01*
X123396Y481634D01*
X124753D01*
X126084Y481899D01*
X127338Y482418D01*
X128467Y483172D01*
X129427Y484132D01*
X130181Y485260D01*
X130700Y486514D01*
X130965Y487845D01*
Y489202D01*
X130700Y490533D01*
X130181Y491787D01*
X129427Y492916D01*
X128467Y493875D01*
X127338Y494629D01*
X126084Y495149D01*
X124753Y495413D01*
D02*
G37*
G36*
X312340Y469193D02*
X311479D01*
X310683Y468863D01*
X310074Y468254D01*
X309744Y467458D01*
Y466597D01*
X310074Y465801D01*
X310683Y465192D01*
X311479Y464862D01*
X312340D01*
X313136Y465192D01*
X313745Y465801D01*
X314075Y466597D01*
Y467458D01*
X313745Y468254D01*
X313136Y468863D01*
X312340Y469193D01*
D02*
G37*
G36*
X215195Y468799D02*
X214333D01*
X213537Y468469D01*
X212928Y467860D01*
X212598Y467065D01*
Y466203D01*
X212928Y465407D01*
X213537Y464798D01*
X214333Y464468D01*
X215195D01*
X215990Y464798D01*
X216599Y465407D01*
X216929Y466203D01*
Y467065D01*
X216599Y467860D01*
X215990Y468469D01*
X215195Y468799D01*
D02*
G37*
G36*
X191610Y458385D02*
X163827Y458385D01*
X163629Y458385D01*
X163532Y458366D01*
X163433D01*
X163043Y458289D01*
X162952Y458251D01*
X162855Y458231D01*
X162488Y458080D01*
X162406Y458025D01*
X162315Y457987D01*
X161984Y457766D01*
X161915Y457696D01*
X161832Y457641D01*
X161528Y457337D01*
X161473Y457255D01*
X161403Y457185D01*
X161146Y456800D01*
X161108Y456708D01*
X161053Y456626D01*
X160876Y456198D01*
X160857Y456101D01*
X160819Y456010D01*
X160728Y455555D01*
Y455457D01*
X160709Y455360D01*
Y438227D01*
X160728Y438130D01*
Y438032D01*
X160793Y437707D01*
X160831Y437616D01*
X160850Y437519D01*
X160977Y437213D01*
X161032Y437131D01*
X161069Y437039D01*
X161253Y436764D01*
X161323Y436694D01*
X161378Y436612D01*
X161799Y436191D01*
X161881Y436136D01*
X161951Y436066D01*
X162667Y435588D01*
X162758Y435550D01*
X162840Y435495D01*
X163635Y435166D01*
X163732Y435147D01*
X163824Y435109D01*
X164668Y434941D01*
X164767D01*
X164864Y434922D01*
X165281D01*
X168521Y434838D01*
X168522Y434838D01*
X168576Y434833D01*
X168592Y434835D01*
X168607Y434831D01*
X168661Y434827D01*
X168677Y434829D01*
X168693Y434826D01*
X168747Y434824D01*
X168763Y434826D01*
X168779Y434823D01*
X206018D01*
X206115Y434842D01*
X206214D01*
X206928Y434985D01*
X207019Y435022D01*
X207116Y435042D01*
X207789Y435320D01*
X207871Y435375D01*
X207962Y435413D01*
X208568Y435818D01*
X208638Y435887D01*
X208720Y435942D01*
X208977Y436200D01*
X208977Y436200D01*
X209048Y436270D01*
X209102Y436352D01*
X209172Y436422D01*
X209283Y436587D01*
X209320Y436679D01*
X209375Y436761D01*
X209451Y436944D01*
X209471Y437041D01*
X209508Y437132D01*
X209547Y437327D01*
Y437426D01*
X209566Y437523D01*
Y437622D01*
X209566Y437622D01*
X209566Y449796D01*
X209566Y449962D01*
X209547Y450059D01*
Y450157D01*
X209483Y450482D01*
X209445Y450573D01*
X209426Y450670D01*
X209299Y450976D01*
X209244Y451058D01*
X209206Y451150D01*
X209022Y451425D01*
X208952Y451495D01*
X208897Y451577D01*
X208781Y451694D01*
X208781Y451694D01*
X208640Y451834D01*
X208558Y451889D01*
X208488Y451959D01*
X208158Y452180D01*
X208066Y452218D01*
X207984Y452273D01*
X207617Y452424D01*
X207520Y452444D01*
X207429Y452482D01*
X207318Y452504D01*
X207277D01*
X207238Y452516D01*
X206761Y452572D01*
X206703Y452567D01*
X206645Y452578D01*
X194184D01*
X194150Y452580D01*
X194062Y452598D01*
X194001Y452623D01*
X193925Y452673D01*
X193919Y452679D01*
X193847Y452759D01*
X193687Y452998D01*
X193586Y453242D01*
X193530Y453524D01*
X193523Y453656D01*
X193523Y456611D01*
X193523Y456677D01*
X193504Y456774D01*
Y456873D01*
X193478Y457003D01*
X193440Y457094D01*
X193421Y457191D01*
X193370Y457314D01*
X193315Y457396D01*
X193278Y457487D01*
X193204Y457597D01*
X193134Y457667D01*
X193079Y457749D01*
X192962Y457866D01*
X192880Y457921D01*
X192810Y457991D01*
X192645Y458102D01*
X192554Y458139D01*
X192472Y458194D01*
X192288Y458270D01*
X192191Y458289D01*
X192100Y458327D01*
X191905Y458366D01*
X191806D01*
X191709Y458385D01*
X191610D01*
X191610Y458385D01*
D02*
G37*
G36*
X336750Y457972D02*
X335888D01*
X335092Y457643D01*
X334483Y457034D01*
X334154Y456238D01*
Y455376D01*
X334483Y454580D01*
X335092Y453971D01*
X335888Y453642D01*
X336750D01*
X337545Y453971D01*
X338155Y454580D01*
X338484Y455376D01*
Y456238D01*
X338155Y457034D01*
X337545Y457643D01*
X336750Y457972D01*
D02*
G37*
G36*
X227301Y457185D02*
X226439D01*
X225643Y456855D01*
X225034Y456246D01*
X224705Y455450D01*
Y454589D01*
X225034Y453793D01*
X225643Y453184D01*
X226439Y452854D01*
X227301D01*
X228097Y453184D01*
X228706Y453793D01*
X229035Y454589D01*
Y455450D01*
X228706Y456246D01*
X228097Y456855D01*
X227301Y457185D01*
D02*
G37*
G36*
X324840Y451772D02*
X323979D01*
X323183Y451442D01*
X322574Y450833D01*
X322244Y450037D01*
Y449176D01*
X322574Y448380D01*
X323183Y447771D01*
X323979Y447441D01*
X324840D01*
X325636Y447771D01*
X326245Y448380D01*
X326575Y449176D01*
Y450037D01*
X326245Y450833D01*
X325636Y451442D01*
X324840Y451772D01*
D02*
G37*
G36*
X341671Y451575D02*
X340809D01*
X340014Y451245D01*
X339405Y450636D01*
X339075Y449840D01*
Y448979D01*
X339405Y448183D01*
X340014Y447574D01*
X340809Y447244D01*
X341671D01*
X342467Y447574D01*
X343076Y448183D01*
X343406Y448979D01*
Y449840D01*
X343076Y450636D01*
X342467Y451245D01*
X341671Y451575D01*
D02*
G37*
G36*
X332124D02*
X331262D01*
X330466Y451245D01*
X329857Y450636D01*
X329528Y449840D01*
Y448979D01*
X329857Y448183D01*
X330466Y447574D01*
X331262Y447244D01*
X332124D01*
X332920Y447574D01*
X333529Y448183D01*
X333858Y448979D01*
Y449840D01*
X333529Y450636D01*
X332920Y451245D01*
X332124Y451575D01*
D02*
G37*
G36*
X318541Y450394D02*
X317680D01*
X316884Y450064D01*
X316274Y449455D01*
X315945Y448659D01*
Y447798D01*
X316274Y447002D01*
X316884Y446393D01*
X317680Y446063D01*
X318541D01*
X319337Y446393D01*
X319946Y447002D01*
X320276Y447798D01*
Y448659D01*
X319946Y449455D01*
X319337Y450064D01*
X318541Y450394D01*
D02*
G37*
G36*
X287954Y458484D02*
X261077D01*
X260980Y458464D01*
X260881D01*
X260427Y458374D01*
X260336Y458336D01*
X260239Y458317D01*
X259811Y458140D01*
X259729Y458085D01*
X259637Y458047D01*
X259252Y457790D01*
X259182Y457720D01*
X259100Y457665D01*
X258936Y457501D01*
X258491Y457056D01*
X258436Y456974D01*
X258367Y456904D01*
X257668Y455859D01*
X257630Y455767D01*
X257575Y455685D01*
X257094Y454523D01*
X257074Y454426D01*
X257037Y454335D01*
X256791Y453101D01*
Y453002D01*
X256772Y452905D01*
Y452277D01*
Y440318D01*
Y439788D01*
X256791Y439691D01*
Y439592D01*
X256998Y438553D01*
X257036Y438462D01*
X257055Y438365D01*
X257460Y437387D01*
X257515Y437305D01*
X257553Y437213D01*
X258141Y436333D01*
X258211Y436263D01*
X258266Y436181D01*
X258641Y435806D01*
X258922Y435525D01*
X259004Y435470D01*
X259074Y435400D01*
X259734Y434959D01*
X259825Y434921D01*
X259908Y434866D01*
X260642Y434562D01*
X260738Y434543D01*
X260830Y434505D01*
X261609Y434350D01*
X261708D01*
X261805Y434331D01*
X304292D01*
X304389Y434350D01*
X304488D01*
X304813Y434415D01*
X304904Y434453D01*
X305001Y434472D01*
X305307Y434599D01*
X305389Y434654D01*
X305480Y434691D01*
X305755Y434875D01*
X305825Y434945D01*
X305908Y435000D01*
X306025Y435117D01*
X306259Y435351D01*
X306313Y435433D01*
X306383Y435503D01*
X306751Y436054D01*
X306789Y436145D01*
X306844Y436227D01*
X307097Y436839D01*
X307117Y436936D01*
X307154Y437027D01*
X307283Y437676D01*
Y437775D01*
X307303Y437872D01*
Y445970D01*
X307803Y446281D01*
X308329Y446063D01*
X309191D01*
X309986Y446393D01*
X310595Y447002D01*
X310925Y447798D01*
Y448659D01*
X310595Y449455D01*
X309986Y450064D01*
X309191Y450394D01*
X308329D01*
X307789Y450170D01*
X307773Y450169D01*
X307667Y450186D01*
X307260Y450423D01*
X307244Y450444D01*
X307206Y450638D01*
X307168Y450729D01*
X307149Y450826D01*
X306997Y451193D01*
X306942Y451275D01*
X306904Y451366D01*
X306841Y451461D01*
X306812Y451490D01*
X306793Y451526D01*
X306495Y451903D01*
X306451Y451940D01*
X306418Y451989D01*
X306208Y452200D01*
X306125Y452255D01*
X306056Y452324D01*
X305560Y452656D01*
X305469Y452693D01*
X305387Y452748D01*
X304836Y452976D01*
X304739Y452996D01*
X304648Y453033D01*
X304064Y453150D01*
X303965D01*
X303868Y453169D01*
X291985D01*
X291820Y453177D01*
X291472Y453246D01*
X291168Y453372D01*
X290874Y453569D01*
X290769Y453663D01*
X290764Y453670D01*
X290713Y453745D01*
X290688Y453806D01*
X290670Y453895D01*
X290669Y453928D01*
Y455556D01*
X290650Y455653D01*
Y455752D01*
X290559Y456207D01*
X290521Y456298D01*
X290502Y456395D01*
X290325Y456823D01*
X290270Y456905D01*
X290232Y456997D01*
X289975Y457382D01*
X289905Y457452D01*
X289850Y457534D01*
X289686Y457698D01*
X289686Y457698D01*
X289569Y457815D01*
X289487Y457870D01*
X289417Y457940D01*
X289142Y458123D01*
X289050Y458161D01*
X288968Y458216D01*
X288662Y458343D01*
X288565Y458362D01*
X288474Y458400D01*
X288150Y458465D01*
X288051D01*
X287954Y458484D01*
D02*
G37*
G36*
X214506Y450386D02*
X213644D01*
X212848Y450057D01*
X212239Y449447D01*
X211910Y448652D01*
Y447790D01*
X212239Y446994D01*
X212848Y446385D01*
X213644Y446056D01*
X214506D01*
X215301Y446385D01*
X215911Y446994D01*
X216240Y447790D01*
Y448652D01*
X215911Y449447D01*
X215301Y450057D01*
X214506Y450386D01*
D02*
G37*
G36*
X221198Y448819D02*
X220337D01*
X219541Y448489D01*
X218932Y447880D01*
X218602Y447084D01*
Y446223D01*
X218932Y445427D01*
X219541Y444818D01*
X220337Y444488D01*
X221198D01*
X221994Y444818D01*
X222603Y445427D01*
X222933Y446223D01*
Y447084D01*
X222603Y447880D01*
X221994Y448489D01*
X221198Y448819D01*
D02*
G37*
G36*
X313423Y445669D02*
X312561D01*
X311766Y445340D01*
X311156Y444731D01*
X310827Y443935D01*
Y443073D01*
X311156Y442277D01*
X311766Y441668D01*
X312561Y441339D01*
X313423D01*
X314219Y441668D01*
X314828Y442277D01*
X315158Y443073D01*
Y443935D01*
X314828Y444731D01*
X314219Y445340D01*
X313423Y445669D01*
D02*
G37*
G36*
X124596Y455020D02*
X123239D01*
X121908Y454755D01*
X120654Y454236D01*
X119525Y453481D01*
X118566Y452522D01*
X117812Y451393D01*
X117292Y450140D01*
X117028Y448808D01*
Y447451D01*
X117292Y446120D01*
X117812Y444866D01*
X118566Y443738D01*
X119525Y442778D01*
X120654Y442024D01*
X121908Y441505D01*
X123239Y441240D01*
X124596D01*
X125927Y441505D01*
X127181Y442024D01*
X128309Y442778D01*
X129269Y443738D01*
X130023Y444866D01*
X130542Y446120D01*
X130807Y447451D01*
Y448808D01*
X130542Y450140D01*
X130023Y451393D01*
X129269Y452522D01*
X128309Y453481D01*
X127181Y454236D01*
X125927Y454755D01*
X124596Y455020D01*
D02*
G37*
G36*
X346179Y444016D02*
X345317D01*
X344521Y443686D01*
X343912Y443077D01*
X343583Y442281D01*
Y441420D01*
X343912Y440624D01*
X344521Y440015D01*
X345317Y439685D01*
X346179D01*
X346974Y440015D01*
X347584Y440624D01*
X347913Y441420D01*
Y442281D01*
X347584Y443077D01*
X346974Y443686D01*
X346179Y444016D01*
D02*
G37*
G36*
X216376Y443898D02*
X215514D01*
X214718Y443568D01*
X214109Y442959D01*
X213779Y442163D01*
Y441302D01*
X214109Y440506D01*
X214718Y439897D01*
X215514Y439567D01*
X216376D01*
X217172Y439897D01*
X217781Y440506D01*
X218110Y441302D01*
Y442163D01*
X217781Y442959D01*
X217172Y443568D01*
X216376Y443898D01*
D02*
G37*
G36*
X160045Y404606D02*
X158853D01*
X157701Y404298D01*
X156669Y403702D01*
X155826Y402859D01*
X155230Y401826D01*
X154921Y400675D01*
Y399483D01*
X155230Y398331D01*
X155826Y397299D01*
X156669Y396456D01*
X157701Y395860D01*
X158853Y395551D01*
X160045D01*
X161196Y395860D01*
X162229Y396456D01*
X163072Y397299D01*
X163668Y398331D01*
X163976Y399483D01*
Y400675D01*
X163668Y401826D01*
X163072Y402859D01*
X162229Y403702D01*
X161196Y404298D01*
X160045Y404606D01*
D02*
G37*
G36*
X112242Y399016D02*
X111380D01*
X110584Y398686D01*
X109975Y398077D01*
X109646Y397281D01*
Y396420D01*
X109975Y395624D01*
X110127Y395472D01*
X110074Y395420D01*
X109744Y394624D01*
Y393762D01*
X110074Y392966D01*
X110683Y392357D01*
X111479Y392028D01*
X112340D01*
X113136Y392357D01*
X113745Y392966D01*
X114075Y393762D01*
Y394624D01*
X113745Y395420D01*
X113594Y395571D01*
X113647Y395624D01*
X113976Y396420D01*
Y397281D01*
X113647Y398077D01*
X113038Y398686D01*
X112242Y399016D01*
D02*
G37*
G36*
X124845Y398917D02*
X124171D01*
X123520Y398743D01*
X122937Y398406D01*
X122460Y397930D01*
X122123Y397346D01*
X121949Y396695D01*
Y396021D01*
X122123Y395371D01*
X122150Y395325D01*
X122123Y395279D01*
X121949Y394628D01*
Y393954D01*
X122123Y393304D01*
X122460Y392720D01*
X122937Y392244D01*
X123520Y391907D01*
X124171Y391732D01*
X124845D01*
X125496Y391907D01*
X126079Y392244D01*
X126556Y392720D01*
X126892Y393304D01*
X127067Y393954D01*
Y394628D01*
X126892Y395279D01*
X126866Y395325D01*
X126892Y395371D01*
X127067Y396021D01*
Y396695D01*
X126892Y397346D01*
X126556Y397930D01*
X126079Y398406D01*
X125496Y398743D01*
X124845Y398917D01*
D02*
G37*
G36*
X160045Y394606D02*
X158853D01*
X157701Y394298D01*
X156669Y393702D01*
X155826Y392859D01*
X155230Y391826D01*
X154921Y390675D01*
Y389483D01*
X155230Y388331D01*
X155826Y387299D01*
X156669Y386456D01*
X157701Y385860D01*
X158853Y385551D01*
X160045D01*
X161196Y385860D01*
X162229Y386456D01*
X163072Y387299D01*
X163668Y388331D01*
X163976Y389483D01*
Y390675D01*
X163668Y391826D01*
X163072Y392859D01*
X162229Y393702D01*
X161196Y394298D01*
X160045Y394606D01*
D02*
G37*
G36*
X146358Y389370D02*
X121949D01*
Y387775D01*
X121850Y387537D01*
Y386676D01*
X121949Y386438D01*
Y385117D01*
X121850Y384879D01*
Y384018D01*
X121949Y383781D01*
Y380315D01*
X146358D01*
Y389370D01*
D02*
G37*
G36*
X136229Y359587D02*
X134716D01*
X133233Y359292D01*
X131836Y358713D01*
X130579Y357873D01*
X129509Y356803D01*
X128669Y355546D01*
X128090Y354149D01*
X127795Y352666D01*
Y351153D01*
X128090Y349670D01*
X128669Y348273D01*
X129509Y347016D01*
X130579Y345946D01*
X131836Y345106D01*
X133233Y344527D01*
X134716Y344232D01*
X136229D01*
X137712Y344527D01*
X139109Y345106D01*
X140366Y345946D01*
X141436Y347016D01*
X142276Y348273D01*
X142855Y349670D01*
X143150Y351153D01*
Y352666D01*
X142855Y354149D01*
X142276Y355546D01*
X141436Y356803D01*
X140366Y357873D01*
X139109Y358713D01*
X137712Y359292D01*
X136229Y359587D01*
D02*
G37*
G36*
X124596Y347244D02*
X123239D01*
X121908Y346979D01*
X120654Y346460D01*
X119525Y345706D01*
X118566Y344746D01*
X117812Y343618D01*
X117292Y342364D01*
X117028Y341033D01*
Y339676D01*
X117292Y338345D01*
X117812Y337091D01*
X118566Y335962D01*
X119525Y335003D01*
X120654Y334249D01*
X121908Y333729D01*
X123239Y333465D01*
X124596D01*
X125927Y333729D01*
X127181Y334249D01*
X128309Y335003D01*
X129269Y335962D01*
X130023Y337091D01*
X130542Y338345D01*
X130807Y339676D01*
Y341033D01*
X130542Y342364D01*
X130023Y343618D01*
X129269Y344746D01*
X128309Y345706D01*
X127181Y346460D01*
X125927Y346979D01*
X124596Y347244D01*
D02*
G37*
G36*
X136229Y336476D02*
X134716D01*
X133233Y336181D01*
X131836Y335603D01*
X130579Y334763D01*
X129509Y333693D01*
X128669Y332436D01*
X128090Y331039D01*
X127795Y329555D01*
Y328043D01*
X128090Y326560D01*
X128669Y325163D01*
X129509Y323905D01*
X130579Y322836D01*
X131836Y321996D01*
X133233Y321417D01*
X134716Y321122D01*
X136229D01*
X137712Y321417D01*
X139109Y321996D01*
X140366Y322836D01*
X141436Y323905D01*
X142276Y325163D01*
X142855Y326560D01*
X143150Y328043D01*
Y329555D01*
X142855Y331039D01*
X142276Y332436D01*
X141436Y333693D01*
X140366Y334763D01*
X139109Y335603D01*
X137712Y336181D01*
X136229Y336476D01*
D02*
G37*
G36*
X156927Y304823D02*
X156065D01*
X155270Y304493D01*
X154660Y303884D01*
X154331Y303088D01*
Y302227D01*
X154660Y301431D01*
X155270Y300822D01*
X156065Y300492D01*
X156927D01*
X157723Y300822D01*
X158332Y301431D01*
X158661Y302227D01*
Y303088D01*
X158332Y303884D01*
X157723Y304493D01*
X156927Y304823D01*
D02*
G37*
G36*
X124202Y305512D02*
X122845D01*
X121514Y305247D01*
X120260Y304728D01*
X119132Y303974D01*
X118172Y303014D01*
X117418Y301886D01*
X116899Y300632D01*
X116634Y299301D01*
Y297943D01*
X116899Y296612D01*
X117418Y295359D01*
X118172Y294230D01*
X119132Y293270D01*
X120260Y292516D01*
X121514Y291997D01*
X122845Y291732D01*
X124202D01*
X125533Y291997D01*
X126787Y292516D01*
X127916Y293270D01*
X128875Y294230D01*
X129629Y295359D01*
X130149Y296612D01*
X130413Y297943D01*
Y299301D01*
X130149Y300632D01*
X129629Y301886D01*
X128875Y303014D01*
X127916Y303974D01*
X126787Y304728D01*
X125533Y305247D01*
X124202Y305512D01*
D02*
G37*
%LPD*%
G36*
X191610Y457382D02*
X191709D01*
X191904Y457343D01*
X192087Y457267D01*
X192253Y457157D01*
X192370Y457040D01*
X192443Y456930D01*
X192494Y456807D01*
X192520Y456677D01*
X192520Y456611D01*
X192520Y453632D01*
X192531Y453401D01*
X192621Y452949D01*
X192797Y452523D01*
X193054Y452140D01*
X193209Y451968D01*
X193306Y451880D01*
X193526Y451733D01*
X193769Y451633D01*
X194027Y451581D01*
X194159Y451575D01*
X206645D01*
X206645Y451575D01*
X206645Y451575D01*
X207122Y451519D01*
X207233Y451497D01*
X207600Y451345D01*
X207930Y451125D01*
X208071Y450984D01*
Y450984D01*
X208188Y450867D01*
X208372Y450592D01*
X208498Y450286D01*
X208563Y449962D01*
X208563Y449796D01*
X208563Y437622D01*
X208563D01*
Y437523D01*
X208524Y437328D01*
X208448Y437145D01*
X208338Y436980D01*
X208268Y436909D01*
Y436909D01*
X208010Y436652D01*
X207405Y436247D01*
X206732Y435969D01*
X206018Y435827D01*
X168779D01*
X168726Y435828D01*
X168672Y435832D01*
X168618Y435837D01*
X168591Y435841D01*
X165294Y435925D01*
X164864D01*
X164020Y436093D01*
X163224Y436422D01*
X162509Y436901D01*
X162088Y437322D01*
X161904Y437597D01*
X161777Y437903D01*
X161713Y438227D01*
Y455360D01*
X161803Y455814D01*
X161980Y456242D01*
X162238Y456628D01*
X162542Y456932D01*
X162872Y457152D01*
X163239Y457304D01*
X163629Y457382D01*
X163827Y457382D01*
X191610Y457382D01*
Y457382D01*
D02*
G37*
G36*
X288278Y457416D02*
X288584Y457289D01*
X288859Y457105D01*
X288976Y456988D01*
X289140Y456824D01*
X289398Y456439D01*
X289575Y456011D01*
X289665Y455556D01*
Y453903D01*
X289672Y453771D01*
X289723Y453513D01*
X289794Y453343D01*
X289824Y453270D01*
X289824Y453269D01*
X289970Y453051D01*
X290059Y452953D01*
X290059Y452953D01*
X290254Y452776D01*
X290693Y452483D01*
X291180Y452281D01*
X291697Y452178D01*
X291960Y452165D01*
X303868D01*
X304452Y452049D01*
X305003Y451821D01*
X305498Y451490D01*
X305709Y451279D01*
X306007Y450903D01*
X306070Y450809D01*
X306222Y450442D01*
X306299Y450052D01*
Y437872D01*
X306170Y437223D01*
X305917Y436611D01*
X305549Y436061D01*
X305315Y435827D01*
X305198Y435710D01*
X304923Y435526D01*
X304617Y435399D01*
X304292Y435335D01*
X261805D01*
X261026Y435490D01*
X260292Y435794D01*
X259631Y436235D01*
X259350Y436516D01*
X258976Y436890D01*
X258387Y437771D01*
X257982Y438749D01*
X257776Y439788D01*
Y440318D01*
Y452277D01*
Y452905D01*
X258021Y454139D01*
X258502Y455301D01*
X259201Y456347D01*
X259646Y456791D01*
X259809Y456955D01*
X260195Y457213D01*
X260623Y457390D01*
X261077Y457480D01*
X287954D01*
X288278Y457416D01*
D02*
G37*
G36*
X112469Y397835D02*
X112796Y397509D01*
X112973Y397081D01*
Y396619D01*
X112748Y396077D01*
X112667Y395955D01*
D01*
X112667Y395955D01*
X112613Y395686D01*
X112590Y395571D01*
Y395571D01*
Y395571D01*
X112636Y395342D01*
X112667Y395187D01*
X112667Y395187D01*
Y395187D01*
X112749Y395064D01*
X112884Y394861D01*
X112894Y394851D01*
X113071Y394424D01*
Y393962D01*
X112894Y393535D01*
X112568Y393208D01*
X112141Y393031D01*
X111678D01*
X111251Y393208D01*
X110924Y393535D01*
X110748Y393962D01*
Y394424D01*
X110972Y394966D01*
X111054Y395088D01*
X111054Y395088D01*
X111054Y395088D01*
X111098Y395309D01*
X111130Y395472D01*
X111130Y395472D01*
X111130Y395472D01*
X111085Y395702D01*
X111054Y395856D01*
X111054Y395856D01*
X111054Y395856D01*
X110945Y396020D01*
X110836Y396182D01*
X110836Y396182D01*
X110836Y396182D01*
X110826Y396192D01*
X110649Y396619D01*
Y397081D01*
X110826Y397509D01*
X111153Y397835D01*
X111580Y398012D01*
X112042D01*
X112469Y397835D01*
D02*
G37*
G36*
X124953Y397434D02*
X125216Y397282D01*
X125431Y397067D01*
X125583Y396804D01*
X125662Y396510D01*
Y396206D01*
X125540Y395751D01*
X125509Y395688D01*
X125503Y395596D01*
X125473Y395508D01*
X125485Y395325D01*
X125473Y395141D01*
X125503Y395054D01*
X125509Y394961D01*
X125540Y394898D01*
X125662Y394443D01*
Y394139D01*
X125583Y393846D01*
X125431Y393583D01*
X125216Y393368D01*
X124953Y393216D01*
X124660Y393137D01*
X124356D01*
X124062Y393216D01*
X123799Y393368D01*
X123584Y393583D01*
X123432Y393846D01*
X123354Y394139D01*
Y394443D01*
X123476Y394898D01*
X123507Y394961D01*
X123513Y395054D01*
X123542Y395141D01*
X123530Y395325D01*
X123542Y395508D01*
X123513Y395596D01*
X123507Y395688D01*
X123476Y395751D01*
X123354Y396206D01*
Y396510D01*
X123432Y396804D01*
X123584Y397067D01*
X123799Y397282D01*
X124062Y397434D01*
X124356Y397512D01*
X124660D01*
X124953Y397434D01*
D02*
G37*
%LPC*%
G36*
X182133Y307087D02*
X181252D01*
X180401Y306859D01*
X179638Y306418D01*
X179015Y305795D01*
X178575Y305032D01*
X178347Y304181D01*
Y303300D01*
X178575Y302449D01*
X179015Y301685D01*
X179638Y301062D01*
X180401Y300622D01*
X181252Y300394D01*
X182133D01*
X182985Y300622D01*
X183748Y301062D01*
X184371Y301685D01*
X184811Y302449D01*
X185039Y303300D01*
Y304181D01*
X184811Y305032D01*
X184371Y305795D01*
X183748Y306418D01*
X182985Y306859D01*
X182133Y307087D01*
D02*
G37*
G36*
X292370Y299213D02*
X291489D01*
X290637Y298985D01*
X289874Y298544D01*
X289251Y297921D01*
X288811Y297158D01*
X288583Y296307D01*
Y296088D01*
X288083Y295881D01*
X287308Y296656D01*
X287174Y297158D01*
X286733Y297921D01*
X286110Y298544D01*
X285347Y298985D01*
X284496Y299213D01*
X283614D01*
X282763Y298985D01*
X282000Y298544D01*
X281377Y297921D01*
X280937Y297158D01*
X280709Y296307D01*
Y295426D01*
X280937Y294574D01*
X281377Y293811D01*
X282000Y293188D01*
X282763Y292748D01*
X283614Y292520D01*
X284496D01*
X285347Y292748D01*
X286110Y293188D01*
X286172Y293250D01*
X289044Y290378D01*
Y289173D01*
X289044Y289173D01*
X289075Y289018D01*
Y286811D01*
X292618D01*
Y291142D01*
X292236D01*
X292133Y291658D01*
X291891Y292020D01*
X292080Y292459D01*
X292144Y292520D01*
X292370D01*
X293221Y292748D01*
X293813Y293090D01*
X296555Y290347D01*
Y286811D01*
X300098D01*
Y291142D01*
X299874D01*
X299810Y291461D01*
X299462Y291982D01*
X299462Y291982D01*
X295276Y296168D01*
Y296307D01*
X295047Y297158D01*
X294607Y297921D01*
X293984Y298544D01*
X293221Y298985D01*
X292370Y299213D01*
D02*
G37*
G36*
X339614D02*
X338733D01*
X337882Y298985D01*
X337119Y298544D01*
X336495Y297921D01*
X336055Y297158D01*
X335827Y296307D01*
Y295426D01*
X336055Y294574D01*
X336495Y293811D01*
X337119Y293188D01*
X337882Y292748D01*
X338733Y292520D01*
X339614D01*
X340465Y292748D01*
X341228Y293188D01*
X341851Y293811D01*
X342292Y294574D01*
X342520Y295426D01*
Y296307D01*
X342292Y297158D01*
X341851Y297921D01*
X341228Y298544D01*
X340465Y298985D01*
X339614Y299213D01*
D02*
G37*
G36*
X245126D02*
X244245D01*
X243393Y298985D01*
X242630Y298544D01*
X242007Y297921D01*
X241567Y297158D01*
X241339Y296307D01*
Y295426D01*
X241567Y294574D01*
X242007Y293811D01*
X242630Y293188D01*
X243393Y292748D01*
X244245Y292520D01*
X245126D01*
X245977Y292748D01*
X246740Y293188D01*
X247363Y293811D01*
X247803Y294574D01*
X248031Y295426D01*
Y296307D01*
X247803Y297158D01*
X247363Y297921D01*
X246740Y298544D01*
X245977Y298985D01*
X245126Y299213D01*
D02*
G37*
G36*
X197881D02*
X197000D01*
X196149Y298985D01*
X195386Y298544D01*
X194763Y297921D01*
X194323Y297158D01*
X194095Y296307D01*
Y295426D01*
X194323Y294574D01*
X194763Y293811D01*
X195386Y293188D01*
X196149Y292748D01*
X197000Y292520D01*
X197881D01*
X198733Y292748D01*
X199496Y293188D01*
X200119Y293811D01*
X200559Y294574D01*
X200787Y295426D01*
Y296307D01*
X200559Y297158D01*
X200119Y297921D01*
X199496Y298544D01*
X198733Y298985D01*
X197881Y299213D01*
D02*
G37*
G36*
X190007D02*
X189126D01*
X188275Y298985D01*
X187512Y298544D01*
X186889Y297921D01*
X186449Y297158D01*
X186221Y296307D01*
Y295426D01*
X186449Y294574D01*
X186889Y293811D01*
X187512Y293188D01*
X188275Y292748D01*
X189126Y292520D01*
X190007D01*
X190859Y292748D01*
X191622Y293188D01*
X192245Y293811D01*
X192685Y294574D01*
X192913Y295426D01*
Y296307D01*
X192685Y297158D01*
X192245Y297921D01*
X191622Y298544D01*
X190859Y298985D01*
X190007Y299213D01*
D02*
G37*
G36*
X323866Y299213D02*
X322985D01*
X322133Y298985D01*
X321370Y298544D01*
X320747Y297921D01*
X320307Y297158D01*
X320079Y296307D01*
Y295426D01*
X320307Y294574D01*
X320747Y293811D01*
X321370Y293188D01*
X322133Y292748D01*
X322985Y292520D01*
X323866D01*
X324717Y292748D01*
X325480Y293188D01*
X326103Y293811D01*
X326544Y294574D01*
X326772Y295426D01*
Y296307D01*
X326544Y297158D01*
X326103Y297921D01*
X325480Y298544D01*
X324717Y298985D01*
X323866Y299213D01*
D02*
G37*
G36*
X276622D02*
X275741D01*
X274889Y298985D01*
X274126Y298544D01*
X273503Y297921D01*
X273063Y297158D01*
X272835Y296307D01*
Y295426D01*
X273063Y294574D01*
X273503Y293811D01*
X274126Y293188D01*
X274889Y292748D01*
X275741Y292520D01*
X276622D01*
X277473Y292748D01*
X278236Y293188D01*
X278859Y293811D01*
X279299Y294574D01*
X279528Y295426D01*
Y296307D01*
X279299Y297158D01*
X278859Y297921D01*
X278236Y298544D01*
X277473Y298985D01*
X276622Y299213D01*
D02*
G37*
G36*
X268748D02*
X267866D01*
X267015Y298985D01*
X266252Y298544D01*
X265629Y297921D01*
X265189Y297158D01*
X264961Y296307D01*
Y295426D01*
X265189Y294574D01*
X265629Y293811D01*
X266252Y293188D01*
X267015Y292748D01*
X267866Y292520D01*
X268748D01*
X269599Y292748D01*
X270362Y293188D01*
X270985Y293811D01*
X271426Y294574D01*
X271654Y295426D01*
Y296307D01*
X271426Y297158D01*
X270985Y297921D01*
X270362Y298544D01*
X269599Y298985D01*
X268748Y299213D01*
D02*
G37*
G36*
X260874D02*
X259993D01*
X259141Y298985D01*
X258378Y298544D01*
X257755Y297921D01*
X257315Y297158D01*
X257087Y296307D01*
Y295426D01*
X257315Y294574D01*
X257755Y293811D01*
X258378Y293188D01*
X259141Y292748D01*
X259993Y292520D01*
X260874D01*
X261725Y292748D01*
X262488Y293188D01*
X263111Y293811D01*
X263551Y294574D01*
X263779Y295426D01*
Y296307D01*
X263551Y297158D01*
X263111Y297921D01*
X262488Y298544D01*
X261725Y298985D01*
X260874Y299213D01*
D02*
G37*
G36*
X253000D02*
X252118D01*
X251267Y298985D01*
X250504Y298544D01*
X249881Y297921D01*
X249441Y297158D01*
X249213Y296307D01*
Y295426D01*
X249441Y294574D01*
X249881Y293811D01*
X250504Y293188D01*
X251267Y292748D01*
X252118Y292520D01*
X253000D01*
X253851Y292748D01*
X254614Y293188D01*
X255237Y293811D01*
X255677Y294574D01*
X255906Y295426D01*
Y296307D01*
X255677Y297158D01*
X255237Y297921D01*
X254614Y298544D01*
X253851Y298985D01*
X253000Y299213D01*
D02*
G37*
G36*
X237252D02*
X236370D01*
X235519Y298985D01*
X234756Y298544D01*
X234133Y297921D01*
X233693Y297158D01*
X233465Y296307D01*
Y295426D01*
X233693Y294574D01*
X234133Y293811D01*
X234756Y293188D01*
X235519Y292748D01*
X236370Y292520D01*
X237252D01*
X238103Y292748D01*
X238866Y293188D01*
X239489Y293811D01*
X239929Y294574D01*
X240158Y295426D01*
Y296307D01*
X239929Y297158D01*
X239489Y297921D01*
X238866Y298544D01*
X238103Y298985D01*
X237252Y299213D01*
D02*
G37*
G36*
X182133D02*
X181252D01*
X180401Y298985D01*
X179638Y298544D01*
X179015Y297921D01*
X178575Y297158D01*
X178347Y296307D01*
Y295426D01*
X178575Y294574D01*
X179015Y293811D01*
X179638Y293188D01*
X180401Y292748D01*
X181252Y292520D01*
X182133D01*
X182985Y292748D01*
X183748Y293188D01*
X184371Y293811D01*
X184811Y294574D01*
X185039Y295426D01*
Y296307D01*
X184811Y297158D01*
X184371Y297921D01*
X183748Y298544D01*
X182985Y298985D01*
X182133Y299213D01*
D02*
G37*
G36*
X177399Y290846D02*
X176538D01*
X175742Y290517D01*
X175133Y289908D01*
X174803Y289112D01*
Y288250D01*
X175133Y287455D01*
X175742Y286845D01*
X176538Y286516D01*
X177399D01*
X178195Y286845D01*
X178804Y287455D01*
X179134Y288250D01*
Y289112D01*
X178804Y289908D01*
X178195Y290517D01*
X177399Y290846D01*
D02*
G37*
G36*
X356014Y295196D02*
X354812D01*
X354715Y295177D01*
X354617D01*
X353438Y294943D01*
X353346Y294905D01*
X353249Y294885D01*
X352139Y294426D01*
X352057Y294371D01*
X351965Y294333D01*
X350966Y293665D01*
X350896Y293595D01*
X350814Y293540D01*
X349964Y292690D01*
X349909Y292608D01*
X349839Y292538D01*
X349171Y291539D01*
X349133Y291447D01*
X349078Y291365D01*
X348618Y290255D01*
X348599Y290158D01*
X348561Y290066D01*
X348327Y288887D01*
Y288789D01*
X348307Y288692D01*
Y287490D01*
X348327Y287393D01*
Y287294D01*
X348561Y286115D01*
X348599Y286023D01*
X348618Y285927D01*
X349078Y284816D01*
X349133Y284734D01*
X349171Y284643D01*
X349839Y283643D01*
X349909Y283573D01*
X349964Y283491D01*
X350814Y282641D01*
X350896Y282586D01*
X350966Y282516D01*
X351965Y281848D01*
X352057Y281810D01*
X352139Y281756D01*
X353249Y281296D01*
X353346Y281276D01*
X353438Y281239D01*
X354617Y281004D01*
X354715D01*
X354812Y280985D01*
X356014D01*
X356111Y281004D01*
X356210D01*
X357389Y281239D01*
X357481Y281276D01*
X357577Y281296D01*
X358688Y281756D01*
X358770Y281810D01*
X358861Y281848D01*
X359861Y282516D01*
X359931Y282586D01*
X360013Y282641D01*
X360863Y283491D01*
X360918Y283573D01*
X360988Y283643D01*
X361656Y284643D01*
X361693Y284734D01*
X361748Y284816D01*
X362208Y285927D01*
X362228Y286023D01*
X362265Y286115D01*
X362500Y287294D01*
Y287393D01*
X362519Y287490D01*
Y288692D01*
X362500Y288789D01*
Y288887D01*
X362265Y290066D01*
X362228Y290158D01*
X362208Y290255D01*
X361748Y291365D01*
X361694Y291447D01*
X361656Y291539D01*
X360988Y292538D01*
X360918Y292608D01*
X360863Y292690D01*
X360013Y293540D01*
X359931Y293595D01*
X359861Y293665D01*
X358861Y294333D01*
X358770Y294371D01*
X358688Y294426D01*
X357577Y294885D01*
X357481Y294905D01*
X357389Y294943D01*
X356210Y295177D01*
X356111D01*
X356014Y295196D01*
D02*
G37*
%LPD*%
D12*
X305512Y291634D02*
X308661D01*
X303740Y293406D02*
X305512Y291634D01*
X303740Y293406D02*
Y299803D01*
X299803Y303740D02*
X303740Y299803D01*
X209161Y293496D02*
Y299894D01*
X205315Y303740D02*
X209161Y299894D01*
D33*
X272402Y283760D02*
X272639Y283661D01*
X332874Y319291D02*
Y328937D01*
X327953Y314370D02*
X332874Y319291D01*
X168209Y284744D02*
Y306496D01*
X106693Y367028D02*
X133957D01*
X161673Y278209D02*
X168209Y284744D01*
Y306496D02*
X176083Y314370D01*
X161673Y278209D02*
X266850D01*
X108299D02*
X161673D01*
X176083Y314370D02*
X327953D01*
X266850Y278209D02*
X272402Y283760D01*
X272639Y283661D02*
X279429D01*
X108260Y278248D02*
X108299Y278209D01*
X105512Y278248D02*
X108260D01*
X102067Y281693D02*
X105512Y278248D01*
X102067Y281693D02*
Y362402D01*
X106693Y367028D01*
X133957D02*
X135433Y368504D01*
D34*
X202067Y473622D02*
D03*
X202067Y485433D02*
D03*
X243110Y485433D02*
D03*
Y473622D02*
D03*
X232874Y485433D02*
D03*
Y473622D02*
D03*
X253346Y485433D02*
D03*
Y473622D02*
D03*
X222539Y485433D02*
D03*
Y473622D02*
D03*
X212303Y485433D02*
D03*
Y473622D02*
D03*
X181595Y485433D02*
D03*
Y473622D02*
D03*
X191831Y485433D02*
D03*
Y473622D02*
D03*
X171457Y485433D02*
D03*
Y473622D02*
D03*
X161221Y485433D02*
D03*
X161221Y473622D02*
D03*
X263484Y485433D02*
D03*
X263484Y473622D02*
D03*
X273721Y485433D02*
D03*
Y473622D02*
D03*
X283957Y485433D02*
D03*
X283957Y473622D02*
D03*
X294193Y485433D02*
D03*
Y473622D02*
D03*
X304429Y485433D02*
D03*
Y473622D02*
D03*
X314665Y485433D02*
D03*
X314665Y473622D02*
D03*
X324902Y485433D02*
D03*
X324902Y473622D02*
D03*
X335138Y485433D02*
D03*
Y473622D02*
D03*
D35*
X275590Y446752D02*
D03*
Y387303D02*
D03*
X179921Y387319D02*
D03*
X179921Y446768D02*
D03*
D36*
X348031Y417028D02*
D03*
X252362Y417043D02*
D03*
D37*
X134153Y366732D02*
D03*
Y384842D02*
D03*
D38*
X301870Y288976D02*
D03*
X298327D02*
D03*
X290846D02*
D03*
X294390D02*
D03*
X306496Y288287D02*
D03*
X310039D02*
D03*
X312697Y288386D02*
D03*
X316240D02*
D03*
X310039Y285039D02*
D03*
X306496D02*
D03*
D39*
X279429Y283661D02*
D03*
X285728D02*
D03*
D40*
X345079Y325098D02*
Y328839D01*
X345079Y328839D02*
X345079Y328839D01*
X338976Y317028D02*
Y328740D01*
X333169Y311221D02*
X338976Y317028D01*
X338976Y347638D02*
Y355413D01*
Y346949D02*
Y347638D01*
Y355413D02*
X342224Y358661D01*
X345079Y325098D02*
X345079Y325098D01*
X173819Y303740D02*
X181299Y311221D01*
X333169D01*
X194882Y309055D02*
X346161D01*
X189567Y303740D02*
X194882Y309055D01*
X346161D02*
X362795Y325689D01*
X285827Y295866D02*
X290650Y291043D01*
X284055Y295866D02*
X285827D01*
X290650Y289173D02*
Y291043D01*
Y289173D02*
X290846Y288976D01*
X209161Y291724D02*
X212451Y288435D01*
X209161Y291724D02*
Y293496D01*
X316240Y288386D02*
Y290650D01*
X315551Y291339D02*
X316240Y290650D01*
X315551Y291339D02*
Y295866D01*
X308661Y291634D02*
X310039Y290256D01*
Y288287D02*
Y290256D01*
X301772Y286319D02*
Y288878D01*
X301870Y288976D01*
X301673Y286221D02*
X301772Y286319D01*
X298327Y288976D02*
Y290846D01*
X293307Y295866D02*
X298327Y290846D01*
X291929Y295866D02*
X293307D01*
X294390Y288976D02*
X294488Y288878D01*
Y286912D02*
Y288878D01*
X301673Y286221D02*
X306053D01*
X362795Y325689D02*
Y352362D01*
X306496Y286663D02*
Y288287D01*
Y285039D02*
Y286663D01*
Y288287D02*
X306496Y288287D01*
X306053Y286221D02*
X306496Y286663D01*
X310039Y285039D02*
Y288287D01*
X310089Y288337D02*
X312648D01*
X310039Y288287D02*
X310089Y288337D01*
X312648D02*
X312697Y288386D01*
X295180Y286221D02*
X301673D01*
X294488Y286912D02*
X295180Y286221D01*
X342224Y358661D02*
X356496D01*
X362795Y352362D01*
D41*
X339075Y347933D02*
D03*
D42*
X339272Y327067D02*
D03*
D43*
X242126Y347638D02*
D03*
X194882D02*
D03*
X171260D02*
D03*
X289370D02*
D03*
X312992D02*
D03*
X242126Y327559D02*
D03*
X194882D02*
D03*
X171260D02*
D03*
X289370D02*
D03*
X312991D02*
D03*
D44*
X226378Y347638D02*
D03*
X257874D02*
D03*
X226378Y327559D02*
D03*
X257874D02*
D03*
D45*
X351181Y327440D02*
D03*
X326772D02*
D03*
X332874D02*
D03*
X338976D02*
D03*
X345079D02*
D03*
X351181Y347638D02*
D03*
X338976D02*
D03*
X332874D02*
D03*
X326772D02*
D03*
X345079D02*
D03*
D46*
X272402Y284843D02*
D03*
X262402D02*
D03*
D47*
X176260Y502953D02*
D03*
X186260D02*
D03*
X196260D02*
D03*
X311240D02*
D03*
X321240D02*
D03*
X331240D02*
D03*
D48*
X339173Y303740D02*
D03*
Y295866D02*
D03*
X331299Y303740D02*
D03*
Y295866D02*
D03*
X323425Y303740D02*
D03*
Y295866D02*
D03*
X315551Y303740D02*
D03*
Y295866D02*
D03*
X307677Y303740D02*
D03*
X307677Y295866D02*
D03*
X299803Y303740D02*
D03*
Y295866D02*
D03*
X291929Y303740D02*
D03*
Y295866D02*
D03*
X284055Y303740D02*
D03*
X284055Y295866D02*
D03*
X276181Y303740D02*
D03*
Y295866D02*
D03*
X268307Y303740D02*
D03*
Y295866D02*
D03*
X260433Y303740D02*
D03*
Y295866D02*
D03*
X252559Y303740D02*
D03*
X252559Y295866D02*
D03*
X244685Y303740D02*
D03*
Y295866D02*
D03*
X236811Y303740D02*
D03*
X236811Y295866D02*
D03*
X228937Y303740D02*
D03*
Y295866D02*
D03*
X221063Y303740D02*
D03*
Y295866D02*
D03*
X213189Y303740D02*
D03*
X213189Y295866D02*
D03*
X205315Y303740D02*
D03*
Y295866D02*
D03*
X197441Y303740D02*
D03*
Y295866D02*
D03*
X189567Y303740D02*
D03*
X189567Y295866D02*
D03*
X181693Y303740D02*
D03*
Y295866D02*
D03*
X173819Y303740D02*
D03*
X173819Y295866D02*
D03*
D49*
X124075Y488524D02*
D03*
X123524Y298622D02*
D03*
X123917Y340354D02*
D03*
X123917Y448130D02*
D03*
D50*
X112520Y500079D02*
D03*
X135630D02*
D03*
Y476968D02*
D03*
X112520D02*
D03*
X111969Y287067D02*
D03*
X135079D02*
D03*
Y310177D02*
D03*
X111969D02*
D03*
X112362Y351909D02*
D03*
X135473D02*
D03*
Y328799D02*
D03*
X112362D02*
D03*
X112362Y459685D02*
D03*
X135473D02*
D03*
Y436575D02*
D03*
X112362D02*
D03*
D51*
X159449Y390079D02*
D03*
Y400079D02*
D03*
Y410079D02*
D03*
Y420079D02*
D03*
D52*
X332776Y325394D02*
D03*
X332874Y328937D02*
D03*
X345079Y349803D02*
D03*
X351181Y329035D02*
D03*
X345079Y328839D02*
D03*
X338976Y328740D02*
D03*
X338976Y325446D02*
D03*
X337992Y406988D02*
D03*
X343898D02*
D03*
X340945Y412894D02*
D03*
X349803Y406988D02*
D03*
X346850Y412894D02*
D03*
X352756D02*
D03*
X338878Y418898D02*
D03*
X344783D02*
D03*
X341831Y424803D02*
D03*
X350689Y418898D02*
D03*
X347736Y424803D02*
D03*
X353642D02*
D03*
X242028Y413189D02*
D03*
X247933D02*
D03*
X253839D02*
D03*
X259744D02*
D03*
X246063Y419390D02*
D03*
X243110Y425295D02*
D03*
X251969Y419390D02*
D03*
X249016Y425295D02*
D03*
X257874Y419390D02*
D03*
X254921Y425295D02*
D03*
X354331Y401575D02*
D03*
Y389764D02*
D03*
Y377953D02*
D03*
X348425Y437008D02*
D03*
X351378Y431102D02*
D03*
X348425Y401575D02*
D03*
X351378Y395669D02*
D03*
X348425Y389764D02*
D03*
X351378Y383858D02*
D03*
X348425Y377953D02*
D03*
X351378Y372047D02*
D03*
X342520Y437008D02*
D03*
X345472Y431102D02*
D03*
X342520Y401575D02*
D03*
X345472Y395669D02*
D03*
X342520Y389764D02*
D03*
X345472Y383858D02*
D03*
X342520Y377953D02*
D03*
X345472Y372047D02*
D03*
X342520Y366142D02*
D03*
X336614Y437008D02*
D03*
X339567Y431102D02*
D03*
X336614Y425197D02*
D03*
Y413386D02*
D03*
Y401575D02*
D03*
X339567Y395669D02*
D03*
X336614Y389764D02*
D03*
X339567Y383858D02*
D03*
X336614Y377953D02*
D03*
X339567Y372047D02*
D03*
X336614Y366142D02*
D03*
X330709Y437008D02*
D03*
X333661Y431102D02*
D03*
X330709Y425197D02*
D03*
X333661Y419291D02*
D03*
X330709Y413386D02*
D03*
X333661Y407480D02*
D03*
X330709Y401575D02*
D03*
X333661Y395669D02*
D03*
X330709Y389764D02*
D03*
X333661Y383858D02*
D03*
X330709Y377953D02*
D03*
X333661Y372047D02*
D03*
X330709Y366142D02*
D03*
X324803Y437008D02*
D03*
X327756Y431102D02*
D03*
X324803Y425197D02*
D03*
X327756Y419291D02*
D03*
X324803Y413386D02*
D03*
X327756Y407480D02*
D03*
X324803Y401575D02*
D03*
X327756Y395669D02*
D03*
X324803Y389764D02*
D03*
X327756Y383858D02*
D03*
X324803Y377953D02*
D03*
X327756Y372047D02*
D03*
X324803Y366142D02*
D03*
X318898Y437008D02*
D03*
X321850Y431102D02*
D03*
X318898Y425197D02*
D03*
X321850Y419291D02*
D03*
X318898Y413386D02*
D03*
X321850Y407480D02*
D03*
X318898Y401575D02*
D03*
X321850Y395669D02*
D03*
X318898Y389764D02*
D03*
X321850Y383858D02*
D03*
X318898Y377953D02*
D03*
X321850Y372047D02*
D03*
X318898Y366142D02*
D03*
X321850Y360236D02*
D03*
X318898Y354331D02*
D03*
X312992Y437008D02*
D03*
X315945Y431102D02*
D03*
X312992Y425197D02*
D03*
X315945Y419291D02*
D03*
X312992Y413386D02*
D03*
X315945Y407480D02*
D03*
X312992Y401575D02*
D03*
X315945Y395669D02*
D03*
X312992Y389764D02*
D03*
X315945Y383858D02*
D03*
X312992Y377953D02*
D03*
X315945Y372047D02*
D03*
X312992Y366142D02*
D03*
X315945Y360236D02*
D03*
X312992Y354331D02*
D03*
X310039Y431102D02*
D03*
X307086Y425197D02*
D03*
X310039Y419291D02*
D03*
X307086Y413386D02*
D03*
X310039Y407480D02*
D03*
X307086Y401575D02*
D03*
X310039Y395669D02*
D03*
X307086Y389764D02*
D03*
X310039Y383858D02*
D03*
X307086Y377953D02*
D03*
X310039Y372047D02*
D03*
X307086Y366142D02*
D03*
X310039Y360236D02*
D03*
X307086Y354331D02*
D03*
X304134Y431102D02*
D03*
X301181Y425197D02*
D03*
X304134Y419291D02*
D03*
X301181Y413386D02*
D03*
X304134Y407480D02*
D03*
X301181Y401575D02*
D03*
X304134Y395669D02*
D03*
Y383858D02*
D03*
Y372047D02*
D03*
Y360236D02*
D03*
X298228Y431102D02*
D03*
X295275Y425197D02*
D03*
X298228Y419291D02*
D03*
X295275Y413386D02*
D03*
X298228Y407480D02*
D03*
X292323Y431102D02*
D03*
X289370Y425197D02*
D03*
X292323Y419291D02*
D03*
X289370Y413386D02*
D03*
X292323Y407480D02*
D03*
X286417Y431102D02*
D03*
X283465Y425197D02*
D03*
X286417Y419291D02*
D03*
X283465Y413386D02*
D03*
X286417Y407480D02*
D03*
X280512Y431102D02*
D03*
X277559Y425197D02*
D03*
X280512Y419291D02*
D03*
X277559Y413386D02*
D03*
X280512Y407480D02*
D03*
X274606Y431102D02*
D03*
X271654Y425197D02*
D03*
X274606Y419291D02*
D03*
X271654Y413386D02*
D03*
X274606Y407480D02*
D03*
X268701Y431102D02*
D03*
X265748Y425197D02*
D03*
X268701Y419291D02*
D03*
X265748Y413386D02*
D03*
X268701Y407480D02*
D03*
X262795Y431102D02*
D03*
X253937Y448819D02*
D03*
Y437008D02*
D03*
X256890Y431102D02*
D03*
X250984Y454724D02*
D03*
X248031Y448819D02*
D03*
X250984Y442913D02*
D03*
X248031Y437008D02*
D03*
X250984Y431102D02*
D03*
X245079Y454724D02*
D03*
X242126Y448819D02*
D03*
X245079Y442913D02*
D03*
X242126Y437008D02*
D03*
X245079Y431102D02*
D03*
X239173Y454724D02*
D03*
X236220Y448819D02*
D03*
X239173Y442913D02*
D03*
X236220Y437008D02*
D03*
X239173Y431102D02*
D03*
X236220Y425197D02*
D03*
X239173Y419291D02*
D03*
X236220Y413386D02*
D03*
X230315Y448819D02*
D03*
X233268Y442913D02*
D03*
X230315Y437008D02*
D03*
X233268Y431102D02*
D03*
X230315Y425197D02*
D03*
X233268Y419291D02*
D03*
X230315Y413386D02*
D03*
X227362Y442913D02*
D03*
X224409Y437008D02*
D03*
X227362Y431102D02*
D03*
X224409Y425197D02*
D03*
X227362Y419291D02*
D03*
X224409Y413386D02*
D03*
X218504Y437008D02*
D03*
X221457Y431102D02*
D03*
X218504Y425197D02*
D03*
X221457Y419291D02*
D03*
X218504Y413386D02*
D03*
X212598Y437008D02*
D03*
X215551Y431102D02*
D03*
X212598Y425197D02*
D03*
X215551Y419291D02*
D03*
X212598Y413386D02*
D03*
X209646Y431102D02*
D03*
X206693Y425197D02*
D03*
X209646Y419291D02*
D03*
X206693Y413386D02*
D03*
X203740Y431102D02*
D03*
X200787Y425197D02*
D03*
X203740Y419291D02*
D03*
X200787Y413386D02*
D03*
X194882Y460630D02*
D03*
X197835Y454724D02*
D03*
Y431102D02*
D03*
X194882Y425197D02*
D03*
X197835Y419291D02*
D03*
X194882Y413386D02*
D03*
X188976Y460630D02*
D03*
X191929Y431102D02*
D03*
X188976Y425197D02*
D03*
X191929Y419291D02*
D03*
X188976Y413386D02*
D03*
X186024Y466535D02*
D03*
X183071Y460630D02*
D03*
X186024Y431102D02*
D03*
X183071Y425197D02*
D03*
X186024Y419291D02*
D03*
X183071Y413386D02*
D03*
X180118Y466535D02*
D03*
X177165Y460630D02*
D03*
X180118Y431102D02*
D03*
X177165Y425197D02*
D03*
X180118Y419291D02*
D03*
X177165Y413386D02*
D03*
X174213Y466535D02*
D03*
X171260Y460630D02*
D03*
X174213Y431102D02*
D03*
X171260Y425197D02*
D03*
X174213Y419291D02*
D03*
X171260Y413386D02*
D03*
X168307Y466535D02*
D03*
X165354Y460630D02*
D03*
X168307Y431102D02*
D03*
X165354Y425197D02*
D03*
X168307Y419291D02*
D03*
X165354Y413386D02*
D03*
X162401Y466535D02*
D03*
X159449Y460630D02*
D03*
Y448819D02*
D03*
Y437008D02*
D03*
X162401Y431102D02*
D03*
X159449Y425197D02*
D03*
X156496Y466535D02*
D03*
X153543Y460630D02*
D03*
X156496Y454724D02*
D03*
X153543Y448819D02*
D03*
X156496Y442913D02*
D03*
X153543Y437008D02*
D03*
X156496Y431102D02*
D03*
X153543Y425197D02*
D03*
Y413386D02*
D03*
X147638Y460630D02*
D03*
X150591Y454724D02*
D03*
X147638Y448819D02*
D03*
X150591Y442913D02*
D03*
X147638Y437008D02*
D03*
X150591Y431102D02*
D03*
X147638Y425197D02*
D03*
X150591Y419291D02*
D03*
X147638Y413386D02*
D03*
X150591Y407480D02*
D03*
X144685Y454724D02*
D03*
X141732Y448819D02*
D03*
X144685Y442913D02*
D03*
Y431102D02*
D03*
X141732Y425197D02*
D03*
X144685Y419291D02*
D03*
X141732Y413386D02*
D03*
X144685Y407480D02*
D03*
X135827Y448819D02*
D03*
Y425197D02*
D03*
X138779Y419291D02*
D03*
X135827Y413386D02*
D03*
X138779Y407480D02*
D03*
X129921Y425197D02*
D03*
X132874Y419291D02*
D03*
X129921Y413386D02*
D03*
X132874Y407480D02*
D03*
Y395669D02*
D03*
X124016Y460630D02*
D03*
Y437008D02*
D03*
X126969Y431102D02*
D03*
X124016Y425197D02*
D03*
X126969Y419291D02*
D03*
X124016Y413386D02*
D03*
X126969Y407480D02*
D03*
X121063Y431102D02*
D03*
X118110Y425197D02*
D03*
X121063Y419291D02*
D03*
X118110Y413386D02*
D03*
X121063Y407480D02*
D03*
X118110Y401575D02*
D03*
X112205Y448819D02*
D03*
Y425197D02*
D03*
Y401575D02*
D03*
X202440Y483957D02*
D03*
X202342Y487303D02*
D03*
X348031Y320276D02*
D03*
X326279Y319488D02*
D03*
X325295Y283563D02*
D03*
X363583Y300098D02*
D03*
X320965Y283661D02*
D03*
X301772Y281890D02*
D03*
X217717Y283760D02*
D03*
X203740Y282283D02*
D03*
X197244Y282087D02*
D03*
X191339D02*
D03*
X186122Y282185D02*
D03*
X259449Y358772D02*
D03*
Y354256D02*
D03*
X255906Y358772D02*
D03*
Y354256D02*
D03*
X228248Y358673D02*
D03*
Y354158D02*
D03*
X224705Y358673D02*
D03*
Y354158D02*
D03*
X274016Y491142D02*
D03*
X278531D02*
D03*
X283047D02*
D03*
X287563D02*
D03*
X287464Y494488D02*
D03*
X282949D02*
D03*
X278433D02*
D03*
X273917D02*
D03*
X274114Y487402D02*
D03*
X278630D02*
D03*
X283145D02*
D03*
X287661D02*
D03*
X287760Y484055D02*
D03*
X283244D02*
D03*
X278728D02*
D03*
X274213D02*
D03*
X157283Y483957D02*
D03*
X161799D02*
D03*
X166315D02*
D03*
X170831D02*
D03*
X175346D02*
D03*
X179862D02*
D03*
X184378D02*
D03*
X188893D02*
D03*
X193409D02*
D03*
X197925D02*
D03*
X206956D02*
D03*
X211472D02*
D03*
X220503D02*
D03*
X229534D02*
D03*
X215987D02*
D03*
X234050D02*
D03*
X225019D02*
D03*
X238566D02*
D03*
X243081D02*
D03*
X247597D02*
D03*
X252113D02*
D03*
X256628D02*
D03*
X261144D02*
D03*
X265660D02*
D03*
X270176D02*
D03*
X270077Y487303D02*
D03*
X265561D02*
D03*
X261046D02*
D03*
X256530D02*
D03*
X252014D02*
D03*
X247499D02*
D03*
X242983D02*
D03*
X238467D02*
D03*
X224920D02*
D03*
X233952D02*
D03*
X215889D02*
D03*
X229436D02*
D03*
X220405D02*
D03*
X211373D02*
D03*
X206857D02*
D03*
X197826D02*
D03*
X193310D02*
D03*
X188795D02*
D03*
X184279D02*
D03*
X179763D02*
D03*
X175248D02*
D03*
X170732D02*
D03*
X166216D02*
D03*
X161701D02*
D03*
X157185D02*
D03*
X150394Y476575D02*
D03*
Y481090D02*
D03*
Y485606D02*
D03*
Y490122D02*
D03*
Y494637D02*
D03*
X147047Y494539D02*
D03*
Y490023D02*
D03*
X147047Y485508D02*
D03*
X147047Y480992D02*
D03*
Y476476D02*
D03*
X149213Y500197D02*
D03*
X153728D02*
D03*
X158244D02*
D03*
X162760D02*
D03*
X167275D02*
D03*
X167177Y503543D02*
D03*
X162661D02*
D03*
X158145D02*
D03*
X153630D02*
D03*
X149114D02*
D03*
X206415Y505905D02*
D03*
X210930D02*
D03*
X215446D02*
D03*
X219962D02*
D03*
X224477D02*
D03*
X228993D02*
D03*
X233509D02*
D03*
X238024D02*
D03*
X242540D02*
D03*
X247056D02*
D03*
X251571D02*
D03*
X256087D02*
D03*
X260603D02*
D03*
X269634D02*
D03*
X278665D02*
D03*
X265119D02*
D03*
X283181D02*
D03*
X274150D02*
D03*
X287697D02*
D03*
X206415Y502362D02*
D03*
X210930D02*
D03*
X215446D02*
D03*
X219962D02*
D03*
X224477D02*
D03*
X228993D02*
D03*
X233509D02*
D03*
X238024D02*
D03*
X242540D02*
D03*
X247056D02*
D03*
X251571D02*
D03*
X256087D02*
D03*
X260603D02*
D03*
X269634D02*
D03*
X278665D02*
D03*
X265118D02*
D03*
X283181D02*
D03*
X274150D02*
D03*
X287697D02*
D03*
X206316Y498721D02*
D03*
X210832D02*
D03*
X215348D02*
D03*
X219863D02*
D03*
X224379D02*
D03*
X228895D02*
D03*
X233410D02*
D03*
X237926D02*
D03*
X242442D02*
D03*
X246957D02*
D03*
X251473D02*
D03*
X255989D02*
D03*
X260504D02*
D03*
X269536D02*
D03*
X278567D02*
D03*
X265020D02*
D03*
X283083D02*
D03*
X274051D02*
D03*
X287598D02*
D03*
X156988Y494390D02*
D03*
X161504D02*
D03*
X166019D02*
D03*
X170535D02*
D03*
X175051D02*
D03*
X179567D02*
D03*
X184082D02*
D03*
X188598D02*
D03*
X193114D02*
D03*
X197629D02*
D03*
X202145D02*
D03*
X206661D02*
D03*
X211176D02*
D03*
X220208D02*
D03*
X229239D02*
D03*
X215692D02*
D03*
X233755D02*
D03*
X224723D02*
D03*
X238270D02*
D03*
X242786D02*
D03*
X247302D02*
D03*
X251817D02*
D03*
X256333D02*
D03*
X260849D02*
D03*
X265365D02*
D03*
X269880D02*
D03*
X269979Y491043D02*
D03*
X265463D02*
D03*
X260947D02*
D03*
X256432D02*
D03*
X251916D02*
D03*
X247400D02*
D03*
X242884D02*
D03*
X238369D02*
D03*
X224822D02*
D03*
X233853D02*
D03*
X215791D02*
D03*
X229338D02*
D03*
X220306D02*
D03*
X211275D02*
D03*
X206759D02*
D03*
X202243D02*
D03*
X197728D02*
D03*
X193212D02*
D03*
X188696D02*
D03*
X184181D02*
D03*
X179665D02*
D03*
X175149D02*
D03*
X170634D02*
D03*
X166118D02*
D03*
X161602D02*
D03*
X157087D02*
D03*
X222835Y284055D02*
D03*
X332893Y277756D02*
D03*
X263090Y291142D02*
D03*
X161221Y283268D02*
D03*
X163831Y298056D02*
D03*
X176969Y288681D02*
D03*
X294980Y318110D02*
D03*
X290354D02*
D03*
X280512D02*
D03*
X265748Y318996D02*
D03*
X132185Y368602D02*
D03*
X241634Y287205D02*
D03*
X283858Y290453D02*
D03*
X212500Y288484D02*
D03*
X301673Y286221D02*
D03*
X351181Y325113D02*
D03*
X326772Y349757D02*
D03*
X326772Y346752D02*
D03*
X333169Y349954D02*
D03*
X333169Y346949D02*
D03*
X339075Y349954D02*
D03*
X339075Y346949D02*
D03*
X345177Y346752D02*
D03*
X351181Y349856D02*
D03*
X351181Y346850D02*
D03*
X326772Y328202D02*
D03*
X326772Y325197D02*
D03*
X345079Y325098D02*
D03*
X205709Y442126D02*
D03*
X298764Y442028D02*
D03*
X291961D02*
D03*
X295362D02*
D03*
X288559D02*
D03*
X302165D02*
D03*
X198961Y442126D02*
D03*
X192158D02*
D03*
X195559D02*
D03*
X202362D02*
D03*
X286417Y290453D02*
D03*
X118209Y373524D02*
D03*
X312992Y443504D02*
D03*
X215945Y441732D02*
D03*
X124508Y394291D02*
D03*
X345748Y441851D02*
D03*
X335138Y277756D02*
D03*
X274091Y392173D02*
D03*
X267251D02*
D03*
X280931Y382394D02*
D03*
X274091Y385653D02*
D03*
X277511Y379134D02*
D03*
X267251Y388913D02*
D03*
X270671Y395433D02*
D03*
X280931Y392173D02*
D03*
X270671D02*
D03*
X280931Y385653D02*
D03*
X277511Y388913D02*
D03*
X280931Y395433D02*
D03*
X267251D02*
D03*
X277511Y382394D02*
D03*
X270671Y385653D02*
D03*
X284350Y388913D02*
D03*
X277511Y385653D02*
D03*
Y392173D02*
D03*
X280931Y379134D02*
D03*
X270671D02*
D03*
X267251D02*
D03*
X284350Y395433D02*
D03*
X274091D02*
D03*
Y388913D02*
D03*
Y382394D02*
D03*
X284350D02*
D03*
Y379134D02*
D03*
Y385653D02*
D03*
X270671Y388913D02*
D03*
X280931D02*
D03*
X284350Y392173D02*
D03*
X270671Y382394D02*
D03*
X267251D02*
D03*
X274091Y379134D02*
D03*
X267251Y385653D02*
D03*
X277511Y395433D02*
D03*
X178323Y392272D02*
D03*
X171484D02*
D03*
X185163Y382492D02*
D03*
X178323Y385752D02*
D03*
X181743Y379232D02*
D03*
X171484Y389012D02*
D03*
X174903Y395531D02*
D03*
X185163Y392272D02*
D03*
X174903D02*
D03*
X185163Y385752D02*
D03*
X181743Y389012D02*
D03*
X185163Y395531D02*
D03*
X171484D02*
D03*
X181743Y382492D02*
D03*
X174903Y385752D02*
D03*
X188583Y389012D02*
D03*
X181743Y385752D02*
D03*
Y392272D02*
D03*
X185163Y379232D02*
D03*
X174903D02*
D03*
X171484D02*
D03*
X188583Y395531D02*
D03*
X178323D02*
D03*
Y389012D02*
D03*
Y382492D02*
D03*
X188583D02*
D03*
Y379232D02*
D03*
Y385752D02*
D03*
X174903Y389012D02*
D03*
X185163D02*
D03*
X188583Y392272D02*
D03*
X174903Y382492D02*
D03*
X171484D02*
D03*
X178323Y379232D02*
D03*
X171484Y385752D02*
D03*
X181743Y395531D02*
D03*
X318110Y448228D02*
D03*
X226870Y455020D02*
D03*
X324410Y449606D02*
D03*
X214075Y448221D02*
D03*
X336319Y455807D02*
D03*
X341240Y449409D02*
D03*
X311910Y467028D02*
D03*
X214764Y466634D02*
D03*
X220768Y446654D02*
D03*
X308760Y448228D02*
D03*
X331693Y449409D02*
D03*
X111909Y394193D02*
D03*
X124508Y396358D02*
D03*
X138976Y373130D02*
D03*
X135630D02*
D03*
X132283Y373228D02*
D03*
X126772Y372835D02*
D03*
X124114D02*
D03*
X132087Y365551D02*
D03*
X135335D02*
D03*
X138583D02*
D03*
X138681Y368504D02*
D03*
X135433D02*
D03*
X126575Y384449D02*
D03*
X126673Y387205D02*
D03*
X124016Y384449D02*
D03*
Y387106D02*
D03*
X111811Y396850D02*
D03*
X312742Y473524D02*
D03*
X326309D02*
D03*
X322917D02*
D03*
X309350D02*
D03*
X316134D02*
D03*
X336484D02*
D03*
X329700D02*
D03*
X333092D02*
D03*
X319526D02*
D03*
X278891D02*
D03*
X275454D02*
D03*
X282328D02*
D03*
X285766D02*
D03*
X247955D02*
D03*
X261705D02*
D03*
X258267D02*
D03*
X244518D02*
D03*
X251393D02*
D03*
X272016D02*
D03*
X265142D02*
D03*
X268579D02*
D03*
X254830D02*
D03*
X217020D02*
D03*
X230769D02*
D03*
X227332D02*
D03*
X213583D02*
D03*
X220457D02*
D03*
X241081D02*
D03*
X234206D02*
D03*
X237644D02*
D03*
X223895D02*
D03*
X173561D02*
D03*
X187128D02*
D03*
X183736D02*
D03*
X190519D02*
D03*
X170169D02*
D03*
X163386D02*
D03*
X176953D02*
D03*
X180344D02*
D03*
X166778D02*
D03*
X273992Y451819D02*
D03*
X267153D02*
D03*
X280832Y442039D02*
D03*
X273992Y445299D02*
D03*
X277412Y438779D02*
D03*
X267153Y448559D02*
D03*
X270573Y455079D02*
D03*
X280832Y451819D02*
D03*
X270573D02*
D03*
X280832Y445299D02*
D03*
X277412Y448559D02*
D03*
X280832Y455079D02*
D03*
X267153D02*
D03*
X277412Y442039D02*
D03*
X270573Y445299D02*
D03*
X284252Y448559D02*
D03*
X277412Y445299D02*
D03*
Y451819D02*
D03*
X280832Y438779D02*
D03*
X270573D02*
D03*
X267153D02*
D03*
X284252Y455079D02*
D03*
X273992D02*
D03*
Y448559D02*
D03*
Y442039D02*
D03*
X284252D02*
D03*
Y438779D02*
D03*
Y445299D02*
D03*
X270573Y448559D02*
D03*
X280832D02*
D03*
X284252Y451819D02*
D03*
X270573Y442039D02*
D03*
X267153D02*
D03*
X273992Y438779D02*
D03*
X267153Y445299D02*
D03*
X277412Y455079D02*
D03*
X298764Y438791D02*
D03*
X288559D02*
D03*
X291961D02*
D03*
X295362D02*
D03*
X302165D02*
D03*
X205709Y438693D02*
D03*
X198906D02*
D03*
X195504D02*
D03*
X192103D02*
D03*
X202307D02*
D03*
X180956Y454980D02*
D03*
X170696Y445201D02*
D03*
X177536Y438681D02*
D03*
X170696Y441941D02*
D03*
X174116D02*
D03*
X187795Y451720D02*
D03*
X184376Y448461D02*
D03*
X174116D02*
D03*
X187795Y445201D02*
D03*
Y438681D02*
D03*
Y441941D02*
D03*
X177536D02*
D03*
Y448461D02*
D03*
Y454980D02*
D03*
X187795D02*
D03*
X170696Y438681D02*
D03*
X174116D02*
D03*
X184376D02*
D03*
X180956Y451720D02*
D03*
Y445201D02*
D03*
X187795Y448461D02*
D03*
X174116Y445201D02*
D03*
X180956Y441941D02*
D03*
X170696Y454980D02*
D03*
X184376D02*
D03*
X180956Y448461D02*
D03*
X184376Y445201D02*
D03*
X174116Y451720D02*
D03*
X184376D02*
D03*
X174116Y454980D02*
D03*
X170696Y448461D02*
D03*
X180956Y438681D02*
D03*
X177536Y445201D02*
D03*
X184376Y441941D02*
D03*
X170696Y451720D02*
D03*
X177536D02*
D03*
X156496Y302658D02*
D03*
X304724Y325295D02*
D03*
X307529D02*
D03*
X318750Y328346D02*
D03*
Y325295D02*
D03*
X313140D02*
D03*
X315945Y328346D02*
D03*
X304724D02*
D03*
X321555D02*
D03*
Y325295D02*
D03*
X315945D02*
D03*
X307529Y328346D02*
D03*
X313140D02*
D03*
X310335D02*
D03*
Y325295D02*
D03*
X304626Y346850D02*
D03*
X307431D02*
D03*
X318652Y349902D02*
D03*
Y346850D02*
D03*
X313041D02*
D03*
X315846Y349902D02*
D03*
X304626D02*
D03*
X321457D02*
D03*
Y346850D02*
D03*
X315846D02*
D03*
X307431Y349902D02*
D03*
X313041D02*
D03*
X310236D02*
D03*
Y346850D02*
D03*
X281004Y346752D02*
D03*
X283809D02*
D03*
X295029Y349803D02*
D03*
Y346752D02*
D03*
X289419D02*
D03*
X292224Y349803D02*
D03*
X281004D02*
D03*
X297835D02*
D03*
Y346752D02*
D03*
X292224D02*
D03*
X283809Y349803D02*
D03*
X289419D02*
D03*
X286614D02*
D03*
Y346752D02*
D03*
X281102Y325098D02*
D03*
X283908D02*
D03*
X295128Y328150D02*
D03*
Y325098D02*
D03*
X289518D02*
D03*
X292323Y328150D02*
D03*
X281102D02*
D03*
X297933D02*
D03*
Y325098D02*
D03*
X292323D02*
D03*
X283908Y328150D02*
D03*
X289518D02*
D03*
X286713D02*
D03*
Y325098D02*
D03*
X186516D02*
D03*
X189321D02*
D03*
X200541Y328150D02*
D03*
Y325098D02*
D03*
X194931D02*
D03*
X197736Y328150D02*
D03*
X186516D02*
D03*
X203346D02*
D03*
Y325098D02*
D03*
X197736D02*
D03*
X189321Y328150D02*
D03*
X194931D02*
D03*
X192126D02*
D03*
Y325098D02*
D03*
X162894Y325295D02*
D03*
X165699D02*
D03*
X176919Y328346D02*
D03*
Y325295D02*
D03*
X171309D02*
D03*
X174114Y328346D02*
D03*
X162894D02*
D03*
X179724D02*
D03*
Y325295D02*
D03*
X174114D02*
D03*
X165699Y328346D02*
D03*
X171309D02*
D03*
X168504D02*
D03*
Y325295D02*
D03*
X162894Y346850D02*
D03*
X165699D02*
D03*
X176919Y349902D02*
D03*
Y346850D02*
D03*
X171309D02*
D03*
X174114Y349902D02*
D03*
X162894D02*
D03*
X179724D02*
D03*
Y346850D02*
D03*
X174114D02*
D03*
X165699Y349902D02*
D03*
X171309D02*
D03*
X168504D02*
D03*
Y346850D02*
D03*
X186417D02*
D03*
X189223D02*
D03*
X200443Y349902D02*
D03*
Y346850D02*
D03*
X194833D02*
D03*
X197638Y349902D02*
D03*
X186417D02*
D03*
X203248D02*
D03*
Y346850D02*
D03*
X197638D02*
D03*
X189223Y349902D02*
D03*
X194833D02*
D03*
X192028D02*
D03*
Y346850D02*
D03*
X223721D02*
D03*
X226427D02*
D03*
X223721Y349902D02*
D03*
X226427D02*
D03*
X229134D02*
D03*
Y346850D02*
D03*
X255118Y346752D02*
D03*
X257825D02*
D03*
X255118Y349803D02*
D03*
X257825D02*
D03*
X260531D02*
D03*
Y346752D02*
D03*
Y325197D02*
D03*
Y328248D02*
D03*
X257825D02*
D03*
X255118D02*
D03*
X257825Y325197D02*
D03*
X255118D02*
D03*
X223622Y325394D02*
D03*
X226329D02*
D03*
Y328445D02*
D03*
X229035D02*
D03*
Y325394D02*
D03*
X223622Y328445D02*
D03*
X239272Y346752D02*
D03*
Y349803D02*
D03*
X242077D02*
D03*
X236467D02*
D03*
X244882Y346752D02*
D03*
X250492D02*
D03*
Y349803D02*
D03*
X233661D02*
D03*
X244882D02*
D03*
X242077Y346752D02*
D03*
X247687D02*
D03*
Y349803D02*
D03*
X236467Y346752D02*
D03*
X233661D02*
D03*
X233760Y325197D02*
D03*
X236565D02*
D03*
X247785Y328248D02*
D03*
Y325197D02*
D03*
X242175D02*
D03*
X244980Y328248D02*
D03*
X233760D02*
D03*
X250590D02*
D03*
Y325197D02*
D03*
X244980D02*
D03*
X236565Y328248D02*
D03*
X242175D02*
D03*
X239370D02*
D03*
Y325197D02*
D03*
M02*
