G04*
G04 #@! TF.GenerationSoftware,Altium Limited,Altium Designer,22.5.1 (42)*
G04*
G04 Layer_Color=32896*
%FSLAX25Y25*%
%MOIN*%
G70*
G04*
G04 #@! TF.SameCoordinates,4CCF3D7E-3C4F-46BB-889F-021E08990E68*
G04*
G04*
G04 #@! TF.FilePolarity,Positive*
G04*
G01*
G75*
%ADD10C,0.00787*%
%ADD11C,0.00591*%
%ADD12C,0.01000*%
%ADD40C,0.01181*%
D10*
X153004Y294414D02*
X153004Y291264D01*
X153004Y294414D02*
X164815D01*
X153004Y291264D02*
X164815Y291264D01*
Y294414D01*
X249705Y291043D02*
X252461Y291043D01*
X244094Y277854D02*
X252461D01*
Y281398D01*
Y286910D02*
Y291043D01*
X329231Y458759D02*
X333365D01*
X338877D02*
X342420D01*
Y450393D02*
Y458759D01*
X329231Y456003D02*
Y458759D01*
X134941Y387402D02*
X138091D01*
Y375590D02*
Y387402D01*
X134941Y375590D02*
Y387402D01*
Y375590D02*
X138091D01*
D11*
X289370Y442028D02*
Y447047D01*
X289272Y467520D02*
X289272Y472146D01*
X289370Y442028D02*
X305020D01*
Y447047D01*
X289272Y472146D02*
X305020D01*
Y467520D02*
Y472146D01*
X210630Y459547D02*
X221752D01*
X221752Y455315D02*
X221752Y459547D01*
X210630Y455315D02*
X221752D01*
X210630D02*
Y459547D01*
X193012Y441831D02*
Y446850D01*
X192913Y467323D02*
Y471949D01*
X193012Y441831D02*
X208661D01*
Y446850D01*
X192913Y471949D02*
X208661D01*
Y467323D02*
Y471949D01*
X307776Y455905D02*
Y460138D01*
Y455905D02*
X318898D01*
X318898Y460138D01*
X307776D02*
X318898D01*
X309547Y281496D02*
X309940Y281889D01*
X310727D01*
X311121Y281496D01*
Y279922D01*
X310727Y279528D01*
X309940D01*
X309547Y279922D01*
X308760Y281496D02*
X308366Y281889D01*
X307579D01*
X307185Y281496D01*
Y281102D01*
X307579Y280709D01*
X307972D01*
X307579D01*
X307185Y280315D01*
Y279922D01*
X307579Y279528D01*
X308366D01*
X308760Y279922D01*
X306398Y281889D02*
X304824D01*
Y281496D01*
X306398Y279922D01*
Y279528D01*
X324605Y286910D02*
Y289271D01*
X323425D01*
X323031Y288878D01*
Y288090D01*
X323425Y287697D01*
X324605D01*
X323818D02*
X323031Y286910D01*
X322244D02*
X321457D01*
X321850D01*
Y289271D01*
X322244Y288878D01*
X320276Y289271D02*
X318702D01*
Y288878D01*
X320276Y287303D01*
Y286910D01*
X332282D02*
Y289271D01*
X331102D01*
X330708Y288878D01*
Y288090D01*
X331102Y287697D01*
X332282D01*
X331495D02*
X330708Y286910D01*
X329921D02*
X329134D01*
X329527D01*
Y289271D01*
X329921Y288878D01*
X326379Y289271D02*
X327953D01*
Y288090D01*
X327166Y288484D01*
X326772D01*
X326379Y288090D01*
Y287303D01*
X326772Y286910D01*
X327560D01*
X327953Y287303D01*
X325491Y442519D02*
Y440551D01*
X325097Y440158D01*
X324310D01*
X323917Y440551D01*
Y442519D01*
X321949Y440158D02*
Y442519D01*
X323129Y441338D01*
X321555D01*
X320768Y439764D02*
X319194D01*
X318407Y440158D02*
X317619D01*
X318013D01*
Y442519D01*
X318407Y442126D01*
X232085Y464468D02*
Y462500D01*
X231692Y462107D01*
X230905D01*
X230511Y462500D01*
Y464468D01*
X228543Y462107D02*
Y464468D01*
X229724Y463287D01*
X228150D01*
X227362Y461713D02*
X225788D01*
X223427Y462107D02*
X225001D01*
X223427Y463681D01*
Y464075D01*
X223820Y464468D01*
X224607D01*
X225001Y464075D01*
X323819Y466042D02*
X321457D01*
Y464861D01*
X321851Y464467D01*
X322638D01*
X323031Y464861D01*
Y466042D01*
Y465255D02*
X323819Y464467D01*
Y463680D02*
Y462893D01*
Y463287D01*
X321457D01*
X321851Y463680D01*
X323819Y460532D02*
X321457D01*
X322638Y461712D01*
Y460138D01*
X324212Y459351D02*
Y457777D01*
X323819Y456989D02*
Y456202D01*
Y456596D01*
X321457D01*
X321851Y456989D01*
X234447Y457678D02*
Y460039D01*
X233266D01*
X232873Y459645D01*
Y458858D01*
X233266Y458465D01*
X234447D01*
X233660D02*
X232873Y457678D01*
X232086D02*
X231298D01*
X231692D01*
Y460039D01*
X232086Y459645D01*
X228937Y457678D02*
Y460039D01*
X230118Y458858D01*
X228543D01*
X227756Y457284D02*
X226182D01*
X223821Y457678D02*
X225395D01*
X223821Y459252D01*
Y459645D01*
X224214Y460039D01*
X225001D01*
X225395Y459645D01*
X286809Y459548D02*
Y461909D01*
X285629D01*
X285235Y461515D01*
Y460728D01*
X285629Y460335D01*
X286809D01*
X286022D02*
X285235Y459548D01*
X284448D02*
X283661D01*
X284054D01*
Y461909D01*
X284448Y461515D01*
X282480D02*
X282086Y461909D01*
X281299D01*
X280906Y461515D01*
Y461122D01*
X281299Y460728D01*
X281693D01*
X281299D01*
X280906Y460335D01*
Y459941D01*
X281299Y459548D01*
X282086D01*
X282480Y459941D01*
X280119Y459154D02*
X278544D01*
X277757Y459548D02*
X276970D01*
X277364D01*
Y461909D01*
X277757Y461515D01*
X204427Y433957D02*
Y436318D01*
X203247D01*
X202853Y435925D01*
Y435138D01*
X203247Y434744D01*
X204427D01*
X203640D02*
X202853Y433957D01*
X202066D02*
X201279D01*
X201672D01*
Y436318D01*
X202066Y435925D01*
X200098D02*
X199705Y436318D01*
X198917D01*
X198524Y435925D01*
Y435531D01*
X198917Y435138D01*
X199311D01*
X198917D01*
X198524Y434744D01*
Y434351D01*
X198917Y433957D01*
X199705D01*
X200098Y434351D01*
X197737Y433563D02*
X196162D01*
X193801Y433957D02*
X195375D01*
X193801Y435531D01*
Y435925D01*
X194194Y436318D01*
X194982D01*
X195375Y435925D01*
X344881Y464567D02*
Y462599D01*
X344488Y462205D01*
X343701D01*
X343307Y462599D01*
Y464567D01*
X342520Y464173D02*
X342126Y464567D01*
X341339D01*
X340946Y464173D01*
Y463779D01*
X341339Y463386D01*
X341733D01*
X341339D01*
X340946Y462992D01*
Y462599D01*
X341339Y462205D01*
X342126D01*
X342520Y462599D01*
X151673Y393602D02*
Y391634D01*
X151279Y391241D01*
X150492D01*
X150098Y391634D01*
Y393602D01*
X147737Y391241D02*
X149311D01*
X147737Y392815D01*
Y393208D01*
X148130Y393602D01*
X148918D01*
X149311Y393208D01*
X121500Y379261D02*
X119926D01*
X120713D01*
Y376900D01*
X117564D02*
X119139D01*
X117564Y378474D01*
Y378868D01*
X117958Y379261D01*
X118745D01*
X119139Y378868D01*
X144587Y369194D02*
X146948D01*
Y370375D01*
X146555Y370768D01*
X145768D01*
X145374Y370375D01*
Y369194D01*
Y369981D02*
X144587Y370768D01*
Y371555D02*
Y372342D01*
Y371949D01*
X146948D01*
X146555Y371555D01*
X144587Y375097D02*
Y373523D01*
X146161Y375097D01*
X146555D01*
X146948Y374704D01*
Y373917D01*
X146555Y373523D01*
X150100Y378900D02*
Y381261D01*
X148919D01*
X148526Y380868D01*
Y380081D01*
X148919Y379687D01*
X150100D01*
X149313D02*
X148526Y378900D01*
X147739D02*
X146951D01*
X147345D01*
Y381261D01*
X147739Y380868D01*
X145771Y378900D02*
X144983D01*
X145377D01*
Y381261D01*
X145771Y380868D01*
X233169Y286615D02*
Y288976D01*
X231988D01*
X231594Y288582D01*
Y287795D01*
X231988Y287402D01*
X233169D01*
X232382D02*
X231594Y286615D01*
X230807Y288582D02*
X230414Y288976D01*
X229626D01*
X229233Y288582D01*
Y288189D01*
X229626Y287795D01*
X230020D01*
X229626D01*
X229233Y287402D01*
Y287008D01*
X229626Y286615D01*
X230414D01*
X230807Y287008D01*
X257382Y278445D02*
Y280019D01*
X257775Y280413D01*
X258563D01*
X258956Y280019D01*
Y278445D01*
X258563Y278052D01*
X257775D01*
X258169Y278839D02*
X257382Y278052D01*
X257775D02*
X257382Y278445D01*
X256595Y278052D02*
X255808D01*
X256201D01*
Y280413D01*
X256595Y280019D01*
X281003Y290551D02*
Y288189D01*
X279823D01*
X279429Y288583D01*
Y290157D01*
X279823Y290551D01*
X281003D01*
X278642Y290157D02*
X278248Y290551D01*
X277461D01*
X277068Y290157D01*
Y289764D01*
X277461Y289370D01*
X277855D01*
X277461D01*
X277068Y288977D01*
Y288583D01*
X277461Y288189D01*
X278248D01*
X278642Y288583D01*
X111900Y404961D02*
Y402600D01*
X110719D01*
X110326Y402994D01*
Y404568D01*
X110719Y404961D01*
X111900D01*
X107964Y402600D02*
X109539D01*
X107964Y404174D01*
Y404568D01*
X108358Y404961D01*
X109145D01*
X109539Y404568D01*
X128800Y403461D02*
Y401100D01*
X127619D01*
X127226Y401494D01*
Y403068D01*
X127619Y403461D01*
X128800D01*
X126439Y401100D02*
X125651D01*
X126045D01*
Y403461D01*
X126439Y403068D01*
X333956Y443405D02*
X334350Y443799D01*
X335137D01*
X335530Y443405D01*
Y441831D01*
X335137Y441437D01*
X334350D01*
X333956Y441831D01*
X333169Y443405D02*
X332775Y443799D01*
X331988D01*
X331595Y443405D01*
Y443012D01*
X331988Y442618D01*
X332382D01*
X331988D01*
X331595Y442225D01*
Y441831D01*
X331988Y441437D01*
X332775D01*
X333169Y441831D01*
X330808Y443405D02*
X330414Y443799D01*
X329627D01*
X329233Y443405D01*
Y443012D01*
X329627Y442618D01*
X330020D01*
X329627D01*
X329233Y442225D01*
Y441831D01*
X329627Y441437D01*
X330414D01*
X330808Y441831D01*
X342126Y443504D02*
X342519Y443897D01*
X343306D01*
X343700Y443504D01*
Y441929D01*
X343306Y441536D01*
X342519D01*
X342126Y441929D01*
X341338Y443504D02*
X340945Y443897D01*
X340158D01*
X339764Y443504D01*
Y443110D01*
X340158Y442717D01*
X340551D01*
X340158D01*
X339764Y442323D01*
Y441929D01*
X340158Y441536D01*
X340945D01*
X341338Y441929D01*
X337403Y441536D02*
X338977D01*
X337403Y443110D01*
Y443504D01*
X337796Y443897D01*
X338583D01*
X338977Y443504D01*
X134126Y379768D02*
X134519Y380161D01*
X135306D01*
X135700Y379768D01*
Y378194D01*
X135306Y377800D01*
X134519D01*
X134126Y378194D01*
X133339Y379768D02*
X132945Y380161D01*
X132158D01*
X131764Y379768D01*
Y379374D01*
X132158Y378981D01*
X132551D01*
X132158D01*
X131764Y378587D01*
Y378194D01*
X132158Y377800D01*
X132945D01*
X133339Y378194D01*
X130977Y377800D02*
X130190D01*
X130584D01*
Y380161D01*
X130977Y379768D01*
X141926D02*
X142319Y380161D01*
X143106D01*
X143500Y379768D01*
Y378194D01*
X143106Y377800D01*
X142319D01*
X141926Y378194D01*
X141139Y379768D02*
X140745Y380161D01*
X139958D01*
X139564Y379768D01*
Y379374D01*
X139958Y378981D01*
X140351D01*
X139958D01*
X139564Y378587D01*
Y378194D01*
X139958Y377800D01*
X140745D01*
X141139Y378194D01*
X138777Y379768D02*
X138383Y380161D01*
X137596D01*
X137203Y379768D01*
Y378194D01*
X137596Y377800D01*
X138383D01*
X138777Y378194D01*
Y379768D01*
X126826Y386568D02*
X127219Y386961D01*
X128006D01*
X128400Y386568D01*
Y384994D01*
X128006Y384600D01*
X127219D01*
X126826Y384994D01*
X124464Y384600D02*
X126039D01*
X124464Y386174D01*
Y386568D01*
X124858Y386961D01*
X125645D01*
X126039Y386568D01*
X123677Y384994D02*
X123284Y384600D01*
X122496D01*
X122103Y384994D01*
Y386568D01*
X122496Y386961D01*
X123284D01*
X123677Y386568D01*
Y386174D01*
X123284Y385781D01*
X122103D01*
X134055Y390649D02*
X134448Y391043D01*
X135235D01*
X135629Y390649D01*
Y389075D01*
X135235Y388682D01*
X134448D01*
X134055Y389075D01*
X131693Y388682D02*
X133267D01*
X131693Y390256D01*
Y390649D01*
X132087Y391043D01*
X132874D01*
X133267Y390649D01*
X130906D02*
X130512Y391043D01*
X129725D01*
X129332Y390649D01*
Y390256D01*
X129725Y389862D01*
X129332Y389469D01*
Y389075D01*
X129725Y388682D01*
X130512D01*
X130906Y389075D01*
Y389469D01*
X130512Y389862D01*
X130906Y390256D01*
Y390649D01*
X130512Y389862D02*
X129725D01*
X237401Y288582D02*
X237795Y288976D01*
X238582D01*
X238976Y288582D01*
Y287008D01*
X238582Y286615D01*
X237795D01*
X237401Y287008D01*
X235040Y288976D02*
X236614D01*
Y287795D01*
X235827Y288189D01*
X235434D01*
X235040Y287795D01*
Y287008D01*
X235434Y286615D01*
X236221D01*
X236614Y287008D01*
X156397Y308070D02*
Y306103D01*
X156003Y305709D01*
X155216D01*
X154823Y306103D01*
Y308070D01*
X154036Y305709D02*
X153249D01*
X153642D01*
Y308070D01*
X154036Y307677D01*
X152755Y282185D02*
Y284547D01*
X151574D01*
X151181Y284153D01*
Y283366D01*
X151574Y282973D01*
X152755D01*
X151968D02*
X151181Y282185D01*
X150393D02*
X149606D01*
X150000D01*
Y284547D01*
X150393Y284153D01*
X148426D02*
X148032Y284547D01*
X147245D01*
X146851Y284153D01*
Y282579D01*
X147245Y282185D01*
X148032D01*
X148426Y282579D01*
Y284153D01*
X145669Y295078D02*
X143307D01*
Y293897D01*
X143701Y293504D01*
X144488D01*
X144882Y293897D01*
Y295078D01*
Y294291D02*
X145669Y293504D01*
X145275Y292717D02*
X145669Y292323D01*
Y291536D01*
X145275Y291142D01*
X143701D01*
X143307Y291536D01*
Y292323D01*
X143701Y292717D01*
X144095D01*
X144488Y292323D01*
Y291142D01*
X107100Y420900D02*
Y423261D01*
X105919D01*
X105526Y422868D01*
Y422081D01*
X105919Y421687D01*
X107100D01*
X106313D02*
X105526Y420900D01*
X104739Y422868D02*
X104345Y423261D01*
X103558D01*
X103164Y422868D01*
Y422474D01*
X103558Y422081D01*
X103164Y421687D01*
Y421294D01*
X103558Y420900D01*
X104345D01*
X104739Y421294D01*
Y421687D01*
X104345Y422081D01*
X104739Y422474D01*
Y422868D01*
X104345Y422081D02*
X103558D01*
X172047Y280807D02*
Y283169D01*
X170866D01*
X170472Y282775D01*
Y281988D01*
X170866Y281595D01*
X172047D01*
X171259D02*
X170472Y280807D01*
X169685Y283169D02*
X168111D01*
Y282775D01*
X169685Y281201D01*
Y280807D01*
X146063Y306791D02*
X143701D01*
Y305610D01*
X144095Y305216D01*
X144882D01*
X145275Y305610D01*
Y306791D01*
Y306003D02*
X146063Y305216D01*
X143701Y302855D02*
X144095Y303642D01*
X144882Y304429D01*
X145669D01*
X146063Y304036D01*
Y303249D01*
X145669Y302855D01*
X145275D01*
X144882Y303249D01*
Y304429D01*
X112700Y420900D02*
Y423261D01*
X111519D01*
X111126Y422868D01*
Y422081D01*
X111519Y421687D01*
X112700D01*
X111913D02*
X111126Y420900D01*
X108764Y423261D02*
X110339D01*
Y422081D01*
X109551Y422474D01*
X109158D01*
X108764Y422081D01*
Y421294D01*
X109158Y420900D01*
X109945D01*
X110339Y421294D01*
X168799Y299310D02*
X166437D01*
Y298130D01*
X166831Y297736D01*
X167618D01*
X168012Y298130D01*
Y299310D01*
Y298523D02*
X168799Y297736D01*
Y295768D02*
X166437D01*
X167618Y296949D01*
Y295375D01*
X287795Y310630D02*
Y312992D01*
X286614D01*
X286220Y312598D01*
Y311811D01*
X286614Y311418D01*
X287795D01*
X287007D02*
X286220Y310630D01*
X283859D02*
X285433D01*
X283859Y312205D01*
Y312598D01*
X284253Y312992D01*
X285040D01*
X285433Y312598D01*
X275885Y310138D02*
Y312500D01*
X274705D01*
X274311Y312106D01*
Y311319D01*
X274705Y310925D01*
X275885D01*
X275098D02*
X274311Y310138D01*
X273524D02*
X272737D01*
X273130D01*
Y312500D01*
X273524Y312106D01*
X163189Y307874D02*
X163582Y308267D01*
X164369D01*
X164763Y307874D01*
Y306299D01*
X164369Y305906D01*
X163582D01*
X163189Y306299D01*
X160827Y305906D02*
X162401D01*
X160827Y307480D01*
Y307874D01*
X161221Y308267D01*
X162008D01*
X162401Y307874D01*
X160040Y308267D02*
X158466D01*
Y307874D01*
X160040Y306299D01*
Y305906D01*
X270078Y290846D02*
X270472Y291240D01*
X271259D01*
X271653Y290846D01*
Y289272D01*
X271259Y288878D01*
X270472D01*
X270078Y289272D01*
X267717Y288878D02*
X269291D01*
X267717Y290453D01*
Y290846D01*
X268110Y291240D01*
X268898D01*
X269291Y290846D01*
X265355Y291240D02*
X266143Y290846D01*
X266930Y290059D01*
Y289272D01*
X266536Y288878D01*
X265749D01*
X265355Y289272D01*
Y289666D01*
X265749Y290059D01*
X266930D01*
X108926Y412668D02*
X109319Y413061D01*
X110106D01*
X110500Y412668D01*
Y411094D01*
X110106Y410700D01*
X109319D01*
X108926Y411094D01*
X106564Y410700D02*
X108139D01*
X106564Y412274D01*
Y412668D01*
X106958Y413061D01*
X107745D01*
X108139Y412668D01*
X104203Y413061D02*
X105777D01*
Y411881D01*
X104990Y412274D01*
X104596D01*
X104203Y411881D01*
Y411094D01*
X104596Y410700D01*
X105384D01*
X105777Y411094D01*
X258464Y368602D02*
X258858Y368996D01*
X259645D01*
X260039Y368602D01*
Y367028D01*
X259645Y366634D01*
X258858D01*
X258464Y367028D01*
X257677Y368602D02*
X257284Y368996D01*
X256497D01*
X256103Y368602D01*
Y368209D01*
X256497Y367815D01*
X256890D01*
X256497D01*
X256103Y367421D01*
Y367028D01*
X256497Y366634D01*
X257284D01*
X257677Y367028D01*
X237894Y368701D02*
X238287Y369094D01*
X239074D01*
X239468Y368701D01*
Y367126D01*
X239074Y366733D01*
X238287D01*
X237894Y367126D01*
X235532Y366733D02*
X237106D01*
X235532Y368307D01*
Y368701D01*
X235926Y369094D01*
X236713D01*
X237106Y368701D01*
D12*
X242520Y364469D02*
X248819D01*
X254331D02*
X260630D01*
X242520Y354232D02*
X248819D01*
X254331D02*
X260630D01*
Y364469D01*
X242520Y354232D02*
Y364469D01*
X234941Y354134D02*
X241240D01*
X223130D02*
X229429D01*
X234941Y364370D02*
X241240D01*
X223130D02*
X229429D01*
X223130Y354134D02*
Y364370D01*
X241240Y354134D02*
Y364370D01*
D40*
X164370Y282776D02*
X164895D01*
Y283300D01*
X164370D01*
Y282776D01*
X209744Y462598D02*
X209219D01*
Y462074D01*
X209744D01*
Y462598D01*
X306890Y463189D02*
X306365D01*
Y462664D01*
X306890D01*
Y463189D01*
X144685Y387697D02*
Y388222D01*
X144160D01*
Y387697D01*
X144685D01*
M02*
