G04*
G04 #@! TF.GenerationSoftware,Altium Limited,Altium Designer,22.5.1 (42)*
G04*
G04 Layer_Color=8388736*
%FSLAX25Y25*%
%MOIN*%
G70*
G04*
G04 #@! TF.SameCoordinates,4CCF3D7E-3C4F-46BB-889F-021E08990E68*
G04*
G04*
G04 #@! TF.FilePolarity,Negative*
G04*
G01*
G75*
%ADD15R,0.27165X0.07087*%
%ADD16R,0.96358X0.09350*%
%ADD17R,0.08674X0.04737*%
%ADD18R,0.24422X0.21272*%
%ADD19R,0.19698X0.19698*%
%ADD20R,0.23241X0.07887*%
%ADD21R,0.02375X0.03162*%
%ADD22R,0.03556X0.04737*%
%ADD23R,0.20485X0.09461*%
%ADD24R,0.08674X0.09461*%
%ADD25R,0.05524X0.09461*%
%ADD26C,0.06706*%
%ADD27C,0.08674*%
%ADD28C,0.05524*%
%ADD29C,0.05721*%
%ADD30C,0.13398*%
%ADD31C,0.07099*%
%ADD32C,0.03162*%
D15*
X240945Y385827D02*
D03*
X241043Y376181D02*
D03*
X241097Y366201D02*
D03*
X282239Y368957D02*
D03*
X282731Y359016D02*
D03*
X199902Y359842D02*
D03*
X199409Y369783D02*
D03*
D16*
X252707Y501427D02*
D03*
D17*
X202067Y473622D02*
D03*
X202067Y485433D02*
D03*
X243110Y485433D02*
D03*
Y473622D02*
D03*
X232874Y485433D02*
D03*
Y473622D02*
D03*
X253346Y485433D02*
D03*
Y473622D02*
D03*
X222539Y485433D02*
D03*
Y473622D02*
D03*
X212303Y485433D02*
D03*
Y473622D02*
D03*
X181595Y485433D02*
D03*
Y473622D02*
D03*
X191831Y485433D02*
D03*
Y473622D02*
D03*
X171457Y485433D02*
D03*
Y473622D02*
D03*
X161221Y485433D02*
D03*
X161221Y473622D02*
D03*
X263484Y485433D02*
D03*
X263484Y473622D02*
D03*
X273721Y485433D02*
D03*
Y473622D02*
D03*
X283957Y485433D02*
D03*
X283957Y473622D02*
D03*
X294193Y485433D02*
D03*
Y473622D02*
D03*
X304429Y485433D02*
D03*
Y473622D02*
D03*
X314665Y485433D02*
D03*
X314665Y473622D02*
D03*
X324902Y485433D02*
D03*
X324902Y473622D02*
D03*
X335138Y485433D02*
D03*
Y473622D02*
D03*
D18*
X275590Y446752D02*
D03*
Y387303D02*
D03*
X179921Y387319D02*
D03*
X179921Y446768D02*
D03*
D19*
X348031Y417028D02*
D03*
X252362Y417043D02*
D03*
D20*
X134153Y366732D02*
D03*
Y384842D02*
D03*
D21*
X301870Y288976D02*
D03*
X298327D02*
D03*
X290846D02*
D03*
X294390D02*
D03*
X306496Y288287D02*
D03*
X310039D02*
D03*
X312697Y288386D02*
D03*
X316240D02*
D03*
X310039Y285039D02*
D03*
X306496D02*
D03*
D22*
X279429Y283661D02*
D03*
X285728D02*
D03*
D23*
X242126Y347638D02*
D03*
X194882D02*
D03*
X171260D02*
D03*
X289370D02*
D03*
X312992D02*
D03*
X242126Y327559D02*
D03*
X194882D02*
D03*
X171260D02*
D03*
X289370D02*
D03*
X312991D02*
D03*
D24*
X226378Y347638D02*
D03*
X257874D02*
D03*
X226378Y327559D02*
D03*
X257874D02*
D03*
D25*
X351181Y327440D02*
D03*
X326772D02*
D03*
X332874D02*
D03*
X338976D02*
D03*
X345079D02*
D03*
X351181Y347638D02*
D03*
X338976D02*
D03*
X332874D02*
D03*
X326772D02*
D03*
X345079D02*
D03*
D26*
X272402Y284843D02*
D03*
X262402D02*
D03*
D27*
X176260Y502953D02*
D03*
X186260D02*
D03*
X196260D02*
D03*
X311240D02*
D03*
X321240D02*
D03*
X331240D02*
D03*
D28*
X339173Y303740D02*
D03*
Y295866D02*
D03*
X331299Y303740D02*
D03*
Y295866D02*
D03*
X323425Y303740D02*
D03*
Y295866D02*
D03*
X315551Y303740D02*
D03*
Y295866D02*
D03*
X307677Y303740D02*
D03*
X307677Y295866D02*
D03*
X299803Y303740D02*
D03*
Y295866D02*
D03*
X291929Y303740D02*
D03*
Y295866D02*
D03*
X284055Y303740D02*
D03*
X284055Y295866D02*
D03*
X276181Y303740D02*
D03*
Y295866D02*
D03*
X268307Y303740D02*
D03*
Y295866D02*
D03*
X260433Y303740D02*
D03*
Y295866D02*
D03*
X252559Y303740D02*
D03*
X252559Y295866D02*
D03*
X244685Y303740D02*
D03*
Y295866D02*
D03*
X236811Y303740D02*
D03*
X236811Y295866D02*
D03*
X228937Y303740D02*
D03*
Y295866D02*
D03*
X221063Y303740D02*
D03*
Y295866D02*
D03*
X213189Y303740D02*
D03*
X213189Y295866D02*
D03*
X205315Y303740D02*
D03*
Y295866D02*
D03*
X197441Y303740D02*
D03*
Y295866D02*
D03*
X189567Y303740D02*
D03*
X189567Y295866D02*
D03*
X181693Y303740D02*
D03*
Y295866D02*
D03*
X173819Y303740D02*
D03*
X173819Y295866D02*
D03*
D29*
X124075Y488524D02*
D03*
X123524Y298622D02*
D03*
X123917Y340354D02*
D03*
X123917Y448130D02*
D03*
D30*
X112520Y500079D02*
D03*
X135630D02*
D03*
Y476968D02*
D03*
X112520D02*
D03*
X111969Y287067D02*
D03*
X135079D02*
D03*
Y310177D02*
D03*
X111969D02*
D03*
X112362Y351909D02*
D03*
X135473D02*
D03*
Y328799D02*
D03*
X112362D02*
D03*
X112362Y459685D02*
D03*
X135473D02*
D03*
Y436575D02*
D03*
X112362D02*
D03*
D31*
X159449Y390079D02*
D03*
Y400079D02*
D03*
Y410079D02*
D03*
Y420079D02*
D03*
D32*
X332776Y325394D02*
D03*
X332874Y328937D02*
D03*
X345079Y349803D02*
D03*
X351181Y329035D02*
D03*
X345079Y328839D02*
D03*
X338976Y328740D02*
D03*
X338976Y325446D02*
D03*
X337992Y406988D02*
D03*
X343898D02*
D03*
X340945Y412894D02*
D03*
X349803Y406988D02*
D03*
X346850Y412894D02*
D03*
X352756D02*
D03*
X338878Y418898D02*
D03*
X344783D02*
D03*
X341831Y424803D02*
D03*
X350689Y418898D02*
D03*
X347736Y424803D02*
D03*
X353642D02*
D03*
X242028Y413189D02*
D03*
X247933D02*
D03*
X253839D02*
D03*
X259744D02*
D03*
X246063Y419390D02*
D03*
X243110Y425295D02*
D03*
X251969Y419390D02*
D03*
X249016Y425295D02*
D03*
X257874Y419390D02*
D03*
X254921Y425295D02*
D03*
X354331Y401575D02*
D03*
Y389764D02*
D03*
Y377953D02*
D03*
X348425Y437008D02*
D03*
X351378Y431102D02*
D03*
X348425Y401575D02*
D03*
X351378Y395669D02*
D03*
X348425Y389764D02*
D03*
X351378Y383858D02*
D03*
X348425Y377953D02*
D03*
X351378Y372047D02*
D03*
X342520Y437008D02*
D03*
X345472Y431102D02*
D03*
X342520Y401575D02*
D03*
X345472Y395669D02*
D03*
X342520Y389764D02*
D03*
X345472Y383858D02*
D03*
X342520Y377953D02*
D03*
X345472Y372047D02*
D03*
X342520Y366142D02*
D03*
X336614Y437008D02*
D03*
X339567Y431102D02*
D03*
X336614Y425197D02*
D03*
Y413386D02*
D03*
Y401575D02*
D03*
X339567Y395669D02*
D03*
X336614Y389764D02*
D03*
X339567Y383858D02*
D03*
X336614Y377953D02*
D03*
X339567Y372047D02*
D03*
X336614Y366142D02*
D03*
X330709Y437008D02*
D03*
X333661Y431102D02*
D03*
X330709Y425197D02*
D03*
X333661Y419291D02*
D03*
X330709Y413386D02*
D03*
X333661Y407480D02*
D03*
X330709Y401575D02*
D03*
X333661Y395669D02*
D03*
X330709Y389764D02*
D03*
X333661Y383858D02*
D03*
X330709Y377953D02*
D03*
X333661Y372047D02*
D03*
X330709Y366142D02*
D03*
X324803Y437008D02*
D03*
X327756Y431102D02*
D03*
X324803Y425197D02*
D03*
X327756Y419291D02*
D03*
X324803Y413386D02*
D03*
X327756Y407480D02*
D03*
X324803Y401575D02*
D03*
X327756Y395669D02*
D03*
X324803Y389764D02*
D03*
X327756Y383858D02*
D03*
X324803Y377953D02*
D03*
X327756Y372047D02*
D03*
X324803Y366142D02*
D03*
X318898Y437008D02*
D03*
X321850Y431102D02*
D03*
X318898Y425197D02*
D03*
X321850Y419291D02*
D03*
X318898Y413386D02*
D03*
X321850Y407480D02*
D03*
X318898Y401575D02*
D03*
X321850Y395669D02*
D03*
X318898Y389764D02*
D03*
X321850Y383858D02*
D03*
X318898Y377953D02*
D03*
X321850Y372047D02*
D03*
X318898Y366142D02*
D03*
X321850Y360236D02*
D03*
X318898Y354331D02*
D03*
X312992Y437008D02*
D03*
X315945Y431102D02*
D03*
X312992Y425197D02*
D03*
X315945Y419291D02*
D03*
X312992Y413386D02*
D03*
X315945Y407480D02*
D03*
X312992Y401575D02*
D03*
X315945Y395669D02*
D03*
X312992Y389764D02*
D03*
X315945Y383858D02*
D03*
X312992Y377953D02*
D03*
X315945Y372047D02*
D03*
X312992Y366142D02*
D03*
X315945Y360236D02*
D03*
X312992Y354331D02*
D03*
X310039Y431102D02*
D03*
X307086Y425197D02*
D03*
X310039Y419291D02*
D03*
X307086Y413386D02*
D03*
X310039Y407480D02*
D03*
X307086Y401575D02*
D03*
X310039Y395669D02*
D03*
X307086Y389764D02*
D03*
X310039Y383858D02*
D03*
X307086Y377953D02*
D03*
X310039Y372047D02*
D03*
X307086Y366142D02*
D03*
X310039Y360236D02*
D03*
X307086Y354331D02*
D03*
X304134Y431102D02*
D03*
X301181Y425197D02*
D03*
X304134Y419291D02*
D03*
X301181Y413386D02*
D03*
X304134Y407480D02*
D03*
X301181Y401575D02*
D03*
X304134Y395669D02*
D03*
Y383858D02*
D03*
Y372047D02*
D03*
Y360236D02*
D03*
X298228Y431102D02*
D03*
X295275Y425197D02*
D03*
X298228Y419291D02*
D03*
X295275Y413386D02*
D03*
X298228Y407480D02*
D03*
X292323Y431102D02*
D03*
X289370Y425197D02*
D03*
X292323Y419291D02*
D03*
X289370Y413386D02*
D03*
X292323Y407480D02*
D03*
X286417Y431102D02*
D03*
X283465Y425197D02*
D03*
X286417Y419291D02*
D03*
X283465Y413386D02*
D03*
X286417Y407480D02*
D03*
X280512Y431102D02*
D03*
X277559Y425197D02*
D03*
X280512Y419291D02*
D03*
X277559Y413386D02*
D03*
X280512Y407480D02*
D03*
X274606Y431102D02*
D03*
X271654Y425197D02*
D03*
X274606Y419291D02*
D03*
X271654Y413386D02*
D03*
X274606Y407480D02*
D03*
X268701Y431102D02*
D03*
X265748Y425197D02*
D03*
X268701Y419291D02*
D03*
X265748Y413386D02*
D03*
X268701Y407480D02*
D03*
X262795Y431102D02*
D03*
X253937Y448819D02*
D03*
Y437008D02*
D03*
X256890Y431102D02*
D03*
X250984Y454724D02*
D03*
X248031Y448819D02*
D03*
X250984Y442913D02*
D03*
X248031Y437008D02*
D03*
X250984Y431102D02*
D03*
X245079Y454724D02*
D03*
X242126Y448819D02*
D03*
X245079Y442913D02*
D03*
X242126Y437008D02*
D03*
X245079Y431102D02*
D03*
X239173Y454724D02*
D03*
X236220Y448819D02*
D03*
X239173Y442913D02*
D03*
X236220Y437008D02*
D03*
X239173Y431102D02*
D03*
X236220Y425197D02*
D03*
X239173Y419291D02*
D03*
X236220Y413386D02*
D03*
X230315Y448819D02*
D03*
X233268Y442913D02*
D03*
X230315Y437008D02*
D03*
X233268Y431102D02*
D03*
X230315Y425197D02*
D03*
X233268Y419291D02*
D03*
X230315Y413386D02*
D03*
X227362Y442913D02*
D03*
X224409Y437008D02*
D03*
X227362Y431102D02*
D03*
X224409Y425197D02*
D03*
X227362Y419291D02*
D03*
X224409Y413386D02*
D03*
X218504Y437008D02*
D03*
X221457Y431102D02*
D03*
X218504Y425197D02*
D03*
X221457Y419291D02*
D03*
X218504Y413386D02*
D03*
X212598Y437008D02*
D03*
X215551Y431102D02*
D03*
X212598Y425197D02*
D03*
X215551Y419291D02*
D03*
X212598Y413386D02*
D03*
X209646Y431102D02*
D03*
X206693Y425197D02*
D03*
X209646Y419291D02*
D03*
X206693Y413386D02*
D03*
X203740Y431102D02*
D03*
X200787Y425197D02*
D03*
X203740Y419291D02*
D03*
X200787Y413386D02*
D03*
X194882Y460630D02*
D03*
X197835Y454724D02*
D03*
Y431102D02*
D03*
X194882Y425197D02*
D03*
X197835Y419291D02*
D03*
X194882Y413386D02*
D03*
X188976Y460630D02*
D03*
X191929Y431102D02*
D03*
X188976Y425197D02*
D03*
X191929Y419291D02*
D03*
X188976Y413386D02*
D03*
X186024Y466535D02*
D03*
X183071Y460630D02*
D03*
X186024Y431102D02*
D03*
X183071Y425197D02*
D03*
X186024Y419291D02*
D03*
X183071Y413386D02*
D03*
X180118Y466535D02*
D03*
X177165Y460630D02*
D03*
X180118Y431102D02*
D03*
X177165Y425197D02*
D03*
X180118Y419291D02*
D03*
X177165Y413386D02*
D03*
X174213Y466535D02*
D03*
X171260Y460630D02*
D03*
X174213Y431102D02*
D03*
X171260Y425197D02*
D03*
X174213Y419291D02*
D03*
X171260Y413386D02*
D03*
X168307Y466535D02*
D03*
X165354Y460630D02*
D03*
X168307Y431102D02*
D03*
X165354Y425197D02*
D03*
X168307Y419291D02*
D03*
X165354Y413386D02*
D03*
X162401Y466535D02*
D03*
X159449Y460630D02*
D03*
Y448819D02*
D03*
Y437008D02*
D03*
X162401Y431102D02*
D03*
X159449Y425197D02*
D03*
X156496Y466535D02*
D03*
X153543Y460630D02*
D03*
X156496Y454724D02*
D03*
X153543Y448819D02*
D03*
X156496Y442913D02*
D03*
X153543Y437008D02*
D03*
X156496Y431102D02*
D03*
X153543Y425197D02*
D03*
Y413386D02*
D03*
X147638Y460630D02*
D03*
X150591Y454724D02*
D03*
X147638Y448819D02*
D03*
X150591Y442913D02*
D03*
X147638Y437008D02*
D03*
X150591Y431102D02*
D03*
X147638Y425197D02*
D03*
X150591Y419291D02*
D03*
X147638Y413386D02*
D03*
X150591Y407480D02*
D03*
X144685Y454724D02*
D03*
X141732Y448819D02*
D03*
X144685Y442913D02*
D03*
Y431102D02*
D03*
X141732Y425197D02*
D03*
X144685Y419291D02*
D03*
X141732Y413386D02*
D03*
X144685Y407480D02*
D03*
X135827Y448819D02*
D03*
Y425197D02*
D03*
X138779Y419291D02*
D03*
X135827Y413386D02*
D03*
X138779Y407480D02*
D03*
X129921Y425197D02*
D03*
X132874Y419291D02*
D03*
X129921Y413386D02*
D03*
X132874Y407480D02*
D03*
Y395669D02*
D03*
X124016Y460630D02*
D03*
Y437008D02*
D03*
X126969Y431102D02*
D03*
X124016Y425197D02*
D03*
X126969Y419291D02*
D03*
X124016Y413386D02*
D03*
X126969Y407480D02*
D03*
X121063Y431102D02*
D03*
X118110Y425197D02*
D03*
X121063Y419291D02*
D03*
X118110Y413386D02*
D03*
X121063Y407480D02*
D03*
X118110Y401575D02*
D03*
X112205Y448819D02*
D03*
Y425197D02*
D03*
Y401575D02*
D03*
X202440Y483957D02*
D03*
X202342Y487303D02*
D03*
X348031Y320276D02*
D03*
X326279Y319488D02*
D03*
X325295Y283563D02*
D03*
X363583Y300098D02*
D03*
X320965Y283661D02*
D03*
X301772Y281890D02*
D03*
X217717Y283760D02*
D03*
X203740Y282283D02*
D03*
X197244Y282087D02*
D03*
X191339D02*
D03*
X186122Y282185D02*
D03*
X259449Y358772D02*
D03*
Y354256D02*
D03*
X255906Y358772D02*
D03*
Y354256D02*
D03*
X228248Y358673D02*
D03*
Y354158D02*
D03*
X224705Y358673D02*
D03*
Y354158D02*
D03*
X274016Y491142D02*
D03*
X278531D02*
D03*
X283047D02*
D03*
X287563D02*
D03*
X287464Y494488D02*
D03*
X282949D02*
D03*
X278433D02*
D03*
X273917D02*
D03*
X274114Y487402D02*
D03*
X278630D02*
D03*
X283145D02*
D03*
X287661D02*
D03*
X287760Y484055D02*
D03*
X283244D02*
D03*
X278728D02*
D03*
X274213D02*
D03*
X157283Y483957D02*
D03*
X161799D02*
D03*
X166315D02*
D03*
X170831D02*
D03*
X175346D02*
D03*
X179862D02*
D03*
X184378D02*
D03*
X188893D02*
D03*
X193409D02*
D03*
X197925D02*
D03*
X206956D02*
D03*
X211472D02*
D03*
X220503D02*
D03*
X229534D02*
D03*
X215987D02*
D03*
X234050D02*
D03*
X225019D02*
D03*
X238566D02*
D03*
X243081D02*
D03*
X247597D02*
D03*
X252113D02*
D03*
X256628D02*
D03*
X261144D02*
D03*
X265660D02*
D03*
X270176D02*
D03*
X270077Y487303D02*
D03*
X265561D02*
D03*
X261046D02*
D03*
X256530D02*
D03*
X252014D02*
D03*
X247499D02*
D03*
X242983D02*
D03*
X238467D02*
D03*
X224920D02*
D03*
X233952D02*
D03*
X215889D02*
D03*
X229436D02*
D03*
X220405D02*
D03*
X211373D02*
D03*
X206857D02*
D03*
X197826D02*
D03*
X193310D02*
D03*
X188795D02*
D03*
X184279D02*
D03*
X179763D02*
D03*
X175248D02*
D03*
X170732D02*
D03*
X166216D02*
D03*
X161701D02*
D03*
X157185D02*
D03*
X150394Y476575D02*
D03*
Y481090D02*
D03*
Y485606D02*
D03*
Y490122D02*
D03*
Y494637D02*
D03*
X147047Y494539D02*
D03*
Y490023D02*
D03*
X147047Y485508D02*
D03*
X147047Y480992D02*
D03*
Y476476D02*
D03*
X149213Y500197D02*
D03*
X153728D02*
D03*
X158244D02*
D03*
X162760D02*
D03*
X167275D02*
D03*
X167177Y503543D02*
D03*
X162661D02*
D03*
X158145D02*
D03*
X153630D02*
D03*
X149114D02*
D03*
X206415Y505905D02*
D03*
X210930D02*
D03*
X215446D02*
D03*
X219962D02*
D03*
X224477D02*
D03*
X228993D02*
D03*
X233509D02*
D03*
X238024D02*
D03*
X242540D02*
D03*
X247056D02*
D03*
X251571D02*
D03*
X256087D02*
D03*
X260603D02*
D03*
X269634D02*
D03*
X278665D02*
D03*
X265119D02*
D03*
X283181D02*
D03*
X274150D02*
D03*
X287697D02*
D03*
X206415Y502362D02*
D03*
X210930D02*
D03*
X215446D02*
D03*
X219962D02*
D03*
X224477D02*
D03*
X228993D02*
D03*
X233509D02*
D03*
X238024D02*
D03*
X242540D02*
D03*
X247056D02*
D03*
X251571D02*
D03*
X256087D02*
D03*
X260603D02*
D03*
X269634D02*
D03*
X278665D02*
D03*
X265118D02*
D03*
X283181D02*
D03*
X274150D02*
D03*
X287697D02*
D03*
X206316Y498721D02*
D03*
X210832D02*
D03*
X215348D02*
D03*
X219863D02*
D03*
X224379D02*
D03*
X228895D02*
D03*
X233410D02*
D03*
X237926D02*
D03*
X242442D02*
D03*
X246957D02*
D03*
X251473D02*
D03*
X255989D02*
D03*
X260504D02*
D03*
X269536D02*
D03*
X278567D02*
D03*
X265020D02*
D03*
X283083D02*
D03*
X274051D02*
D03*
X287598D02*
D03*
X156988Y494390D02*
D03*
X161504D02*
D03*
X166019D02*
D03*
X170535D02*
D03*
X175051D02*
D03*
X179567D02*
D03*
X184082D02*
D03*
X188598D02*
D03*
X193114D02*
D03*
X197629D02*
D03*
X202145D02*
D03*
X206661D02*
D03*
X211176D02*
D03*
X220208D02*
D03*
X229239D02*
D03*
X215692D02*
D03*
X233755D02*
D03*
X224723D02*
D03*
X238270D02*
D03*
X242786D02*
D03*
X247302D02*
D03*
X251817D02*
D03*
X256333D02*
D03*
X260849D02*
D03*
X265365D02*
D03*
X269880D02*
D03*
X269979Y491043D02*
D03*
X265463D02*
D03*
X260947D02*
D03*
X256432D02*
D03*
X251916D02*
D03*
X247400D02*
D03*
X242884D02*
D03*
X238369D02*
D03*
X224822D02*
D03*
X233853D02*
D03*
X215791D02*
D03*
X229338D02*
D03*
X220306D02*
D03*
X211275D02*
D03*
X206759D02*
D03*
X202243D02*
D03*
X197728D02*
D03*
X193212D02*
D03*
X188696D02*
D03*
X184181D02*
D03*
X179665D02*
D03*
X175149D02*
D03*
X170634D02*
D03*
X166118D02*
D03*
X161602D02*
D03*
X157087D02*
D03*
X222835Y284055D02*
D03*
X332893Y277756D02*
D03*
X263090Y291142D02*
D03*
X161221Y283268D02*
D03*
X163831Y298056D02*
D03*
X176969Y288681D02*
D03*
X294980Y318110D02*
D03*
X290354D02*
D03*
X280512D02*
D03*
X265748Y318996D02*
D03*
X132185Y368602D02*
D03*
X241634Y287205D02*
D03*
X283858Y290453D02*
D03*
X212500Y288484D02*
D03*
X301673Y286221D02*
D03*
X351181Y325113D02*
D03*
X326772Y349757D02*
D03*
X326772Y346752D02*
D03*
X333169Y349954D02*
D03*
X333169Y346949D02*
D03*
X339075Y349954D02*
D03*
X339075Y346949D02*
D03*
X345177Y346752D02*
D03*
X351181Y349856D02*
D03*
X351181Y346850D02*
D03*
X326772Y328202D02*
D03*
X326772Y325197D02*
D03*
X345079Y325098D02*
D03*
X205709Y442126D02*
D03*
X298764Y442028D02*
D03*
X291961D02*
D03*
X295362D02*
D03*
X288559D02*
D03*
X302165D02*
D03*
X198961Y442126D02*
D03*
X192158D02*
D03*
X195559D02*
D03*
X202362D02*
D03*
X286417Y290453D02*
D03*
X118209Y373524D02*
D03*
X312992Y443504D02*
D03*
X215945Y441732D02*
D03*
X124508Y394291D02*
D03*
X345748Y441851D02*
D03*
X335138Y277756D02*
D03*
X274091Y392173D02*
D03*
X267251D02*
D03*
X280931Y382394D02*
D03*
X274091Y385653D02*
D03*
X277511Y379134D02*
D03*
X267251Y388913D02*
D03*
X270671Y395433D02*
D03*
X280931Y392173D02*
D03*
X270671D02*
D03*
X280931Y385653D02*
D03*
X277511Y388913D02*
D03*
X280931Y395433D02*
D03*
X267251D02*
D03*
X277511Y382394D02*
D03*
X270671Y385653D02*
D03*
X284350Y388913D02*
D03*
X277511Y385653D02*
D03*
Y392173D02*
D03*
X280931Y379134D02*
D03*
X270671D02*
D03*
X267251D02*
D03*
X284350Y395433D02*
D03*
X274091D02*
D03*
Y388913D02*
D03*
Y382394D02*
D03*
X284350D02*
D03*
Y379134D02*
D03*
Y385653D02*
D03*
X270671Y388913D02*
D03*
X280931D02*
D03*
X284350Y392173D02*
D03*
X270671Y382394D02*
D03*
X267251D02*
D03*
X274091Y379134D02*
D03*
X267251Y385653D02*
D03*
X277511Y395433D02*
D03*
X178323Y392272D02*
D03*
X171484D02*
D03*
X185163Y382492D02*
D03*
X178323Y385752D02*
D03*
X181743Y379232D02*
D03*
X171484Y389012D02*
D03*
X174903Y395531D02*
D03*
X185163Y392272D02*
D03*
X174903D02*
D03*
X185163Y385752D02*
D03*
X181743Y389012D02*
D03*
X185163Y395531D02*
D03*
X171484D02*
D03*
X181743Y382492D02*
D03*
X174903Y385752D02*
D03*
X188583Y389012D02*
D03*
X181743Y385752D02*
D03*
Y392272D02*
D03*
X185163Y379232D02*
D03*
X174903D02*
D03*
X171484D02*
D03*
X188583Y395531D02*
D03*
X178323D02*
D03*
Y389012D02*
D03*
Y382492D02*
D03*
X188583D02*
D03*
Y379232D02*
D03*
Y385752D02*
D03*
X174903Y389012D02*
D03*
X185163D02*
D03*
X188583Y392272D02*
D03*
X174903Y382492D02*
D03*
X171484D02*
D03*
X178323Y379232D02*
D03*
X171484Y385752D02*
D03*
X181743Y395531D02*
D03*
X318110Y448228D02*
D03*
X226870Y455020D02*
D03*
X324410Y449606D02*
D03*
X214075Y448221D02*
D03*
X336319Y455807D02*
D03*
X341240Y449409D02*
D03*
X311910Y467028D02*
D03*
X214764Y466634D02*
D03*
X220768Y446654D02*
D03*
X308760Y448228D02*
D03*
X331693Y449409D02*
D03*
X111909Y394193D02*
D03*
X124508Y396358D02*
D03*
X138976Y373130D02*
D03*
X135630D02*
D03*
X132283Y373228D02*
D03*
X126772Y372835D02*
D03*
X124114D02*
D03*
X132087Y365551D02*
D03*
X135335D02*
D03*
X138583D02*
D03*
X138681Y368504D02*
D03*
X135433D02*
D03*
X126575Y384449D02*
D03*
X126673Y387205D02*
D03*
X124016Y384449D02*
D03*
Y387106D02*
D03*
X111811Y396850D02*
D03*
X312742Y473524D02*
D03*
X326309D02*
D03*
X322917D02*
D03*
X309350D02*
D03*
X316134D02*
D03*
X336484D02*
D03*
X329700D02*
D03*
X333092D02*
D03*
X319526D02*
D03*
X278891D02*
D03*
X275454D02*
D03*
X282328D02*
D03*
X285766D02*
D03*
X247955D02*
D03*
X261705D02*
D03*
X258267D02*
D03*
X244518D02*
D03*
X251393D02*
D03*
X272016D02*
D03*
X265142D02*
D03*
X268579D02*
D03*
X254830D02*
D03*
X217020D02*
D03*
X230769D02*
D03*
X227332D02*
D03*
X213583D02*
D03*
X220457D02*
D03*
X241081D02*
D03*
X234206D02*
D03*
X237644D02*
D03*
X223895D02*
D03*
X173561D02*
D03*
X187128D02*
D03*
X183736D02*
D03*
X190519D02*
D03*
X170169D02*
D03*
X163386D02*
D03*
X176953D02*
D03*
X180344D02*
D03*
X166778D02*
D03*
X273992Y451819D02*
D03*
X267153D02*
D03*
X280832Y442039D02*
D03*
X273992Y445299D02*
D03*
X277412Y438779D02*
D03*
X267153Y448559D02*
D03*
X270573Y455079D02*
D03*
X280832Y451819D02*
D03*
X270573D02*
D03*
X280832Y445299D02*
D03*
X277412Y448559D02*
D03*
X280832Y455079D02*
D03*
X267153D02*
D03*
X277412Y442039D02*
D03*
X270573Y445299D02*
D03*
X284252Y448559D02*
D03*
X277412Y445299D02*
D03*
Y451819D02*
D03*
X280832Y438779D02*
D03*
X270573D02*
D03*
X267153D02*
D03*
X284252Y455079D02*
D03*
X273992D02*
D03*
Y448559D02*
D03*
Y442039D02*
D03*
X284252D02*
D03*
Y438779D02*
D03*
Y445299D02*
D03*
X270573Y448559D02*
D03*
X280832D02*
D03*
X284252Y451819D02*
D03*
X270573Y442039D02*
D03*
X267153D02*
D03*
X273992Y438779D02*
D03*
X267153Y445299D02*
D03*
X277412Y455079D02*
D03*
X298764Y438791D02*
D03*
X288559D02*
D03*
X291961D02*
D03*
X295362D02*
D03*
X302165D02*
D03*
X205709Y438693D02*
D03*
X198906D02*
D03*
X195504D02*
D03*
X192103D02*
D03*
X202307D02*
D03*
X180956Y454980D02*
D03*
X170696Y445201D02*
D03*
X177536Y438681D02*
D03*
X170696Y441941D02*
D03*
X174116D02*
D03*
X187795Y451720D02*
D03*
X184376Y448461D02*
D03*
X174116D02*
D03*
X187795Y445201D02*
D03*
Y438681D02*
D03*
Y441941D02*
D03*
X177536D02*
D03*
Y448461D02*
D03*
Y454980D02*
D03*
X187795D02*
D03*
X170696Y438681D02*
D03*
X174116D02*
D03*
X184376D02*
D03*
X180956Y451720D02*
D03*
Y445201D02*
D03*
X187795Y448461D02*
D03*
X174116Y445201D02*
D03*
X180956Y441941D02*
D03*
X170696Y454980D02*
D03*
X184376D02*
D03*
X180956Y448461D02*
D03*
X184376Y445201D02*
D03*
X174116Y451720D02*
D03*
X184376D02*
D03*
X174116Y454980D02*
D03*
X170696Y448461D02*
D03*
X180956Y438681D02*
D03*
X177536Y445201D02*
D03*
X184376Y441941D02*
D03*
X170696Y451720D02*
D03*
X177536D02*
D03*
X156496Y302658D02*
D03*
X304724Y325295D02*
D03*
X307529D02*
D03*
X318750Y328346D02*
D03*
Y325295D02*
D03*
X313140D02*
D03*
X315945Y328346D02*
D03*
X304724D02*
D03*
X321555D02*
D03*
Y325295D02*
D03*
X315945D02*
D03*
X307529Y328346D02*
D03*
X313140D02*
D03*
X310335D02*
D03*
Y325295D02*
D03*
X304626Y346850D02*
D03*
X307431D02*
D03*
X318652Y349902D02*
D03*
Y346850D02*
D03*
X313041D02*
D03*
X315846Y349902D02*
D03*
X304626D02*
D03*
X321457D02*
D03*
Y346850D02*
D03*
X315846D02*
D03*
X307431Y349902D02*
D03*
X313041D02*
D03*
X310236D02*
D03*
Y346850D02*
D03*
X281004Y346752D02*
D03*
X283809D02*
D03*
X295029Y349803D02*
D03*
Y346752D02*
D03*
X289419D02*
D03*
X292224Y349803D02*
D03*
X281004D02*
D03*
X297835D02*
D03*
Y346752D02*
D03*
X292224D02*
D03*
X283809Y349803D02*
D03*
X289419D02*
D03*
X286614D02*
D03*
Y346752D02*
D03*
X281102Y325098D02*
D03*
X283908D02*
D03*
X295128Y328150D02*
D03*
Y325098D02*
D03*
X289518D02*
D03*
X292323Y328150D02*
D03*
X281102D02*
D03*
X297933D02*
D03*
Y325098D02*
D03*
X292323D02*
D03*
X283908Y328150D02*
D03*
X289518D02*
D03*
X286713D02*
D03*
Y325098D02*
D03*
X186516D02*
D03*
X189321D02*
D03*
X200541Y328150D02*
D03*
Y325098D02*
D03*
X194931D02*
D03*
X197736Y328150D02*
D03*
X186516D02*
D03*
X203346D02*
D03*
Y325098D02*
D03*
X197736D02*
D03*
X189321Y328150D02*
D03*
X194931D02*
D03*
X192126D02*
D03*
Y325098D02*
D03*
X162894Y325295D02*
D03*
X165699D02*
D03*
X176919Y328346D02*
D03*
Y325295D02*
D03*
X171309D02*
D03*
X174114Y328346D02*
D03*
X162894D02*
D03*
X179724D02*
D03*
Y325295D02*
D03*
X174114D02*
D03*
X165699Y328346D02*
D03*
X171309D02*
D03*
X168504D02*
D03*
Y325295D02*
D03*
X162894Y346850D02*
D03*
X165699D02*
D03*
X176919Y349902D02*
D03*
Y346850D02*
D03*
X171309D02*
D03*
X174114Y349902D02*
D03*
X162894D02*
D03*
X179724D02*
D03*
Y346850D02*
D03*
X174114D02*
D03*
X165699Y349902D02*
D03*
X171309D02*
D03*
X168504D02*
D03*
Y346850D02*
D03*
X186417D02*
D03*
X189223D02*
D03*
X200443Y349902D02*
D03*
Y346850D02*
D03*
X194833D02*
D03*
X197638Y349902D02*
D03*
X186417D02*
D03*
X203248D02*
D03*
Y346850D02*
D03*
X197638D02*
D03*
X189223Y349902D02*
D03*
X194833D02*
D03*
X192028D02*
D03*
Y346850D02*
D03*
X223721D02*
D03*
X226427D02*
D03*
X223721Y349902D02*
D03*
X226427D02*
D03*
X229134D02*
D03*
Y346850D02*
D03*
X255118Y346752D02*
D03*
X257825D02*
D03*
X255118Y349803D02*
D03*
X257825D02*
D03*
X260531D02*
D03*
Y346752D02*
D03*
Y325197D02*
D03*
Y328248D02*
D03*
X257825D02*
D03*
X255118D02*
D03*
X257825Y325197D02*
D03*
X255118D02*
D03*
X223622Y325394D02*
D03*
X226329D02*
D03*
Y328445D02*
D03*
X229035D02*
D03*
Y325394D02*
D03*
X223622Y328445D02*
D03*
X239272Y346752D02*
D03*
Y349803D02*
D03*
X242077D02*
D03*
X236467D02*
D03*
X244882Y346752D02*
D03*
X250492D02*
D03*
Y349803D02*
D03*
X233661D02*
D03*
X244882D02*
D03*
X242077Y346752D02*
D03*
X247687D02*
D03*
Y349803D02*
D03*
X236467Y346752D02*
D03*
X233661D02*
D03*
X233760Y325197D02*
D03*
X236565D02*
D03*
X247785Y328248D02*
D03*
Y325197D02*
D03*
X242175D02*
D03*
X244980Y328248D02*
D03*
X233760D02*
D03*
X250590D02*
D03*
Y325197D02*
D03*
X244980D02*
D03*
X236565Y328248D02*
D03*
X242175D02*
D03*
X239370D02*
D03*
Y325197D02*
D03*
M02*
