G04*
G04 #@! TF.GenerationSoftware,Altium Limited,Altium Designer,22.5.1 (42)*
G04*
G04 Layer_Color=65535*
%FSLAX25Y25*%
%MOIN*%
G70*
G04*
G04 #@! TF.SameCoordinates,4CCF3D7E-3C4F-46BB-889F-021E08990E68*
G04*
G04*
G04 #@! TF.FilePolarity,Positive*
G04*
G01*
G75*
%ADD10C,0.00787*%
%ADD11C,0.00591*%
%ADD12C,0.01000*%
%ADD13C,0.00394*%
%ADD14C,0.00984*%
D10*
X274606Y467815D02*
X275000D01*
X274606D01*
X275000D01*
X178937Y467831D02*
X179331D01*
X178937D01*
X179331D01*
D11*
X366929Y495965D02*
X366886Y496960D01*
X366756Y497947D01*
X366540Y498920D01*
X366241Y499869D01*
X365859Y500790D01*
X365400Y501673D01*
X364864Y502513D01*
X364258Y503303D01*
X363585Y504038D01*
X362851Y504711D01*
X362060Y505317D01*
X361221Y505852D01*
X360337Y506312D01*
X359417Y506693D01*
X358467Y506993D01*
X357494Y507208D01*
X356507Y507338D01*
X355512Y507382D01*
X354517Y507338D01*
X353529Y507208D01*
X352557Y506993D01*
X351607Y506693D01*
X350687Y506312D01*
X349803Y505852D01*
X348963Y505317D01*
X348173Y504711D01*
X347439Y504038D01*
X346766Y503303D01*
X346159Y502513D01*
X345624Y501673D01*
X345164Y500790D01*
X344783Y499869D01*
X344483Y498920D01*
X344268Y497947D01*
X344138Y496960D01*
X344094Y495965D01*
X344138Y494970D01*
X344268Y493982D01*
X344483Y493010D01*
X344783Y492060D01*
X345164Y491139D01*
X345624Y490256D01*
X346159Y489416D01*
X346766Y488626D01*
X347439Y487891D01*
X348173Y487218D01*
X348963Y486612D01*
X349803Y486077D01*
X350687Y485617D01*
X351607Y485236D01*
X352557Y484936D01*
X353529Y484721D01*
X354517Y484591D01*
X355512Y484547D01*
X356507Y484591D01*
X357494Y484721D01*
X358467Y484936D01*
X359417Y485236D01*
X360337Y485617D01*
X361221Y486077D01*
X362060Y486612D01*
X362851Y487218D01*
X363585Y487891D01*
X364258Y488626D01*
X364864Y489416D01*
X365400Y490256D01*
X365859Y491139D01*
X366241Y492060D01*
X366540Y493010D01*
X366756Y493982D01*
X366886Y494970D01*
X366929Y495965D01*
X366831Y288090D02*
X366787Y289086D01*
X366657Y290073D01*
X366442Y291046D01*
X366142Y291996D01*
X365761Y292916D01*
X365301Y293799D01*
X364766Y294639D01*
X364160Y295429D01*
X363487Y296164D01*
X362752Y296837D01*
X361962Y297443D01*
X361122Y297978D01*
X360239Y298438D01*
X359318Y298819D01*
X358368Y299119D01*
X357396Y299334D01*
X356409Y299464D01*
X355413Y299508D01*
X354418Y299464D01*
X353431Y299334D01*
X352458Y299119D01*
X351508Y298819D01*
X350588Y298438D01*
X349705Y297978D01*
X348865Y297443D01*
X348075Y296837D01*
X347340Y296164D01*
X346667Y295429D01*
X346061Y294639D01*
X345526Y293799D01*
X345066Y292916D01*
X344685Y291996D01*
X344385Y291046D01*
X344169Y290073D01*
X344040Y289086D01*
X343996Y288090D01*
X344040Y287095D01*
X344169Y286108D01*
X344385Y285136D01*
X344685Y284186D01*
X345066Y283265D01*
X345526Y282382D01*
X346061Y281542D01*
X346667Y280752D01*
X347340Y280017D01*
X348075Y279344D01*
X348865Y278738D01*
X349705Y278203D01*
X350588Y277743D01*
X351508Y277362D01*
X352458Y277062D01*
X353431Y276847D01*
X354418Y276717D01*
X355413Y276673D01*
X356409Y276717D01*
X357396Y276847D01*
X358368Y277062D01*
X359318Y277362D01*
X360239Y277743D01*
X361122Y278203D01*
X361962Y278738D01*
X362752Y279344D01*
X363487Y280017D01*
X364160Y280752D01*
X364766Y281542D01*
X365301Y282382D01*
X365761Y283265D01*
X366142Y284186D01*
X366442Y285136D01*
X366657Y286108D01*
X366787Y287095D01*
X366831Y288090D01*
X146457Y388779D02*
Y389370D01*
X121949D02*
X146457D01*
X121949Y362008D02*
Y389370D01*
Y362008D02*
X146457D01*
Y388779D01*
X169980Y307776D02*
X343209Y307776D01*
Y292028D02*
Y307776D01*
X169980Y292028D02*
X343209D01*
X169980D02*
Y307776D01*
X164567Y378602D02*
Y431653D01*
X154429Y378602D02*
X164567D01*
X154429D02*
Y431653D01*
X164567D01*
X271949Y277460D02*
X273523D01*
X272736Y278247D02*
Y276673D01*
X246653Y285728D02*
X245079D01*
Y284547D01*
X245866D01*
X245079D01*
Y283366D01*
X247440D02*
Y284940D01*
X248227Y285728D01*
X249014Y284940D01*
Y283366D01*
Y284547D01*
X247440D01*
X249802Y283366D02*
Y285728D01*
X251376Y283366D01*
Y285728D01*
X313977Y285138D02*
X313583Y285531D01*
X312796D01*
X312403Y285138D01*
Y283563D01*
X312796Y283170D01*
X313583D01*
X313977Y283563D01*
X314764Y285138D02*
X315158Y285531D01*
X315945D01*
X316338Y285138D01*
Y284744D01*
X315945Y284350D01*
X315551D01*
X315945D01*
X316338Y283957D01*
Y283563D01*
X315945Y283170D01*
X315158D01*
X314764Y283563D01*
X317126Y285138D02*
X317519Y285531D01*
X318306D01*
X318700Y285138D01*
Y284744D01*
X318306Y284350D01*
X318700Y283957D01*
Y283563D01*
X318306Y283170D01*
X317519D01*
X317126Y283563D01*
Y283957D01*
X317519Y284350D01*
X317126Y284744D01*
Y285138D01*
X317519Y284350D02*
X318306D01*
X318899Y287205D02*
Y289567D01*
X320079D01*
X320473Y289173D01*
Y288386D01*
X320079Y287992D01*
X318899D01*
X319686D02*
X320473Y287205D01*
X321260D02*
X322047D01*
X321654D01*
Y289567D01*
X321260Y289173D01*
X323228D02*
X323622Y289567D01*
X324409D01*
X324802Y289173D01*
Y288779D01*
X324409Y288386D01*
X324802Y287992D01*
Y287599D01*
X324409Y287205D01*
X323622D01*
X323228Y287599D01*
Y287992D01*
X323622Y288386D01*
X323228Y288779D01*
Y289173D01*
X323622Y288386D02*
X324409D01*
X326970Y287205D02*
Y289567D01*
X328150D01*
X328544Y289173D01*
Y288386D01*
X328150Y287992D01*
X326970D01*
X327757D02*
X328544Y287205D01*
X329331D02*
X330118D01*
X329725D01*
Y289567D01*
X329331Y289173D01*
X332873Y289567D02*
X332086Y289173D01*
X331299Y288386D01*
Y287599D01*
X331692Y287205D01*
X332480D01*
X332873Y287599D01*
Y287992D01*
X332480Y288386D01*
X331299D01*
X291537Y285039D02*
X291143Y285433D01*
X290356D01*
X289962Y285039D01*
Y283465D01*
X290356Y283071D01*
X291143D01*
X291537Y283465D01*
X292324Y285039D02*
X292717Y285433D01*
X293504D01*
X293898Y285039D01*
Y284646D01*
X293504Y284252D01*
X293111D01*
X293504D01*
X293898Y283858D01*
Y283465D01*
X293504Y283071D01*
X292717D01*
X292324Y283465D01*
X295866Y283071D02*
Y285433D01*
X294685Y284252D01*
X296259D01*
X297047Y282678D02*
X298621D01*
X299408Y283071D02*
X300195D01*
X299802D01*
Y285433D01*
X299408Y285039D01*
X291537Y279232D02*
X291143Y279626D01*
X290356D01*
X289962Y279232D01*
Y277658D01*
X290356Y277264D01*
X291143D01*
X291537Y277658D01*
X292324Y279232D02*
X292717Y279626D01*
X293505D01*
X293898Y279232D01*
Y278838D01*
X293505Y278445D01*
X293111D01*
X293505D01*
X293898Y278051D01*
Y277658D01*
X293505Y277264D01*
X292717D01*
X292324Y277658D01*
X295866Y277264D02*
Y279626D01*
X294685Y278445D01*
X296260D01*
X297047Y276870D02*
X298621D01*
X300982Y277264D02*
X299408D01*
X300982Y278838D01*
Y279232D01*
X300589Y279626D01*
X299802D01*
X299408Y279232D01*
X114961Y388189D02*
Y385827D01*
X116536D01*
X117323Y387795D02*
X117716Y388189D01*
X118503D01*
X118897Y387795D01*
Y387401D01*
X118503Y387008D01*
X118110D01*
X118503D01*
X118897Y386614D01*
Y386221D01*
X118503Y385827D01*
X117716D01*
X117323Y386221D01*
X283268Y278937D02*
X282874Y279330D01*
X282087D01*
X281694Y278937D01*
Y277362D01*
X282087Y276969D01*
X282874D01*
X283268Y277362D01*
X285236Y276969D02*
Y279330D01*
X284055Y278150D01*
X285629D01*
X167800Y310700D02*
Y313061D01*
X168981D01*
X169374Y312668D01*
Y311881D01*
X168981Y311487D01*
X167800D01*
X170161Y310700D02*
X170949D01*
X170555D01*
Y313061D01*
X170161Y312668D01*
X267422Y463385D02*
Y461024D01*
X268996D01*
X271358D02*
X269783D01*
X271358Y462598D01*
Y462992D01*
X270964Y463385D01*
X270177D01*
X269783Y462992D01*
X252953Y463287D02*
Y460926D01*
X254528D01*
X255315D02*
X256102D01*
X255708D01*
Y463287D01*
X255315Y462893D01*
D12*
X196949Y488583D02*
X207185D01*
X196949Y470472D02*
X207185D01*
Y476772D01*
Y482283D02*
Y488583D01*
X196949Y476772D02*
X196949Y470472D01*
X196949Y482283D02*
X196949Y488583D01*
X237992D02*
X237992Y482283D01*
Y470472D02*
Y476772D01*
X248228Y482283D02*
Y488583D01*
Y470472D02*
Y476772D01*
X237992Y470472D02*
X248228D01*
X237992Y488583D02*
X248228D01*
X227756Y482283D02*
X227756Y488583D01*
Y470472D02*
Y476772D01*
X237992Y482283D02*
Y488583D01*
Y470472D02*
Y476772D01*
X227756Y470472D02*
X237992D01*
X227756Y488583D02*
X237992Y488583D01*
X248228Y482283D02*
X248228Y488583D01*
Y470472D02*
Y476772D01*
X258465Y488583D02*
X258465Y482283D01*
X258465Y470472D02*
Y476772D01*
X248228Y470472D02*
X258465D01*
X248228Y488583D02*
X258465D01*
X217421Y482283D02*
Y488583D01*
Y470472D02*
Y476772D01*
X227658Y482283D02*
Y488583D01*
Y470472D02*
Y476772D01*
X217421Y470472D02*
X227658D01*
X217421Y488583D02*
X227658D01*
X207185Y482283D02*
Y488583D01*
Y470472D02*
Y476772D01*
X217421Y482283D02*
Y488583D01*
Y470472D02*
Y476772D01*
X207185Y470472D02*
X217421D01*
X207185Y488583D02*
X217421D01*
X176476Y482283D02*
Y488583D01*
Y470472D02*
Y476772D01*
X186713Y482283D02*
Y488583D01*
X186713Y470472D02*
X186713Y476772D01*
X176476Y470472D02*
X186713D01*
X176476Y488583D02*
X186713D01*
Y482283D02*
Y488583D01*
X186713Y470472D02*
X186713Y476772D01*
X196949Y482283D02*
X196949Y488583D01*
X196949Y470472D02*
X196949Y476772D01*
X186713Y470472D02*
X196949Y470472D01*
X186713Y488583D02*
X196949Y488583D01*
X166339Y482283D02*
Y488583D01*
Y470472D02*
Y476772D01*
X176575Y482283D02*
X176575Y488583D01*
X176575Y470472D02*
X176575Y476772D01*
X166339Y470472D02*
X176575D01*
X166339Y488583D02*
X176575Y488583D01*
X156102Y482283D02*
X156102Y488583D01*
Y470472D02*
Y476772D01*
X166339Y482283D02*
Y488583D01*
Y476772D02*
X166339Y470472D01*
X156102Y470472D02*
X166339Y470472D01*
X156102Y488583D02*
X166339D01*
X258366Y482283D02*
Y488583D01*
Y470472D02*
X258366Y476772D01*
X268602Y482283D02*
X268602Y488583D01*
X268602Y470472D02*
X268602Y476772D01*
X258366Y470472D02*
X268602D01*
X258366Y488583D02*
X268602D01*
X268602Y482283D02*
X268602Y488583D01*
Y470472D02*
Y476772D01*
X278839Y488583D02*
X278839Y482283D01*
X278839Y476772D02*
X278839Y470472D01*
X268602D02*
X278839D01*
X268602Y488583D02*
X278839D01*
X278839Y482283D02*
Y488583D01*
X278839Y476772D02*
X278839Y470472D01*
X289075Y488583D02*
X289075Y482283D01*
X289075Y476772D02*
X289075Y470472D01*
X278839D02*
X289075D01*
X278839Y488583D02*
X289075D01*
X289075Y482283D01*
X289075Y476772D02*
X289075Y470472D01*
X299311Y482283D02*
Y488583D01*
Y470472D02*
Y476772D01*
X289075Y470472D02*
X299311D01*
X289075Y488583D02*
X299311Y488583D01*
Y482283D02*
Y488583D01*
Y470472D02*
Y476772D01*
X309547Y482283D02*
X309547Y488583D01*
X309547Y470472D02*
X309547Y476772D01*
X299311Y470472D02*
X309547D01*
X299311Y488583D02*
X309547Y488583D01*
X309547Y482283D02*
X309547Y488583D01*
X309547Y470472D02*
X309547Y476772D01*
X319783Y482283D02*
X319783Y488583D01*
X319783Y470472D02*
X319783Y476772D01*
X309547Y470472D02*
X319783D01*
X309547Y488583D02*
X319783D01*
X319783Y482283D02*
Y488583D01*
Y470472D02*
X319783Y476772D01*
X330020Y482283D02*
Y488583D01*
Y470472D02*
Y476772D01*
X319783Y470472D02*
X330020D01*
X319783Y488583D02*
X330020D01*
Y482283D02*
Y488583D01*
Y470472D02*
Y476772D01*
X340256Y482283D02*
Y488583D01*
Y470472D02*
Y476772D01*
X330020Y470472D02*
X340256D01*
X330020Y488583D02*
X340256D01*
D13*
X265158Y458366D02*
Y465650D01*
Y458366D02*
Y465650D01*
X354921Y465650D01*
X265158Y465650D02*
X354921Y465650D01*
X354921Y427854D01*
X354921Y465650D02*
X354921Y427854D01*
Y368406D02*
Y406201D01*
Y368406D02*
Y406201D01*
X265158Y368406D02*
X354921Y368406D01*
X265158Y368406D02*
X354921Y368406D01*
X265158Y368406D02*
Y375689D01*
Y368406D02*
Y375689D01*
Y434744D02*
X265158Y399311D01*
X265158Y434744D02*
X265158Y399311D01*
X169488Y399327D02*
Y434760D01*
Y399327D02*
Y434760D01*
Y368421D02*
Y375705D01*
Y368421D02*
Y375705D01*
Y368421D02*
X259252Y368421D01*
X169488Y368421D02*
X259252Y368421D01*
Y406216D01*
Y368421D02*
Y406216D01*
Y465665D02*
X259252Y427870D01*
X259252Y465665D02*
X259252Y427870D01*
X169488Y465665D02*
X259252Y465665D01*
X169488Y465665D02*
X259252Y465665D01*
X169488Y458382D02*
Y465665D01*
Y458382D02*
Y465665D01*
X256988Y279724D02*
Y289961D01*
X277658Y289961D01*
Y279725D02*
Y289961D01*
X256988Y279724D02*
X277658Y279725D01*
X119154Y502303D02*
X128996D01*
X119154D02*
X128996D01*
X137854Y483602D02*
Y493445D01*
Y483602D02*
Y493445D01*
X119154Y474744D02*
X128996D01*
X119154D02*
X128996D01*
X110295Y484587D02*
Y492461D01*
Y484587D02*
Y492461D01*
X109744Y294685D02*
Y302559D01*
Y294685D02*
Y302559D01*
X118602Y284843D02*
X128445D01*
X118602D02*
X128445D01*
X137303Y293701D02*
Y303543D01*
Y293701D02*
Y303543D01*
X118602Y312402D02*
X128445D01*
X118602D02*
X128445D01*
X118996Y354134D02*
X128839D01*
X118996D02*
X128839D01*
X137697Y335433D02*
Y345276D01*
Y335433D02*
Y345276D01*
X118996Y326575D02*
X128839D01*
X118996D02*
X128839D01*
X110138Y336417D02*
Y344291D01*
Y336417D02*
Y344291D01*
X118996Y461909D02*
X128839D01*
X118996D02*
X128839D01*
X137697Y443209D02*
Y453051D01*
Y443209D02*
Y453051D01*
X118996Y434350D02*
X128839D01*
X118996D02*
X128839D01*
X110138Y444193D02*
Y452067D01*
Y444193D02*
Y452067D01*
D14*
X102035Y445636D02*
X101379Y444980D01*
Y443668D01*
X102035Y443012D01*
X104659D01*
X105315Y443668D01*
Y444980D01*
X104659Y445636D01*
X103347D01*
Y444324D01*
X105315Y446947D02*
X101379D01*
X105315Y449571D01*
X101379D01*
Y450883D02*
X105315D01*
Y452851D01*
X104659Y453507D01*
X102035D01*
X101379Y452851D01*
Y450883D01*
X101674Y481595D02*
X104298D01*
X105610Y482906D01*
X104298Y484218D01*
X101674D01*
Y485530D02*
X105610D01*
Y488154D01*
X102331Y492090D02*
X101674Y491434D01*
Y490122D01*
X102331Y489466D01*
X102986D01*
X103642Y490122D01*
Y491434D01*
X104298Y492090D01*
X104954D01*
X105610Y491434D01*
Y490122D01*
X104954Y489466D01*
X103642Y493402D02*
Y496026D01*
X102331Y494714D02*
X104954D01*
X101248Y295931D02*
X100592Y295275D01*
Y293963D01*
X101248Y293307D01*
X103872D01*
X104527Y293963D01*
Y295275D01*
X103872Y295931D01*
X102560D01*
Y294619D01*
X104527Y297243D02*
X100592D01*
X104527Y299867D01*
X100592D01*
Y301179D02*
X104527D01*
Y303146D01*
X103872Y303802D01*
X101248D01*
X100592Y303146D01*
Y301179D01*
X100789Y333858D02*
X103412D01*
X104724Y335170D01*
X103412Y336482D01*
X100789D01*
Y337794D02*
X104724D01*
X102757D01*
Y340418D01*
X100789D01*
X104724D01*
X101445Y344354D02*
X100789Y343698D01*
Y342386D01*
X101445Y341730D01*
X102101D01*
X102757Y342386D01*
Y343698D01*
X103412Y344354D01*
X104069D01*
X104724Y343698D01*
Y342386D01*
X104069Y341730D01*
X102757Y345666D02*
Y348289D01*
X101445Y346977D02*
X104069D01*
M02*
