G04*
G04 #@! TF.GenerationSoftware,Altium Limited,Altium Designer,22.5.1 (42)*
G04*
G04 Layer_Physical_Order=2*
G04 Layer_Color=36540*
%FSLAX25Y25*%
%MOIN*%
G70*
G04*
G04 #@! TF.SameCoordinates,4CCF3D7E-3C4F-46BB-889F-021E08990E68*
G04*
G04*
G04 #@! TF.FilePolarity,Positive*
G04*
G01*
G75*
%ADD40C,0.01181*%
%ADD43R,0.19685X0.08661*%
%ADD44R,0.07874X0.08661*%
%ADD45R,0.04724X0.08661*%
%ADD47C,0.07874*%
%ADD48C,0.04724*%
%ADD50C,0.12598*%
%ADD51C,0.06299*%
%ADD52C,0.02362*%
%ADD53C,0.01968*%
%ADD54R,0.03150X0.06791*%
%ADD55R,0.02953X0.05906*%
%ADD56R,0.04823X0.01968*%
G36*
X367107Y441984D02*
X366645Y441793D01*
X358440Y449998D01*
X357919Y450346D01*
X357305Y450468D01*
X357304Y450468D01*
X345713D01*
X345713Y450468D01*
X345098Y450346D01*
X344578Y449998D01*
X344578Y449998D01*
X343905Y449326D01*
X343406Y449533D01*
Y449840D01*
X343076Y450636D01*
X342467Y451245D01*
X341671Y451575D01*
X340809D01*
X340014Y451245D01*
X339784Y451015D01*
X336886D01*
X334086Y453815D01*
Y454324D01*
X334108Y454339D01*
X334586Y454478D01*
X335092Y453971D01*
X335888Y453642D01*
X336750D01*
X337545Y453971D01*
X338155Y454580D01*
X338484Y455376D01*
Y456238D01*
X338155Y457034D01*
X337545Y457643D01*
X336750Y457972D01*
X335888D01*
X335092Y457643D01*
X334483Y457034D01*
X334333Y456671D01*
X333769Y456615D01*
X333616Y456844D01*
X333616Y456844D01*
X330171Y460289D01*
X329650Y460637D01*
X329035Y460759D01*
X329035Y460759D01*
X295252D01*
X291391Y464620D01*
X290870Y464968D01*
X290256Y465090D01*
X290256Y465090D01*
X225000D01*
X224385Y464968D01*
X223865Y464620D01*
X223865Y464620D01*
X210184Y450939D01*
X209836Y450418D01*
X209713Y449803D01*
X209713Y449803D01*
Y447080D01*
X209713Y447079D01*
X209836Y446465D01*
X210184Y445944D01*
X211798Y444330D01*
X211798Y444330D01*
X212319Y443982D01*
X212933Y443859D01*
X214303D01*
X214510Y443359D01*
X214109Y442959D01*
X213779Y442163D01*
Y441302D01*
X214109Y440506D01*
X214718Y439897D01*
X215514Y439567D01*
X216376D01*
X217172Y439897D01*
X217781Y440506D01*
X218110Y441302D01*
Y442163D01*
X217781Y442959D01*
X217380Y443359D01*
X217587Y443859D01*
X219579D01*
X219579Y443859D01*
X220194Y443982D01*
X220715Y444330D01*
X220873Y444488D01*
X221198D01*
X221994Y444818D01*
X222603Y445427D01*
X222933Y446223D01*
Y447084D01*
X222603Y447880D01*
X221994Y448489D01*
X221198Y448819D01*
X220337D01*
X219541Y448489D01*
X218932Y447880D01*
X218602Y447084D01*
Y447071D01*
X216392D01*
X216114Y447486D01*
X216240Y447790D01*
Y448652D01*
X216136Y448904D01*
X224961Y457730D01*
X225461Y457523D01*
Y456673D01*
X225034Y456246D01*
X224705Y455450D01*
Y454589D01*
X225034Y453793D01*
X225643Y453184D01*
X226439Y452854D01*
X227301D01*
X228097Y453184D01*
X228706Y453793D01*
X229035Y454589D01*
Y455450D01*
X228706Y456246D01*
X228673Y456279D01*
Y457307D01*
X228815Y457449D01*
X265912D01*
X266011Y456950D01*
X265926Y456914D01*
X265317Y456305D01*
X264987Y455509D01*
Y454648D01*
X265317Y453852D01*
X265721Y453449D01*
X265317Y453045D01*
X264987Y452249D01*
Y451388D01*
X265317Y450592D01*
X265721Y450189D01*
X265317Y449786D01*
X264987Y448990D01*
Y448128D01*
X265317Y447332D01*
X265721Y446929D01*
X265317Y446526D01*
X264987Y445730D01*
Y444869D01*
X265317Y444073D01*
X265721Y443669D01*
X265317Y443266D01*
X264987Y442470D01*
Y441609D01*
X265317Y440813D01*
X265721Y440409D01*
X265317Y440006D01*
X264987Y439210D01*
Y438349D01*
X265317Y437553D01*
X265926Y436944D01*
X266722Y436614D01*
X267584D01*
X268379Y436944D01*
X268863Y437427D01*
X269346Y436944D01*
X270142Y436614D01*
X271003D01*
X271799Y436944D01*
X272283Y437427D01*
X272766Y436944D01*
X273562Y436614D01*
X274423D01*
X275219Y436944D01*
X275702Y437427D01*
X276186Y436944D01*
X276982Y436614D01*
X277843D01*
X278639Y436944D01*
X279122Y437427D01*
X279606Y436944D01*
X280401Y436614D01*
X281263D01*
X282059Y436944D01*
X282542Y437427D01*
X283025Y436944D01*
X283821Y436614D01*
X284683D01*
X285478Y436944D01*
X286088Y437553D01*
X286158Y437723D01*
X286658D01*
X286724Y437565D01*
X287333Y436956D01*
X288129Y436626D01*
X288990D01*
X289786Y436956D01*
X290260Y437430D01*
X290734Y436956D01*
X291530Y436626D01*
X292392D01*
X293187Y436956D01*
X293662Y437430D01*
X294136Y436956D01*
X294932Y436626D01*
X295793D01*
X296589Y436956D01*
X297063Y437430D01*
X297537Y436956D01*
X298333Y436626D01*
X299195D01*
X299991Y436956D01*
X300465Y437430D01*
X300939Y436956D01*
X301735Y436626D01*
X302596D01*
X303392Y436956D01*
X304001Y437565D01*
X304331Y438361D01*
Y439222D01*
X304001Y440018D01*
X303609Y440409D01*
X304001Y440801D01*
X304331Y441597D01*
Y442458D01*
X304001Y443254D01*
X303392Y443863D01*
X302596Y444193D01*
X301735D01*
X300939Y443863D01*
X300465Y443389D01*
X299991Y443863D01*
X299195Y444193D01*
X298333D01*
X297537Y443863D01*
X297063Y443389D01*
X296589Y443863D01*
X295793Y444193D01*
X294932D01*
X294136Y443863D01*
X293662Y443389D01*
X293187Y443863D01*
X292392Y444193D01*
X291530D01*
X290734Y443863D01*
X290260Y443389D01*
X289786Y443863D01*
X288990Y444193D01*
X288129D01*
X287333Y443863D01*
X286724Y443254D01*
X286658Y443096D01*
X286158D01*
X286088Y443266D01*
X285684Y443669D01*
X286088Y444073D01*
X286417Y444869D01*
Y445730D01*
X286088Y446526D01*
X285684Y446929D01*
X286088Y447332D01*
X286417Y448128D01*
Y448990D01*
X286088Y449786D01*
X285684Y450189D01*
X286088Y450592D01*
X286417Y451388D01*
Y452249D01*
X286088Y453045D01*
X285684Y453449D01*
X286088Y453852D01*
X286417Y454648D01*
Y455509D01*
X286088Y456305D01*
X285478Y456914D01*
X285394Y456950D01*
X285493Y457449D01*
X287316D01*
X291078Y453687D01*
X291078Y453687D01*
X291599Y453339D01*
X292213Y453217D01*
X292213Y453217D01*
X303764D01*
X304398Y452583D01*
Y447087D01*
X304398Y447087D01*
X304521Y446472D01*
X304869Y445952D01*
X306483Y444337D01*
X306483Y444337D01*
X307004Y443989D01*
X307618Y443867D01*
X310365D01*
X310482Y443867D01*
X310827Y443426D01*
Y443073D01*
X311156Y442277D01*
X311766Y441668D01*
X312561Y441339D01*
X313423D01*
X314219Y441668D01*
X314828Y442277D01*
X315158Y443073D01*
Y443569D01*
X315657Y443837D01*
X315724Y443792D01*
X316339Y443670D01*
X316339Y443670D01*
X321579D01*
X324554Y440695D01*
X324554Y440695D01*
X325075Y440347D01*
X325689Y440225D01*
X325689Y440225D01*
X341831D01*
X341831Y440225D01*
X342445Y440347D01*
X342966Y440695D01*
X343296Y441025D01*
X343786Y440928D01*
X343912Y440624D01*
X344521Y440015D01*
X345317Y439685D01*
X346179D01*
X346974Y440015D01*
X347584Y440624D01*
X347913Y441420D01*
Y441639D01*
X348413Y442139D01*
X355076D01*
X360501Y436714D01*
Y361024D01*
X332489Y361024D01*
X332489Y361024D01*
X331508Y360976D01*
X329586Y360593D01*
X327775Y359843D01*
X326145Y358754D01*
X325417Y358095D01*
X325098Y357776D01*
X324788Y357434D01*
X324276Y356667D01*
X323923Y355815D01*
X323743Y354910D01*
X323721Y354449D01*
Y352953D01*
X323425D01*
Y342323D01*
X323040Y342047D01*
X300590D01*
Y353346D01*
X278150D01*
Y342001D01*
X277308Y341781D01*
X277189Y341723D01*
X277064Y341682D01*
X276249Y341217D01*
X276150Y341130D01*
X276040Y341058D01*
X275374Y340397D01*
X275301Y340288D01*
X275213Y340189D01*
X274742Y339378D01*
X274700Y339253D01*
X274641Y339135D01*
X274397Y338230D01*
X274389Y338098D01*
X274363Y337969D01*
X274363Y337031D01*
X274389Y336902D01*
X274397Y336770D01*
X274641Y335865D01*
X274700Y335747D01*
X274742Y335622D01*
X275213Y334811D01*
X275301Y334712D01*
X275374Y334603D01*
X276040Y333942D01*
X276150Y333870D01*
X276249Y333783D01*
X277064Y333318D01*
X277189Y333277D01*
X277308Y333219D01*
X278149Y332999D01*
Y321850D01*
X294835D01*
X294935Y321350D01*
X294375Y321119D01*
X293773Y320716D01*
X293504Y320472D01*
X292281Y319249D01*
X292281Y319249D01*
X292071Y319018D01*
X291724Y318499D01*
X291486Y317923D01*
X291364Y317311D01*
X291349Y316999D01*
X291349D01*
X291327Y316963D01*
X291280Y316893D01*
X291228Y316826D01*
X291172Y316762D01*
X291072Y316662D01*
X290906Y316552D01*
X290723Y316476D01*
X290528Y316437D01*
X290429Y316437D01*
X287694D01*
X287364Y316436D01*
X286712Y316542D01*
X286087Y316752D01*
X285503Y317061D01*
X285241Y317261D01*
X285027Y317426D01*
X284556Y317690D01*
X284043Y317857D01*
X283507Y317921D01*
X283237Y317913D01*
X282677D01*
Y318541D01*
X282347Y319337D01*
X281738Y319946D01*
X280943Y320276D01*
X280081D01*
X279285Y319946D01*
X278676Y319337D01*
X278346Y318541D01*
Y317913D01*
X272390Y317913D01*
X272390Y317913D01*
X272193Y317904D01*
X271805Y317827D01*
X271440Y317675D01*
X271111Y317456D01*
X270965Y317323D01*
X270567Y316925D01*
X269631Y316300D01*
X268591Y315869D01*
X267488Y315650D01*
X178642D01*
X178642Y315650D01*
X177910Y315614D01*
X176474Y315328D01*
X175122Y314768D01*
X173905Y313955D01*
X173362Y313463D01*
X172185Y312286D01*
X172185Y312286D01*
X172000Y311751D01*
X171512Y310731D01*
X170912Y309773D01*
X170207Y308888D01*
X169807Y308488D01*
X165095Y303882D01*
X164973Y303709D01*
X164713Y303372D01*
X164438Y303047D01*
X164151Y302733D01*
X164000Y302583D01*
X161515Y300098D01*
X160873Y299389D01*
X159812Y297801D01*
X159081Y296037D01*
X158708Y294164D01*
X158661Y293209D01*
Y280822D01*
X158661Y280322D01*
X158504Y280164D01*
X108478D01*
X103786Y284856D01*
Y387683D01*
X104246Y388143D01*
X121651D01*
X121929Y387727D01*
X121850Y387537D01*
Y386676D01*
X122180Y385880D01*
X122282Y385778D01*
X122180Y385675D01*
X121850Y384879D01*
Y384018D01*
X122180Y383222D01*
X122789Y382613D01*
X123585Y382283D01*
X124446D01*
X125242Y382613D01*
X125295Y382666D01*
X125348Y382613D01*
X126144Y382283D01*
X127006D01*
X127801Y382613D01*
X128410Y383222D01*
X128740Y384018D01*
Y384879D01*
X128410Y385675D01*
X128308Y385778D01*
X128509Y385978D01*
X128839Y386774D01*
Y387635D01*
X128509Y388431D01*
X127900Y389040D01*
X127104Y389370D01*
X126242D01*
X125638Y389120D01*
X125479Y389181D01*
X125356Y389762D01*
X125358Y389767D01*
X126136Y390545D01*
X126658Y391326D01*
X126841Y392248D01*
Y393214D01*
X126892Y393304D01*
X127067Y393954D01*
Y394628D01*
X126892Y395279D01*
X126866Y395325D01*
X126892Y395371D01*
X127067Y396021D01*
Y396695D01*
X126892Y397346D01*
X126556Y397930D01*
X126079Y398406D01*
X125496Y398743D01*
X124845Y398917D01*
X124171D01*
X123520Y398743D01*
X122937Y398406D01*
X122460Y397930D01*
X122123Y397346D01*
X121949Y396695D01*
Y396021D01*
X122024Y395741D01*
Y394909D01*
X121949Y394628D01*
Y393954D01*
X122024Y393674D01*
Y393245D01*
X121739Y392960D01*
X114284D01*
X113950Y393460D01*
X114075Y393762D01*
Y394624D01*
X113745Y395420D01*
X113594Y395571D01*
X113647Y395624D01*
X113976Y396420D01*
Y397281D01*
X113647Y398077D01*
X113038Y398686D01*
X112242Y399016D01*
X111380D01*
X110584Y398686D01*
X109975Y398077D01*
X109646Y397281D01*
Y396420D01*
X109975Y395624D01*
X110127Y395472D01*
X110074Y395420D01*
X109744Y394624D01*
Y393762D01*
X109869Y393460D01*
X109535Y392960D01*
X103248D01*
X102326Y392776D01*
X101545Y392254D01*
X100678Y391387D01*
X100216Y391579D01*
Y467899D01*
X100312Y467963D01*
X100863Y468191D01*
X101447Y468307D01*
X101745Y468307D01*
X144010Y468307D01*
X144480Y468307D01*
X144480Y468307D01*
X144480Y468307D01*
X145460Y468355D01*
X147383Y468738D01*
X149194Y469488D01*
X150824Y470577D01*
X151551Y471236D01*
X151551Y471236D01*
X151551Y471236D01*
X154218Y473903D01*
X154551Y474236D01*
X154551Y474236D01*
X154551Y474236D01*
X154551Y474236D01*
X155248Y474933D01*
X156886Y476027D01*
X158705Y476781D01*
X160637Y477165D01*
X161622Y477165D01*
X296844Y477165D01*
X297315Y477165D01*
X297315Y477165D01*
X297315Y477165D01*
X297973Y477198D01*
X299266Y477455D01*
X300483Y477959D01*
X301578Y478691D01*
X302067Y479134D01*
X302554Y479671D01*
X303359Y480876D01*
X303914Y482215D01*
X304197Y483637D01*
X304232Y484362D01*
X304232Y505817D01*
X304232Y505817D01*
X304282Y506297D01*
X304323Y506503D01*
X304500Y506931D01*
X304663Y507176D01*
X304984Y507543D01*
X305452Y507658D01*
X367107D01*
Y441984D01*
D02*
G37*
G36*
X303212Y507648D02*
X303313Y507554D01*
X303508Y507158D01*
X303396Y506887D01*
X303376Y506790D01*
X303338Y506699D01*
X303297Y506492D01*
Y506445D01*
X303283Y506399D01*
X303234Y505920D01*
X303239Y505868D01*
X303229Y505817D01*
X303229Y484386D01*
X303198Y483760D01*
X302949Y482508D01*
X302470Y481352D01*
X301761Y480291D01*
X301357Y479844D01*
X300959Y479484D01*
X300007Y478848D01*
X299034Y478445D01*
X161229D01*
X160249Y478397D01*
X158326Y478014D01*
X156515Y477264D01*
X154885Y476175D01*
X154158Y475516D01*
X154158Y475516D01*
Y475516D01*
X150166Y471524D01*
X148528Y470429D01*
X146708Y469676D01*
X145010Y469338D01*
X144455Y469311D01*
X144010Y469311D01*
X101745Y469311D01*
X101447Y469311D01*
X101350Y469291D01*
X100216D01*
Y491732D01*
Y507658D01*
X303194D01*
X303212Y507648D01*
D02*
G37*
G36*
X284390Y456950D02*
X284409Y456853D01*
Y456754D01*
X284447Y456662D01*
X284467Y456565D01*
X284522Y456483D01*
X284559Y456392D01*
X284629Y456322D01*
X284684Y456240D01*
X284766Y456185D01*
X284836Y456115D01*
X284874Y456099D01*
X285237Y455737D01*
X285414Y455310D01*
Y454848D01*
X285237Y454421D01*
X284975Y454158D01*
X284975Y454158D01*
X284757Y453833D01*
X284681Y453449D01*
X284757Y453065D01*
X284975Y452739D01*
X285237Y452477D01*
X285414Y452050D01*
Y451588D01*
X285237Y451161D01*
X284975Y450899D01*
X284757Y450573D01*
X284681Y450189D01*
X284757Y449805D01*
X284975Y449479D01*
X285237Y449217D01*
X285414Y448790D01*
Y448328D01*
X285237Y447901D01*
X284975Y447639D01*
X284975Y447639D01*
X284757Y447313D01*
X284681Y446929D01*
X284757Y446545D01*
X284975Y446219D01*
X285237Y445957D01*
X285414Y445530D01*
Y445068D01*
X285237Y444641D01*
X284975Y444379D01*
X284757Y444053D01*
X284681Y443669D01*
X284757Y443285D01*
X284975Y442960D01*
X285248Y442687D01*
X285449Y442386D01*
X285774Y442169D01*
X286158Y442092D01*
X286658D01*
X287042Y442169D01*
X287368Y442386D01*
X287555Y442666D01*
X287901Y443013D01*
X288328Y443189D01*
X288790D01*
X289218Y443013D01*
X289551Y442680D01*
X289876Y442462D01*
X290260Y442385D01*
X290644Y442462D01*
X290970Y442680D01*
X291303Y443013D01*
X291730Y443189D01*
X292192D01*
X292619Y443013D01*
X292952Y442680D01*
X293278Y442462D01*
X293662Y442385D01*
X294046Y442462D01*
X294371Y442680D01*
X294704Y443013D01*
X295131Y443189D01*
X295594D01*
X296021Y443013D01*
X296354Y442680D01*
X296679Y442462D01*
X297063Y442385D01*
X297447Y442462D01*
X297773Y442680D01*
X298106Y443013D01*
X298533Y443189D01*
X298995D01*
X299422Y443013D01*
X299755Y442680D01*
X300081Y442462D01*
X300465Y442385D01*
X300849Y442462D01*
X301174Y442680D01*
X301507Y443013D01*
X301934Y443189D01*
X302396D01*
X302823Y443013D01*
X303150Y442686D01*
X303327Y442259D01*
Y441796D01*
X303150Y441369D01*
X302900Y441119D01*
X302900Y441119D01*
X302682Y440794D01*
X302606Y440409D01*
X302682Y440025D01*
X302900Y439700D01*
X303150Y439449D01*
X303327Y439022D01*
Y438560D01*
X303150Y438133D01*
X302823Y437806D01*
X302396Y437630D01*
X301934D01*
X301507Y437806D01*
X301174Y438139D01*
X300849Y438357D01*
X300465Y438433D01*
X300081Y438357D01*
X299755Y438139D01*
X299422Y437806D01*
X298995Y437630D01*
X298533D01*
X298106Y437806D01*
X297773Y438139D01*
X297447Y438357D01*
X297063Y438433D01*
X296679Y438357D01*
X296354Y438139D01*
X296021Y437806D01*
X295594Y437630D01*
X295131D01*
X294704Y437806D01*
X294371Y438139D01*
X294046Y438357D01*
X293662Y438433D01*
X293278Y438357D01*
X292952Y438139D01*
X292619Y437806D01*
X292192Y437630D01*
X291730D01*
X291303Y437806D01*
X290970Y438139D01*
X290644Y438357D01*
X290260Y438433D01*
X289876Y438357D01*
X289551Y438139D01*
X289218Y437806D01*
X288790Y437630D01*
X288328D01*
X287901Y437806D01*
X287555Y438153D01*
X287368Y438433D01*
X287368Y438433D01*
X287042Y438650D01*
X286658Y438727D01*
X286158D01*
X285774Y438650D01*
X285449Y438433D01*
X285248Y438132D01*
X284910Y437795D01*
X284483Y437618D01*
X284021D01*
X283594Y437795D01*
X283252Y438137D01*
X283252Y438137D01*
X282926Y438354D01*
X282542Y438431D01*
X282158Y438354D01*
X281833Y438137D01*
X281490Y437795D01*
X281063Y437618D01*
X280601D01*
X280174Y437795D01*
X279832Y438137D01*
X279832Y438137D01*
X279506Y438354D01*
X279122Y438431D01*
X278738Y438354D01*
X278413Y438137D01*
X278070Y437795D01*
X277643Y437618D01*
X277181D01*
X276754Y437795D01*
X276412Y438137D01*
X276412Y438137D01*
X276086Y438354D01*
X275702Y438431D01*
X275318Y438354D01*
X274993Y438137D01*
X274651Y437795D01*
X274224Y437618D01*
X273761D01*
X273334Y437795D01*
X272992Y438137D01*
X272992Y438137D01*
X272667Y438354D01*
X272283Y438431D01*
X271899Y438354D01*
X271573Y438137D01*
X271231Y437795D01*
X270804Y437618D01*
X270342D01*
X269915Y437795D01*
X269572Y438137D01*
X269572Y438137D01*
X269247Y438354D01*
X268863Y438431D01*
X268479Y438354D01*
X268153Y438137D01*
X267811Y437795D01*
X267384Y437618D01*
X266922D01*
X266495Y437795D01*
X266168Y438121D01*
X265991Y438548D01*
Y439011D01*
X266168Y439438D01*
X266430Y439700D01*
X266648Y440025D01*
X266724Y440409D01*
X266648Y440794D01*
X266430Y441119D01*
X266168Y441381D01*
X265991Y441808D01*
Y442270D01*
X266168Y442697D01*
X266430Y442960D01*
X266430Y442960D01*
X266648Y443285D01*
X266724Y443669D01*
X266648Y444053D01*
X266430Y444379D01*
X266168Y444641D01*
X265991Y445068D01*
Y445530D01*
X266168Y445957D01*
X266430Y446219D01*
X266648Y446545D01*
X266724Y446929D01*
X266648Y447313D01*
X266430Y447639D01*
X266168Y447901D01*
X265991Y448328D01*
Y448790D01*
X266168Y449217D01*
X266430Y449479D01*
X266430Y449479D01*
X266648Y449805D01*
X266724Y450189D01*
X266648Y450573D01*
X266430Y450899D01*
X266168Y451161D01*
X265991Y451588D01*
Y452050D01*
X266168Y452477D01*
X266430Y452739D01*
X266648Y453065D01*
X266724Y453449D01*
X266648Y453833D01*
X266430Y454158D01*
X266168Y454421D01*
X265991Y454848D01*
Y455310D01*
X266168Y455737D01*
X266530Y456099D01*
X266569Y456115D01*
X266638Y456185D01*
X266721Y456240D01*
X266776Y456322D01*
X266845Y456392D01*
X266883Y456483D01*
X266938Y456565D01*
X266957Y456662D01*
X266995Y456754D01*
Y456853D01*
X267015Y456950D01*
X267282Y457449D01*
X284123D01*
X284390Y456950D01*
D02*
G37*
G36*
X360501Y347738D02*
X360039Y347547D01*
X358025Y349560D01*
X357504Y349909D01*
X356890Y350031D01*
X356890Y350031D01*
X354528D01*
Y352953D01*
X329528D01*
Y342323D01*
X329142Y342047D01*
X324881D01*
X324814Y342063D01*
X324429Y342323D01*
Y352242D01*
X324430Y352243D01*
X324648Y352569D01*
X324724Y352953D01*
Y354424D01*
X324742Y354787D01*
X324888Y355522D01*
X325165Y356191D01*
X325582Y356814D01*
X325826Y357084D01*
X326110Y357368D01*
X326764Y357961D01*
X328250Y358954D01*
X329878Y359628D01*
X331632Y359977D01*
X331776Y359984D01*
X360501D01*
Y347738D01*
D02*
G37*
G36*
X323425Y332453D02*
Y322740D01*
X323219Y322431D01*
X322868Y322080D01*
X322482Y321823D01*
X322054Y321645D01*
X321600Y321555D01*
X300968D01*
X300590Y321850D01*
Y332953D01*
X323007Y332953D01*
X323425Y332453D01*
D02*
G37*
G36*
X329528D02*
Y322125D01*
X349575D01*
Y318864D01*
X346195Y315484D01*
X294193D01*
X294193Y315484D01*
X293579Y315361D01*
X293057Y315013D01*
X284997Y306952D01*
X284496Y307087D01*
X283615D01*
X282763Y306859D01*
X282000Y306418D01*
X281377Y305795D01*
X280937Y305032D01*
X280709Y304181D01*
Y303300D01*
X280937Y302449D01*
X281377Y301685D01*
X282000Y301062D01*
X282763Y300622D01*
X283615Y300394D01*
X284496D01*
X285347Y300622D01*
X286110Y301062D01*
X286733Y301685D01*
X287174Y302449D01*
X287402Y303300D01*
Y304181D01*
X287267Y304682D01*
X294858Y312272D01*
X305411D01*
X305603Y311810D01*
X300745Y306952D01*
X300244Y307087D01*
X299363D01*
X298512Y306859D01*
X297748Y306418D01*
X297125Y305795D01*
X296685Y305032D01*
X296457Y304181D01*
Y303300D01*
X296685Y302449D01*
X297125Y301685D01*
X297748Y301062D01*
X298512Y300622D01*
X299363Y300394D01*
X300244D01*
X301095Y300622D01*
X301858Y301062D01*
X302481Y301685D01*
X302922Y302449D01*
X303150Y303300D01*
Y304181D01*
X303015Y304682D01*
X308244Y309910D01*
X315549D01*
X315740Y309448D01*
X314613Y308320D01*
X314265Y307800D01*
X314142Y307185D01*
X314142Y307185D01*
Y306791D01*
X313496Y306418D01*
X312873Y305795D01*
X312433Y305032D01*
X312205Y304181D01*
Y303300D01*
X312433Y302449D01*
X312873Y301685D01*
X313496Y301062D01*
X314142Y300689D01*
Y298917D01*
X313496Y298544D01*
X312873Y297921D01*
X312433Y297158D01*
X312205Y296307D01*
Y295426D01*
X312433Y294574D01*
X312873Y293811D01*
X313437Y293247D01*
X313396Y293001D01*
X313260Y292747D01*
X297319D01*
X295141Y294925D01*
X295276Y295426D01*
Y296307D01*
X295047Y297158D01*
X294607Y297921D01*
X293984Y298544D01*
X293221Y298985D01*
X292370Y299213D01*
X291489D01*
X290637Y298985D01*
X289874Y298544D01*
X289251Y297921D01*
X288811Y297158D01*
X288583Y296307D01*
Y296088D01*
X288083Y295881D01*
X287308Y296656D01*
X287174Y297158D01*
X286733Y297921D01*
X286110Y298544D01*
X285347Y298985D01*
X284496Y299213D01*
X283614D01*
X282763Y298985D01*
X282000Y298544D01*
X281377Y297921D01*
X280937Y297158D01*
X280709Y296307D01*
Y295426D01*
X280937Y294574D01*
X281377Y293811D01*
X282000Y293188D01*
X282763Y292748D01*
X283614Y292520D01*
X284496D01*
X285347Y292748D01*
X286110Y293188D01*
X286172Y293250D01*
X291581Y287841D01*
X292102Y287493D01*
X292717Y287371D01*
X292717Y287371D01*
X342705D01*
X342705Y287371D01*
X343319Y287493D01*
X343840Y287841D01*
X366645Y310646D01*
X367107Y310454D01*
Y276594D01*
X337968D01*
X337822Y276772D01*
Y278740D01*
X337715Y279278D01*
X337411Y279734D01*
X336955Y280038D01*
X336417Y280145D01*
X336108D01*
X335475Y280315D01*
X334801D01*
X334239Y280164D01*
X333792D01*
X333230Y280315D01*
X332557D01*
X331995Y280164D01*
X160100D01*
X159665Y280664D01*
X159665Y280822D01*
Y293184D01*
X159707Y294040D01*
X160046Y295744D01*
X160701Y297326D01*
X161166Y298021D01*
X161666Y297869D01*
Y297625D01*
X161995Y296829D01*
X162604Y296220D01*
X163400Y295890D01*
X163726D01*
X172070Y287546D01*
X172070Y287546D01*
X172591Y287198D01*
X173206Y287075D01*
X173206Y287075D01*
X175512D01*
X175742Y286845D01*
X176538Y286516D01*
X177399D01*
X178195Y286845D01*
X178804Y287455D01*
X179134Y288250D01*
Y289112D01*
X178804Y289908D01*
X178195Y290517D01*
X177399Y290846D01*
X176538D01*
X175742Y290517D01*
X175512Y290287D01*
X173871D01*
X165996Y298161D01*
Y298486D01*
X165667Y299282D01*
X165058Y299891D01*
X164262Y300221D01*
X163765D01*
X163558Y300721D01*
X164710Y301873D01*
X164860Y302024D01*
X164872Y302042D01*
X164890Y302055D01*
X165178Y302368D01*
X165189Y302386D01*
X165206Y302400D01*
X165480Y302725D01*
X165490Y302744D01*
X165507Y302759D01*
X165767Y303095D01*
X165777Y303115D01*
X165792Y303130D01*
X165862Y303229D01*
X170509Y307771D01*
X170512Y307776D01*
X170517Y307779D01*
X170917Y308179D01*
X170949Y308226D01*
X170992Y308263D01*
X171697Y309148D01*
X171723Y309199D01*
X171762Y309240D01*
X172362Y310199D01*
X172382Y310252D01*
X172417Y310298D01*
X172905Y311318D01*
X172919Y311373D01*
X172948Y311423D01*
X173058Y311739D01*
X174055Y312736D01*
X174524Y313162D01*
X175598Y313879D01*
X176767Y314363D01*
X178033Y314615D01*
X178667Y314646D01*
X267488D01*
X267585Y314665D01*
X267684D01*
X268787Y314885D01*
X268879Y314923D01*
X268975Y314942D01*
X270015Y315373D01*
X270097Y315428D01*
X270189Y315465D01*
X271124Y316091D01*
X271194Y316160D01*
X271276Y316215D01*
X271657Y316596D01*
X271730Y316662D01*
X271915Y316786D01*
X272098Y316862D01*
X272316Y316905D01*
X272415Y316910D01*
X277395Y316910D01*
X277586Y316448D01*
X274762Y313624D01*
X274327Y312973D01*
X274174Y312205D01*
Y306446D01*
X274126Y306418D01*
X273503Y305795D01*
X273063Y305032D01*
X272835Y304181D01*
Y303300D01*
X273063Y302449D01*
X273503Y301685D01*
X274126Y301062D01*
X274889Y300622D01*
X275741Y300394D01*
X276622D01*
X277473Y300622D01*
X278236Y301062D01*
X278859Y301685D01*
X279299Y302449D01*
X279528Y303300D01*
Y304181D01*
X279299Y305032D01*
X278859Y305795D01*
X278236Y306418D01*
X278188Y306446D01*
Y311373D01*
X281931Y315116D01*
X282366Y315767D01*
X282499Y316436D01*
X282677Y316910D01*
X283237D01*
X283251Y316913D01*
X283266Y316910D01*
X283462Y316916D01*
X283826Y316873D01*
X284152Y316767D01*
X284471Y316587D01*
X284627Y316467D01*
X284630Y316465D01*
X284633Y316462D01*
X284896Y316263D01*
X284969Y316227D01*
X285033Y316174D01*
X285617Y315865D01*
X285696Y315842D01*
X285767Y315801D01*
X286393Y315591D01*
X286474Y315580D01*
X286552Y315551D01*
X287203Y315446D01*
X287285Y315449D01*
X287366Y315433D01*
X287696Y315434D01*
X290429D01*
X290528Y315434D01*
X290625Y315453D01*
X290724Y315453D01*
X290919Y315492D01*
X291010Y315529D01*
X291107Y315549D01*
X291290Y315625D01*
X291373Y315680D01*
X291464Y315717D01*
X291629Y315828D01*
X291699Y315898D01*
X291781Y315952D01*
X291881Y316053D01*
X291899Y316079D01*
X291924Y316098D01*
X291980Y316162D01*
X291997Y316190D01*
X292021Y316211D01*
X292073Y316278D01*
X292087Y316306D01*
X292110Y316329D01*
X292157Y316399D01*
X292170Y316428D01*
X292191Y316452D01*
X292213Y316489D01*
X292228Y316533D01*
X292256Y316570D01*
X292262Y316594D01*
X292276Y316615D01*
X292300Y316736D01*
X292310Y316760D01*
X292310Y316766D01*
X292342Y316858D01*
X292340Y316905D01*
X292351Y316950D01*
X292363Y317188D01*
X292406Y317405D01*
X292520Y317680D01*
Y317797D01*
X292614Y318024D01*
X292864Y318399D01*
X293008Y318557D01*
X294196Y319745D01*
X294392Y319923D01*
X294851Y320229D01*
X295319Y320423D01*
X295401Y320478D01*
X295492Y320516D01*
X295547Y320571D01*
X300871D01*
X300968Y320552D01*
X321600D01*
X321697Y320571D01*
X321796D01*
X322250Y320661D01*
X322341Y320699D01*
X322438Y320718D01*
X322866Y320896D01*
X322949Y320951D01*
X323040Y320988D01*
X323425Y321246D01*
X323495Y321316D01*
X323577Y321371D01*
X323928Y321722D01*
X323983Y321804D01*
X324053Y321874D01*
X324260Y322183D01*
X324297Y322274D01*
X324352Y322356D01*
X324372Y322453D01*
X324410Y322545D01*
Y322643D01*
X324429Y322740D01*
Y332453D01*
X324637Y332810D01*
X324772Y332929D01*
X324812Y332947D01*
X324830Y332953D01*
X329110D01*
X329528Y332453D01*
D02*
G37*
G36*
X362666Y318207D02*
Y314270D01*
X342820Y294424D01*
X342326Y294572D01*
X342302Y294614D01*
X342520Y295426D01*
Y296307D01*
X342292Y297158D01*
X341851Y297921D01*
X341228Y298544D01*
X340465Y298985D01*
X339614Y299213D01*
X338733D01*
X337882Y298985D01*
X337119Y298544D01*
X336495Y297921D01*
X336055Y297158D01*
X335827Y296307D01*
Y295426D01*
X336055Y294574D01*
X336495Y293811D01*
X337059Y293247D01*
X337018Y293001D01*
X336882Y292747D01*
X325716D01*
X325580Y293001D01*
X325539Y293247D01*
X326103Y293811D01*
X326544Y294574D01*
X326772Y295426D01*
Y296307D01*
X326544Y297158D01*
X326103Y297921D01*
X325480Y298544D01*
X324717Y298985D01*
X323866Y299213D01*
X322985D01*
X322133Y298985D01*
X321370Y298544D01*
X320747Y297921D01*
X320307Y297158D01*
X320079Y296307D01*
Y295426D01*
X320307Y294574D01*
X320747Y293811D01*
X321311Y293247D01*
X321270Y293001D01*
X321134Y292747D01*
X317842D01*
X317706Y293001D01*
X317665Y293247D01*
X318229Y293811D01*
X318670Y294574D01*
X318898Y295426D01*
Y296307D01*
X318670Y297158D01*
X318229Y297921D01*
X317606Y298544D01*
X317354Y298690D01*
Y300917D01*
X317606Y301062D01*
X318229Y301685D01*
X318670Y302449D01*
X318898Y303300D01*
Y304181D01*
X318670Y305032D01*
X318229Y305795D01*
X317606Y306418D01*
X317565Y306731D01*
X318185Y307351D01*
X322040D01*
X322133Y306859D01*
X321370Y306418D01*
X320747Y305795D01*
X320307Y305032D01*
X320079Y304181D01*
Y303300D01*
X320307Y302449D01*
X320747Y301685D01*
X321370Y301062D01*
X322133Y300622D01*
X322985Y300394D01*
X323866D01*
X324717Y300622D01*
X325480Y301062D01*
X326103Y301685D01*
X326544Y302449D01*
X326772Y303300D01*
Y304181D01*
X326544Y305032D01*
X326103Y305795D01*
X325480Y306418D01*
X324717Y306859D01*
X324811Y307351D01*
X336947D01*
X337081Y306851D01*
X336877Y306733D01*
X336180Y306037D01*
X335688Y305184D01*
X335433Y304233D01*
Y303248D01*
X335688Y302296D01*
X336180Y301444D01*
X336877Y300747D01*
X337730Y300255D01*
X338681Y300000D01*
X339666D01*
X340617Y300255D01*
X341470Y300747D01*
X342166Y301444D01*
X342658Y302296D01*
X342913Y303248D01*
Y304233D01*
X342658Y305184D01*
X342166Y306037D01*
X341470Y306733D01*
X341265Y306851D01*
X341399Y307351D01*
X350492D01*
X350492Y307351D01*
X351107Y307473D01*
X351627Y307821D01*
X362204Y318398D01*
X362666Y318207D01*
D02*
G37*
%LPC*%
G36*
X356113Y503070D02*
X354911D01*
X354814Y503051D01*
X354715D01*
X353536Y502817D01*
X353445Y502779D01*
X353348Y502760D01*
X352237Y502299D01*
X352155Y502245D01*
X352064Y502207D01*
X351064Y501539D01*
X350994Y501469D01*
X350912Y501414D01*
X350062Y500564D01*
X350007Y500482D01*
X349937Y500412D01*
X349270Y499413D01*
X349232Y499321D01*
X349177Y499239D01*
X348717Y498129D01*
X348697Y498032D01*
X348660Y497940D01*
X348425Y496761D01*
Y496663D01*
X348406Y496566D01*
Y495364D01*
X348425Y495267D01*
Y495168D01*
X348660Y493989D01*
X348697Y493897D01*
X348717Y493800D01*
X349177Y492690D01*
X349232Y492608D01*
X349270Y492517D01*
X349937Y491517D01*
X350007Y491447D01*
X350062Y491365D01*
X350912Y490515D01*
X350994Y490460D01*
X351064Y490390D01*
X352064Y489722D01*
X352155Y489684D01*
X352237Y489630D01*
X353348Y489170D01*
X353445Y489150D01*
X353536Y489113D01*
X354715Y488878D01*
X354814D01*
X354911Y488859D01*
X356113D01*
X356210Y488878D01*
X356309D01*
X357488Y489113D01*
X357579Y489150D01*
X357676Y489170D01*
X358786Y489630D01*
X358869Y489684D01*
X358960Y489722D01*
X359959Y490390D01*
X360029Y490460D01*
X360111Y490515D01*
X360961Y491365D01*
X361016Y491447D01*
X361086Y491517D01*
X361754Y492517D01*
X361792Y492608D01*
X361847Y492690D01*
X362307Y493800D01*
X362326Y493897D01*
X362364Y493989D01*
X362598Y495168D01*
Y495267D01*
X362618Y495364D01*
Y496566D01*
X362598Y496663D01*
Y496761D01*
X362364Y497940D01*
X362326Y498032D01*
X362307Y498129D01*
X361847Y499239D01*
X361792Y499321D01*
X361754Y499413D01*
X361086Y500412D01*
X361016Y500482D01*
X360961Y500564D01*
X360111Y501414D01*
X360029Y501469D01*
X359959Y501539D01*
X358960Y502207D01*
X358869Y502245D01*
X358786Y502299D01*
X357676Y502760D01*
X357579Y502779D01*
X357488Y502817D01*
X356309Y503051D01*
X356210D01*
X356113Y503070D01*
D02*
G37*
G36*
X312340Y469193D02*
X311479D01*
X310683Y468863D01*
X310074Y468254D01*
X309744Y467458D01*
Y466597D01*
X310074Y465801D01*
X310683Y465192D01*
X311479Y464862D01*
X312340D01*
X313136Y465192D01*
X313745Y465801D01*
X314075Y466597D01*
Y467458D01*
X313745Y468254D01*
X313136Y468863D01*
X312340Y469193D01*
D02*
G37*
G36*
X215195Y468799D02*
X214333D01*
X213537Y468469D01*
X212928Y467860D01*
X212598Y467065D01*
Y466203D01*
X212928Y465407D01*
X213537Y464798D01*
X214333Y464468D01*
X215195D01*
X215990Y464798D01*
X216599Y465407D01*
X216929Y466203D01*
Y467065D01*
X216599Y467860D01*
X215990Y468469D01*
X215195Y468799D01*
D02*
G37*
G36*
X188226Y457146D02*
X187365D01*
X186569Y456816D01*
X186085Y456333D01*
X185602Y456816D01*
X184806Y457146D01*
X183945D01*
X183149Y456816D01*
X182666Y456333D01*
X182182Y456816D01*
X181386Y457146D01*
X180525D01*
X179729Y456816D01*
X179246Y456333D01*
X178762Y456816D01*
X177966Y457146D01*
X177105D01*
X176309Y456816D01*
X175826Y456333D01*
X175343Y456816D01*
X174547Y457146D01*
X173685D01*
X172889Y456816D01*
X172406Y456333D01*
X171923Y456816D01*
X171127Y457146D01*
X170265D01*
X169470Y456816D01*
X168860Y456207D01*
X168531Y455411D01*
Y454550D01*
X168860Y453754D01*
X169264Y453350D01*
X168860Y452947D01*
X168531Y452151D01*
Y451290D01*
X168860Y450494D01*
X169264Y450091D01*
X168860Y449687D01*
X168531Y448891D01*
Y448030D01*
X168860Y447234D01*
X169264Y446831D01*
X168860Y446427D01*
X168531Y445632D01*
Y444770D01*
X168860Y443974D01*
X169264Y443571D01*
X168860Y443167D01*
X168531Y442372D01*
Y441510D01*
X168860Y440714D01*
X169264Y440311D01*
X168860Y439908D01*
X168531Y439112D01*
Y438250D01*
X168860Y437455D01*
X169470Y436845D01*
X170265Y436516D01*
X171127D01*
X171923Y436845D01*
X172406Y437329D01*
X172889Y436845D01*
X173685Y436516D01*
X174547D01*
X175343Y436845D01*
X175826Y437329D01*
X176309Y436845D01*
X177105Y436516D01*
X177966D01*
X178762Y436845D01*
X179246Y437329D01*
X179729Y436845D01*
X180525Y436516D01*
X181386D01*
X182182Y436845D01*
X182666Y437329D01*
X183149Y436845D01*
X183945Y436516D01*
X184806D01*
X185602Y436845D01*
X186085Y437329D01*
X186569Y436845D01*
X187365Y436516D01*
X188226D01*
X189022Y436845D01*
X189631Y437455D01*
X189701Y437625D01*
X190201D01*
X190267Y437466D01*
X190876Y436857D01*
X191672Y436528D01*
X192534D01*
X193329Y436857D01*
X193804Y437331D01*
X194278Y436857D01*
X195073Y436528D01*
X195935D01*
X196731Y436857D01*
X197205Y437331D01*
X197679Y436857D01*
X198475Y436528D01*
X199336D01*
X200132Y436857D01*
X200606Y437331D01*
X201081Y436857D01*
X201876Y436528D01*
X202738D01*
X203534Y436857D01*
X204008Y437331D01*
X204482Y436857D01*
X205278Y436528D01*
X206139D01*
X206935Y436857D01*
X207544Y437466D01*
X207874Y438262D01*
Y439124D01*
X207544Y439920D01*
X207054Y440410D01*
X207544Y440899D01*
X207874Y441695D01*
Y442557D01*
X207544Y443353D01*
X206935Y443962D01*
X206139Y444291D01*
X205278D01*
X204482Y443962D01*
X204035Y443515D01*
X203589Y443962D01*
X202793Y444291D01*
X201932D01*
X201136Y443962D01*
X200661Y443488D01*
X200187Y443962D01*
X199391Y444291D01*
X198530D01*
X197734Y443962D01*
X197260Y443488D01*
X196786Y443962D01*
X195990Y444291D01*
X195129D01*
X194333Y443962D01*
X193859Y443488D01*
X193384Y443962D01*
X192588Y444291D01*
X191727D01*
X190931Y443962D01*
X190322Y443353D01*
X190209Y443079D01*
X189668D01*
X189631Y443167D01*
X189228Y443571D01*
X189631Y443974D01*
X189961Y444770D01*
Y445632D01*
X189631Y446427D01*
X189228Y446831D01*
X189631Y447234D01*
X189961Y448030D01*
Y448891D01*
X189631Y449687D01*
X189228Y450091D01*
X189631Y450494D01*
X189961Y451290D01*
Y452151D01*
X189631Y452947D01*
X189228Y453350D01*
X189631Y453754D01*
X189961Y454550D01*
Y455411D01*
X189631Y456207D01*
X189022Y456816D01*
X188226Y457146D01*
D02*
G37*
G36*
X124596Y455020D02*
X123239D01*
X121908Y454755D01*
X120654Y454236D01*
X119525Y453481D01*
X118566Y452522D01*
X117812Y451393D01*
X117292Y450140D01*
X117028Y448808D01*
Y447451D01*
X117292Y446120D01*
X117812Y444866D01*
X118566Y443738D01*
X119525Y442778D01*
X120654Y442024D01*
X121908Y441505D01*
X123239Y441240D01*
X124596D01*
X125927Y441505D01*
X127181Y442024D01*
X128309Y442778D01*
X129269Y443738D01*
X130023Y444866D01*
X130542Y446120D01*
X130807Y447451D01*
Y448808D01*
X130542Y450140D01*
X130023Y451393D01*
X129269Y452522D01*
X128309Y453481D01*
X127181Y454236D01*
X125927Y454755D01*
X124596Y455020D01*
D02*
G37*
G36*
X188920Y398091D02*
X188246D01*
X187595Y397916D01*
X187011Y397579D01*
X186873Y397441D01*
X186734Y397579D01*
X186151Y397916D01*
X185500Y398091D01*
X184826D01*
X184175Y397916D01*
X183592Y397579D01*
X183453Y397441D01*
X183314Y397579D01*
X182731Y397916D01*
X182080Y398091D01*
X181406D01*
X180755Y397916D01*
X180172Y397579D01*
X180033Y397441D01*
X179894Y397579D01*
X179311Y397916D01*
X178660Y398091D01*
X177986D01*
X177336Y397916D01*
X176752Y397579D01*
X176613Y397441D01*
X176475Y397579D01*
X175891Y397916D01*
X175240Y398091D01*
X174566D01*
X173916Y397916D01*
X173332Y397579D01*
X173194Y397441D01*
X173055Y397579D01*
X172471Y397916D01*
X171820Y398091D01*
X171147D01*
X170496Y397916D01*
X169912Y397579D01*
X169436Y397103D01*
X169099Y396519D01*
X168924Y395868D01*
Y395195D01*
X169099Y394544D01*
X169436Y393960D01*
X169494Y393901D01*
X169436Y393843D01*
X169099Y393259D01*
X168924Y392608D01*
Y391935D01*
X169099Y391284D01*
X169436Y390700D01*
X169494Y390642D01*
X169436Y390583D01*
X169099Y390000D01*
X168924Y389349D01*
Y388675D01*
X169099Y388024D01*
X169436Y387440D01*
X169494Y387382D01*
X169436Y387323D01*
X169099Y386740D01*
X168924Y386089D01*
Y385415D01*
X169099Y384764D01*
X169436Y384181D01*
X169494Y384122D01*
X169436Y384063D01*
X169099Y383480D01*
X168924Y382829D01*
Y382155D01*
X169099Y381504D01*
X169436Y380921D01*
X169494Y380862D01*
X169436Y380804D01*
X169099Y380220D01*
X168924Y379569D01*
Y378895D01*
X169099Y378244D01*
X169436Y377661D01*
X169912Y377185D01*
X170496Y376848D01*
X171147Y376673D01*
X171820D01*
X172471Y376848D01*
X173055Y377185D01*
X173194Y377323D01*
X173332Y377185D01*
X173916Y376848D01*
X174566Y376673D01*
X175240D01*
X175891Y376848D01*
X176475Y377185D01*
X176613Y377323D01*
X176752Y377185D01*
X177336Y376848D01*
X177986Y376673D01*
X178660D01*
X179311Y376848D01*
X179894Y377185D01*
X180033Y377323D01*
X180172Y377185D01*
X180755Y376848D01*
X181406Y376673D01*
X182080D01*
X182731Y376848D01*
X183314Y377185D01*
X183453Y377323D01*
X183592Y377185D01*
X184175Y376848D01*
X184826Y376673D01*
X185500D01*
X186151Y376848D01*
X186734Y377185D01*
X186873Y377323D01*
X187011Y377185D01*
X187595Y376848D01*
X188246Y376673D01*
X188920D01*
X189570Y376848D01*
X190154Y377185D01*
X190630Y377661D01*
X190967Y378244D01*
X191142Y378895D01*
Y379569D01*
X190967Y380220D01*
X190630Y380804D01*
X190572Y380862D01*
X190630Y380921D01*
X190967Y381504D01*
X191142Y382155D01*
Y382829D01*
X190967Y383480D01*
X190630Y384063D01*
X190572Y384122D01*
X190630Y384181D01*
X190967Y384764D01*
X191142Y385415D01*
Y386089D01*
X190967Y386740D01*
X190630Y387323D01*
X190572Y387382D01*
X190630Y387440D01*
X190967Y388024D01*
X191142Y388675D01*
Y389349D01*
X190967Y390000D01*
X190630Y390583D01*
X190572Y390642D01*
X190630Y390700D01*
X190967Y391284D01*
X191142Y391935D01*
Y392608D01*
X190967Y393259D01*
X190630Y393843D01*
X190572Y393901D01*
X190630Y393960D01*
X190967Y394544D01*
X191142Y395195D01*
Y395868D01*
X190967Y396519D01*
X190630Y397103D01*
X190154Y397579D01*
X189570Y397916D01*
X188920Y398091D01*
D02*
G37*
G36*
X284687Y397992D02*
X284014D01*
X283363Y397818D01*
X282779Y397481D01*
X282641Y397342D01*
X282502Y397481D01*
X281918Y397818D01*
X281267Y397992D01*
X280594D01*
X279943Y397818D01*
X279359Y397481D01*
X279221Y397342D01*
X279082Y397481D01*
X278499Y397818D01*
X277848Y397992D01*
X277174D01*
X276523Y397818D01*
X275939Y397481D01*
X275801Y397342D01*
X275662Y397481D01*
X275079Y397818D01*
X274428Y397992D01*
X273754D01*
X273103Y397818D01*
X272520Y397481D01*
X272381Y397342D01*
X272242Y397481D01*
X271659Y397818D01*
X271008Y397992D01*
X270334D01*
X269683Y397818D01*
X269100Y397481D01*
X268961Y397342D01*
X268823Y397481D01*
X268239Y397818D01*
X267588Y397992D01*
X266914D01*
X266264Y397818D01*
X265680Y397481D01*
X265203Y397004D01*
X264867Y396421D01*
X264692Y395770D01*
Y395096D01*
X264867Y394445D01*
X265203Y393862D01*
X265262Y393803D01*
X265203Y393744D01*
X264867Y393161D01*
X264692Y392510D01*
Y391836D01*
X264867Y391185D01*
X265203Y390602D01*
X265262Y390543D01*
X265203Y390485D01*
X264867Y389901D01*
X264692Y389250D01*
Y388576D01*
X264867Y387926D01*
X265203Y387342D01*
X265262Y387283D01*
X265203Y387225D01*
X264867Y386641D01*
X264692Y385990D01*
Y385317D01*
X264867Y384666D01*
X265203Y384082D01*
X265262Y384024D01*
X265203Y383965D01*
X264867Y383381D01*
X264692Y382731D01*
Y382057D01*
X264867Y381406D01*
X265203Y380822D01*
X265262Y380764D01*
X265203Y380705D01*
X264867Y380122D01*
X264692Y379471D01*
Y378797D01*
X264867Y378146D01*
X265203Y377563D01*
X265680Y377086D01*
X266264Y376749D01*
X266914Y376575D01*
X267588D01*
X268239Y376749D01*
X268823Y377086D01*
X268961Y377225D01*
X269100Y377086D01*
X269683Y376749D01*
X270334Y376575D01*
X271008D01*
X271659Y376749D01*
X272242Y377086D01*
X272381Y377225D01*
X272520Y377086D01*
X273103Y376749D01*
X273754Y376575D01*
X274428D01*
X275079Y376749D01*
X275662Y377086D01*
X275801Y377225D01*
X275939Y377086D01*
X276523Y376749D01*
X277174Y376575D01*
X277848D01*
X278499Y376749D01*
X279082Y377086D01*
X279221Y377225D01*
X279359Y377086D01*
X279943Y376749D01*
X280594Y376575D01*
X281267D01*
X281918Y376749D01*
X282502Y377086D01*
X282641Y377225D01*
X282779Y377086D01*
X283363Y376749D01*
X284014Y376575D01*
X284687D01*
X285338Y376749D01*
X285922Y377086D01*
X286398Y377563D01*
X286735Y378146D01*
X286910Y378797D01*
Y379471D01*
X286735Y380122D01*
X286398Y380705D01*
X286339Y380764D01*
X286398Y380822D01*
X286735Y381406D01*
X286910Y382057D01*
Y382731D01*
X286735Y383381D01*
X286398Y383965D01*
X286339Y384024D01*
X286398Y384082D01*
X286735Y384666D01*
X286910Y385317D01*
Y385990D01*
X286735Y386641D01*
X286398Y387225D01*
X286339Y387283D01*
X286398Y387342D01*
X286735Y387926D01*
X286910Y388576D01*
Y389250D01*
X286735Y389901D01*
X286398Y390485D01*
X286339Y390543D01*
X286398Y390602D01*
X286735Y391185D01*
X286910Y391836D01*
Y392510D01*
X286735Y393161D01*
X286398Y393744D01*
X286339Y393803D01*
X286398Y393862D01*
X286735Y394445D01*
X286910Y395096D01*
Y395770D01*
X286735Y396421D01*
X286398Y397004D01*
X285922Y397481D01*
X285338Y397818D01*
X284687Y397992D01*
D02*
G37*
G36*
X160045Y404606D02*
X158853D01*
X157701Y404298D01*
X156669Y403702D01*
X155826Y402859D01*
X155230Y401826D01*
X154921Y400675D01*
Y399483D01*
X155230Y398331D01*
X155826Y397299D01*
X156669Y396456D01*
X157701Y395860D01*
X158853Y395551D01*
X160045D01*
X161196Y395860D01*
X162229Y396456D01*
X163072Y397299D01*
X163668Y398331D01*
X163976Y399483D01*
Y400675D01*
X163668Y401826D01*
X163072Y402859D01*
X162229Y403702D01*
X161196Y404298D01*
X160045Y404606D01*
D02*
G37*
G36*
Y394606D02*
X158853D01*
X157701Y394298D01*
X156669Y393702D01*
X155826Y392859D01*
X155230Y391826D01*
X154921Y390675D01*
Y389483D01*
X155230Y388331D01*
X155826Y387299D01*
X156669Y386456D01*
X157701Y385860D01*
X158853Y385551D01*
X160045D01*
X161196Y385860D01*
X162229Y386456D01*
X163072Y387299D01*
X163668Y388331D01*
X163976Y389483D01*
Y390675D01*
X163668Y391826D01*
X163072Y392859D01*
X162229Y393702D01*
X161196Y394298D01*
X160045Y394606D01*
D02*
G37*
G36*
X127202Y375000D02*
X126341D01*
X125545Y374670D01*
X125443Y374568D01*
X125341Y374670D01*
X124545Y375000D01*
X123684D01*
X122888Y374670D01*
X122278Y374061D01*
X121949Y373265D01*
Y372404D01*
X122278Y371608D01*
X122888Y370999D01*
X123684Y370669D01*
X124545D01*
X125341Y370999D01*
X125443Y371101D01*
X125545Y370999D01*
X126341Y370669D01*
X127202D01*
X127998Y370999D01*
X128607Y371608D01*
X128937Y372404D01*
Y373265D01*
X128607Y374061D01*
X127998Y374670D01*
X127202Y375000D01*
D02*
G37*
G36*
X132714Y375394D02*
X131853D01*
X131057Y375064D01*
X130448Y374455D01*
X130118Y373659D01*
Y372798D01*
X130448Y372002D01*
X131057Y371393D01*
X131507Y371206D01*
Y370665D01*
X130958Y370438D01*
X130349Y369829D01*
X130020Y369033D01*
Y368172D01*
X130349Y367376D01*
X130599Y367126D01*
X130251Y366778D01*
X129921Y365982D01*
Y365121D01*
X130251Y364325D01*
X130860Y363716D01*
X131656Y363386D01*
X132517D01*
X133313Y363716D01*
X133711Y364113D01*
X134108Y363716D01*
X134904Y363386D01*
X135765D01*
X136561Y363716D01*
X136959Y364113D01*
X137356Y363716D01*
X138152Y363386D01*
X139013D01*
X139809Y363716D01*
X140418Y364325D01*
X140748Y365121D01*
Y365982D01*
X140418Y366778D01*
X140218Y366978D01*
X140517Y367277D01*
X140847Y368073D01*
Y368935D01*
X140517Y369730D01*
X139908Y370340D01*
X139514Y370503D01*
X139556Y371026D01*
X140203Y371294D01*
X140812Y371903D01*
X141142Y372699D01*
Y373561D01*
X140812Y374357D01*
X140203Y374966D01*
X139407Y375295D01*
X138546D01*
X137750Y374966D01*
X137303Y374519D01*
X136856Y374966D01*
X136061Y375295D01*
X135199D01*
X134403Y374966D01*
X134006Y374568D01*
X133510Y375064D01*
X132714Y375394D01*
D02*
G37*
G36*
X136229Y359587D02*
X134716D01*
X133233Y359292D01*
X131836Y358713D01*
X130579Y357873D01*
X129509Y356803D01*
X128669Y355546D01*
X128090Y354149D01*
X127795Y352666D01*
Y351153D01*
X128090Y349670D01*
X128669Y348273D01*
X129509Y347016D01*
X130579Y345946D01*
X131836Y345106D01*
X133233Y344527D01*
X134716Y344232D01*
X136229D01*
X137712Y344527D01*
X139109Y345106D01*
X140366Y345946D01*
X141436Y347016D01*
X142276Y348273D01*
X142855Y349670D01*
X143150Y351153D01*
Y352666D01*
X142855Y354149D01*
X142276Y355546D01*
X141436Y356803D01*
X140366Y357873D01*
X139109Y358713D01*
X137712Y359292D01*
X136229Y359587D01*
D02*
G37*
G36*
X113118D02*
X111606D01*
X110123Y359292D01*
X108726Y358713D01*
X107468Y357873D01*
X106399Y356803D01*
X105559Y355546D01*
X104980Y354149D01*
X104685Y352666D01*
Y351153D01*
X104980Y349670D01*
X105559Y348273D01*
X106399Y347016D01*
X107468Y345946D01*
X108726Y345106D01*
X110123Y344527D01*
X111606Y344232D01*
X113118D01*
X114602Y344527D01*
X115999Y345106D01*
X117256Y345946D01*
X118325Y347016D01*
X119166Y348273D01*
X119744Y349670D01*
X120039Y351153D01*
Y352666D01*
X119744Y354149D01*
X119166Y355546D01*
X118325Y356803D01*
X117256Y357873D01*
X115999Y358713D01*
X114602Y359292D01*
X113118Y359587D01*
D02*
G37*
G36*
X253346Y353346D02*
X230906D01*
Y342068D01*
X222409Y342049D01*
X220866Y342049D01*
X220859Y342048D01*
X220852Y342049D01*
X220389Y342043D01*
X220262Y342016D01*
X220132Y342006D01*
X219240Y341756D01*
X219124Y341697D01*
X219002Y341654D01*
X218204Y341183D01*
X218107Y341096D01*
X217999Y341023D01*
X217349Y340364D01*
X217277Y340255D01*
X217192Y340157D01*
X216733Y339353D01*
X216691Y339229D01*
X216634Y339113D01*
X216396Y338217D01*
X216388Y338088D01*
X216363Y337960D01*
X216363Y337034D01*
X216388Y336906D01*
X216396Y336776D01*
X216634Y335881D01*
X216691Y335764D01*
X216733Y335641D01*
X217192Y334837D01*
X217277Y334739D01*
X217349Y334630D01*
X217999Y333970D01*
X218107Y333897D01*
X218204Y333811D01*
X219002Y333340D01*
X219124Y333297D01*
X219240Y333238D01*
X220132Y332988D01*
X220262Y332978D01*
X220389Y332951D01*
X220852Y332945D01*
X220859Y332946D01*
X220866Y332944D01*
X230905D01*
Y321850D01*
X253346D01*
Y332944D01*
X263648D01*
X264116Y332937D01*
X264245Y332961D01*
X264377Y332968D01*
X265299Y333201D01*
X265419Y333258D01*
X265544Y333299D01*
X266374Y333764D01*
X266474Y333849D01*
X266584Y333921D01*
X267265Y334586D01*
X267339Y334695D01*
X267427Y334793D01*
X267911Y335612D01*
X267955Y335737D01*
X268014Y335855D01*
X268269Y336771D01*
X268279Y336903D01*
X268305Y337032D01*
X268313Y337983D01*
X268288Y338113D01*
X268280Y338245D01*
X268040Y339165D01*
X267982Y339284D01*
X267940Y339409D01*
X267469Y340235D01*
X267383Y340335D01*
X267310Y340444D01*
X266640Y341120D01*
X266530Y341193D01*
X266431Y341281D01*
X265609Y341758D01*
X265484Y341801D01*
X265366Y341860D01*
X264447Y342107D01*
X264316Y342116D01*
X264186Y342142D01*
X263711D01*
X263710Y342142D01*
X263709Y342141D01*
X263708Y342142D01*
X253700Y342119D01*
X253346Y342472D01*
Y353346D01*
D02*
G37*
G36*
X206102D02*
X183661D01*
Y342299D01*
X183661Y341929D01*
X183216Y341798D01*
X163679Y341754D01*
X163666Y341752D01*
X163653Y341754D01*
X160945Y341678D01*
X160503Y341685D01*
X160373Y341661D01*
X160241Y341654D01*
X159341Y341427D01*
X159221Y341370D01*
X159096Y341329D01*
X158286Y340875D01*
X158185Y340789D01*
X158075Y340717D01*
X157410Y340068D01*
X157336Y339959D01*
X157248Y339861D01*
X156775Y339061D01*
X156731Y338937D01*
X156672Y338819D01*
X156423Y337924D01*
X156414Y337792D01*
X156387Y337663D01*
X156380Y336734D01*
X156405Y336604D01*
X156412Y336473D01*
X156647Y335574D01*
X156705Y335455D01*
X156746Y335330D01*
X157207Y334523D01*
X157293Y334423D01*
X157366Y334314D01*
X158021Y333654D01*
X158130Y333580D01*
X158229Y333493D01*
X159032Y333027D01*
X159157Y332984D01*
X159275Y332925D01*
X160172Y332684D01*
X160304Y332675D01*
X160433Y332649D01*
X160898Y332649D01*
X183661D01*
Y321850D01*
X206102D01*
Y332164D01*
X206116Y332323D01*
X206597Y332661D01*
X206901Y332657D01*
X207030Y332680D01*
X207162Y332687D01*
X208083Y332920D01*
X208202Y332977D01*
X208327Y333017D01*
X209156Y333482D01*
X209256Y333568D01*
X209367Y333640D01*
X210046Y334303D01*
X210121Y334412D01*
X210209Y334511D01*
X210692Y335328D01*
X210736Y335453D01*
X210795Y335571D01*
X211049Y336486D01*
X211059Y336617D01*
X211086Y336747D01*
X211093Y337696D01*
X211068Y337826D01*
X211060Y337958D01*
X210820Y338877D01*
X210763Y338995D01*
X210721Y339120D01*
X210250Y339946D01*
X210164Y340045D01*
X210091Y340155D01*
X209422Y340829D01*
X209313Y340903D01*
X209214Y340990D01*
X208392Y341467D01*
X208267Y341510D01*
X208149Y341568D01*
X207232Y341815D01*
X207100Y341824D01*
X206971Y341850D01*
X206570D01*
X206482Y341865D01*
X206102Y342349D01*
Y353346D01*
D02*
G37*
G36*
X124596Y347244D02*
X123239D01*
X121908Y346979D01*
X120654Y346460D01*
X119525Y345706D01*
X118566Y344746D01*
X117812Y343618D01*
X117292Y342364D01*
X117028Y341033D01*
Y339676D01*
X117292Y338345D01*
X117812Y337091D01*
X118566Y335962D01*
X119525Y335003D01*
X120654Y334249D01*
X121908Y333729D01*
X123239Y333465D01*
X124596D01*
X125927Y333729D01*
X127181Y334249D01*
X128309Y335003D01*
X129269Y335962D01*
X130023Y337091D01*
X130542Y338345D01*
X130807Y339676D01*
Y341033D01*
X130542Y342364D01*
X130023Y343618D01*
X129269Y344746D01*
X128309Y345706D01*
X127181Y346460D01*
X125927Y346979D01*
X124596Y347244D01*
D02*
G37*
G36*
X136229Y336476D02*
X134716D01*
X133233Y336181D01*
X131836Y335603D01*
X130579Y334763D01*
X129509Y333693D01*
X128669Y332436D01*
X128090Y331039D01*
X127795Y329555D01*
Y328043D01*
X128090Y326560D01*
X128669Y325163D01*
X129509Y323905D01*
X130579Y322836D01*
X131836Y321996D01*
X133233Y321417D01*
X134716Y321122D01*
X136229D01*
X137712Y321417D01*
X139109Y321996D01*
X140366Y322836D01*
X141436Y323905D01*
X142276Y325163D01*
X142855Y326560D01*
X143150Y328043D01*
Y329555D01*
X142855Y331039D01*
X142276Y332436D01*
X141436Y333693D01*
X140366Y334763D01*
X139109Y335603D01*
X137712Y336181D01*
X136229Y336476D01*
D02*
G37*
G36*
X113118D02*
X111606D01*
X110123Y336181D01*
X108726Y335603D01*
X107468Y334763D01*
X106399Y333693D01*
X105559Y332436D01*
X104980Y331039D01*
X104685Y329555D01*
Y328043D01*
X104980Y326560D01*
X105559Y325163D01*
X106399Y323905D01*
X107468Y322836D01*
X108726Y321996D01*
X110123Y321417D01*
X111606Y321122D01*
X113118D01*
X114602Y321417D01*
X115999Y321996D01*
X117256Y322836D01*
X118325Y323905D01*
X119166Y325163D01*
X119744Y326560D01*
X120039Y328043D01*
Y329555D01*
X119744Y331039D01*
X119166Y332436D01*
X118325Y333693D01*
X117256Y334763D01*
X115999Y335603D01*
X114602Y336181D01*
X113118Y336476D01*
D02*
G37*
G36*
X266085Y321555D02*
X265411D01*
X264760Y321381D01*
X264177Y321044D01*
X263700Y320567D01*
X263363Y319984D01*
X263189Y319333D01*
Y318659D01*
X263363Y318008D01*
X263700Y317425D01*
X264177Y316948D01*
X264760Y316611D01*
X265411Y316437D01*
X266085D01*
X266736Y316611D01*
X267319Y316948D01*
X267796Y317425D01*
X268133Y318008D01*
X268307Y318659D01*
Y319333D01*
X268133Y319984D01*
X267796Y320567D01*
X267319Y321044D01*
X266736Y321381D01*
X266085Y321555D01*
D02*
G37*
G36*
X156927Y304823D02*
X156065D01*
X155270Y304493D01*
X154660Y303884D01*
X154331Y303088D01*
Y302227D01*
X154660Y301431D01*
X155270Y300822D01*
X156065Y300492D01*
X156927D01*
X157723Y300822D01*
X158332Y301431D01*
X158661Y302227D01*
Y303088D01*
X158332Y303884D01*
X157723Y304493D01*
X156927Y304823D01*
D02*
G37*
G36*
X124202Y305512D02*
X122845D01*
X121514Y305247D01*
X120260Y304728D01*
X119132Y303974D01*
X118172Y303014D01*
X117418Y301886D01*
X116899Y300632D01*
X116634Y299301D01*
Y297943D01*
X116899Y296612D01*
X117418Y295359D01*
X118172Y294230D01*
X119132Y293270D01*
X120260Y292516D01*
X121514Y291997D01*
X122845Y291732D01*
X124202D01*
X125533Y291997D01*
X126787Y292516D01*
X127916Y293270D01*
X128875Y294230D01*
X129629Y295359D01*
X130149Y296612D01*
X130413Y297943D01*
Y299301D01*
X130149Y300632D01*
X129629Y301886D01*
X128875Y303014D01*
X127916Y303974D01*
X126787Y304728D01*
X125533Y305247D01*
X124202Y305512D01*
D02*
G37*
%LPD*%
G36*
X188453Y455965D02*
X188780Y455638D01*
X188957Y455211D01*
Y454749D01*
X188780Y454322D01*
X188518Y454060D01*
Y454060D01*
X188518D01*
X188410Y453898D01*
X188301Y453734D01*
Y453734D01*
X188301Y453734D01*
X188275Y453606D01*
X188224Y453350D01*
X188285Y453043D01*
X188301Y452966D01*
X188518Y452641D01*
X188780Y452379D01*
X188957Y451952D01*
Y451489D01*
X188780Y451062D01*
X188518Y450800D01*
X188518Y450800D01*
X188388Y450605D01*
X188301Y450475D01*
X188224Y450091D01*
D01*
Y450091D01*
X188301Y449707D01*
X188518Y449381D01*
X188780Y449119D01*
X188957Y448692D01*
Y448230D01*
X188780Y447802D01*
X188518Y447540D01*
Y447540D01*
X188518D01*
X188410Y447379D01*
X188301Y447215D01*
Y447215D01*
X188301Y447215D01*
X188275Y447086D01*
X188224Y446831D01*
X188285Y446523D01*
X188301Y446447D01*
X188518Y446121D01*
X188780Y445859D01*
X188957Y445432D01*
Y444970D01*
X188780Y444543D01*
X188518Y444280D01*
X188518Y444280D01*
X188388Y444085D01*
X188301Y443955D01*
X188224Y443571D01*
D01*
Y443571D01*
X188301Y443187D01*
X188518Y442861D01*
X188854Y442526D01*
X188958Y442370D01*
X188958Y442370D01*
Y442370D01*
X189022Y442327D01*
X189284Y442152D01*
X189284Y442152D01*
X189284Y442152D01*
X189498Y442109D01*
X189668Y442076D01*
X189668D01*
X189668D01*
X190209D01*
D01*
X190209D01*
X190304Y442095D01*
X190593Y442152D01*
X190593Y442152D01*
X190593D01*
X190757Y442262D01*
X190918Y442370D01*
Y442370D01*
X190918D01*
X191136Y442695D01*
X191173Y442784D01*
X191500Y443111D01*
X191927Y443288D01*
X192389D01*
X192816Y443111D01*
X193149Y442778D01*
X193474Y442560D01*
X193859Y442484D01*
X194243Y442560D01*
X194568Y442778D01*
X194901Y443111D01*
X195328Y443288D01*
X195790D01*
X196217Y443111D01*
X196550Y442778D01*
X196876Y442560D01*
X197260Y442484D01*
X197644Y442560D01*
X197970Y442778D01*
X198303Y443111D01*
X198730Y443288D01*
X199192D01*
X199619Y443111D01*
X199952Y442778D01*
X200277Y442560D01*
X200661Y442484D01*
X201045Y442560D01*
X201371Y442778D01*
X201704Y443111D01*
X202131Y443288D01*
X202593D01*
X203020Y443111D01*
X203326Y442805D01*
X203651Y442588D01*
X204035Y442512D01*
X204419Y442588D01*
X204745Y442805D01*
X205050Y443111D01*
X205478Y443288D01*
X205940D01*
X206367Y443111D01*
X206694Y442784D01*
X206871Y442357D01*
Y441895D01*
X206694Y441468D01*
X206345Y441119D01*
X206127Y440794D01*
X206051Y440410D01*
X206127Y440025D01*
X206345Y439700D01*
X206694Y439351D01*
X206871Y438924D01*
Y438462D01*
X206694Y438035D01*
X206367Y437708D01*
X205940Y437531D01*
X205478D01*
X205050Y437708D01*
X204717Y438041D01*
X204392Y438259D01*
X204008Y438335D01*
X203624Y438259D01*
X203298Y438041D01*
X202965Y437708D01*
X202538Y437531D01*
X202076D01*
X201649Y437708D01*
X201316Y438041D01*
X200991Y438259D01*
X200606Y438335D01*
X200222Y438259D01*
X199897Y438041D01*
X199564Y437708D01*
X199137Y437531D01*
X198675D01*
X198248Y437708D01*
X197915Y438041D01*
X197589Y438259D01*
X197205Y438335D01*
X196821Y438259D01*
X196495Y438041D01*
X196162Y437708D01*
X195735Y437531D01*
X195273D01*
X194846Y437708D01*
X194513Y438041D01*
X194187Y438259D01*
X193804Y438335D01*
X193420Y438259D01*
X193094Y438041D01*
X192761Y437708D01*
X192334Y437531D01*
X191872D01*
X191445Y437708D01*
X191098Y438055D01*
X190998Y438205D01*
X190911Y438334D01*
X190911Y438334D01*
X190911Y438334D01*
X190695Y438479D01*
X190585Y438552D01*
X190585D01*
X190585Y438552D01*
X190393Y438590D01*
X190201Y438628D01*
X189701D01*
X189317Y438552D01*
X189100Y438407D01*
X188992Y438334D01*
Y438334D01*
X188992D01*
X188949Y438270D01*
X188791Y438034D01*
X188453Y437696D01*
X188026Y437519D01*
X187564D01*
X187137Y437696D01*
X186795Y438038D01*
X186795Y438038D01*
X186469Y438256D01*
X186085Y438332D01*
X185701Y438256D01*
X185571Y438169D01*
X185376Y438038D01*
X185034Y437696D01*
X184607Y437519D01*
X184144D01*
X183717Y437696D01*
X183375Y438038D01*
X183375Y438038D01*
X183050Y438256D01*
X182666Y438332D01*
X182281Y438256D01*
X182151Y438169D01*
X181956Y438038D01*
X181614Y437696D01*
X181187Y437519D01*
X180725D01*
X180298Y437696D01*
X179955Y438038D01*
X179955Y438038D01*
X179630Y438256D01*
X179246Y438332D01*
X178862Y438256D01*
X178731Y438169D01*
X178536Y438038D01*
X178194Y437696D01*
X177767Y437519D01*
X177305D01*
X176878Y437696D01*
X176536Y438038D01*
X176535Y438038D01*
X176210Y438256D01*
X175826Y438332D01*
X175442Y438256D01*
X175312Y438169D01*
X175116Y438038D01*
X174774Y437696D01*
X174347Y437519D01*
X173885D01*
X173458Y437696D01*
X173116Y438038D01*
X173116Y438038D01*
X172790Y438256D01*
X172406Y438332D01*
X172022Y438256D01*
X171892Y438169D01*
X171696Y438038D01*
X171354Y437696D01*
X170927Y437519D01*
X170465D01*
X170038Y437696D01*
X169711Y438023D01*
X169534Y438450D01*
Y438912D01*
X169711Y439339D01*
X169973Y439601D01*
X169974Y439601D01*
X170104Y439797D01*
X170191Y439927D01*
X170267Y440311D01*
D01*
Y440311D01*
X170191Y440695D01*
X169973Y441021D01*
X169711Y441283D01*
X169534Y441710D01*
Y442172D01*
X169711Y442599D01*
X169973Y442861D01*
Y442861D01*
X169973D01*
X170081Y443023D01*
X170191Y443187D01*
Y443187D01*
X170191Y443187D01*
X170217Y443315D01*
X170267Y443571D01*
X170206Y443879D01*
X170191Y443955D01*
X169973Y444280D01*
X169711Y444543D01*
X169534Y444970D01*
Y445432D01*
X169711Y445859D01*
X169973Y446121D01*
X169974Y446121D01*
X170104Y446316D01*
X170191Y446447D01*
X170267Y446831D01*
D01*
Y446831D01*
X170191Y447215D01*
X169973Y447540D01*
X169711Y447802D01*
X169534Y448230D01*
Y448692D01*
X169711Y449119D01*
X169973Y449381D01*
Y449381D01*
X169973D01*
X170081Y449543D01*
X170191Y449707D01*
Y449707D01*
X170191Y449707D01*
X170217Y449835D01*
X170267Y450091D01*
X170206Y450398D01*
X170191Y450475D01*
X169973Y450800D01*
X169711Y451062D01*
X169534Y451489D01*
Y451952D01*
X169711Y452379D01*
X169973Y452641D01*
X169974Y452641D01*
X170104Y452836D01*
X170191Y452966D01*
X170267Y453350D01*
D01*
Y453350D01*
X170191Y453734D01*
X169973Y454060D01*
X169711Y454322D01*
X169534Y454749D01*
Y455211D01*
X169711Y455638D01*
X170038Y455965D01*
X170465Y456142D01*
X170927D01*
X171354Y455965D01*
X171696Y455623D01*
X171696Y455623D01*
X172022Y455406D01*
X172406Y455329D01*
X172790Y455406D01*
X172921Y455493D01*
X173116Y455623D01*
X173458Y455965D01*
X173885Y456142D01*
X174347D01*
X174774Y455965D01*
X175116Y455623D01*
X175116Y455623D01*
X175442Y455406D01*
X175826Y455329D01*
X176210Y455406D01*
X176340Y455493D01*
X176535Y455623D01*
X176878Y455965D01*
X177305Y456142D01*
X177767D01*
X178194Y455965D01*
X178536Y455623D01*
X178536Y455623D01*
X178862Y455406D01*
X179246Y455329D01*
X179630Y455406D01*
X179760Y455493D01*
X179955Y455623D01*
X180298Y455965D01*
X180725Y456142D01*
X181187D01*
X181614Y455965D01*
X181956Y455623D01*
X181956Y455623D01*
X182281Y455406D01*
X182666Y455329D01*
X183050Y455406D01*
X183180Y455493D01*
X183375Y455623D01*
X183717Y455965D01*
X184144Y456142D01*
X184607D01*
X185034Y455965D01*
X185376Y455623D01*
X185376Y455623D01*
X185701Y455406D01*
X186085Y455329D01*
X186469Y455406D01*
X186600Y455493D01*
X186795Y455623D01*
X187137Y455965D01*
X187564Y456142D01*
X188026D01*
X188453Y455965D01*
D02*
G37*
G36*
X189028Y396607D02*
X189291Y396455D01*
X189506Y396240D01*
X189658Y395977D01*
X189737Y395683D01*
Y395379D01*
X189658Y395086D01*
X189414Y394663D01*
X189404Y394634D01*
X189393Y394618D01*
X189274Y394439D01*
X189274Y394439D01*
X189274Y394439D01*
X189216Y394148D01*
X189167Y393902D01*
X189167Y393902D01*
X189167Y393901D01*
X189216Y393655D01*
X189274Y393364D01*
X189274Y393364D01*
X189274Y393364D01*
X189404Y393169D01*
X189414Y393140D01*
X189658Y392717D01*
X189737Y392424D01*
Y392120D01*
X189658Y391826D01*
X189414Y391403D01*
X189404Y391374D01*
X189393Y391358D01*
X189274Y391179D01*
X189274Y391179D01*
X189274Y391179D01*
X189216Y390888D01*
X189167Y390642D01*
X189167Y390642D01*
X189167Y390642D01*
X189228Y390336D01*
X189274Y390104D01*
X189274Y390104D01*
X189274Y390104D01*
X189404Y389909D01*
X189414Y389881D01*
X189658Y389457D01*
X189737Y389164D01*
Y388860D01*
X189658Y388566D01*
X189414Y388143D01*
X189404Y388114D01*
X189393Y388098D01*
X189274Y387920D01*
X189274Y387920D01*
X189274Y387919D01*
X189216Y387629D01*
X189167Y387382D01*
X189167Y387382D01*
X189167Y387382D01*
X189216Y387135D01*
X189274Y386844D01*
X189274Y386844D01*
X189274Y386844D01*
X189404Y386649D01*
X189414Y386621D01*
X189658Y386197D01*
X189737Y385904D01*
Y385600D01*
X189658Y385307D01*
X189414Y384883D01*
X189404Y384855D01*
X189393Y384838D01*
X189274Y384660D01*
X189274Y384660D01*
X189274Y384660D01*
X189216Y384369D01*
X189167Y384122D01*
X189167Y384122D01*
X189167Y384122D01*
X189228Y383816D01*
X189274Y383584D01*
X189274Y383584D01*
X189274Y383584D01*
X189404Y383389D01*
X189414Y383361D01*
X189658Y382938D01*
X189737Y382644D01*
Y382340D01*
X189658Y382047D01*
X189414Y381623D01*
X189404Y381595D01*
X189393Y381578D01*
X189274Y381400D01*
X189274Y381400D01*
X189274Y381400D01*
X189216Y381109D01*
X189167Y380862D01*
X189167Y380862D01*
X189167Y380862D01*
X189216Y380615D01*
X189274Y380325D01*
X189274Y380325D01*
X189274Y380325D01*
X189404Y380130D01*
X189414Y380101D01*
X189658Y379678D01*
X189737Y379384D01*
Y379080D01*
X189658Y378787D01*
X189506Y378524D01*
X189291Y378309D01*
X189028Y378157D01*
X188735Y378078D01*
X188431D01*
X188137Y378157D01*
X187874Y378309D01*
X187866Y378317D01*
X187410Y378621D01*
X186873Y378728D01*
X186335Y378621D01*
X185879Y378317D01*
X185872Y378309D01*
X185608Y378157D01*
X185315Y378078D01*
X185011D01*
X184717Y378157D01*
X184454Y378309D01*
X184446Y378317D01*
X183991Y378621D01*
X183453Y378728D01*
X182915Y378621D01*
X182459Y378317D01*
X182452Y378309D01*
X182188Y378157D01*
X181895Y378078D01*
X181591D01*
X181298Y378157D01*
X181034Y378309D01*
X181027Y378317D01*
X180571Y378621D01*
X180033Y378728D01*
X179496Y378621D01*
X179040Y378317D01*
X179032Y378309D01*
X178769Y378157D01*
X178475Y378078D01*
X178171D01*
X177878Y378157D01*
X177615Y378309D01*
X177607Y378317D01*
X177151Y378621D01*
X176613Y378728D01*
X176076Y378621D01*
X175620Y378317D01*
X175612Y378309D01*
X175349Y378157D01*
X175055Y378078D01*
X174751D01*
X174458Y378157D01*
X174195Y378309D01*
X174187Y378317D01*
X173731Y378621D01*
X173194Y378728D01*
X172656Y378621D01*
X172200Y378317D01*
X172192Y378309D01*
X171929Y378157D01*
X171635Y378078D01*
X171332D01*
X171038Y378157D01*
X170775Y378309D01*
X170560Y378524D01*
X170408Y378787D01*
X170329Y379080D01*
Y379384D01*
X170408Y379678D01*
X170652Y380101D01*
X170662Y380130D01*
X170673Y380146D01*
X170792Y380325D01*
X170792Y380325D01*
X170792Y380325D01*
X170850Y380615D01*
X170899Y380862D01*
X170899Y380862D01*
X170899Y380862D01*
X170839Y381168D01*
X170792Y381400D01*
X170792Y381400D01*
X170792Y381400D01*
X170662Y381595D01*
X170652Y381623D01*
X170408Y382047D01*
X170329Y382340D01*
Y382644D01*
X170408Y382938D01*
X170652Y383361D01*
X170662Y383389D01*
X170673Y383406D01*
X170792Y383584D01*
X170792Y383584D01*
X170792Y383584D01*
X170850Y383875D01*
X170899Y384122D01*
X170899Y384122D01*
X170899Y384122D01*
X170850Y384369D01*
X170792Y384660D01*
X170792Y384660D01*
X170792Y384660D01*
X170662Y384855D01*
X170652Y384883D01*
X170408Y385307D01*
X170329Y385600D01*
Y385904D01*
X170408Y386197D01*
X170652Y386621D01*
X170662Y386649D01*
X170673Y386666D01*
X170792Y386844D01*
X170792Y386844D01*
X170792Y386844D01*
X170850Y387135D01*
X170899Y387382D01*
X170899Y387382D01*
X170899Y387382D01*
X170839Y387688D01*
X170792Y387919D01*
X170792Y387919D01*
X170792Y387920D01*
X170662Y388114D01*
X170652Y388143D01*
X170408Y388566D01*
X170329Y388860D01*
Y389164D01*
X170408Y389457D01*
X170652Y389881D01*
X170662Y389909D01*
X170673Y389926D01*
X170792Y390104D01*
X170792Y390104D01*
X170792Y390104D01*
X170850Y390395D01*
X170899Y390642D01*
X170899Y390642D01*
X170899Y390642D01*
X170850Y390888D01*
X170792Y391179D01*
X170792Y391179D01*
X170792Y391179D01*
X170662Y391374D01*
X170652Y391403D01*
X170408Y391826D01*
X170329Y392120D01*
Y392424D01*
X170408Y392717D01*
X170652Y393140D01*
X170662Y393169D01*
X170673Y393186D01*
X170792Y393364D01*
X170792Y393364D01*
X170792Y393364D01*
X170850Y393655D01*
X170899Y393901D01*
X170899Y393902D01*
X170899Y393902D01*
X170839Y394207D01*
X170792Y394439D01*
X170792Y394439D01*
X170792Y394439D01*
X170662Y394634D01*
X170652Y394663D01*
X170408Y395086D01*
X170329Y395379D01*
Y395683D01*
X170408Y395977D01*
X170560Y396240D01*
X170775Y396455D01*
X171038Y396607D01*
X171332Y396686D01*
X171635D01*
X171929Y396607D01*
X172192Y396455D01*
X172200Y396447D01*
X172656Y396143D01*
X173194Y396036D01*
X173731Y396143D01*
X174187Y396447D01*
X174195Y396455D01*
X174458Y396607D01*
X174751Y396686D01*
X175055D01*
X175349Y396607D01*
X175612Y396455D01*
X175620Y396447D01*
X176076Y396143D01*
X176613Y396036D01*
X177151Y396143D01*
X177607Y396447D01*
X177615Y396455D01*
X177878Y396607D01*
X178171Y396686D01*
X178475D01*
X178769Y396607D01*
X179032Y396455D01*
X179040Y396447D01*
X179496Y396143D01*
X180033Y396036D01*
X180571Y396143D01*
X181027Y396447D01*
X181034Y396455D01*
X181298Y396607D01*
X181591Y396686D01*
X181895D01*
X182188Y396607D01*
X182452Y396455D01*
X182459Y396447D01*
X182915Y396143D01*
X183453Y396036D01*
X183991Y396143D01*
X184446Y396447D01*
X184454Y396455D01*
X184717Y396607D01*
X185011Y396686D01*
X185315D01*
X185608Y396607D01*
X185872Y396455D01*
X185879Y396447D01*
X186335Y396143D01*
X186873Y396036D01*
X187410Y396143D01*
X187866Y396447D01*
X187874Y396455D01*
X188137Y396607D01*
X188431Y396686D01*
X188735D01*
X189028Y396607D01*
D02*
G37*
G36*
X284796Y396509D02*
X285059Y396357D01*
X285274Y396142D01*
X285426Y395879D01*
X285505Y395585D01*
Y395281D01*
X285426Y394988D01*
X285181Y394564D01*
X285172Y394536D01*
X285161Y394519D01*
X285042Y394341D01*
X285042Y394341D01*
X285041Y394341D01*
X284984Y394050D01*
X284935Y393803D01*
X284935Y393803D01*
X284935Y393803D01*
X284984Y393556D01*
X285041Y393266D01*
X285041Y393266D01*
X285041Y393266D01*
X285172Y393071D01*
X285181Y393042D01*
X285426Y392619D01*
X285505Y392325D01*
Y392021D01*
X285426Y391728D01*
X285181Y391304D01*
X285172Y391276D01*
X285161Y391259D01*
X285041Y391081D01*
X285041Y391081D01*
X285041Y391081D01*
X284984Y390790D01*
X284935Y390543D01*
X284935Y390543D01*
X284935Y390543D01*
X284995Y390237D01*
X285041Y390006D01*
X285042Y390006D01*
X285042Y390005D01*
X285172Y389811D01*
X285181Y389782D01*
X285426Y389359D01*
X285505Y389065D01*
Y388761D01*
X285426Y388468D01*
X285181Y388045D01*
X285172Y388016D01*
X285161Y388000D01*
X285042Y387821D01*
X285042Y387821D01*
X285041Y387821D01*
X284984Y387530D01*
X284935Y387284D01*
X284935Y387283D01*
X284935Y387283D01*
X284984Y387037D01*
X285041Y386746D01*
X285041Y386746D01*
X285041Y386746D01*
X285172Y386551D01*
X285181Y386522D01*
X285426Y386099D01*
X285505Y385806D01*
Y385502D01*
X285426Y385208D01*
X285181Y384785D01*
X285172Y384756D01*
X285161Y384739D01*
X285041Y384561D01*
X285041Y384561D01*
X285041Y384561D01*
X284984Y384270D01*
X284935Y384024D01*
X284935Y384023D01*
X284935Y384023D01*
X284995Y383718D01*
X285041Y383486D01*
X285042Y383486D01*
X285042Y383486D01*
X285172Y383291D01*
X285181Y383262D01*
X285426Y382839D01*
X285505Y382546D01*
Y382242D01*
X285426Y381948D01*
X285181Y381525D01*
X285172Y381496D01*
X285161Y381480D01*
X285042Y381301D01*
X285042Y381301D01*
X285041Y381301D01*
X284984Y381011D01*
X284935Y380764D01*
X284935Y380764D01*
X284935Y380764D01*
X284984Y380517D01*
X285041Y380226D01*
X285041Y380226D01*
X285041Y380226D01*
X285172Y380031D01*
X285181Y380003D01*
X285426Y379579D01*
X285505Y379286D01*
Y378982D01*
X285426Y378688D01*
X285274Y378425D01*
X285059Y378210D01*
X284796Y378058D01*
X284502Y377980D01*
X284198D01*
X283905Y378058D01*
X283642Y378210D01*
X283634Y378218D01*
X283178Y378523D01*
X282641Y378630D01*
X282103Y378523D01*
X281647Y378218D01*
X281639Y378210D01*
X281376Y378058D01*
X281083Y377980D01*
X280779D01*
X280485Y378058D01*
X280222Y378210D01*
X280214Y378218D01*
X279758Y378523D01*
X279221Y378630D01*
X278683Y378523D01*
X278227Y378218D01*
X278219Y378210D01*
X277956Y378058D01*
X277663Y377980D01*
X277359D01*
X277065Y378058D01*
X276802Y378210D01*
X276794Y378218D01*
X276339Y378523D01*
X275801Y378630D01*
X275263Y378523D01*
X274807Y378218D01*
X274800Y378210D01*
X274536Y378058D01*
X274243Y377980D01*
X273939D01*
X273645Y378058D01*
X273382Y378210D01*
X273375Y378218D01*
X272919Y378523D01*
X272381Y378630D01*
X271843Y378523D01*
X271388Y378218D01*
X271380Y378210D01*
X271117Y378058D01*
X270823Y377980D01*
X270519D01*
X270226Y378058D01*
X269963Y378210D01*
X269955Y378218D01*
X269499Y378523D01*
X268961Y378630D01*
X268424Y378523D01*
X267968Y378218D01*
X267960Y378210D01*
X267697Y378058D01*
X267403Y377980D01*
X267099D01*
X266806Y378058D01*
X266543Y378210D01*
X266328Y378425D01*
X266176Y378688D01*
X266097Y378982D01*
Y379286D01*
X266176Y379579D01*
X266420Y380003D01*
X266430Y380031D01*
X266441Y380048D01*
X266560Y380226D01*
X266560Y380226D01*
X266560Y380226D01*
X266618Y380517D01*
X266667Y380764D01*
X266667Y380764D01*
X266667Y380764D01*
X266606Y381069D01*
X266560Y381301D01*
X266560Y381301D01*
X266560Y381301D01*
X266430Y381496D01*
X266420Y381525D01*
X266176Y381948D01*
X266097Y382242D01*
Y382546D01*
X266176Y382839D01*
X266420Y383262D01*
X266430Y383291D01*
X266441Y383308D01*
X266560Y383486D01*
X266560Y383486D01*
X266560Y383486D01*
X266618Y383777D01*
X266667Y384023D01*
X266667Y384023D01*
X266667Y384024D01*
X266618Y384270D01*
X266560Y384561D01*
X266560Y384561D01*
X266560Y384561D01*
X266430Y384756D01*
X266420Y384785D01*
X266176Y385208D01*
X266097Y385502D01*
Y385806D01*
X266176Y386099D01*
X266420Y386522D01*
X266430Y386551D01*
X266441Y386567D01*
X266560Y386746D01*
X266560Y386746D01*
X266560Y386746D01*
X266618Y387037D01*
X266667Y387283D01*
X266667Y387283D01*
X266667Y387284D01*
X266606Y387589D01*
X266560Y387821D01*
X266560Y387821D01*
X266560Y387821D01*
X266430Y388016D01*
X266420Y388045D01*
X266176Y388468D01*
X266097Y388761D01*
Y389065D01*
X266176Y389359D01*
X266420Y389782D01*
X266430Y389811D01*
X266441Y389827D01*
X266560Y390005D01*
X266560Y390005D01*
X266560Y390006D01*
X266618Y390296D01*
X266667Y390543D01*
X266667Y390543D01*
X266667Y390543D01*
X266618Y390790D01*
X266560Y391081D01*
X266560Y391081D01*
X266560Y391081D01*
X266430Y391276D01*
X266420Y391304D01*
X266176Y391728D01*
X266097Y392021D01*
Y392325D01*
X266176Y392619D01*
X266420Y393042D01*
X266430Y393071D01*
X266441Y393087D01*
X266560Y393266D01*
X266560Y393266D01*
X266560Y393266D01*
X266618Y393556D01*
X266667Y393803D01*
X266667Y393803D01*
X266667Y393803D01*
X266606Y394109D01*
X266560Y394341D01*
X266560Y394341D01*
X266560Y394341D01*
X266430Y394536D01*
X266420Y394564D01*
X266176Y394988D01*
X266097Y395281D01*
Y395585D01*
X266176Y395879D01*
X266328Y396142D01*
X266543Y396357D01*
X266806Y396509D01*
X267099Y396587D01*
X267403D01*
X267697Y396509D01*
X267960Y396357D01*
X267968Y396349D01*
X268424Y396044D01*
X268961Y395937D01*
X269499Y396044D01*
X269955Y396349D01*
X269963Y396357D01*
X270226Y396509D01*
X270519Y396587D01*
X270823D01*
X271117Y396509D01*
X271380Y396357D01*
X271388Y396349D01*
X271843Y396044D01*
X272381Y395937D01*
X272919Y396044D01*
X273375Y396349D01*
X273382Y396357D01*
X273645Y396509D01*
X273939Y396587D01*
X274243D01*
X274536Y396509D01*
X274800Y396357D01*
X274807Y396349D01*
X275263Y396044D01*
X275801Y395937D01*
X276339Y396044D01*
X276794Y396349D01*
X276802Y396357D01*
X277065Y396509D01*
X277359Y396587D01*
X277663D01*
X277956Y396509D01*
X278219Y396357D01*
X278227Y396349D01*
X278683Y396044D01*
X279221Y395937D01*
X279758Y396044D01*
X280214Y396349D01*
X280222Y396357D01*
X280485Y396509D01*
X280779Y396587D01*
X281083D01*
X281376Y396509D01*
X281639Y396357D01*
X281647Y396349D01*
X282103Y396044D01*
X282641Y395937D01*
X283178Y396044D01*
X283634Y396349D01*
X283642Y396357D01*
X283905Y396509D01*
X284198Y396587D01*
X284502D01*
X284796Y396509D01*
D02*
G37*
G36*
X127430Y373820D02*
X127757Y373493D01*
X127933Y373066D01*
Y372604D01*
X127757Y372177D01*
X127430Y371850D01*
X127029Y371684D01*
X126533Y371676D01*
X126063Y371871D01*
X125827Y372028D01*
X125443Y372105D01*
X125059Y372028D01*
X124928Y371941D01*
X124823Y371871D01*
X124345Y371673D01*
X123883D01*
X123456Y371850D01*
X123129Y372177D01*
X122952Y372604D01*
Y373066D01*
X123129Y373493D01*
X123456Y373820D01*
X123883Y373996D01*
X124345D01*
X124823Y373798D01*
X125059Y373641D01*
X125443Y373565D01*
X125827Y373641D01*
X125957Y373728D01*
X126063Y373798D01*
X126541Y373996D01*
X127003D01*
X127430Y373820D01*
D02*
G37*
G36*
X132942Y374213D02*
X133296Y373859D01*
X133296Y373859D01*
X133622Y373641D01*
X134006Y373565D01*
X134390Y373641D01*
X134520Y373728D01*
X134715Y373859D01*
X134972Y374115D01*
X135399Y374292D01*
X135861D01*
X136288Y374115D01*
X136593Y373809D01*
X136919Y373592D01*
X137303Y373516D01*
X137687Y373592D01*
X138013Y373809D01*
X138318Y374115D01*
X138745Y374292D01*
X139207D01*
X139634Y374115D01*
X139961Y373788D01*
X140138Y373361D01*
Y372899D01*
X139961Y372472D01*
X139634Y372145D01*
X139172Y371954D01*
X139055Y371875D01*
X132315Y371768D01*
X132216Y371916D01*
X131891Y372133D01*
X131625Y372243D01*
X131299Y372570D01*
X131122Y372997D01*
Y373460D01*
X131299Y373886D01*
X131625Y374213D01*
X132052Y374390D01*
X132515D01*
X132942Y374213D01*
D02*
G37*
G36*
X138750Y369852D02*
X138782Y369827D01*
X138805Y369793D01*
X138935Y369706D01*
X139057Y369609D01*
X139096Y369598D01*
X139130Y369576D01*
X139339Y369489D01*
X139666Y369162D01*
X139843Y368735D01*
Y368273D01*
X139666Y367846D01*
X139508Y367688D01*
X139291Y367362D01*
X139214Y366978D01*
X139291Y366594D01*
X139508Y366269D01*
X139568Y366209D01*
X139744Y365782D01*
Y365320D01*
X139568Y364893D01*
X139241Y364566D01*
X138814Y364389D01*
X138352D01*
X137925Y364566D01*
X137668Y364823D01*
X137668D01*
Y364823D01*
X137603Y364866D01*
X137343Y365040D01*
X136959Y365117D01*
X136575Y365040D01*
X136249Y364823D01*
Y364823D01*
X136249D01*
X135993Y364566D01*
X135566Y364389D01*
X135103D01*
X134677Y364566D01*
X134420Y364823D01*
X134420D01*
Y364823D01*
X134095Y365040D01*
X133787Y365101D01*
X133711Y365117D01*
X133711D01*
D01*
X133327Y365040D01*
X133109Y364895D01*
X133001Y364823D01*
Y364823D01*
X133001D01*
X132745Y364566D01*
X132318Y364389D01*
X131855D01*
X131429Y364566D01*
X131102Y364893D01*
X130925Y365320D01*
Y365782D01*
X131102Y366209D01*
X131309Y366416D01*
X131526Y366742D01*
X131603Y367126D01*
X131526Y367510D01*
X131396Y367705D01*
X131309Y367836D01*
X131200Y367944D01*
X131023Y368371D01*
Y368833D01*
X131200Y369261D01*
X131527Y369587D01*
X131891Y369738D01*
X132216Y369955D01*
X132233Y369980D01*
X138679D01*
X138750Y369852D01*
D02*
G37*
%LPC*%
G36*
X124753Y495413D02*
X123396D01*
X122065Y495149D01*
X120811Y494629D01*
X119683Y493875D01*
X118723Y492916D01*
X117969Y491787D01*
X117450Y490533D01*
X117185Y489202D01*
Y487845D01*
X117450Y486514D01*
X117969Y485260D01*
X118723Y484132D01*
X119683Y483172D01*
X120811Y482418D01*
X122065Y481899D01*
X123396Y481634D01*
X124753D01*
X126084Y481899D01*
X127338Y482418D01*
X128467Y483172D01*
X129427Y484132D01*
X130181Y485260D01*
X130700Y486514D01*
X130965Y487845D01*
Y489202D01*
X130700Y490533D01*
X130181Y491787D01*
X129427Y492916D01*
X128467Y493875D01*
X127338Y494629D01*
X126084Y495149D01*
X124753Y495413D01*
D02*
G37*
G36*
X260874Y307087D02*
X259993D01*
X259141Y306859D01*
X258378Y306418D01*
X257755Y305795D01*
X257315Y305032D01*
X257087Y304181D01*
Y303300D01*
X257315Y302449D01*
X257755Y301685D01*
X258378Y301062D01*
X259141Y300622D01*
X259993Y300394D01*
X260874D01*
X261725Y300622D01*
X262488Y301062D01*
X263111Y301685D01*
X263551Y302449D01*
X263779Y303300D01*
Y304181D01*
X263551Y305032D01*
X263111Y305795D01*
X262488Y306418D01*
X261725Y306859D01*
X260874Y307087D01*
D02*
G37*
G36*
X253000D02*
X252118D01*
X251267Y306859D01*
X250504Y306418D01*
X249881Y305795D01*
X249441Y305032D01*
X249213Y304181D01*
Y303300D01*
X249441Y302449D01*
X249881Y301685D01*
X250504Y301062D01*
X251267Y300622D01*
X252118Y300394D01*
X253000D01*
X253851Y300622D01*
X254614Y301062D01*
X255237Y301685D01*
X255678Y302449D01*
X255906Y303300D01*
Y304181D01*
X255678Y305032D01*
X255237Y305795D01*
X254614Y306418D01*
X253851Y306859D01*
X253000Y307087D01*
D02*
G37*
G36*
X237252D02*
X236370D01*
X235519Y306859D01*
X234756Y306418D01*
X234133Y305795D01*
X233693Y305032D01*
X233465Y304181D01*
Y303300D01*
X233693Y302449D01*
X234133Y301685D01*
X234756Y301062D01*
X235519Y300622D01*
X236370Y300394D01*
X237252D01*
X238103Y300622D01*
X238866Y301062D01*
X239489Y301685D01*
X239929Y302449D01*
X240158Y303300D01*
Y304181D01*
X239929Y305032D01*
X239489Y305795D01*
X238866Y306418D01*
X238103Y306859D01*
X237252Y307087D01*
D02*
G37*
G36*
X229378D02*
X228496D01*
X227645Y306859D01*
X226882Y306418D01*
X226259Y305795D01*
X225819Y305032D01*
X225591Y304181D01*
Y303300D01*
X225819Y302449D01*
X226259Y301685D01*
X226882Y301062D01*
X227645Y300622D01*
X228496Y300394D01*
X229378D01*
X230229Y300622D01*
X230992Y301062D01*
X231615Y301685D01*
X232055Y302449D01*
X232283Y303300D01*
Y304181D01*
X232055Y305032D01*
X231615Y305795D01*
X230992Y306418D01*
X230229Y306859D01*
X229378Y307087D01*
D02*
G37*
G36*
X221504D02*
X220622D01*
X219771Y306859D01*
X219008Y306418D01*
X218385Y305795D01*
X217945Y305032D01*
X217717Y304181D01*
Y303300D01*
X217945Y302449D01*
X218385Y301685D01*
X219008Y301062D01*
X219771Y300622D01*
X220622Y300394D01*
X221504D01*
X222355Y300622D01*
X223118Y301062D01*
X223741Y301685D01*
X224181Y302449D01*
X224409Y303300D01*
Y304181D01*
X224181Y305032D01*
X223741Y305795D01*
X223118Y306418D01*
X222355Y306859D01*
X221504Y307087D01*
D02*
G37*
G36*
X213630D02*
X212748D01*
X211897Y306859D01*
X211134Y306418D01*
X210511Y305795D01*
X210071Y305032D01*
X209842Y304181D01*
Y303300D01*
X210071Y302449D01*
X210511Y301685D01*
X211134Y301062D01*
X211897Y300622D01*
X212748Y300394D01*
X213630D01*
X214481Y300622D01*
X215244Y301062D01*
X215867Y301685D01*
X216307Y302449D01*
X216535Y303300D01*
Y304181D01*
X216307Y305032D01*
X215867Y305795D01*
X215244Y306418D01*
X214481Y306859D01*
X213630Y307087D01*
D02*
G37*
G36*
X205755D02*
X204874D01*
X204023Y306859D01*
X203260Y306418D01*
X202637Y305795D01*
X202197Y305032D01*
X201969Y304181D01*
Y303300D01*
X202197Y302449D01*
X202637Y301685D01*
X203260Y301062D01*
X204023Y300622D01*
X204874Y300394D01*
X205755D01*
X206607Y300622D01*
X207370Y301062D01*
X207993Y301685D01*
X208433Y302449D01*
X208661Y303300D01*
Y304181D01*
X208433Y305032D01*
X207993Y305795D01*
X207370Y306418D01*
X206607Y306859D01*
X205755Y307087D01*
D02*
G37*
G36*
X197881D02*
X197000D01*
X196149Y306859D01*
X195386Y306418D01*
X194763Y305795D01*
X194323Y305032D01*
X194095Y304181D01*
Y303300D01*
X194323Y302449D01*
X194763Y301685D01*
X195386Y301062D01*
X196149Y300622D01*
X197000Y300394D01*
X197881D01*
X198733Y300622D01*
X199496Y301062D01*
X200119Y301685D01*
X200559Y302449D01*
X200787Y303300D01*
Y304181D01*
X200559Y305032D01*
X200119Y305795D01*
X199496Y306418D01*
X198733Y306859D01*
X197881Y307087D01*
D02*
G37*
G36*
X190007D02*
X189126D01*
X188275Y306859D01*
X187512Y306418D01*
X186889Y305795D01*
X186449Y305032D01*
X186221Y304181D01*
Y303300D01*
X186449Y302449D01*
X186889Y301685D01*
X187512Y301062D01*
X188275Y300622D01*
X189126Y300394D01*
X190007D01*
X190859Y300622D01*
X191622Y301062D01*
X192245Y301685D01*
X192685Y302449D01*
X192913Y303300D01*
Y304181D01*
X192685Y305032D01*
X192245Y305795D01*
X191622Y306418D01*
X190859Y306859D01*
X190007Y307087D01*
D02*
G37*
G36*
X182133D02*
X181252D01*
X180401Y306859D01*
X179638Y306418D01*
X179015Y305795D01*
X178575Y305032D01*
X178347Y304181D01*
Y303300D01*
X178575Y302449D01*
X179015Y301685D01*
X179638Y301062D01*
X180401Y300622D01*
X181252Y300394D01*
X182133D01*
X182985Y300622D01*
X183748Y301062D01*
X184371Y301685D01*
X184811Y302449D01*
X185039Y303300D01*
Y304181D01*
X184811Y305032D01*
X184371Y305795D01*
X183748Y306418D01*
X182985Y306859D01*
X182133Y307087D01*
D02*
G37*
G36*
X174259D02*
X173378D01*
X172527Y306859D01*
X171764Y306418D01*
X171141Y305795D01*
X170701Y305032D01*
X170473Y304181D01*
Y303300D01*
X170701Y302449D01*
X171141Y301685D01*
X171764Y301062D01*
X172527Y300622D01*
X173378Y300394D01*
X174259D01*
X175111Y300622D01*
X175874Y301062D01*
X176497Y301685D01*
X176937Y302449D01*
X177165Y303300D01*
Y304181D01*
X176937Y305032D01*
X176497Y305795D01*
X175874Y306418D01*
X175111Y306859D01*
X174259Y307087D01*
D02*
G37*
G36*
X245126Y299213D02*
X244245D01*
X243393Y298985D01*
X242630Y298544D01*
X242007Y297921D01*
X241567Y297158D01*
X241339Y296307D01*
Y295426D01*
X241567Y294574D01*
X242007Y293811D01*
X242630Y293188D01*
X243393Y292748D01*
X244245Y292520D01*
X245126D01*
X245977Y292748D01*
X246740Y293188D01*
X247363Y293811D01*
X247803Y294574D01*
X248031Y295426D01*
Y296307D01*
X247803Y297158D01*
X247363Y297921D01*
X246740Y298544D01*
X245977Y298985D01*
X245126Y299213D01*
D02*
G37*
G36*
X197881D02*
X197000D01*
X196149Y298985D01*
X195386Y298544D01*
X194763Y297921D01*
X194323Y297158D01*
X194095Y296307D01*
Y295426D01*
X194323Y294574D01*
X194763Y293811D01*
X195386Y293188D01*
X196149Y292748D01*
X197000Y292520D01*
X197881D01*
X198733Y292748D01*
X199496Y293188D01*
X200119Y293811D01*
X200559Y294574D01*
X200787Y295426D01*
Y296307D01*
X200559Y297158D01*
X200119Y297921D01*
X199496Y298544D01*
X198733Y298985D01*
X197881Y299213D01*
D02*
G37*
G36*
X190007D02*
X189126D01*
X188275Y298985D01*
X187512Y298544D01*
X186889Y297921D01*
X186449Y297158D01*
X186221Y296307D01*
Y295426D01*
X186449Y294574D01*
X186889Y293811D01*
X187512Y293188D01*
X188275Y292748D01*
X189126Y292520D01*
X190007D01*
X190859Y292748D01*
X191622Y293188D01*
X192245Y293811D01*
X192685Y294574D01*
X192913Y295426D01*
Y296307D01*
X192685Y297158D01*
X192245Y297921D01*
X191622Y298544D01*
X190859Y298985D01*
X190007Y299213D01*
D02*
G37*
G36*
X276622Y299213D02*
X275741D01*
X274889Y298985D01*
X274126Y298544D01*
X273503Y297921D01*
X273063Y297158D01*
X272835Y296307D01*
Y295426D01*
X273063Y294574D01*
X273503Y293811D01*
X274126Y293188D01*
X274889Y292748D01*
X275741Y292520D01*
X276622D01*
X277473Y292748D01*
X278236Y293188D01*
X278859Y293811D01*
X279299Y294574D01*
X279528Y295426D01*
Y296307D01*
X279299Y297158D01*
X278859Y297921D01*
X278236Y298544D01*
X277473Y298985D01*
X276622Y299213D01*
D02*
G37*
G36*
X268748D02*
X267866D01*
X267015Y298985D01*
X266252Y298544D01*
X265629Y297921D01*
X265189Y297158D01*
X264961Y296307D01*
Y295426D01*
X265189Y294574D01*
X265629Y293811D01*
X266252Y293188D01*
X267015Y292748D01*
X267866Y292520D01*
X268748D01*
X269599Y292748D01*
X270362Y293188D01*
X270985Y293811D01*
X271426Y294574D01*
X271654Y295426D01*
Y296307D01*
X271426Y297158D01*
X270985Y297921D01*
X270362Y298544D01*
X269599Y298985D01*
X268748Y299213D01*
D02*
G37*
G36*
X260874D02*
X259993D01*
X259141Y298985D01*
X258378Y298544D01*
X257755Y297921D01*
X257315Y297158D01*
X257087Y296307D01*
Y295426D01*
X257315Y294574D01*
X257755Y293811D01*
X258378Y293188D01*
X259141Y292748D01*
X259993Y292520D01*
X260874D01*
X261725Y292748D01*
X262488Y293188D01*
X263111Y293811D01*
X263551Y294574D01*
X263779Y295426D01*
Y296307D01*
X263551Y297158D01*
X263111Y297921D01*
X262488Y298544D01*
X261725Y298985D01*
X260874Y299213D01*
D02*
G37*
G36*
X253000D02*
X252118D01*
X251267Y298985D01*
X250504Y298544D01*
X249881Y297921D01*
X249441Y297158D01*
X249213Y296307D01*
Y295426D01*
X249441Y294574D01*
X249881Y293811D01*
X250504Y293188D01*
X251267Y292748D01*
X252118Y292520D01*
X253000D01*
X253851Y292748D01*
X254614Y293188D01*
X255237Y293811D01*
X255677Y294574D01*
X255906Y295426D01*
Y296307D01*
X255677Y297158D01*
X255237Y297921D01*
X254614Y298544D01*
X253851Y298985D01*
X253000Y299213D01*
D02*
G37*
G36*
X237252D02*
X236370D01*
X235519Y298985D01*
X234756Y298544D01*
X234133Y297921D01*
X233693Y297158D01*
X233465Y296307D01*
Y295426D01*
X233693Y294574D01*
X234133Y293811D01*
X234756Y293188D01*
X235519Y292748D01*
X236370Y292520D01*
X237252D01*
X238103Y292748D01*
X238866Y293188D01*
X239489Y293811D01*
X239929Y294574D01*
X240158Y295426D01*
Y296307D01*
X239929Y297158D01*
X239489Y297921D01*
X238866Y298544D01*
X238103Y298985D01*
X237252Y299213D01*
D02*
G37*
G36*
X213630D02*
X212748D01*
X211897Y298985D01*
X211134Y298544D01*
X210511Y297921D01*
X210071Y297158D01*
X209842Y296307D01*
Y295426D01*
X210071Y294574D01*
X210511Y293811D01*
X211134Y293188D01*
X211897Y292748D01*
X212748Y292520D01*
X213630D01*
X214481Y292748D01*
X215244Y293188D01*
X215867Y293811D01*
X216307Y294574D01*
X216535Y295426D01*
Y296307D01*
X216307Y297158D01*
X215867Y297921D01*
X215244Y298544D01*
X214481Y298985D01*
X213630Y299213D01*
D02*
G37*
G36*
X205755D02*
X204874D01*
X204023Y298985D01*
X203260Y298544D01*
X202637Y297921D01*
X202197Y297158D01*
X201969Y296307D01*
Y295426D01*
X202197Y294574D01*
X202637Y293811D01*
X203260Y293188D01*
X204023Y292748D01*
X204874Y292520D01*
X205755D01*
X206607Y292748D01*
X207370Y293188D01*
X207993Y293811D01*
X208433Y294574D01*
X208661Y295426D01*
Y296307D01*
X208433Y297158D01*
X207993Y297921D01*
X207370Y298544D01*
X206607Y298985D01*
X205755Y299213D01*
D02*
G37*
G36*
X182133D02*
X181252D01*
X180401Y298985D01*
X179638Y298544D01*
X179015Y297921D01*
X178575Y297158D01*
X178347Y296307D01*
Y295426D01*
X178575Y294574D01*
X179015Y293811D01*
X179638Y293188D01*
X180401Y292748D01*
X181252Y292520D01*
X182133D01*
X182985Y292748D01*
X183748Y293188D01*
X184371Y293811D01*
X184811Y294574D01*
X185039Y295426D01*
Y296307D01*
X184811Y297158D01*
X184371Y297921D01*
X183748Y298544D01*
X182985Y298985D01*
X182133Y299213D01*
D02*
G37*
G36*
X174259D02*
X173378D01*
X172527Y298985D01*
X171764Y298544D01*
X171141Y297921D01*
X170701Y297158D01*
X170472Y296307D01*
Y295426D01*
X170701Y294574D01*
X171141Y293811D01*
X171764Y293188D01*
X172527Y292748D01*
X173378Y292520D01*
X174259D01*
X175111Y292748D01*
X175874Y293188D01*
X176497Y293811D01*
X176937Y294574D01*
X177165Y295426D01*
Y296307D01*
X176937Y297158D01*
X176497Y297921D01*
X175874Y298544D01*
X175111Y298985D01*
X174259Y299213D01*
D02*
G37*
G36*
X212931Y290650D02*
X212069D01*
X211273Y290320D01*
X210664Y289711D01*
X210335Y288915D01*
Y288053D01*
X210664Y287258D01*
X211273Y286649D01*
X212069Y286319D01*
X212931D01*
X213727Y286649D01*
X214336Y287258D01*
X214665Y288053D01*
Y288915D01*
X214336Y289711D01*
X213727Y290320D01*
X212931Y290650D01*
D02*
G37*
G36*
X356014Y295196D02*
X354812D01*
X354715Y295177D01*
X354617D01*
X353438Y294943D01*
X353346Y294905D01*
X353249Y294885D01*
X352139Y294426D01*
X352057Y294371D01*
X351965Y294333D01*
X350966Y293665D01*
X350896Y293595D01*
X350814Y293540D01*
X349964Y292690D01*
X349909Y292608D01*
X349839Y292538D01*
X349171Y291539D01*
X349133Y291447D01*
X349078Y291365D01*
X348618Y290255D01*
X348599Y290158D01*
X348561Y290066D01*
X348327Y288887D01*
Y288789D01*
X348307Y288692D01*
Y287490D01*
X348327Y287393D01*
Y287294D01*
X348561Y286115D01*
X348599Y286023D01*
X348618Y285927D01*
X349078Y284816D01*
X349133Y284734D01*
X349171Y284643D01*
X349839Y283643D01*
X349909Y283573D01*
X349964Y283491D01*
X350814Y282641D01*
X350896Y282586D01*
X350966Y282516D01*
X351965Y281848D01*
X352057Y281810D01*
X352139Y281756D01*
X353249Y281296D01*
X353346Y281276D01*
X353438Y281239D01*
X354617Y281004D01*
X354715D01*
X354812Y280985D01*
X356014D01*
X356111Y281004D01*
X356210D01*
X357389Y281239D01*
X357481Y281276D01*
X357577Y281296D01*
X358688Y281756D01*
X358770Y281810D01*
X358861Y281848D01*
X359861Y282516D01*
X359931Y282586D01*
X360013Y282641D01*
X360863Y283491D01*
X360918Y283573D01*
X360988Y283643D01*
X361656Y284643D01*
X361693Y284734D01*
X361748Y284816D01*
X362208Y285927D01*
X362228Y286023D01*
X362265Y286115D01*
X362500Y287294D01*
Y287393D01*
X362519Y287490D01*
Y288692D01*
X362500Y288789D01*
Y288887D01*
X362265Y290066D01*
X362228Y290158D01*
X362208Y290255D01*
X361748Y291365D01*
X361694Y291447D01*
X361656Y291539D01*
X360988Y292538D01*
X360918Y292608D01*
X360863Y292690D01*
X360013Y293540D01*
X359931Y293595D01*
X359861Y293665D01*
X358861Y294333D01*
X358770Y294371D01*
X358688Y294426D01*
X357577Y294885D01*
X357481Y294905D01*
X357389Y294943D01*
X356210Y295177D01*
X356111D01*
X356014Y295196D01*
D02*
G37*
G36*
X272920Y288780D02*
X271883D01*
X270882Y288511D01*
X269984Y287993D01*
X269251Y287260D01*
X268733Y286362D01*
X268465Y285361D01*
Y284324D01*
X268733Y283323D01*
X269251Y282425D01*
X269984Y281692D01*
X270882Y281174D01*
X271883Y280906D01*
X272920D01*
X273921Y281174D01*
X274819Y281692D01*
X275552Y282425D01*
X276070Y283323D01*
X276339Y284324D01*
Y285361D01*
X276070Y286362D01*
X275552Y287260D01*
X274819Y287993D01*
X273921Y288511D01*
X272920Y288780D01*
D02*
G37*
G36*
X262920D02*
X261883D01*
X260882Y288511D01*
X259984Y287993D01*
X259251Y287260D01*
X258733Y286362D01*
X258465Y285361D01*
Y284324D01*
X258733Y283323D01*
X259251Y282425D01*
X259984Y281692D01*
X260882Y281174D01*
X261883Y280906D01*
X262920D01*
X263921Y281174D01*
X264819Y281692D01*
X265552Y282425D01*
X266070Y283323D01*
X266339Y284324D01*
Y285361D01*
X266070Y286362D01*
X265552Y287260D01*
X264819Y287993D01*
X263921Y288511D01*
X262920Y288780D01*
D02*
G37*
%LPD*%
D40*
X315748Y296063D02*
Y307185D01*
X362106Y320571D02*
Y437379D01*
X350492Y308957D02*
X362106Y320571D01*
X317520Y308957D02*
X350492D01*
X359941Y322736D02*
Y345374D01*
X348721Y311516D02*
X359941Y322736D01*
X307579Y311516D02*
X348721D01*
X351181Y327440D02*
Y328839D01*
Y325113D02*
Y327440D01*
Y318199D02*
Y325113D01*
X173206Y288681D02*
X176969D01*
X163831Y298056D02*
X173206Y288681D01*
X292717Y288976D02*
X342705D01*
X285827Y295866D02*
X292717Y288976D01*
X284055Y295866D02*
X285827D01*
X351378Y348425D02*
X356890D01*
X294193Y313878D02*
X346860D01*
X351181Y318199D01*
X356890Y348425D02*
X359941Y345374D01*
X284055Y303740D02*
X294193Y313878D01*
X355741Y443745D02*
X362106Y437379D01*
X364272Y313605D02*
Y438833D01*
X341808Y291142D02*
X364272Y313605D01*
X356407Y446697D02*
X364272Y438833D01*
X357305Y448863D02*
X366437Y439730D01*
X342705Y288976D02*
X366437Y312708D01*
Y439730D01*
X299803Y303740D02*
X307579Y311516D01*
X296654Y291142D02*
X341808D01*
X291929Y295866D02*
X296654Y291142D01*
X315551Y295866D02*
X315748Y296063D01*
Y307185D02*
X317520Y308957D01*
X347748Y443745D02*
X355741D01*
X341043Y444193D02*
X345713Y448863D01*
X346697Y446697D02*
X356407D01*
X345713Y448863D02*
X357305D01*
X341831Y441831D02*
X346697Y446697D01*
X345854Y441851D02*
X347748Y443745D01*
X345748Y441851D02*
X345854D01*
X306004Y447087D02*
X307618Y445472D01*
X316339Y445276D02*
X322244D01*
X315354Y446260D02*
X316339Y445276D01*
X311270Y446260D02*
X315354D01*
X310482Y445472D02*
X311270Y446260D01*
X307618Y445472D02*
X310482D01*
X326673Y444193D02*
X341043D01*
X325689Y441831D02*
X341831D01*
X322244Y445276D02*
X325689Y441831D01*
X324410Y446457D02*
X326673Y444193D01*
X324410Y446457D02*
Y449606D01*
X226870Y455020D02*
X227067Y455217D01*
X292213Y454823D02*
X304429D01*
X227067Y457972D02*
X228150Y459055D01*
X287981D01*
X292213Y454823D01*
X227067Y455217D02*
Y457972D01*
X306004Y447087D02*
Y453248D01*
X304429Y454823D02*
X306004Y453248D01*
X214075Y449114D02*
X226181Y461221D01*
X327461Y456988D02*
X329921Y454528D01*
X331693Y449409D02*
Y449729D01*
X329921Y451501D02*
Y454528D01*
X308760Y448228D02*
Y456595D01*
X226181Y461221D02*
X288878D01*
X329921Y451501D02*
X331693Y449729D01*
X293110Y456988D02*
X327461D01*
X214075Y448221D02*
Y449114D01*
X288878Y461221D02*
X293110Y456988D01*
X327756Y448622D02*
Y451968D01*
X338189Y446358D02*
X341240Y449409D01*
X332480Y453150D02*
Y455709D01*
X327756Y448622D02*
X330020Y446358D01*
X219579Y445465D02*
X220768Y446654D01*
X330020Y446358D02*
X338189D01*
X212933Y445465D02*
X219579D01*
X225000Y463484D02*
X290256D01*
X294587Y459154D02*
X329035D01*
X290256Y463484D02*
X294587Y459154D01*
X211319Y447079D02*
X212933Y445465D01*
X211319Y449803D02*
X225000Y463484D01*
X332480Y453150D02*
X336221Y449409D01*
X211319Y447079D02*
Y449803D01*
X318110Y451772D02*
X319783Y453445D01*
X326279D02*
X327756Y451968D01*
X336221Y449409D02*
X341240D01*
X329035Y459154D02*
X332480Y455709D01*
X318110Y448228D02*
Y451772D01*
X319783Y453445D02*
X326279D01*
D43*
X171260Y347638D02*
D03*
X312992D02*
D03*
X171260Y327559D02*
D03*
X312991D02*
D03*
D44*
X226378Y347638D02*
D03*
X257874D02*
D03*
X226378Y327559D02*
D03*
X257874D02*
D03*
D45*
X351181Y327440D02*
D03*
X326772D02*
D03*
X351181Y347638D02*
D03*
X326772D02*
D03*
D47*
X176260Y502953D02*
D03*
X186260D02*
D03*
X196260D02*
D03*
X311240D02*
D03*
X321240D02*
D03*
X331240D02*
D03*
D48*
X331299Y303740D02*
D03*
Y295866D02*
D03*
X315551Y303740D02*
D03*
Y295866D02*
D03*
X307677Y303740D02*
D03*
X307677Y295866D02*
D03*
X299803Y303740D02*
D03*
Y295866D02*
D03*
X291929Y303740D02*
D03*
Y295866D02*
D03*
X284055Y303740D02*
D03*
X284055Y295866D02*
D03*
X276181Y303740D02*
D03*
X268307D02*
D03*
X244685Y303740D02*
D03*
X228937Y295866D02*
D03*
X221063D02*
D03*
D50*
X112520Y500079D02*
D03*
X135630D02*
D03*
Y476968D02*
D03*
X112520D02*
D03*
X111969Y287067D02*
D03*
X135079D02*
D03*
Y310177D02*
D03*
X111969D02*
D03*
X112362Y459685D02*
D03*
X135473D02*
D03*
Y436575D02*
D03*
X112362D02*
D03*
D51*
X159449Y410079D02*
D03*
Y420079D02*
D03*
D52*
X351181Y329035D02*
D03*
X337992Y406988D02*
D03*
X343898D02*
D03*
X340945Y412894D02*
D03*
X349803Y406988D02*
D03*
X346850Y412894D02*
D03*
X352756D02*
D03*
X338878Y418898D02*
D03*
X344783D02*
D03*
X341831Y424803D02*
D03*
X350689Y418898D02*
D03*
X347736Y424803D02*
D03*
X353642D02*
D03*
X242028Y413189D02*
D03*
X247933D02*
D03*
X253839D02*
D03*
X259744D02*
D03*
X246063Y419390D02*
D03*
X243110Y425295D02*
D03*
X251969Y419390D02*
D03*
X249016Y425295D02*
D03*
X257874Y419390D02*
D03*
X254921Y425295D02*
D03*
X354331Y401575D02*
D03*
Y389764D02*
D03*
Y377953D02*
D03*
X348425Y437008D02*
D03*
X351378Y431102D02*
D03*
X348425Y401575D02*
D03*
X351378Y395669D02*
D03*
X348425Y389764D02*
D03*
X351378Y383858D02*
D03*
X348425Y377953D02*
D03*
X351378Y372047D02*
D03*
X342520Y437008D02*
D03*
X345472Y431102D02*
D03*
X342520Y401575D02*
D03*
X345472Y395669D02*
D03*
X342520Y389764D02*
D03*
X345472Y383858D02*
D03*
X342520Y377953D02*
D03*
X345472Y372047D02*
D03*
X342520Y366142D02*
D03*
X336614Y437008D02*
D03*
X339567Y431102D02*
D03*
X336614Y425197D02*
D03*
Y413386D02*
D03*
Y401575D02*
D03*
X339567Y395669D02*
D03*
X336614Y389764D02*
D03*
X339567Y383858D02*
D03*
X336614Y377953D02*
D03*
X339567Y372047D02*
D03*
X336614Y366142D02*
D03*
X330709Y437008D02*
D03*
X333661Y431102D02*
D03*
X330709Y425197D02*
D03*
X333661Y419291D02*
D03*
X330709Y413386D02*
D03*
X333661Y407480D02*
D03*
X330709Y401575D02*
D03*
X333661Y395669D02*
D03*
X330709Y389764D02*
D03*
X333661Y383858D02*
D03*
X330709Y377953D02*
D03*
X333661Y372047D02*
D03*
X330709Y366142D02*
D03*
X324803Y437008D02*
D03*
X327756Y431102D02*
D03*
X324803Y425197D02*
D03*
X327756Y419291D02*
D03*
X324803Y413386D02*
D03*
X327756Y407480D02*
D03*
X324803Y401575D02*
D03*
X327756Y395669D02*
D03*
X324803Y389764D02*
D03*
X327756Y383858D02*
D03*
X324803Y377953D02*
D03*
X327756Y372047D02*
D03*
X324803Y366142D02*
D03*
X318898Y437008D02*
D03*
X321850Y431102D02*
D03*
X318898Y425197D02*
D03*
X321850Y419291D02*
D03*
X318898Y413386D02*
D03*
X321850Y407480D02*
D03*
X318898Y401575D02*
D03*
X321850Y395669D02*
D03*
X318898Y389764D02*
D03*
X321850Y383858D02*
D03*
X318898Y377953D02*
D03*
X321850Y372047D02*
D03*
X318898Y366142D02*
D03*
X321850Y360236D02*
D03*
X318898Y354331D02*
D03*
X312992Y437008D02*
D03*
X315945Y431102D02*
D03*
X312992Y425197D02*
D03*
X315945Y419291D02*
D03*
X312992Y413386D02*
D03*
X315945Y407480D02*
D03*
X312992Y401575D02*
D03*
X315945Y395669D02*
D03*
X312992Y389764D02*
D03*
X315945Y383858D02*
D03*
X312992Y377953D02*
D03*
X315945Y372047D02*
D03*
X312992Y366142D02*
D03*
X315945Y360236D02*
D03*
X312992Y354331D02*
D03*
X310039Y431102D02*
D03*
X307086Y425197D02*
D03*
X310039Y419291D02*
D03*
X307086Y413386D02*
D03*
X310039Y407480D02*
D03*
X307086Y401575D02*
D03*
X310039Y395669D02*
D03*
X307086Y389764D02*
D03*
X310039Y383858D02*
D03*
X307086Y377953D02*
D03*
X310039Y372047D02*
D03*
X307086Y366142D02*
D03*
X310039Y360236D02*
D03*
X307086Y354331D02*
D03*
X304134Y431102D02*
D03*
X301181Y425197D02*
D03*
X304134Y419291D02*
D03*
X301181Y413386D02*
D03*
X304134Y407480D02*
D03*
X301181Y401575D02*
D03*
X304134Y395669D02*
D03*
Y383858D02*
D03*
Y372047D02*
D03*
Y360236D02*
D03*
X298228Y431102D02*
D03*
X295275Y425197D02*
D03*
X298228Y419291D02*
D03*
X295275Y413386D02*
D03*
X298228Y407480D02*
D03*
X292323Y431102D02*
D03*
X289370Y425197D02*
D03*
X292323Y419291D02*
D03*
X289370Y413386D02*
D03*
X292323Y407480D02*
D03*
X286417Y431102D02*
D03*
X283465Y425197D02*
D03*
X286417Y419291D02*
D03*
X283465Y413386D02*
D03*
X286417Y407480D02*
D03*
X280512Y431102D02*
D03*
X277559Y425197D02*
D03*
X280512Y419291D02*
D03*
X277559Y413386D02*
D03*
X280512Y407480D02*
D03*
X274606Y431102D02*
D03*
X271654Y425197D02*
D03*
X274606Y419291D02*
D03*
X271654Y413386D02*
D03*
X274606Y407480D02*
D03*
X268701Y431102D02*
D03*
X265748Y425197D02*
D03*
X268701Y419291D02*
D03*
X265748Y413386D02*
D03*
X268701Y407480D02*
D03*
X262795Y431102D02*
D03*
X253937Y448819D02*
D03*
Y437008D02*
D03*
X256890Y431102D02*
D03*
X250984Y454724D02*
D03*
X248031Y448819D02*
D03*
X250984Y442913D02*
D03*
X248031Y437008D02*
D03*
X250984Y431102D02*
D03*
X245079Y454724D02*
D03*
X242126Y448819D02*
D03*
X245079Y442913D02*
D03*
X242126Y437008D02*
D03*
X245079Y431102D02*
D03*
X239173Y454724D02*
D03*
X236220Y448819D02*
D03*
X239173Y442913D02*
D03*
X236220Y437008D02*
D03*
X239173Y431102D02*
D03*
X236220Y425197D02*
D03*
X239173Y419291D02*
D03*
X236220Y413386D02*
D03*
X230315Y448819D02*
D03*
X233268Y442913D02*
D03*
X230315Y437008D02*
D03*
X233268Y431102D02*
D03*
X230315Y425197D02*
D03*
X233268Y419291D02*
D03*
X230315Y413386D02*
D03*
X227362Y442913D02*
D03*
X224409Y437008D02*
D03*
X227362Y431102D02*
D03*
X224409Y425197D02*
D03*
X227362Y419291D02*
D03*
X224409Y413386D02*
D03*
X218504Y437008D02*
D03*
X221457Y431102D02*
D03*
X218504Y425197D02*
D03*
X221457Y419291D02*
D03*
X218504Y413386D02*
D03*
X212598Y437008D02*
D03*
X215551Y431102D02*
D03*
X212598Y425197D02*
D03*
X215551Y419291D02*
D03*
X212598Y413386D02*
D03*
X209646Y431102D02*
D03*
X206693Y425197D02*
D03*
X209646Y419291D02*
D03*
X206693Y413386D02*
D03*
X203740Y431102D02*
D03*
X200787Y425197D02*
D03*
X203740Y419291D02*
D03*
X200787Y413386D02*
D03*
X194882Y460630D02*
D03*
X197835Y454724D02*
D03*
Y431102D02*
D03*
X194882Y425197D02*
D03*
X197835Y419291D02*
D03*
X194882Y413386D02*
D03*
X188976Y460630D02*
D03*
X191929Y431102D02*
D03*
X188976Y425197D02*
D03*
X191929Y419291D02*
D03*
X188976Y413386D02*
D03*
X186024Y466535D02*
D03*
X183071Y460630D02*
D03*
X186024Y431102D02*
D03*
X183071Y425197D02*
D03*
X186024Y419291D02*
D03*
X183071Y413386D02*
D03*
X180118Y466535D02*
D03*
X177165Y460630D02*
D03*
X180118Y431102D02*
D03*
X177165Y425197D02*
D03*
X180118Y419291D02*
D03*
X177165Y413386D02*
D03*
X174213Y466535D02*
D03*
X171260Y460630D02*
D03*
X174213Y431102D02*
D03*
X171260Y425197D02*
D03*
X174213Y419291D02*
D03*
X171260Y413386D02*
D03*
X168307Y466535D02*
D03*
X165354Y460630D02*
D03*
X168307Y431102D02*
D03*
X165354Y425197D02*
D03*
X168307Y419291D02*
D03*
X165354Y413386D02*
D03*
X162401Y466535D02*
D03*
X159449Y460630D02*
D03*
Y448819D02*
D03*
Y437008D02*
D03*
X162401Y431102D02*
D03*
X159449Y425197D02*
D03*
X156496Y466535D02*
D03*
X153543Y460630D02*
D03*
X156496Y454724D02*
D03*
X153543Y448819D02*
D03*
X156496Y442913D02*
D03*
X153543Y437008D02*
D03*
X156496Y431102D02*
D03*
X153543Y425197D02*
D03*
Y413386D02*
D03*
X147638Y460630D02*
D03*
X150591Y454724D02*
D03*
X147638Y448819D02*
D03*
X150591Y442913D02*
D03*
X147638Y437008D02*
D03*
X150591Y431102D02*
D03*
X147638Y425197D02*
D03*
X150591Y419291D02*
D03*
X147638Y413386D02*
D03*
X150591Y407480D02*
D03*
X144685Y454724D02*
D03*
X141732Y448819D02*
D03*
X144685Y442913D02*
D03*
Y431102D02*
D03*
X141732Y425197D02*
D03*
X144685Y419291D02*
D03*
X141732Y413386D02*
D03*
X144685Y407480D02*
D03*
X135827Y448819D02*
D03*
Y425197D02*
D03*
X138779Y419291D02*
D03*
X135827Y413386D02*
D03*
X138779Y407480D02*
D03*
X129921Y425197D02*
D03*
X132874Y419291D02*
D03*
X129921Y413386D02*
D03*
X132874Y407480D02*
D03*
Y395669D02*
D03*
X124016Y460630D02*
D03*
Y437008D02*
D03*
X126969Y431102D02*
D03*
X124016Y425197D02*
D03*
X126969Y419291D02*
D03*
X124016Y413386D02*
D03*
X126969Y407480D02*
D03*
X121063Y431102D02*
D03*
X118110Y425197D02*
D03*
X121063Y419291D02*
D03*
X118110Y413386D02*
D03*
X121063Y407480D02*
D03*
X118110Y401575D02*
D03*
X112205Y448819D02*
D03*
Y425197D02*
D03*
Y401575D02*
D03*
X202440Y483957D02*
D03*
X202342Y487303D02*
D03*
X348031Y320276D02*
D03*
X326279Y319488D02*
D03*
X325295Y283563D02*
D03*
X363583Y300098D02*
D03*
X320965Y283661D02*
D03*
X301772Y281890D02*
D03*
X217717Y283760D02*
D03*
X203740Y282283D02*
D03*
X197244Y282087D02*
D03*
X191339D02*
D03*
X186122Y282185D02*
D03*
X259449Y358772D02*
D03*
Y354256D02*
D03*
X255906Y358772D02*
D03*
Y354256D02*
D03*
X228248Y358673D02*
D03*
Y354158D02*
D03*
X224705Y358673D02*
D03*
Y354158D02*
D03*
X274016Y491142D02*
D03*
X278531D02*
D03*
X283047D02*
D03*
X287563D02*
D03*
X287464Y494488D02*
D03*
X282949D02*
D03*
X278433D02*
D03*
X273917D02*
D03*
X274114Y487402D02*
D03*
X278630D02*
D03*
X283145D02*
D03*
X287661D02*
D03*
X287760Y484055D02*
D03*
X283244D02*
D03*
X278728D02*
D03*
X274213D02*
D03*
X157283Y483957D02*
D03*
X161799D02*
D03*
X166315D02*
D03*
X170831D02*
D03*
X175346D02*
D03*
X179862D02*
D03*
X184378D02*
D03*
X188893D02*
D03*
X193409D02*
D03*
X197925D02*
D03*
X206956D02*
D03*
X211472D02*
D03*
X220503D02*
D03*
X229534D02*
D03*
X215987D02*
D03*
X234050D02*
D03*
X225019D02*
D03*
X238566D02*
D03*
X243081D02*
D03*
X247597D02*
D03*
X252113D02*
D03*
X256628D02*
D03*
X261144D02*
D03*
X265660D02*
D03*
X270176D02*
D03*
X270077Y487303D02*
D03*
X265561D02*
D03*
X261046D02*
D03*
X256530D02*
D03*
X252014D02*
D03*
X247499D02*
D03*
X242983D02*
D03*
X238467D02*
D03*
X224920D02*
D03*
X233952D02*
D03*
X215889D02*
D03*
X229436D02*
D03*
X220405D02*
D03*
X211373D02*
D03*
X206857D02*
D03*
X197826D02*
D03*
X193310D02*
D03*
X188795D02*
D03*
X184279D02*
D03*
X179763D02*
D03*
X175248D02*
D03*
X170732D02*
D03*
X166216D02*
D03*
X161701D02*
D03*
X157185D02*
D03*
X150394Y476575D02*
D03*
Y481090D02*
D03*
Y485606D02*
D03*
Y490122D02*
D03*
Y494637D02*
D03*
X147047Y494539D02*
D03*
Y490023D02*
D03*
X147047Y485508D02*
D03*
X147047Y480992D02*
D03*
Y476476D02*
D03*
X149213Y500197D02*
D03*
X153728D02*
D03*
X158244D02*
D03*
X162760D02*
D03*
X167275D02*
D03*
X167177Y503543D02*
D03*
X162661D02*
D03*
X158145D02*
D03*
X153630D02*
D03*
X149114D02*
D03*
X206415Y505905D02*
D03*
X210930D02*
D03*
X215446D02*
D03*
X219962D02*
D03*
X224477D02*
D03*
X228993D02*
D03*
X233509D02*
D03*
X238024D02*
D03*
X242540D02*
D03*
X247056D02*
D03*
X251571D02*
D03*
X256087D02*
D03*
X260603D02*
D03*
X269634D02*
D03*
X278665D02*
D03*
X265119D02*
D03*
X283181D02*
D03*
X274150D02*
D03*
X287697D02*
D03*
X206415Y502362D02*
D03*
X210930D02*
D03*
X215446D02*
D03*
X219962D02*
D03*
X224477D02*
D03*
X228993D02*
D03*
X233509D02*
D03*
X238024D02*
D03*
X242540D02*
D03*
X247056D02*
D03*
X251571D02*
D03*
X256087D02*
D03*
X260603D02*
D03*
X269634D02*
D03*
X278665D02*
D03*
X265118D02*
D03*
X283181D02*
D03*
X274150D02*
D03*
X287697D02*
D03*
X206316Y498721D02*
D03*
X210832D02*
D03*
X215348D02*
D03*
X219863D02*
D03*
X224379D02*
D03*
X228895D02*
D03*
X233410D02*
D03*
X237926D02*
D03*
X242442D02*
D03*
X246957D02*
D03*
X251473D02*
D03*
X255989D02*
D03*
X260504D02*
D03*
X269536D02*
D03*
X278567D02*
D03*
X265020D02*
D03*
X283083D02*
D03*
X274051D02*
D03*
X287598D02*
D03*
X156988Y494390D02*
D03*
X161504D02*
D03*
X166019D02*
D03*
X170535D02*
D03*
X175051D02*
D03*
X179567D02*
D03*
X184082D02*
D03*
X188598D02*
D03*
X193114D02*
D03*
X197629D02*
D03*
X202145D02*
D03*
X206661D02*
D03*
X211176D02*
D03*
X220208D02*
D03*
X229239D02*
D03*
X215692D02*
D03*
X233755D02*
D03*
X224723D02*
D03*
X238270D02*
D03*
X242786D02*
D03*
X247302D02*
D03*
X251817D02*
D03*
X256333D02*
D03*
X260849D02*
D03*
X265365D02*
D03*
X269880D02*
D03*
X269979Y491043D02*
D03*
X265463D02*
D03*
X260947D02*
D03*
X256432D02*
D03*
X251916D02*
D03*
X247400D02*
D03*
X242884D02*
D03*
X238369D02*
D03*
X224822D02*
D03*
X233853D02*
D03*
X215791D02*
D03*
X229338D02*
D03*
X220306D02*
D03*
X211275D02*
D03*
X206759D02*
D03*
X202243D02*
D03*
X197728D02*
D03*
X193212D02*
D03*
X188696D02*
D03*
X184181D02*
D03*
X179665D02*
D03*
X175149D02*
D03*
X170634D02*
D03*
X166118D02*
D03*
X161602D02*
D03*
X157087D02*
D03*
X222835Y284055D02*
D03*
X332893Y277756D02*
D03*
X263090Y291142D02*
D03*
X161221Y283268D02*
D03*
X163831Y298056D02*
D03*
X176969Y288681D02*
D03*
X294980Y318110D02*
D03*
X290354D02*
D03*
X280512D02*
D03*
X132185Y368602D02*
D03*
X241634Y287205D02*
D03*
X283858Y290453D02*
D03*
X301673Y286221D02*
D03*
X351181Y325113D02*
D03*
X326772Y349757D02*
D03*
X326772Y346752D02*
D03*
X351181Y349856D02*
D03*
X351181Y346850D02*
D03*
X326772Y328202D02*
D03*
X326772Y325197D02*
D03*
X205709Y442126D02*
D03*
X298764Y442028D02*
D03*
X291961D02*
D03*
X295362D02*
D03*
X288559D02*
D03*
X302165D02*
D03*
X198961Y442126D02*
D03*
X192158D02*
D03*
X195559D02*
D03*
X202362D02*
D03*
X286417Y290453D02*
D03*
X118209Y373524D02*
D03*
X124508Y394291D02*
D03*
X345748Y441851D02*
D03*
X335138Y277756D02*
D03*
X274091Y392173D02*
D03*
X267251D02*
D03*
X280931Y382394D02*
D03*
X274091Y385653D02*
D03*
X277511Y379134D02*
D03*
X267251Y388913D02*
D03*
X270671Y395433D02*
D03*
X280931Y392173D02*
D03*
X270671D02*
D03*
X280931Y385653D02*
D03*
X277511Y388913D02*
D03*
X280931Y395433D02*
D03*
X267251D02*
D03*
X277511Y382394D02*
D03*
X270671Y385653D02*
D03*
X284350Y388913D02*
D03*
X277511Y385653D02*
D03*
Y392173D02*
D03*
X280931Y379134D02*
D03*
X270671D02*
D03*
X267251D02*
D03*
X284350Y395433D02*
D03*
X274091D02*
D03*
Y388913D02*
D03*
Y382394D02*
D03*
X284350D02*
D03*
Y379134D02*
D03*
Y385653D02*
D03*
X270671Y388913D02*
D03*
X280931D02*
D03*
X284350Y392173D02*
D03*
X270671Y382394D02*
D03*
X267251D02*
D03*
X274091Y379134D02*
D03*
X267251Y385653D02*
D03*
X277511Y395433D02*
D03*
X178323Y392272D02*
D03*
X171484D02*
D03*
X185163Y382492D02*
D03*
X178323Y385752D02*
D03*
X181743Y379232D02*
D03*
X171484Y389012D02*
D03*
X174903Y395531D02*
D03*
X185163Y392272D02*
D03*
X174903D02*
D03*
X185163Y385752D02*
D03*
X181743Y389012D02*
D03*
X185163Y395531D02*
D03*
X171484D02*
D03*
X181743Y382492D02*
D03*
X174903Y385752D02*
D03*
X188583Y389012D02*
D03*
X181743Y385752D02*
D03*
Y392272D02*
D03*
X185163Y379232D02*
D03*
X174903D02*
D03*
X171484D02*
D03*
X188583Y395531D02*
D03*
X178323D02*
D03*
Y389012D02*
D03*
Y382492D02*
D03*
X188583D02*
D03*
Y379232D02*
D03*
Y385752D02*
D03*
X174903Y389012D02*
D03*
X185163D02*
D03*
X188583Y392272D02*
D03*
X174903Y382492D02*
D03*
X171484D02*
D03*
X178323Y379232D02*
D03*
X171484Y385752D02*
D03*
X181743Y395531D02*
D03*
X318110Y448228D02*
D03*
X226870Y455020D02*
D03*
X324410Y449606D02*
D03*
X214075Y448221D02*
D03*
X341240Y449409D02*
D03*
X220768Y446654D02*
D03*
X308760Y448228D02*
D03*
X331693Y449409D02*
D03*
X124508Y396358D02*
D03*
X138976Y373130D02*
D03*
X135630D02*
D03*
X132283Y373228D02*
D03*
X126772Y372835D02*
D03*
X124114D02*
D03*
X132087Y365551D02*
D03*
X135335D02*
D03*
X138583D02*
D03*
X138681Y368504D02*
D03*
X135433D02*
D03*
X312742Y473524D02*
D03*
X326309D02*
D03*
X322917D02*
D03*
X309350D02*
D03*
X316134D02*
D03*
X336484D02*
D03*
X329700D02*
D03*
X333092D02*
D03*
X319526D02*
D03*
X278891D02*
D03*
X275454D02*
D03*
X282328D02*
D03*
X285766D02*
D03*
X247955D02*
D03*
X261705D02*
D03*
X258267D02*
D03*
X244518D02*
D03*
X251393D02*
D03*
X272016D02*
D03*
X265142D02*
D03*
X268579D02*
D03*
X254830D02*
D03*
X217020D02*
D03*
X230769D02*
D03*
X227332D02*
D03*
X213583D02*
D03*
X220457D02*
D03*
X241081D02*
D03*
X234206D02*
D03*
X237644D02*
D03*
X223895D02*
D03*
X173561D02*
D03*
X187128D02*
D03*
X183736D02*
D03*
X190519D02*
D03*
X170169D02*
D03*
X163386D02*
D03*
X176953D02*
D03*
X180344D02*
D03*
X166778D02*
D03*
X273992Y451819D02*
D03*
X267153D02*
D03*
X280832Y442039D02*
D03*
X273992Y445299D02*
D03*
X277412Y438779D02*
D03*
X267153Y448559D02*
D03*
X270573Y455079D02*
D03*
X280832Y451819D02*
D03*
X270573D02*
D03*
X280832Y445299D02*
D03*
X277412Y448559D02*
D03*
X280832Y455079D02*
D03*
X267153D02*
D03*
X277412Y442039D02*
D03*
X270573Y445299D02*
D03*
X284252Y448559D02*
D03*
X277412Y445299D02*
D03*
Y451819D02*
D03*
X280832Y438779D02*
D03*
X270573D02*
D03*
X267153D02*
D03*
X284252Y455079D02*
D03*
X273992D02*
D03*
Y448559D02*
D03*
Y442039D02*
D03*
X284252D02*
D03*
Y438779D02*
D03*
Y445299D02*
D03*
X270573Y448559D02*
D03*
X280832D02*
D03*
X284252Y451819D02*
D03*
X270573Y442039D02*
D03*
X267153D02*
D03*
X273992Y438779D02*
D03*
X267153Y445299D02*
D03*
X277412Y455079D02*
D03*
X298764Y438791D02*
D03*
X288559D02*
D03*
X291961D02*
D03*
X295362D02*
D03*
X302165D02*
D03*
X205709Y438693D02*
D03*
X198906D02*
D03*
X195504D02*
D03*
X192103D02*
D03*
X202307D02*
D03*
X180956Y454980D02*
D03*
X170696Y445201D02*
D03*
X177536Y438681D02*
D03*
X170696Y441941D02*
D03*
X174116D02*
D03*
X187795Y451720D02*
D03*
X184376Y448461D02*
D03*
X174116D02*
D03*
X187795Y445201D02*
D03*
Y438681D02*
D03*
Y441941D02*
D03*
X177536D02*
D03*
Y448461D02*
D03*
Y454980D02*
D03*
X187795D02*
D03*
X170696Y438681D02*
D03*
X174116D02*
D03*
X184376D02*
D03*
X180956Y451720D02*
D03*
Y445201D02*
D03*
X187795Y448461D02*
D03*
X174116Y445201D02*
D03*
X180956Y441941D02*
D03*
X170696Y454980D02*
D03*
X184376D02*
D03*
X180956Y448461D02*
D03*
X184376Y445201D02*
D03*
X174116Y451720D02*
D03*
X184376D02*
D03*
X174116Y454980D02*
D03*
X170696Y448461D02*
D03*
X180956Y438681D02*
D03*
X177536Y445201D02*
D03*
X184376Y441941D02*
D03*
X170696Y451720D02*
D03*
X177536D02*
D03*
X304724Y325295D02*
D03*
X307529D02*
D03*
X318750Y328346D02*
D03*
Y325295D02*
D03*
X313140D02*
D03*
X315945Y328346D02*
D03*
X304724D02*
D03*
X321555D02*
D03*
Y325295D02*
D03*
X315945D02*
D03*
X307529Y328346D02*
D03*
X313140D02*
D03*
X310335D02*
D03*
Y325295D02*
D03*
X304626Y346850D02*
D03*
X307431D02*
D03*
X318652Y349902D02*
D03*
Y346850D02*
D03*
X313041D02*
D03*
X315846Y349902D02*
D03*
X304626D02*
D03*
X321457D02*
D03*
Y346850D02*
D03*
X315846D02*
D03*
X307431Y349902D02*
D03*
X313041D02*
D03*
X310236D02*
D03*
Y346850D02*
D03*
X162894Y325295D02*
D03*
X165699D02*
D03*
X176919Y328346D02*
D03*
Y325295D02*
D03*
X171309D02*
D03*
X174114Y328346D02*
D03*
X162894D02*
D03*
X179724D02*
D03*
Y325295D02*
D03*
X174114D02*
D03*
X165699Y328346D02*
D03*
X171309D02*
D03*
X168504D02*
D03*
Y325295D02*
D03*
X162894Y346850D02*
D03*
X165699D02*
D03*
X176919Y349902D02*
D03*
Y346850D02*
D03*
X171309D02*
D03*
X174114Y349902D02*
D03*
X162894D02*
D03*
X179724D02*
D03*
Y346850D02*
D03*
X174114D02*
D03*
X165699Y349902D02*
D03*
X171309D02*
D03*
X168504D02*
D03*
Y346850D02*
D03*
X223721D02*
D03*
X226427D02*
D03*
X223721Y349902D02*
D03*
X226427D02*
D03*
X229134D02*
D03*
Y346850D02*
D03*
X255118Y346752D02*
D03*
X257825D02*
D03*
X255118Y349803D02*
D03*
X257825D02*
D03*
X260531D02*
D03*
Y346752D02*
D03*
Y325197D02*
D03*
Y328248D02*
D03*
X257825D02*
D03*
X255118D02*
D03*
X257825Y325197D02*
D03*
X255118D02*
D03*
X223622Y325394D02*
D03*
X226329D02*
D03*
Y328445D02*
D03*
X229035D02*
D03*
Y325394D02*
D03*
X223622Y328445D02*
D03*
D53*
X124433Y392248D02*
Y396283D01*
X107480Y277756D02*
X335138D01*
X101378Y283858D02*
X107480Y277756D01*
X280512Y316535D02*
Y318110D01*
X276181Y312205D02*
X280512Y316535D01*
X276181Y303740D02*
Y312205D01*
X101378Y283858D02*
Y388681D01*
X103248Y390551D01*
X122736D01*
X124433Y392248D01*
Y396283D02*
X124508Y396358D01*
D54*
X351476Y327313D02*
D03*
D55*
X351378Y348031D02*
D03*
D56*
X334006Y277756D02*
D03*
M02*
