G04*
G04 #@! TF.GenerationSoftware,Altium Limited,Altium Designer,22.5.1 (42)*
G04*
G04 Layer_Color=8388736*
%FSLAX25Y25*%
%MOIN*%
G70*
G04*
G04 #@! TF.SameCoordinates,4CCF3D7E-3C4F-46BB-889F-021E08990E68*
G04*
G04*
G04 #@! TF.FilePolarity,Positive*
G04*
G01*
G75*
%ADD12C,0.01000*%
D12*
X355413Y281988D02*
X356368Y282063D01*
X357299Y282287D01*
X358184Y282653D01*
X359000Y283154D01*
X359728Y283775D01*
X360350Y284504D01*
X360851Y285320D01*
X361217Y286205D01*
X361441Y287136D01*
X361516Y288090D01*
X361441Y289045D01*
X361217Y289976D01*
X360851Y290861D01*
X360350Y291677D01*
X359728Y292406D01*
X359000Y293027D01*
X358184Y293528D01*
X357299Y293894D01*
X356368Y294118D01*
X355413Y294193D01*
X354459Y294118D01*
X353528Y293894D01*
X352643Y293528D01*
X351827Y293027D01*
X351098Y292406D01*
X350477Y291677D01*
X349976Y290861D01*
X349610Y289976D01*
X349386Y289045D01*
X349311Y288090D01*
X349386Y287136D01*
X349610Y286205D01*
X349976Y285320D01*
X350477Y284504D01*
X351098Y283775D01*
X351827Y283154D01*
X352643Y282653D01*
X353528Y282287D01*
X354459Y282063D01*
X355413Y281988D01*
X355512Y489862D02*
X356466Y489937D01*
X357398Y490161D01*
X358282Y490527D01*
X359099Y491028D01*
X359827Y491649D01*
X360449Y492378D01*
X360949Y493194D01*
X361315Y494079D01*
X361539Y495010D01*
X361614Y495965D01*
X361539Y496919D01*
X361315Y497850D01*
X360949Y498735D01*
X360449Y499551D01*
X359827Y500280D01*
X359099Y500902D01*
X358282Y501402D01*
X357398Y501768D01*
X356466Y501992D01*
X355512Y502067D01*
X354557Y501992D01*
X353626Y501768D01*
X352741Y501402D01*
X351925Y500902D01*
X351197Y500280D01*
X350575Y499551D01*
X350075Y498735D01*
X349708Y497850D01*
X349485Y496919D01*
X349410Y495965D01*
X349485Y495010D01*
X349708Y494079D01*
X350075Y493194D01*
X350575Y492378D01*
X351197Y491649D01*
X351925Y491028D01*
X352741Y490527D01*
X353626Y490161D01*
X354557Y489937D01*
X355512Y489862D01*
X354341Y333957D02*
X355346Y334086D01*
X356274Y334495D01*
X357047Y335149D01*
X357604Y335996D01*
X357898Y336966D01*
X357906Y337979D01*
X357627Y338953D01*
X357083Y339809D01*
X356319Y340475D01*
X355399Y340898D01*
X354396Y341042D01*
X278937Y341043D02*
X277933Y340906D01*
X277009Y340490D01*
X276240Y339830D01*
X275690Y338979D01*
X275403Y338007D01*
Y336993D01*
X275690Y336021D01*
X276240Y335170D01*
X277009Y334510D01*
X277933Y334094D01*
X278937Y333957D01*
X160952Y340674D02*
X159956Y340546D01*
X159037Y340141D01*
X158270Y339493D01*
X157719Y338653D01*
X157427Y337693D01*
X157419Y336688D01*
X157696Y335723D01*
X158235Y334876D01*
X158992Y334215D01*
X159904Y333796D01*
X160898Y333653D01*
X206441Y333667D02*
X207459Y333799D01*
X208399Y334213D01*
X209183Y334876D01*
X209747Y335734D01*
X210045Y336716D01*
X210053Y337743D01*
X209770Y338730D01*
X209219Y339596D01*
X208445Y340271D01*
X207512Y340700D01*
X206496Y340846D01*
X220866Y341046D02*
X219877Y340891D01*
X218970Y340466D01*
X218219Y339804D01*
X217682Y338959D01*
X217402Y337998D01*
Y336996D01*
X217682Y336035D01*
X218219Y335190D01*
X218970Y334528D01*
X219877Y334103D01*
X220866Y333948D01*
X263655Y333948D02*
X264675Y334080D01*
X265616Y334494D01*
X266401Y335158D01*
X266966Y336017D01*
X267265Y337001D01*
X267272Y338030D01*
X266989Y339018D01*
X266437Y339886D01*
X265663Y340562D01*
X264728Y340991D01*
X263710Y341138D01*
X278937Y333957D02*
X354341D01*
Y341043D02*
X354396Y341042D01*
X280315Y341043D02*
X354341D01*
X278937D02*
X280315D01*
X160952Y340674D02*
X163681Y340751D01*
X206496Y340846D01*
X206102Y333653D02*
X206441Y333667D01*
X160898Y333653D02*
X206102D01*
X220866Y341046D02*
X222411D01*
X263710Y341138D01*
X220866Y333948D02*
X263655D01*
X99213Y275590D02*
Y491732D01*
Y508661D01*
X368110D01*
Y275590D02*
Y508661D01*
X99213Y275590D02*
X368110D01*
M02*
