M48
;Layer_Color=9474304
;FILE_FORMAT=2:4
INCH,TZ
;TYPE=PLATED
T1F00S00C0.0197
%
T01
X47353Y30079
Y30604
Y31129
X48105
Y30604
Y30079
X44953
Y30604
Y31129
X44201
Y30604
Y30079
X41677Y30079
Y30604
Y31129
X40925
Y30604
Y30079
Y31654
X41677Y31654
X41668Y32835
Y33360
Y33885
Y34409
X40915Y34409
Y33885
Y33360
Y32835
X44170Y32835
Y33360
Y33885
Y34409
X44922Y34409
Y33885
Y33360
Y32835
X44953Y31654
X44201Y31654
X47353
X48105Y31654
X48111Y32835
Y33360
Y33885
Y34409
X47359Y34409
Y33885
Y33360
Y32835
M30
