M48
;Layer_Color=9474304
;FILE_FORMAT=2:4
INCH,TZ
;TYPE=PLATED
T1F00S00C0.0118
T2F00S00C0.0276
T3F00S00C0.0394
T4F00S00C0.0472
T5F00S00C0.0827
;TYPE=NON_PLATED
T6F00S00C0.1181
%
T01
X32096Y28366
X32530Y28356
X33289Y27776
X33514
X36358Y30010
X30167Y28622
X30177Y28189
X28642Y29045
X28386
X26309Y29114
X24163Y28720
X22283Y28406
X21772Y28376
X21250Y28848
X20374Y28228
X19724Y28209
X19134
X18612Y28219
X17697Y28868
X16122Y28327
X16383Y29806
X15650Y30266
X13858Y36555
X13868Y36850
X13543
X13533Y36555
X13209
X13218Y36860
X13228Y37323
X13563Y37313
X13898
X12677Y37283
X12411
X11821Y37352
X12402Y38445
X12657Y38445
X12667Y38720
X12402Y38711
X12451Y39429
Y39636
X13287Y39567
Y40748
X13878
X14468
X15059
X14764Y41339
X15354
X15059Y41929
X14468
X13878
X13287
X12697
X12106
X11811Y42520
X12402
X12992
X13583
X14173
X14764
X15354
X15059Y43110
X14468
X14764Y43701
X15354
X15059Y44291
X14468
X14173Y44882
X14764
X15354
X15059Y45472
X14468
X14764Y46063
X15354
X13583Y44882
X12402Y46063
Y43701
X12697Y43110
X12106
X11220Y42520
X11811Y41339
X12402
X12992
X13583
X14173
X12697Y40748
X12106
X11811Y40157
X11220
X11181Y39685
X11191Y39419
X11220Y44882
X15945
X15650Y45472
X15945Y46063
X16535
X17126
X17717
X18307
X18898
X19488
X19783Y45472
X18780Y45498
Y45172
Y44846
Y44520
Y44194
Y43868
X18438
Y44194
Y44520
Y44846
Y45172
Y45498
X18096
Y45172
Y44846
Y44520
Y44194
Y43868
X17754
Y44194
Y44520
Y44846
Y45172
Y45498
X17412
Y45172
Y44846
Y44520
Y44194
Y43868
X17070
Y44194
Y44520
Y44846
Y45172
Y45498
X16831Y46654
X17421
X18012
X18602
X16240
X15650
Y44291
X15945Y43701
X16240Y43110
X16831
X17421
X18012
X18602
X19193
X19783
X20374
X20965
X21555
X22146
X22736
X23327
X23917
X24508
X25098
X25689
X26280
X26870
X27461
X28051
X28642
X29232
X29823
X30413
X31004
X30709Y42520
X30118
X29528
X28937
X28346
X27756
X27165
X26575
X26870Y41929
X27461
X28051
X28642
X29232
X29823
X30413
X31004
X30709Y41339
X30118
X29528
X28937
X28346
X27756
X27165
X26575
X25974Y41319
X25384
X24793
X24203
X23622Y41339
X23031
X22441
X21850
X21260
X20669
X20079
X19488
X18898
X18307
X17717
X17126
X16535
X16831Y41929
X17421
X18012
X18602
X19193
X19783
X20374
X20965
X21555
X22146
X22736
X23327
X23917
X24606Y41939
X25197
X25787
X25492Y42530
X24902
X24311
X23622Y42520
X23031
X22441
X21850
X21260
X20669
X20079
X19488
X18898
X18307
X17717
X17126
X16535
X15945
X15650Y43110
X19210Y43869
X19550
X19891
X20231
X20571
X20571Y44213
X20236
X19896
X19556
X19216
X21594Y44173
X21850Y43701
X22441
X23031
X23622
X24213
X24803
X25394
X25098Y44291
X24508
X23917
X23327
X22736
X23031Y44882
X23622
X24213
X24803
X25394
X25098Y45472
X24508
X23917
X22687Y45502
X22077Y44665
X21407Y44822
X21260Y43701
X21476Y46663
X26715Y45508
Y45182
Y44856
Y44530
Y44204
Y43878
X27057
Y44204
Y44530
Y44856
Y45182
Y45508
X27399
Y45182
Y44856
Y44530
Y44204
Y43878
X27741
Y44204
Y44530
Y44856
Y45182
Y45508
X28083
Y45182
Y44856
Y44530
Y44204
Y43878
X28425
Y44204
Y44530
Y44856
Y45182
Y45508
X28856Y44203
Y43879
X29196
Y44203
X29536
Y43879
X29876
Y44203
X30217
Y43879
X30876Y44823
X31191Y46703
X31004Y40748
X30413
X29823
X29232
X28642
X28051
X27461
X26870
X26725Y39543
Y39217
Y38891
Y38565
Y38239
Y37913
X27067
Y38239
Y38565
Y38891
Y39217
Y39543
X27409
Y39217
Y38891
Y38565
Y38239
Y37913
X27751
Y38239
Y38565
Y38891
Y39217
Y39543
X28093
Y39217
Y38891
Y38565
Y38239
Y37913
X28435
Y38239
Y38565
Y38891
Y39217
Y39543
X30413Y39567
X31004
X30709Y40157
X30118
X30709Y38976
X31004Y38386
X30413
X30709Y37795
X31004Y37205
X30413
X30709Y36614
X31004Y36024
X30413
X30709Y35433
X30743Y34990
X30463
Y34685
X30743
X31024
Y34990
X29783Y34980
X29503
X29222
X28942
X28661
X28381
X28100
Y34675
X28381
X28661
X28942
X29222
X29503
X29783
X29793Y32815
X29513
X29232
X28952
X28671
X28391
X28110
Y32510
X28391
X28671
X28952
X29232
X29513
X29793
X30472Y32530
X30753
X31033
Y32835
X30753
X30472
X29498Y31811
X29035
X28051
X26575Y31900
X26053Y32520
X25782
X25512
Y32825
X25782
X26053
X25059
X24779
X24498
X24218
X23937
X23656
X23376
Y32520
X23656
X23937
X24218
X24498
X24779
X25059
X25049Y34675
X24769
X24488
X24208
X23927
X23647
X23366
Y34980
X23647
X23927
X24208
X24488
X24769
X25049
X25512Y34980
X25782
X26053
Y34675
X25782
X25512
X25591Y35426
X25945Y35426
Y35877
X25591Y35877
X22825Y35867
X22470Y35867
Y35416
X22825Y35416
X22913Y34990
X22643
X22372
Y34685
X22643
X22913
X22904Y32844
X22633
X22362
Y32539
X22633
X22904
X20335Y32510
X20054
X19774
X19493
X19213
X18932
X18652
Y32815
X18932
X19213
X19493
X19774
X20054
X20335
X20325Y34685
X20044
X19764
X19483
X19203
X18922
X18642
Y34990
X18922
X19203
X19483
X19764
X20044
X20325
X17972
X17692
X17411
X17131
X16850
X16570
X16289
Y34685
X16570
X16850
X17131
X17411
X17692
X17972
Y32835
X17692
X17411
X17131
X16850
X16570
X16289
Y32530
X16570
X16850
X17131
X17411
X17692
X17972
X17832Y37923
Y38249
Y38575
Y38901
Y39227
Y39553
X17490
Y39227
Y38901
Y38575
Y38249
Y37923
X17148
Y38249
Y38575
Y38901
Y39227
Y39553
X18174
Y39227
Y38901
Y38575
Y38249
Y37923
X18516
Y38249
Y38575
Y38901
Y39227
Y39553
X18858
Y39227
Y38901
Y38575
Y38249
Y37923
X31299Y37795
X31890
X32480
X33071
X33661
X34252
X34843
X35433
X35138Y38386
X34547
X33957
X33366
X32776
X32185
X31594
X31299Y38976
X31890
X32480
X33071
X33661
X34252
X34843
X35433
X35138Y39567
X34547
X33957
X33366
X32776
X32185
X31594
X31299Y40157
X31890
X32480
X33071
X33661
X34252
X34843
X35433
X34980Y40699
X34390
X33799
X33366Y40748
X32776
X32185
X31594
X31299Y41339
X31890
X32480
X33071
X33661
X34094Y41289
X34685
X35276
X35069Y41890
X34478
X33888
X33366Y41929
X32776
X32185
X31594
X31299Y42520
X31890
X32480
X33071
X33661
X34183Y42480
X34774
X35364
X35138Y43110
X34547
X33957
X33366
X32776
X32185
X31594
X31299Y43701
X31890
X32480
X33071
X33661
X34252
X34843
X34575Y44185
X34124Y44941
X33169
X32441Y44961
X31811Y44823
X31299Y44350
X33632Y45581
X33366Y37205
X33957
X34547
X35138
X34252Y36614
X33661
X33071
X32480
X31890
X31299
X31594Y37205
X32185
X32776
X32185Y36024
X31594
X31299Y35433
X31304Y34990
X31585
X31865
X32146
Y34685
X31865
X31585
X31304
X31890Y35433
X32677Y34976
X32677Y34675
X33317Y34695
X33317Y34995
X33907
X33907Y34695
X34518Y34675
X34508Y34980
X35118Y34986
X35118Y34685
Y32904
X35118Y32511
X34508Y32510
Y32884
X33898Y32874
X33898Y32545
X33278Y32539
X33287Y32894
X32677Y32820
X32677Y32520
X32156Y32530
X31875
X31594
X31314
Y32835
X31594
X31875
X32156
X32628Y31949
X34803Y32028
X33648Y47352
X33309
X32970
X32631
X32292
X31953
X31613
X31274
X30935
X28577
X28233
X27889
X27545
X27202
X26858
X26514
X26170
X25827
X25483
X25139
X24796
X24452
X24108
X23764
X23421
X23077
X22733
X22389
X22046
X21702
X21358
X21147Y48396
X21137Y48730
X21127Y49104
X21118Y49439
X20666
X20676Y49104
X20686Y48730
X20696Y48396
X20244
X20234Y48730
X20224Y49104
X20215Y49439
X19763
X19773Y49104
X19783Y48730
X19792Y48396
X19341
X19331Y48730
X19321Y49104
X19311Y49439
X18860
X18870Y49104
X18879Y48730
X18889Y48396
X18438
X18428Y48730
X18418Y49104
X18408Y49439
X17957
X17967Y49104
X17976Y48730
X17986Y48396
X17535
X17525Y48730
X17515Y49104
X17505Y49439
X17054
X17063Y49104
X17073Y48730
X17083Y48396
X16631
X16622Y48730
X16612Y49104
X16602Y49439
X16150
X16160Y49104
X16170Y48730
X16180Y48396
X15728
X15718Y48730
X15709Y49104
X15699Y49439
X15824Y50020
X15815Y50354
X16266
X16276Y50020
X16728
X16718Y50354
X16678Y47352
X17017
X17356
X17695
X18034
X18374
X18713
X19052
X16339
X21599Y48396
X21589Y48730
X21579Y49104
X21569Y49439
X22021
X22031Y49104
X22040Y48730
X22050Y48396
X22502
X22492Y48730
X22482Y49104
X22472Y49439
X22924
X22934Y49104
X22944Y48730
X22953Y48396
X23405
X23395Y48730
X23385Y49104
X23375Y49439
X23827
X23837Y49104
X23847Y48730
X23857Y48396
X24308
X24298Y48730
X24288Y49104
X24279Y49439
X24730
X24740Y49104
X24750Y48730
X24760Y48396
X25211
X25201Y48730
X25192Y49104
X25182Y49439
X25633
X25643Y49104
X25653Y48730
X25663Y48396
X26114
X26105Y48730
X26095Y49104
X26085Y49439
X26536
X26546Y49104
X26556Y48730
X26566Y48396
X27018
X27008Y48730
X26998Y49104
X26988Y49439
X27392Y49449
X27402Y49114
X27411Y48740
X27421Y48406
X27873
X27863Y48740
X27853Y49114
X27843Y49449
X27857Y49872
X27867Y50236
X27867Y50591
X28318
X28318Y50236
X28308Y49872
X28295Y49449
X28305Y49114
X28315Y48740
X28324Y48406
X28776
X28766Y48740
X28756Y49114
X28746Y49449
X28760Y49872
X28770Y50236
X28770Y50591
X27415
X27415Y50236
X27405Y49872
X26954
X26963Y50236
X26963Y50591
X26512
X26512Y50236
X26502Y49872
X26050
X26060Y50236
X26060Y50591
X25609
X25609Y50236
X25599Y49872
X25147
X25157Y50236
X25157Y50591
X24706
X24706Y50236
X24696Y49872
X24244
X24254Y50236
X24254Y50591
X23802
X23802Y50236
X23793Y49872
X23341
X23351Y50236
X23351Y50591
X22899
X22899Y50236
X22889Y49872
X22438
X22448Y50236
X22448Y50591
X21996
X21996Y50236
X21986Y49872
X21535
X21545Y50236
X21545Y50591
X21093
X21093Y50236
X21083Y49872
X20632
X20641Y50236
X20641Y50591
X15363Y50354
X15373Y50020
X14921
X14911Y50354
X15039Y49464
X14705Y49454
Y49002
X15039Y49012
Y48561
X14705Y48551
X14705Y48099
X15039Y48109
Y47657
X14705Y47648
T02
X31555Y29587
X32343
X33130
Y30374
X32343
X31555
X33917Y30374
Y29587
X30768Y29587
X29980
Y30374
X29193
Y29587
X28406
X28406Y30374
X27618
X26831
Y29587
X27618
X26043
Y30374
X25256
X25256Y29587
X24469Y29587
Y30374
X23681Y30374
X22894
Y29587
X22106
Y30374
X21319
X20531
X19744
Y29587
X20531Y29587
X21319
X18957Y29587
X18169Y29587
Y30374
X18957
X17382
X17382Y29587
X23681
X30768Y30374
T03
X26240Y28484
X27240
X15945Y39008
Y40008
Y41008
Y42008
T04
X32124Y50295
X33124
X31124
X19626
X18626
X17626
T05
X11197Y28707
X13508
Y31018
X11197
X11236Y32880
Y35191
X13547
Y32880
X13547Y43657
Y45968
X11236
Y43657
X11252Y47697
Y50008
X13563
Y47697
T06
X12352Y29862
X12392Y34035
X12392Y44813
X12407Y48852
M30
