G04*
G04 #@! TF.GenerationSoftware,Altium Limited,Altium Designer,22.5.1 (42)*
G04*
G04 Layer_Physical_Order=1*
G04 Layer_Color=255*
%FSLAX25Y25*%
%MOIN*%
G70*
G04*
G04 #@! TF.SameCoordinates,0E08A9CD-1673-432B-A1B8-7BA81B99EC4F*
G04*
G04*
G04 #@! TF.FilePolarity,Positive*
G04*
G01*
G75*
%ADD13R,0.07087X0.12402*%
%ADD14C,0.03937*%
G36*
X516217Y296260D02*
X353566D01*
Y309744D01*
Y311000D01*
X516217D01*
Y296260D01*
D02*
G37*
G36*
Y279452D02*
X353566D01*
Y292028D01*
X516217D01*
Y279452D01*
D02*
G37*
D13*
X503150Y305118D02*
D03*
Y285039D02*
D03*
X475787Y305118D02*
D03*
Y285039D02*
D03*
X448524D02*
D03*
Y305118D02*
D03*
X421260Y285039D02*
D03*
Y305118D02*
D03*
X393980Y284988D02*
D03*
Y305067D02*
D03*
X366535Y285039D02*
D03*
Y305118D02*
D03*
D14*
X465569Y302362D02*
D03*
X472387D02*
D03*
X479205D02*
D03*
X486024D02*
D03*
Y307776D02*
D03*
X479205D02*
D03*
X472387D02*
D03*
X465569D02*
D03*
X438207Y302658D02*
D03*
X445025D02*
D03*
X451843D02*
D03*
X458661D02*
D03*
Y308071D02*
D03*
X451843D02*
D03*
X445025D02*
D03*
X438207D02*
D03*
X438287Y287992D02*
D03*
X445106D02*
D03*
X451924D02*
D03*
X458742D02*
D03*
X465560D02*
D03*
X472378D02*
D03*
X479197D02*
D03*
Y282579D02*
D03*
X472378D02*
D03*
X465560D02*
D03*
X458742D02*
D03*
X451924D02*
D03*
X445106D02*
D03*
X438287D02*
D03*
X383867Y308366D02*
D03*
X390685D02*
D03*
X397503D02*
D03*
X404322D02*
D03*
X411140D02*
D03*
X417958D02*
D03*
X424776D02*
D03*
X431496D02*
D03*
Y302953D02*
D03*
X424776D02*
D03*
X417958D02*
D03*
X411140D02*
D03*
X404322D02*
D03*
X397503D02*
D03*
X390685D02*
D03*
X383867D02*
D03*
X356693Y282677D02*
D03*
X363511D02*
D03*
X370329D02*
D03*
X377147D02*
D03*
X383966D02*
D03*
X390784D02*
D03*
X397602D02*
D03*
X404420D02*
D03*
X411238D02*
D03*
X418056D02*
D03*
X424875D02*
D03*
X431693D02*
D03*
Y288090D02*
D03*
X424875D02*
D03*
X418056D02*
D03*
X411238D02*
D03*
X404420D02*
D03*
X397602D02*
D03*
X390784D02*
D03*
X383966D02*
D03*
X377147D02*
D03*
X370329D02*
D03*
X363511D02*
D03*
X356693D02*
D03*
M02*
